<svg xmlns="http://www.w3.org/2000/svg" width="98.584" height="77.75" viewBox="0 0 98.584 77.75">
  <g id="Group_1140" data-name="Group 1140" transform="translate(0 -355.873)">
    <path id="Path_3237" data-name="Path 3237" d="M275.269,81.375h0a.35.35,0,0,0-.005-.045c-.018-.195-.042-.388-.074-.577l-.007-.034c-.032-.193-.072-.386-.117-.576l-.005-.025c-.047-.188-.1-.374-.159-.558l-.02-.06c-.058-.177-.121-.352-.191-.523l-.029-.074c-.07-.17-.144-.334-.224-.5l-.038-.076c-.081-.162-.168-.323-.258-.478-.014-.023-.029-.047-.042-.07-.094-.159-.193-.314-.3-.464l-.038-.056c-.108-.155-.22-.307-.337-.455l-.023-.027c-.123-.153-.249-.3-.383-.448l0-.005c-.132-.143-.269-.28-.411-.415l-.036-.034c-.135-.128-.276-.251-.42-.368l-.058-.049c-.141-.114-.287-.224-.437-.33l-.069-.049c-.15-.1-.3-.2-.458-.3-.023-.016-.049-.031-.074-.045-.157-.092-.318-.182-.482-.265l-.069-.032c-.17-.085-.341-.164-.518-.236a.359.359,0,0,0-.047-.018c-.184-.076-.372-.146-.561-.208l0,0-.027-.049c-.065-.132-.134-.26-.206-.388-.038-.065-.078-.128-.115-.191s-.094-.153-.143-.229-.1-.144-.146-.215-.087-.121-.132-.182-.114-.152-.171-.226c-.034-.043-.072-.085-.107-.126-.137-.166-.28-.325-.429-.478-.027-.025-.051-.052-.078-.079-.074-.074-.15-.144-.227-.215-.045-.041-.088-.083-.134-.123-.074-.065-.15-.128-.226-.191-.056-.045-.112-.088-.168-.132s-.141-.11-.213-.162c-.1-.074-.208-.144-.312-.213-.029-.02-.056-.04-.085-.058a6.674,6.674,0,0,1,5.745-3.272c.146,0,.3.007.5.022a1.624,1.624,0,0,0,1.617-.991,6.351,6.351,0,0,1,12.187,1.956A1.621,1.621,0,0,0,288,69.929a6.356,6.356,0,0,1,5.471,4.168,1.626,1.626,0,0,0,1.186,1.034,7,7,0,0,1,5.469,6.243Zm-36.248,0a7.215,7.215,0,0,1,4.482-4.221,1.621,1.621,0,0,0,1.122-1.5,5.075,5.075,0,0,1,5.1-4.95c.112,0,.233.005.383.016a1.624,1.624,0,0,0,1.617-.991,4.837,4.837,0,0,1,9.282,1.491,1.621,1.621,0,0,0,1.492,1.492,4.807,4.807,0,0,1,1.278.28l0,0c.076.027.15.058.224.088l.047.02c.07.031.137.061.2.094l.069.034c.092.049.182.1.272.152.047.029.1.058.144.088l.1.07c.054.038.106.074.159.112.029.023.06.045.087.067.063.049.126.1.186.152l.051.043a4.9,4.9,0,0,1,.451.457l.038.045c.06.07.115.141.171.215l.032.042a4.823,4.823,0,0,1,.343.543c.014.023.027.051.042.076.036.069.07.141.1.213l.038.085c.042.094.081.189.115.285l0,.011a1.626,1.626,0,0,0,1.186,1.034c.146.032.287.07.428.114.045.013.09.031.135.045.094.032.186.063.276.1.052.022.1.045.155.069.081.034.162.07.24.11.054.025.1.054.157.083q.114.06.222.125c.051.032.1.063.152.1.07.045.139.092.208.141.049.036.1.07.143.106.067.052.132.106.2.161.043.038.088.074.13.114.067.06.13.123.193.186.038.036.076.072.112.112.07.074.137.153.2.233.025.029.051.056.076.087.088.11.171.224.253.341l.047.076c.061.094.121.188.177.285.025.043.047.09.072.135.041.079.085.161.125.244.023.051.045.1.067.155.034.079.069.159.1.24.02.054.04.11.058.168.027.079.052.161.076.242.018.058.032.115.047.175.022.081.04.166.056.249.013.06.023.117.033.177.005.027.007.056.011.083Zm89.668,0H307.658V71.4a14.9,14.9,0,0,0,11.031-7.835A14.575,14.575,0,0,0,326.8,58.38,16.626,16.626,0,0,0,330.36,48.03a16.193,16.193,0,0,0-7.615-13.9c-.484-9.636-7.913-17.319-16.959-17.319a16.05,16.05,0,0,0-8.147,2.241,1.624,1.624,0,1,0,1.651,2.8,12.791,12.791,0,0,1,6.5-1.788c7.561,0,13.721,6.749,13.736,15.044a1.628,1.628,0,0,0,.891,1.447,12.812,12.812,0,0,1,6.7,11.482c0,6.2-4.2,11.576-9.775,12.494a1.624,1.624,0,0,0-1.2.9,11.815,11.815,0,0,1-8.481,6.693V53.741l7.994-7.35a1.624,1.624,0,1,0-2.2-2.391l-5.8,5.329V38.486a1.624,1.624,0,1,0-3.248,0V58.144l-5.794-5.329a1.625,1.625,0,0,0-2.2,2.393l7.994,7.35v5.632a11.752,11.752,0,0,1-9.021-6.862,1.621,1.621,0,0,0-1.13-.893c-5.39-1.146-9.3-6.363-9.3-12.4a12.792,12.792,0,0,1,6.271-11.253,1.626,1.626,0,0,0,.826-1.436c0-.045,0-.088,0-.134l0-.078a15.876,15.876,0,0,1,2.889-9.244,1.624,1.624,0,1,0-2.651-1.878,19.055,19.055,0,0,0-3.474,10.437,16.133,16.133,0,0,0-7.1,13.586c0,7.279,4.621,13.62,11.1,15.392a14.85,14.85,0,0,0,11.6,8.039v9.914h-1.029a10.279,10.279,0,0,0-7.191-9.2,9.621,9.621,0,0,0-6.635-5.294,9.6,9.6,0,0,0-17.731-2.676,9.922,9.922,0,0,0-8.039,4.659,8.139,8.139,0,0,0-7.027-5.323V59.273a14.333,14.333,0,0,0,10.536-7.5,14.021,14.021,0,0,0,7.775-4.986,15.983,15.983,0,0,0,3.421-9.952,15.575,15.575,0,0,0-7.29-13.351c-.484-9.244-7.619-16.61-16.305-16.61a15.432,15.432,0,0,0-9.268,3.109,1.624,1.624,0,1,0,1.94,2.606,12.2,12.2,0,0,1,7.328-2.467c7.2,0,13.068,6.431,13.083,14.337a1.622,1.622,0,0,0,.89,1.445,12.2,12.2,0,0,1,6.375,10.932c0,5.906-4,11.02-9.3,11.893a1.628,1.628,0,0,0-1.2.9,11.258,11.258,0,0,1-7.987,6.355V42.333l7.631-7.016a1.624,1.624,0,1,0-2.2-2.391l-5.431,4.995V27.7a1.624,1.624,0,1,0-3.248,0V46.362l-5.433-5a1.624,1.624,0,0,0-2.2,2.391l7.629,7.018v5.284a11.2,11.2,0,0,1-8.5-6.521,1.621,1.621,0,0,0-1.131-.893c-5.128-1.092-8.851-6.056-8.851-11.809a12.18,12.18,0,0,1,5.967-10.713,1.622,1.622,0,0,0,.828-1.435c0-.043,0-.087,0-.132l0-.07a15.444,15.444,0,0,1,1.1-5.774,14.868,14.868,0,0,1,.743-1.581,1.624,1.624,0,1,0-2.853-1.554,18.45,18.45,0,0,0-2.227,8.214,15.516,15.516,0,0,0-6.8,13.045c0,6.989,4.432,13.079,10.648,14.795a14.284,14.284,0,0,0,11.087,7.7v4.647a8.056,8.056,0,0,0-4.278,3.5,8.3,8.3,0,0,0-7.748,6.98,10.467,10.467,0,0,0-5.87,6.92H233.4a1.624,1.624,0,0,0,0,3.248h95.289a1.624,1.624,0,0,0,0-3.248" transform="translate(-231.776 349)" fill="#c6e300"/>
  </g>
</svg>
