<svg xmlns="http://www.w3.org/2000/svg" width="128.925" height="128.925" viewBox="0 0 128.925 128.925"><g transform="translate(0 0)" opacity="0.6"><path d="M64.462,128.925a64.463,64.463,0,1,1,64.462-64.463,64.536,64.536,0,0,1-64.462,64.463m0-125.819a61.356,61.356,0,1,0,61.356,61.356A61.426,61.426,0,0,0,64.462,3.106" transform="translate(0 0)" fill="#003b4e"/><rect width="6.604" height="2.201" transform="translate(61.113 36.946)" fill="#003b4e"/><path d="M26.756,38.955a2.2,2.2,0,1,1-2.2,2.2,2.207,2.207,0,0,1,2.2-2.2m15.41-15.41a1.041,1.041,0,0,1,1.1-1.1H60.877a1.04,1.04,0,0,1,1.1,1.1v6.6a1.039,1.039,0,0,1-1.1,1.1H43.266a1.04,1.04,0,0,1-1.1-1.1ZM79.59,41.156a2.2,2.2,0,1,1-2.2-2.2,2.209,2.209,0,0,1,2.2,2.2m-2.2,18.713a1.04,1.04,0,0,1-1.1-1.1V45.449a3.743,3.743,0,0,0,2.2,0V58.768a1.04,1.04,0,0,1-1.1,1.1m-3.852-20.8-9.357-9.357V26.187L75.3,37.3a4.529,4.529,0,0,0-1.761,1.761m-11.447-.66a4.519,4.519,0,0,0-1.761,1.761l-6.715-6.715h3.523Zm4.293,3.852a2.2,2.2,0,1,1-2.2-2.2,2.207,2.207,0,0,1,2.2,2.2m-2.2,14.31a2.2,2.2,0,1,1,2.2-2.2,2.208,2.208,0,0,1-2.2,2.2m-4.733,4.292a1.062,1.062,0,0,1-1.541,0l-.221-.219a1.065,1.065,0,0,1,0-1.541l2.642-2.642a4.529,4.529,0,0,0,1.761,1.761Zm4.733-10.9c-.329,0-.77.11-1.1.11V46.44a3.743,3.743,0,0,0,2.2,0v3.633c-.329,0-.77-.11-1.1-.11m-4.4-7.156a4.094,4.094,0,0,0,1.1,2.421v6.385a4.89,4.89,0,0,0-1.1,2.422l-2.2,2.2V40.5ZM43.816,40.166a4.508,4.508,0,0,0-1.761-1.761l4.953-4.953h3.523Zm-4.953,21.9V58.658a3.748,3.748,0,0,0,2.2,0V62.07a1.1,1.1,0,1,1-2.2,0m1.1-12.108c-.331,0-.77.11-1.1.11V46.44a3.748,3.748,0,0,0,2.2,0v3.633c-.331,0-.77-.11-1.1-.11m0,6.6a2.2,2.2,0,1,1,2.2-2.2,2.207,2.207,0,0,1-2.2,2.2m0-16.511a2.2,2.2,0,1,1-2.2,2.2,2.208,2.208,0,0,1,2.2-2.2m0-10.348-9.357,9.357A4.508,4.508,0,0,0,28.846,37.3L39.964,26.187ZM26.756,59.869a1.041,1.041,0,0,1-1.1-1.1V45.449c.331,0,.77.11,1.1.11s.77-.11,1.1-.11V58.768a1.041,1.041,0,0,1-1.1,1.1M65.28,75.279v3.3H38.863v-3.3a1.041,1.041,0,0,1,1.1-1.1H64.179a1.04,1.04,0,0,1,1.1,1.1m11.008,6.6v2.2H27.857v-2.2a1.04,1.04,0,0,1,1.1-1.1H75.187a1.041,1.041,0,0,1,1.1,1.1M23.453,58.768a3.206,3.206,0,0,0,2.2,3.082v7.926h2.2V61.85a3.206,3.206,0,0,0,2.2-3.082V44.018a4.892,4.892,0,0,0,1.1-2.421l9.576-9.576a3.141,3.141,0,0,0,2.642,1.32h.66l-4.4,4.4a4.282,4.282,0,0,0-3.852,4.843,4.087,4.087,0,0,0,1.1,2.421v6.384a4.35,4.35,0,0,0,0,5.724V62.07a2.9,2.9,0,0,0,.77,2.091l-2.092,1.872v3.743h2.2V66.913l1.651-1.651a2.254,2.254,0,0,0,1.21,0l1.651,1.651v2.863h2.2V66.032l-1.87-1.872a3.477,3.477,0,0,0,.77-2.091V57.227a4.353,4.353,0,0,0,0-5.724V45.12a4.888,4.888,0,0,0,1.1-2.421l2.2-2.2V71.977h-6.6a3.243,3.243,0,0,0-3.3,3.3v3.3H29.067a3.243,3.243,0,0,0-3.3,3.3v4.4H78.6v-4.4a3.243,3.243,0,0,0-3.3-3.3H67.592v-3.3a3.243,3.243,0,0,0-3.3-3.3h-6.6v-2.2h-2.2v2.2h-6.6V38.295l3.3-3.3,3.3,3.3V58.768a3.908,3.908,0,0,0-.221,1.1H52.842L50.31,62.4l1.541,1.541,1.872-1.872h2.422l.11.11.221.221.11.109v2.423L54.714,66.8l1.541,1.541,2.532-2.532V63.39A3,3,0,0,0,61.1,62.4l3.633-3.633a4.283,4.283,0,0,0,3.852-4.843,4.087,4.087,0,0,0-1.1-2.422V45.12a4.362,4.362,0,0,0-.329-6.165,4.892,4.892,0,0,0-2.421-1.1l-4.4-4.4h.55a3.283,3.283,0,0,0,2.642-1.322L73.1,41.707a4.085,4.085,0,0,0,1.1,2.421V58.768a3.205,3.205,0,0,0,2.2,3.082v7.926h2.2V61.85a3.206,3.206,0,0,0,2.2-3.082V44.018a4.362,4.362,0,0,0-.329-6.165,4.9,4.9,0,0,0-2.421-1.1L64.179,23a3.414,3.414,0,0,0-3.3-2.752H43.266A3.415,3.415,0,0,0,39.964,23L26.206,36.754A4.285,4.285,0,0,0,22.352,41.6a4.1,4.1,0,0,0,1.1,2.421Z" transform="translate(12.344 11.199)" fill="#003b4e"/></g></svg>