<svg xmlns="http://www.w3.org/2000/svg" width="80" height="80.001" viewBox="0 0 80 80.001">
  <g id="Group_1122" data-name="Group 1122" transform="translate(0 -15759.999)">
    <rect id="Rectangle_722" data-name="Rectangle 722" width="80" height="80" transform="translate(0 15760)" fill="none"/>
    <g id="Group_1122-2" data-name="Group 1122" transform="translate(17 15759.999)">
      <path id="Path_5641" data-name="Path 5641" d="M245.287,48.8V45.779a17.778,17.778,0,1,0-35.556,0V48.8A23.238,23.238,0,0,0,204.4,63.557V84.89a23.111,23.111,0,1,0,46.222,0V63.557A23.238,23.238,0,0,0,245.287,48.8Zm-32-3.022a14.223,14.223,0,1,1,28.445,0V52.89A7.132,7.132,0,0,1,234.621,60H233.11a6.537,6.537,0,0,0,.623-2.667,6.222,6.222,0,1,0-12.444,0A5.368,5.368,0,0,0,221.911,60H220.4a7.132,7.132,0,0,1-7.111-7.111Zm16.889,11.556a2.667,2.667,0,1,1-5.334,0,2.667,2.667,0,1,1,5.334,0Zm-20,36.622a19.268,19.268,0,0,1-2.222-9.067V63.557A18.99,18.99,0,0,1,209.2,56.8l16,19.2Zm17.333,10.489a19.567,19.567,0,0,1-15.289-7.378L227.51,78.757,242.8,97.068A19.567,19.567,0,0,1,227.51,104.446Zm19.556-19.556a19.271,19.271,0,0,1-2.222,9.067L219.421,63.468c.355,0,.623.089.978.089h14.223a10.762,10.762,0,0,0,10.489-8.622,19.808,19.808,0,0,1,1.956,8.622ZM232.843,47.557V45.779a1.778,1.778,0,1,1,3.555,0v1.778a1.778,1.778,0,0,1-3.555,0Zm-14.223,0V45.779a1.778,1.778,0,1,1,3.555,0v1.778a1.778,1.778,0,1,1-3.555,0Z" transform="translate(-204.398 -28.001)" fill="#e2fe0a"/>
    </g>
  </g>
</svg>
