<svg xmlns="http://www.w3.org/2000/svg" xmlns:xlink="http://www.w3.org/1999/xlink" width="40.001" height="40" viewBox="0 0 40.001 40"><defs><linearGradient id="a" x1="0.141" y1="0.5" x2="1.072" y2="0.185" gradientUnits="objectBoundingBox"><stop offset="0" stop-color="#003b4e"/><stop offset="1" stop-color="#7bdce0"/></linearGradient></defs><path d="M-8321-2340a19.886,19.886,0,0,1-7.785-1.572,19.921,19.921,0,0,1-6.357-4.286,19.932,19.932,0,0,1-4.287-6.357A19.872,19.872,0,0,1-8341-2360a19.874,19.874,0,0,1,1.571-7.785,19.933,19.933,0,0,1,4.287-6.357,19.918,19.918,0,0,1,6.357-4.287A19.882,19.882,0,0,1-8321-2380a19.875,19.875,0,0,1,7.785,1.572,19.943,19.943,0,0,1,6.357,4.287,19.933,19.933,0,0,1,4.285,6.357A19.874,19.874,0,0,1-8301-2360a19.873,19.873,0,0,1-1.572,7.785,19.935,19.935,0,0,1-4.285,6.357,19.952,19.952,0,0,1-6.357,4.286A19.879,19.879,0,0,1-8321-2340Zm0-30.5a10.512,10.512,0,0,0-10.5,10.5,10.512,10.512,0,0,0,10.5,10.5,10.512,10.512,0,0,0,10.5-10.5A10.512,10.512,0,0,0-8321-2370.5Z" transform="translate(8341.001 2380.001)" fill="url(#a)"/></svg>