<svg xmlns="http://www.w3.org/2000/svg" width="60.92" height="92.656" viewBox="0 0 60.92 92.656">
  <g id="Group_1138" data-name="Group 1138" transform="translate(0 -566.721)">
    <path id="Path_3274" data-name="Path 3274" d="M544.883,295.18v-7.629a6.6,6.6,0,0,0,.952-2.331,4.566,4.566,0,0,1,.359-1.082,4.641,4.641,0,0,1,.918-.674,5.085,5.085,0,0,0,2.437-2.588,5.236,5.236,0,0,0-.38-3.534,2.347,2.347,0,0,1,0-2.479,5.234,5.234,0,0,0,.38-3.534,5.1,5.1,0,0,0-2.437-2.588,4.724,4.724,0,0,1-.918-.672,4.586,4.586,0,0,1-.359-1.084,5.066,5.066,0,0,0-1.691-3.075,4.294,4.294,0,0,0-2.592-.721c-.293,0-.575.015-.848.028-.238.013-.466.025-.668.025a1.794,1.794,0,0,1-.511-.047,4.827,4.827,0,0,1-.961-.674,4.4,4.4,0,0,0-6.666,0,4.965,4.965,0,0,1-.961.674,1.807,1.807,0,0,1-.511.047c-.2,0-.431-.011-.67-.025-.272-.013-.554-.028-.848-.028a4.289,4.289,0,0,0-2.59.721,5.047,5.047,0,0,0-1.691,3.075,1.87,1.87,0,0,1-1.279,1.756,5.115,5.115,0,0,0-2.437,2.588,5.222,5.222,0,0,0,.382,3.534,2.358,2.358,0,0,1,0,2.479,5.229,5.229,0,0,0-.382,3.536,5.1,5.1,0,0,0,2.437,2.586,1.875,1.875,0,0,1,1.279,1.756,6.564,6.564,0,0,0,.952,2.331v7.629h-25.4V221.34H537.51v14.565a1.808,1.808,0,0,0,1.807,1.811h14.548V295.18Zm-3.616,10.115-5.076-3.188a1.808,1.808,0,0,0-1.922,0l-5.076,3.188V289.01c.193-.006.38-.013.564-.023.238-.011.465-.023.67-.023a1.734,1.734,0,0,1,.511.047,4.884,4.884,0,0,1,.961.674,4.4,4.4,0,0,0,6.664,0,4.886,4.886,0,0,1,.961-.674,1.823,1.823,0,0,1,.511-.047c.2,0,.431.011.67.023.183.01.371.017.564.023Zm-16.582-31.679a5.6,5.6,0,0,1-.339-1.141,5.388,5.388,0,0,1,.931-.675,5.161,5.161,0,0,0,2.848-3.909,5.8,5.8,0,0,1,.337-1.048,2.066,2.066,0,0,1,.447-.034c.2,0,.428.011.666.025.272.013.556.026.852.026a5.117,5.117,0,0,0,1.652-.233,6.829,6.829,0,0,0,2.087-1.287,4.6,4.6,0,0,1,1.058-.727,4.34,4.34,0,0,1,1.075.727,6.8,6.8,0,0,0,2.085,1.287,5.12,5.12,0,0,0,1.654.233c.293,0,.577-.013.85-.026.24-.013.465-.025.666-.025a2.088,2.088,0,0,1,.448.034,5.812,5.812,0,0,1,.335,1.048,5.16,5.16,0,0,0,2.848,3.909,5.488,5.488,0,0,1,.931.675,5.609,5.609,0,0,1-.339,1.141,5.678,5.678,0,0,0,0,4.972,5.644,5.644,0,0,1,.339,1.141,5.386,5.386,0,0,1-.931.675,5.169,5.169,0,0,0-2.848,3.909,5.836,5.836,0,0,1-.335,1.05,2.293,2.293,0,0,1-.448.032c-.2,0-.426-.011-.666-.023-.273-.013-.556-.028-.85-.028a5.12,5.12,0,0,0-1.654.233,6.832,6.832,0,0,0-2.085,1.287,1.145,1.145,0,0,1-2.132,0,6.866,6.866,0,0,0-2.087-1.287,5.117,5.117,0,0,0-1.652-.233c-.3,0-.579.015-.852.028-.238.011-.464.023-.666.023a2.286,2.286,0,0,1-.447-.032,5.827,5.827,0,0,1-.337-1.05,5.169,5.169,0,0,0-2.848-3.909,5.29,5.29,0,0,1-.929-.675,5.527,5.527,0,0,1,.337-1.141,5.678,5.678,0,0,0,0-4.972M541.123,223.9l10.185,10.2H541.123Zm16.353,11.945,0-.059a1.873,1.873,0,0,0-.03-.233,1.713,1.713,0,0,0-.062-.225c-.006-.019-.011-.038-.019-.057-.026-.07-.057-.138-.089-.2l-.006-.011a2.168,2.168,0,0,0-.125-.2c-.011-.017-.025-.032-.036-.047a1.813,1.813,0,0,0-.157-.184l-16.357-16.376a1.791,1.791,0,0,0-.182-.157l-.049-.036a1.809,1.809,0,0,0-.2-.125l-.015-.008a1.9,1.9,0,0,0-.2-.089l-.057-.019a1.8,1.8,0,0,0-.225-.062h0a1.842,1.842,0,0,0-.229-.028l-.06,0-.061,0H498.365a1.808,1.808,0,0,0-1.807,1.809v77.459a1.809,1.809,0,0,0,1.807,1.811h27.213v9.769a1.807,1.807,0,0,0,2.768,1.533l6.883-4.323,6.883,4.323a1.808,1.808,0,0,0,2.77-1.533V298.8h10.789a1.808,1.808,0,0,0,1.807-1.811V235.905l0-.061" transform="translate(-496.558 349)" fill="#c6e300"/>
    <path id="Path_3275" data-name="Path 3275" d="M503.033,229.994H526.32a1.81,1.81,0,0,0,0-3.619H503.033a1.81,1.81,0,0,0,0,3.619" transform="translate(-492.394 356.72)" fill="#c6e300"/>
    <path id="Path_3276" data-name="Path 3276" d="M542.878,231.2H503.033a1.81,1.81,0,0,0,0,3.62h39.845a1.81,1.81,0,0,0,0-3.62" transform="translate(-492.394 361.027)" fill="#c6e300"/>
    <path id="Path_3277" data-name="Path 3277" d="M535.648,236.032H503.033a1.81,1.81,0,0,0,0,3.62h32.615a1.81,1.81,0,0,0,0-3.62" transform="translate(-492.394 365.334)" fill="#c6e300"/>
    <path id="Path_3278" data-name="Path 3278" d="M524.092,236.032a1.81,1.81,0,1,0,1.807,1.809,1.812,1.812,0,0,0-1.807-1.809" transform="translate(-473.608 365.334)" fill="#c6e300"/>
  </g>
</svg>
