<svg xmlns="http://www.w3.org/2000/svg" width="80" height="79.996" viewBox="0 0 80 79.996">
  <g id="Group_1121" data-name="Group 1121" transform="translate(-10525.668 -18558.71)">
    <path id="Path_5638" data-name="Path 5638" d="M166.614,32.764h-14.46V31.349a1.561,1.561,0,0,0-.458-1.1l-7.562-7.562a1.561,1.561,0,0,0-1.1-.456H113.869a1.562,1.562,0,0,0-1.562,1.562v8.975h-13a7.089,7.089,0,0,0-7.081,7.081V83.973a7.089,7.089,0,0,0,7.081,7.081h21.943a26.947,26.947,0,0,1-.462,8.046h-8.8a1.562,1.562,0,1,0,0,3.124h40.481a1.562,1.562,0,0,0,0-3.124h-8.89a25.843,25.843,0,0,1-.549-8.046h22.117a7.089,7.089,0,0,0,7.081-7.081V38.381a5.625,5.625,0,0,0-5.616-5.618Zm-22.021-5.2,2.227,2.227h-2.227Zm-29.162-2.209H141.47v6a1.562,1.562,0,0,0,1.562,1.562h6V68.729h-33.6ZM99.313,35.89h12.994v34.4a1.562,1.562,0,0,0,1.562,1.562h36.723a1.562,1.562,0,0,0,1.562-1.562V35.89h14.46a2.494,2.494,0,0,1,2.491,2.492V76.953H95.355V39.845a3.96,3.96,0,0,1,3.956-3.956ZM140.393,99.1H123.974a30.26,30.26,0,0,0,.424-8.046h15.493a29.144,29.144,0,0,0,.5,8.046ZM165.149,87.93H99.313a3.961,3.961,0,0,1-3.956-3.956v-3.9h73.75v3.9a3.962,3.962,0,0,1-3.957,3.956Zm-21.9-24.122a1.562,1.562,0,0,1-1.562,1.562H122.775a1.562,1.562,0,1,1,0-3.124h18.914a1.562,1.562,0,0,1,1.562,1.561Zm0-11.505a1.562,1.562,0,0,1-1.562,1.562H122.775a1.562,1.562,0,1,1,0-3.124h18.914a1.562,1.562,0,0,1,1.562,1.562Zm0,5.753a1.562,1.562,0,0,1-1.562,1.562H122.775a1.562,1.562,0,1,1,0-3.124h18.914a1.56,1.56,0,0,1,1.562,1.561ZM124.944,42.831h2.814v2.814a1.562,1.562,0,0,0,1.562,1.562h5.821a1.562,1.562,0,0,0,1.562-1.562V42.831h2.815a1.562,1.562,0,0,0,1.562-1.562V35.448a1.562,1.562,0,0,0-1.562-1.562H136.7V31.071a1.562,1.562,0,0,0-1.562-1.562H129.32a1.562,1.562,0,0,0-1.562,1.562v2.814h-2.814a1.562,1.562,0,0,0-1.562,1.562v5.821A1.562,1.562,0,0,0,124.944,42.831Zm1.563-5.82h2.814a1.562,1.562,0,0,0,1.562-1.562V32.634h2.7v2.814a1.562,1.562,0,0,0,1.562,1.562h2.815v2.7H135.14a1.562,1.562,0,0,0-1.562,1.562v2.814h-2.7V41.268a1.562,1.562,0,0,0-1.562-1.562h-2.814Z" transform="translate(10433.438 18536.482)" fill="#e2fe0a"/>
  </g>
</svg>
