<svg xmlns="http://www.w3.org/2000/svg" xmlns:xlink="http://www.w3.org/1999/xlink" width="595.284" height="744.011" viewBox="0 0 595.284 744.011"><defs><clipPath id="a"><rect width="595.284" height="744.011" fill="none"/></clipPath><clipPath id="b"><path d="M139.345,562.019c-38.638,74.258-18.715,150.327-18.715,150.327H330.122c14.489-61.58-9.66-150.327-9.66-150.327Z" fill="none"/></clipPath><clipPath id="d"><path d="M50.561,458.055l66.731-72.4a13.618,13.618,0,0,1,22.419,4.95l30.431,83.181L156.3,513.44l-41.539,32.728c-49.72-59.791-64.2-88.113-64.2-88.113M204.576,109.764c-48.907,12.226-34.642,68.265-31.585,82.529s14.264,35.662,14.264,35.662l8.151,40.755-71.932,24.608a35.759,35.759,0,0,0-10.642,5.734c-41.1,32.5-90.92,111.253-109.066,141.216A26.018,26.018,0,0,0,0,453.685v.163a26.486,26.486,0,0,0,2.861,11.878c24.517,48.46,74.042,91.632,94.126,107.9a19.666,19.666,0,0,0,18.934,3.273l24.465-8.634c21.4,7.132,30.567,5.094,30.567,5.094s9.17,11.208,64.19,9.171,92.719-16.3,92.719-16.3l48.906-170.154S372.693,296.22,356.39,277.88s-94.756-19.359-94.756-19.359l6.113-46.869c7.133-1.019,13.246-17.321,13.246-17.321-6.113-1.018-4.076,2.038-8.152-22.415-3.641-21.852-16.24-64.044-53.777-64.049a59.619,59.619,0,0,0-14.488,1.9" fill="none"/></clipPath><clipPath id="f"><path d="M242.574,365.568c-64.947,14.666-82.756-86.946-82.756-86.946l-12.571,2.1s31.427,139.324,2.1,155.037l8.381,39.807s-13.618,7.332-8.381,12.57,3.143,20.951,3.143,20.951l-2.1,7.333,18.856-5.238s24.094,18.856,29.331,25.141-4.19,7.333-4.19,7.333,26.189,13.618,72.28,6.285a693.3,693.3,0,0,0,83.8-18.855l3.142-111.04s-30.379-63.9-46.092-161.323l-12.57-1.047s12.57,93.232-52.378,107.9" fill="none"/></clipPath><clipPath id="h"><path d="M383.942,252.132c-20.563,54.835,29.7,85.679,29.7,85.679L412.5,353.8S310.828,424.633,297.12,464.617s22.847,67.4,22.847,67.4c-6.853,75.4,18.279,183.925,18.279,183.925H595.284c0-54.835-63.974-122.236-63.974-122.236l1.143-20.563s8-15.994,13.708-39.983,6.855-97.1-1.143-125.664-42.268-69.686-52.55-76.54-9.138-37.7-9.138-37.7,15.993-9.14,12.566-30.845c-1.6-10.156-6.855-13.709-6.855-13.709s2.285-60.547-57.119-60.547-47.98,63.974-47.98,63.974" fill="none"/></clipPath><clipPath id="j"><path d="M514.191,348.3c-24.63-9.92-57.568,3.978-83.069,17.875-21.744,11.852-38.081,23.7-39.248,20.785C389.339,380.626,412.5,353.8,412.5,353.8s-14.923,8.442-64.357,46.468-55.771,64.01-56.4,84.291S311.386,532.1,311.386,532.1c1.9,4.436,3.169,7.6,3.169,7.6-2.536,16.478,3.8,46.266,3.8,46.266,75.418,8.872,138.8-7.606,138.8-7.606-13.942-34.223-17.111-98.867-17.111-98.867l115.344-41.829C543.978,367.951,519.9,344.5,519.9,344.5Z" fill="none"/></clipPath><clipPath id="l"><path d="M393.8,261.978S379.881,278.291,384.2,297s21.111,35.5,35.983,35.5,24.948-25.907,28.787-38.862-28.787-32.624-38.383-35.982a14.761,14.761,0,0,0-4.907-.85c-7.039,0-11.884,5.167-11.884,5.167" fill="none"/></clipPath></defs><g clip-path="url(#a)"><path d="M342.667,125.119c.168,1.444-.415,2.979-.289,4.417s-2.275,3.047-2.192,4.489,2.222,2.774,2.263,4.218-2.167,2.894-2.168,4.338-.157,2.828-.2,4.271,3.139,3.023,3.051,4.465-.444,2.9-.575,4.333-.977,2.82-1.151,4.254-2.107,2.608-2.325,4.037,3.423,3.517,3.163,4.938-3.286,2.323-3.589,3.736,1.617,3.361,1.27,4.765-2.074,2.479-2.463,3.871,1,3.356.572,4.736-1.03,2.777-1.5,4.143-2.39,2.253-2.9,3.6-2.672,2.039-3.228,3.374-1.364,2.518-1.961,3.835-.407,2.974-1.045,4.271-.824,2.818-1.5,4.1-3.121,1.546-3.839,2.8-1.461,2.422-2.218,3.654,1.111,4.116.316,5.324-.4,3.3-1.229,4.481-2.753,1.649-3.623,2.805-2.322,1.895-3.229,3.023-.265,3.608-1.207,4.706-2.038,2.171-3.016,3.238-3.8.443-4.812,1.478-2.41,1.667-3.455,2.668-3.179.763-4.256,1.73-2.156,1.819-3.265,2.75-1.017,3.271-2.157,4.165-2.337,1.683-3.506,2.538-.562,4.286-1.759,5.1-3.429.16-4.653.935-3.74-.6-4.99.132-2.383,1.559-3.658,2.248-2.76.835-4.058,1.48-2.516,1.287-3.836,1.888-2.669.938-4.009,1.493-2.762.655-4.121,1.163-2.436,1.547-3.812,2.008-1.611,4.5-3,4.91-3.862-3.131-5.267-2.767-1.646,5.547-3.064,5.863-3.519-2.593-4.947-2.326-2.451,2.988-3.888,3.205-3.215-2.046-4.659-1.878-2.765,1.542-4.2,1.66-3.082-3.241-4.524-3.172-2.771,2.569-4.215,2.588-2.867-1-4.311-1.03-2.881.407-4.323.326-2.915.36-4.354.229-3.072,1.274-4.506,1.093-2.967-.083-4.395-.314-2.4-3.114-3.815-3.394-3.158.947-4.567.618-2.875-.53-4.272-.907-3.214.522-4.6.1-1.442-4.917-2.811-5.388-4.045,2.677-5.4,2.159-2.06-2.71-3.394-3.273-1.7-3.211-3.016-3.818-3.307.307-4.6-.343-3.432.295-4.7-.4-3.135-.454-4.383-1.189-.843-4.218-2.067-4.993-3.939.7-5.137-.115-1.185-3.389-2.357-4.242-1.966-2.169-3.11-3.059-2.754-1.17-3.868-2.1-2.732-1.276-3.817-2.238-2.8-1.281-3.854-2.276-2.272-1.892-3.294-2.92-.026-4.013-1.016-5.072-4.105-.207-5.062-1.3,1.263-4.866.341-5.985-4.448-.132-5.335-1.279-.547-3.221-1.4-4.4-3.594-1.043-4.409-2.243.14-3.587-.638-4.812-1.671-2.366-2.411-3.614-.364-3.1-1.066-4.374-1.274-2.555-1.936-3.846-.1-3.111-.719-4.422-5.144-.813-5.727-2.142-1.517-2.561-2.06-3.907,1.182-3.583.68-4.946-2.329-2.258-2.79-3.635.661-3.253.241-4.644-1.775-2.5-2.152-3.9,1.847-3.424,1.511-4.837-2.646-2.338-2.941-3.761-.684-2.81-.936-4.241.811-3.039.6-4.478.677-2.95.508-4.394-2.6-2.614-2.722-4.052,1.255-2.974,1.171-4.416-1.007-2.825-1.048-4.268-1.427-2.88-1.425-4.324-.891-2.947-.846-4.39,3.088-2.763,3.176-4.2.4-2.831.531-4.27-1.8-3.09-1.629-4.524,1.707-2.687,1.925-4.116-2.427-3.364-2.166-4.785.044-3.019.347-4.432,2.238-2.513,2.584-3.916,3.922-1.942,4.311-3.335.3-2.866.727-4.246-1.915-3.669-1.441-5.035-.422-3.3.093-4.648,4.533-1.333,5.09-2.668-.717-3.466-.12-4.783-.053-3.283.585-4.581,4.328-1.061,5.007-2.338-.061-3.331.657-4.586,3.275-1.407,4.032-2.64-1.857-4.628-1.061-5.837,4.09-.755,4.923-1.937,1.309-2.618,2.179-3.774,1.821-2.247,2.728-3.375,1.01-2.942,1.952-4.04,3.14-1.089,4.118-2.157.735-3.3,1.747-4.331,2.661-1.452,3.706-2.454.736-3.52,1.813-4.486,3.435-.521,4.544-1.452,2.422-1.616,3.562-2.509,3.227-.489,4.4-1.344.21-4.736,1.408-5.552,4.091.922,5.316.148,2.545-1.317,3.795-2.049,1.112-3.943,2.387-4.633,3.783.98,5.081.334,1.375-3.885,2.694-4.485,4.071,2.1,5.411,1.542,2.514-1.377,3.873-1.885,2.533-1.4,3.909-1.862,2.989.009,4.381-.4,2.552-1.43,3.957-1.794,1.948-4.38,3.366-4.7,3.267,1.244,4.695.978,3.381,2.848,4.818,2.63,2.572-2.131,4.016-2.3,2.935.661,4.373.543,2.73-2.329,4.172-2.4,2.915.418,4.359.4,2.868,1.08,4.312,1.111S214.853-.079,216.3,0s2.606,3.988,4.045,4.119,3.191-2.714,4.625-2.533,2.832.833,4.259,1.064,2.573,2.018,3.991,2.3,3.439-2.149,4.847-1.82,2.277,2.907,3.674,3.284,3.532-1.7,4.915-1.278,2.574,1.632,3.942,2.1,1.361,4.661,2.713,5.179,4.59-3.666,5.924-3.1,1.411,4.041,2.725,4.649,3.772-1.112,5.066-.462.71,4.874,1.981,5.567,2.87.692,4.118,1.427,1.863,2.384,3.087,3.159,4.648-1.83,5.846-1.015.165,4.778,1.337,5.63,3.413.21,4.557,1.1,1.6,2.582,2.716,3.508,3.752.063,4.837,1.024,1.639,2.523,2.693,3.518,2.673,1.431,3.7,2.458,2.261,1.891,3.25,2.95,2.061,2.1,3.017,3.185,2.725,1.56,3.647,2.679-1.394,4.831-.507,5.978,5.188-.253,6.039.922.218,3.445,1.033,4.645-.046,3.485.732,4.709,1.483,2.441,2.223,3.689.355,3.065,1.056,4.335,2.26,2.007,2.922,3.3,3.827,1.334,4.449,2.645,1.259,2.651,1.842,3.98-2.446,4.149-1.9,5.5,4.343,1.4,4.845,2.764-.611,3.287-.15,4.664.168,2.949.588,4.339,1.75,2.48,2.128,3.882-1.153,3.233-.817,4.646,4.935,1.861,5.229,3.284-2.224,3.388-1.972,4.819-.9,3.029-.685,4.468,3.644,2.421,3.812,3.865" fill="#1d3f45"/><path d="M120.63,712.346s-19.923-76.069,18.715-150.326H320.462s24.149,88.746,9.66,150.326Z" fill="#3089a1"/></g><g clip-path="url(#b)"><path d="M231.3,737.061l5.79-72.971s5.792-35.906,67.18-56.755c0,0-47.489,0-71.813,41.7l-76.446-30.115L223.2,658.3l-34.748-2.317,28.957,10.424-5.793,77.6Z" fill="#3b5057"/></g><g clip-path="url(#a)"><path d="M356.39,277.88c-16.3-18.34-94.756-19.359-94.756-19.359l6.113-46.869c7.132-1.019,13.246-17.321,13.246-17.321-6.114-1.019-4.076,2.038-8.151-22.415s-19.359-74.379-68.266-62.153-34.642,68.266-31.585,82.53,14.264,35.662,14.264,35.662l8.151,40.755-71.932,24.608a35.791,35.791,0,0,0-10.642,5.733C71.73,331.556,21.913,410.3,3.765,440.268a26.23,26.23,0,0,0-.9,25.458c24.517,48.46,74.042,91.633,94.126,107.9a19.666,19.666,0,0,0,18.934,3.273l24.465-8.634c21.4,7.132,30.567,5.094,30.567,5.094s9.17,11.208,64.19,9.17,92.719-16.3,92.719-16.3l48.906-170.154S372.693,296.22,356.39,277.88M156.3,513.44l-41.539,32.728c-49.72-59.791-64.2-88.113-64.2-88.113l66.732-72.4a13.617,13.617,0,0,1,22.417,4.95l30.432,83.18Z" fill="#fff"/></g><g clip-path="url(#d)"><path d="M170.681,390.361s-33.141-27.377-72.045-21.614l8.645,8.646-56.72,80.663L25.15,445.115l83.572,106.627,41.668-35.327Z" fill="#f4ef99"/><path d="M349.062,411.587l-11.1-61.669a42.068,42.068,0,0,1,5.329-29.1l5.771-9.617-1.2,24.042a42.084,42.084,0,0,0,1.505,13.444l19.774,70.619Z" fill="#f4ef99"/><path d="M151.16,529.4l16.58-5.024s18.59,18.087,28.638,18.087h0a24.025,24.025,0,0,1-13.565-1.507c-6.532-3.015-16.078-10.551-16.078-10.551l-13.063,2.01Z" fill="#f4ef99"/><path d="M146.966,539.262s34.165,12.058,48.735,11.053a29.091,29.091,0,0,1-13.565,2.513c-7.536-.5-35.17-13.566-35.17-13.566" fill="#f4ef99"/><path d="M142.767,550.753s34.165,12.058,48.735,11.053a29.092,29.092,0,0,1-13.565,2.513c-7.537-.5-35.17-13.566-35.17-13.566" fill="#f4ef99"/></g><g clip-path="url(#a)"><path d="M147.247,280.717s31.426,139.324,2.1,155.037l8.38,39.806s-13.618,7.333-8.38,12.571,3.143,20.951,3.143,20.951l-2.1,7.333,18.855-5.238s24.094,18.856,29.332,25.141-4.19,7.333-4.19,7.333,26.189,13.618,72.28,6.285a693.418,693.418,0,0,0,83.8-18.856l3.142-111.039s-30.377-63.9-46.092-161.322l-12.57-1.048s12.57,93.232-52.377,107.9-82.756-86.946-82.756-86.946Z" fill="#36b5c8"/></g><g clip-path="url(#f)"><path d="M138.408,429.885l60.747,49.4-32.71-1.335s-14.018,7.343-7.343,15.354,4,31.375,4,31.375H131.732Z" fill="#3089a1"/><path d="M166.465,441.728s55.907,33.417,136.233,14.781h0s-19.338,16.776-73.9,14.137c-39.842-1.927-62.333-28.918-62.333-28.918" fill="#3089a1"/><path d="M305.9,482.107s-53.33,9.629-107.4,11.851l101.476-2.222-38.516,17.777,63.7-2.222Z" fill="#3089a1"/></g><g clip-path="url(#a)"><path d="M181.477,215.212s16.176,36.325,47.125,27.267c31.66-9.266,36.82-40.88,36.82-40.88l-3.788,56.921-1.859-6.956a3.951,3.951,0,0,0-7.567-.238c-3.184,10.107-9.717,21.132-23.087,21.74-13.187.6-21.94-9.887-27.263-19.911a3.293,3.293,0,0,0-6.186,1.677l.552,18.234Z" fill="#f4ef99"/><path d="M397.6,322.952s24.425,13.323,43.669,6.661,33.307-43.669,33.307-43.669,1.972,7.227,8.758,7.314l-5.8,4.529s-7.2,49.863-65.031,56.018l1.142-15.993Z" fill="#f4ef99"/><path d="M245.573,140.6s-25.911,2.253-26.475,19.715,7.323,26.475,7.323,26.475-6.759-22.532,2.817-32.671S245.573,140.6,245.573,140.6" fill="#f4ef99"/><path d="M389.075,247.783s.8-1.6,7.209-.267,13.884,4.539,11.748,14.685-6.141,23.5-6.141,23.5,2.4-25.633-.267-26.7-10.413-2.67-12.549-11.214" fill="#f4ef99"/><path d="M271.687,169.087s-19.96-1.446-30.373-1.157-21.7-.579-30.084,1.446-26.324,11.282-39.341,21.117l1.157,3.182,7.521-4.918s9.326,9,10.773,13.916,2.314,8.389,2.024,11.86a28.216,28.216,0,0,0,.686,7.542l-1.334,5.445L185.2,222.6s6.075,6.075,7.521,8.1,15.621,15.909,29.506,13.884,20.827-7.231,25.166-10.7a72.626,72.626,0,0,0,8.678-8.678l11.681-13.553s-4.16,1.693-5.317,1.983-3.76.578-3.76.578.578-4.917,0-6.942-2.314-4.339-3.182-6.943a33.866,33.866,0,0,1-1.157-6.653l1.446-5.207s3.182-9.546,4.628-10.992a42.421,42.421,0,0,0,4.05-6.075l8.1-.868Z" fill="#d6e7ec"/><path d="M184.874,185.945s18.715-10.514,28.809-13.458,46.684-.211,46.684-.211-30.912.421-45.632,4.416-29.861,9.253-29.861,9.253" fill="#fff"/><path d="M188.8,192.618s20.368-6.266,33.573-9.176,32.9-3.358,32.9-3.358l-23.5,7.387s21.935,1.118,21.263,1.118-12.31,2.911-14.772,3.8,10.072,3.358,10.072,3.358a156.2,156.2,0,0,0-27.978,3.357c-13.877,3.133-25.74,4.925-25.74,4.925s14.549-6.044,16.563-7.386-9.176.894-9.176.894l10.519-4.253Z" fill="#fff"/><path d="M200.44,213.882s19.473,6.938,33.8,2.462,19.025-7.162,19.025-7.162-13.429,11.638-14.1,12.086,15.892-5.148,15.892-5.148-3.358,7.386-17.458,15.892-19.473,10.743-27.531,8.953-15.891-12.087-15.891-12.087,10.967,5.6,17.682,5.148,24.4-7.834,24.4-7.834-5.148,4.924-19.921,3.358-18.8-5.148-18.8-5.148,15.22,2.686,23.278.447,10.52-4.029,10.52-4.029-15.892,1.567-23.278-.9-7.61-6.043-7.61-6.043" fill="#fff"/><path d="M483.33,293.258s-1.142,30.845,9.139,37.7,44.553,47.98,52.55,76.54,6.854,101.673,1.143,125.663-13.709,39.984-13.709,39.984l-1.143,20.563s63.974,67.4,63.974,122.236H338.246s-25.132-108.527-18.278-183.925c0,0-36.557-27.418-22.848-67.4S412.5,353.8,412.5,353.8l1.142-15.994s-50.265-30.844-29.7-85.679c0,0-11.424-63.974,47.98-63.974s57.12,60.547,57.12,60.547,5.251,3.553,6.854,13.708c3.427,21.706-12.566,30.845-12.566,30.845" fill="#fff"/></g><g clip-path="url(#h)"><path d="M483.33,293.258l-10.458-3.539s-19.428,52.5-66.55,41.335h0s1,3.594,7.322,6.757.118,1.51.118,1.51L412.5,353.8s26.061-.016,63.263-9.523h0s13.352-29.116,7.565-51.024" fill="#f4ef99"/><path d="M421.638,249.912s-9.224,2.05-10.59,8.54-.683,18.789-1.708,21.864-2.733,3.757-2.733,3.757a57.424,57.424,0,0,0,7.857-.683c4.441-.683,4.1-2.733,1.708-7.174s-4.441-13.664-2.05-18.447,7.516-7.857,7.516-7.857" fill="#f4ef99"/></g><g clip-path="url(#a)"><path d="M412.5,353.8s-23.162,26.821-20.627,33.159,76.686-57.039,122.317-38.66l5.7-3.8s24.083,23.45,35.491,93.164L440.04,479.494s3.169,64.644,17.112,98.867c0,0-63.377,16.478-138.8,7.6,0,0-6.338-29.787-3.8-46.265,0,0-1.267-3.168-3.168-7.6,0,0-20.281-27.252-19.647-47.532s6.971-46.265,56.4-84.291S412.5,353.8,412.5,353.8" fill="#3089a1"/></g><g clip-path="url(#j)"><path d="M391.026,484.737l49.014-5.244,29.8-3.115,1.194,88.363-80,14.329,53.734-19.1H418.49s-13.135-11.941,2.388-27.464,8.359-38.211,8.359-38.211l-26.27,14.329,15.523-20.3Z" fill="#3b5057"/><path d="M416.1,433.391,437.6,446.526l2.444,32.967-8.415,1.662V450.108Z" fill="#3b5057"/><path d="M324.157,537.278s32.241,16.717,89.557-19.105c0,0-19.1,23.881-46.57,29.852s-42.987-10.747-42.987-10.747" fill="#3b5057"/></g><g clip-path="url(#a)"><path d="M448.548,594.819s-58.563,18.716-126.785,14.49c0,0,3.382,56.3,16.482,106.634h67.438s26.564-97.578,42.865-121.124" fill="#3b5057"/><path d="M469.679,716.774s41.658-57.959,50.714-114.106c0,0,7.344.19,10.917-8.961,0,0,58.567,51.371,63.974,122.236Z" fill="#3b5057"/><path d="M409.629,210.709s24.317,0,40.934,20.67,35.665,21.48,35.665,21.48,2.837-2.837,6.08-1.216,6.079,17.833,4.053,25.128-9.041,16.357-13.032,16.487c0,0-.343,46.738-14.528,67.813,0,0,43.366-.406,61.6-10.538,0,0-21.075-89.163-29.181-115.1s-25.128-62.415-54.309-68.494-38.907,14.59-38.907,14.59-15,2.027-21.886,15.4-23.506,64.846-2.026,175.49L412.5,353.8l1.142-15.993s-50.931-30.477-29.7-85.679c0,0-1.872-40.207,25.688-41.423" fill="#1d3f45"/><path d="M456.348,578.361s-3.622,5.937-8.6,16.458c0,0-38.416,14.1-77.821,14.1l22.688-20.3Z" fill="#f4ef99"/><path d="M473.593,289.712l-28.508-3.765.179,2.151,27.791,3.048Z" fill="#d6e7ec"/><path d="M384.063,294.122l-2.816,3.2.68,2.427,2.719-3.495Z" fill="#d6e7ec"/><path d="M393.8,261.978S379.882,278.29,384.2,297s21.109,35.5,35.982,35.5,24.948-25.907,28.787-38.861-28.787-32.625-38.382-35.983-16.792,4.318-16.792,4.318" fill="#36b5c8"/></g><g clip-path="url(#l)"><path d="M388.456,263.2s14.355-8.415,28.214,7.425S437.955,333,416.175,333h0l31.68,8.91L481.019,283s-16.334-30.69-18.809-32.175-43.065-12.87-43.065-12.87Z" fill="#3089a1"/></g><g clip-path="url(#a)"><path d="M383.916,288.6l-5.579-9.5.151,3.167,5.428,9.2Z" fill="#d6e7ec"/><path d="M484.259,252.356l-41.792,30.02,1.765,1.766,42.676-32.375Z" fill="#d6e7ec"/></g></svg>