<svg xmlns="http://www.w3.org/2000/svg" width="62.285" height="87.846" viewBox="0 0 62.285 87.846">
  <g id="Group_1141" data-name="Group 1141" transform="translate(0 -19733.999)">
    <path id="Path_5642" data-name="Path 5642" d="M270.6,194.563a1.918,1.918,0,0,0,1.718,1.066h7.118V210.65a1.918,1.918,0,0,0,3.446,1.158l17.5-23.15a1.917,1.917,0,0,0-1.529-3.074H290.8l1.489-15.409a1.919,1.919,0,0,0-3.435-1.347L270.789,192.55a1.925,1.925,0,0,0-.191,2.014Zm17.231-18.053-1.044,10.8a1.915,1.915,0,0,0,1.909,2.1H295l-11.734,15.52V193.711a1.917,1.917,0,0,0-1.918-1.918h-5.165Z" transform="translate(-254.225 19589.707)" fill="#c6e300"/>
    <path id="Path_5643" data-name="Path 5643" d="M376.8,85.406c0-16.679-28.486-48.889-29.7-50.251a1.918,1.918,0,0,0-2.866,2.549c.289.323,28.73,32.466,28.73,47.7a27.331,27.331,0,0,1-22.4,26.841l5.63-5.936a1.918,1.918,0,0,0-2.782-2.64l-9.038,9.531a1.908,1.908,0,0,0-.366.46c-.013.022-.023.042-.036.065a1.949,1.949,0,0,0-.118.28c-.019.056-.038.112-.053.169a1.456,1.456,0,0,0-.025.157,1.883,1.883,0,0,0,0,.667,1.919,1.919,0,0,0,1.08,1.381l12.573,5.8a1.917,1.917,0,0,0,1.605-3.482l-6.412-2.955A31.172,31.172,0,0,0,376.8,85.407Z" transform="translate(-314.513 19699.49)" fill="#c6e300"/>
    <path id="Path_5644" data-name="Path 5644" d="M202.761,139.1a1.946,1.946,0,0,0,.489.063,1.917,1.917,0,0,0,.486-3.772A27.3,27.3,0,0,1,183.4,109c.012-10.158,12.8-27.981,20.99-38.352l.012,7.3a1.918,1.918,0,0,0,1.918,1.915h0a1.918,1.918,0,0,0,1.914-1.922l-.021-12.5a1.93,1.93,0,0,0-.05-.747.083.083,0,0,1,0-.013c-.014-.047-.033-.09-.05-.137a1.907,1.907,0,0,0-.651-.941,1.93,1.93,0,0,0-1.664-.328l-13.6,3.675a1.917,1.917,0,1,0,1,3.7l8.006-2.162c-9.371,11.873-21.624,29.5-21.639,40.507a31.139,31.139,0,0,0,23.195,30.1Z" transform="translate(-179.565 19675.898)" fill="#c6e300"/>
  </g>
</svg>
