<svg xmlns="http://www.w3.org/2000/svg" width="87.031" height="78.191" viewBox="0 0 87.031 78.191">
  <g id="Group_891" data-name="Group 891" transform="translate(-835.039 -462.726)">
    <path id="Path_3248" data-name="Path 3248" d="M500.64,141.542v-8.159H519v8.159a9.015,9.015,0,0,1-8.9,9.124q-.1,0-.192,0a9.2,9.2,0,0,1-9.26-9.124m0-15.638a3.4,3.4,0,0,1,3.4-3.4H515.6a3.4,3.4,0,0,1,3.4,3.4v4.759H500.64Zm20.4,30.943a1.361,1.361,0,1,0,1.53-2.251,22.548,22.548,0,0,0-6.412-3.018,11.834,11.834,0,0,0,5.562-10.036V125.9a6.119,6.119,0,0,0-6.119-6.119H504.039a6.118,6.118,0,0,0-6.119,6.119v15.638a11.794,11.794,0,0,0,5.575,9.987A22.542,22.542,0,0,0,487.041,173.5a1.36,1.36,0,0,0,2.72,0,20.016,20.016,0,0,1,31.276-16.652" transform="translate(348 353.14)" fill="#e2fe0a"/>
    <path id="Path_3249" data-name="Path 3249" d="M550.629,180.066a3.291,3.291,0,1,1-3.3-3.284h.007a3.291,3.291,0,0,1,3.291,3.284m-17.9-8.676-7.2-9.8a29.731,29.731,0,0,1,7.479-.946,28.734,28.734,0,0,1,6.962.864Zm-14-27.068V132.764h8.765c1.034,1.087,6.8,6.479,19.113,6.949v4.609a13.456,13.456,0,0,1-13.312,13.6h-.286c-7.875,0-14.28-6.121-14.28-13.6m0-22.437c0-2.9,2.863-5.439,6.121-5.439h16.318a5.378,5.378,0,0,1,5.439,5.316v8.282H518.727ZM546.6,136.993c-7.391-.306-12.164-2.528-14.775-4.229H546.6Zm-6.052,21.853a16.132,16.132,0,0,0,8.77-14.524V121.885a8.071,8.071,0,0,0-7.981-8.159H524.847c-4.76,0-8.839,3.74-8.839,8.159v22.437a16.268,16.268,0,0,0,9.273,14.531,32.691,32.691,0,0,0-24.912,31.706,1.359,1.359,0,0,0,2.719,0,29.915,29.915,0,0,1,16.434-26.694,29.258,29.258,0,0,0-.87,5.085,8.812,8.812,0,0,0-6.725,8.689v10.2a4.481,4.481,0,0,0,4.08,4.079,1.359,1.359,0,1,0,0-2.719,1.988,1.988,0,0,1-1.36-1.36v-10.2c0-3.318,2.488-6.119,5.439-6.119s5.441,2.8,5.441,6.119v10.2a1.994,1.994,0,0,1-1.36,1.36,1.359,1.359,0,1,0,0,2.719,4.481,4.481,0,0,0,4.079-4.079v-10.2a8.788,8.788,0,0,0-6.86-8.71,20.207,20.207,0,0,1,1.5-6.371l8.758,11.933a1.356,1.356,0,0,0,2.2,0l8.738-11.947c2.114,3.644,2.978,9.226,3.269,11.709a6,6,0,1,0,2.72-.062,43.419,43.419,0,0,0-2.365-10.307,30.018,30.018,0,0,1,16.039,26.674,1.359,1.359,0,0,0,2.719,0,32.567,32.567,0,0,0-24.408-31.712" transform="translate(357.109 349)" fill="#e2fe0a"/>
    <path id="Path_3250" data-name="Path 3250" d="M525.089,119.953h-2.04v-2.04a1.359,1.359,0,1,0-2.719,0v2.04h-2.04a1.36,1.36,0,0,0,0,2.72h2.04v2.039a1.359,1.359,0,1,0,2.719,0v-2.039h2.04a1.36,1.36,0,0,0,0-2.72" transform="translate(368.425 350.932)" fill="#e2fe0a"/>
  </g>
</svg>
