<svg id="Group_1099" data-name="Group 1099" xmlns="http://www.w3.org/2000/svg" width="73.878" height="80" viewBox="0 0 73.878 80">
  <path id="Path_5620" data-name="Path 5620" d="M98.847,30.741a4.428,4.428,0,0,0,4.375,4.375,4.31,4.31,0,0,0,4.125-3.125h6.25a22.287,22.287,0,0,0,21,21v3.625c-1.75-.75-3.75-.5-5.875-.375-1.625.125-4.5.5-4.75-.75a1.239,1.239,0,0,0-1.375-1,1.329,1.329,0,0,0-1.125,1.25v5.125c.625,3.25,4.5,3,7.375,2.75,3.25-.25,5.625-.5,5.625,1.875v3.625a2.358,2.358,0,0,1-1-.25c-4.625-2.125-9.375-2.125-13.125.125a3.612,3.612,0,0,0-3.5-2.875h-2.625a3.628,3.628,0,0,0-3.625,3.625V84.867a3.628,3.628,0,0,0,3.625,3.625h2.625a3.488,3.488,0,0,0,3.375-2.5c1.875-1,4.25-.5,6.5-.125,12,2,13.625-.875,22.875-7.375l4.5-3.25c2.875-2.5,2-7.25-2.375-7.25-.75,0-1,.125-1.125.25l-7.625,4.5c0-.375-.125-.625-.125-1a3.154,3.154,0,0,0-2.75-2.625h-3c.375-4.75-1.625-6.125,5.625-5.5,3,.25,6.75.625,7.375-2.75V55.742a1.329,1.329,0,0,0-1.125-1.25,1.238,1.238,0,0,0-1.375,1c-.25,1.25-3,.875-4.75.75-2-.125-4-.375-5.875.375V52.993a22.287,22.287,0,0,0,21-21h6.25a4.346,4.346,0,1,0,4.125-5.625,4.311,4.311,0,0,0-4.125,3.125h-6.25a22.223,22.223,0,0,0-44.378,0h-6.25a4.336,4.336,0,0,0-8.5,1.25Zm26.126,1.25a39.908,39.908,0,0,0,.75,6.875h-7.875a21.414,21.414,0,0,1-1.75-6.875Zm3.875,9.375h5.75v8.875C132.348,49.366,130.1,46.241,128.848,41.366Zm8.25,8.875V41.366h5.75C141.6,46.241,139.348,49.366,137.1,50.241Zm0-11.375V31.991h7.125a52.638,52.638,0,0,1-.75,6.875Zm0-9.375V22.616h6.375a55.041,55.041,0,0,1,.75,6.875Zm0-9.375V11.241c2.25.875,4.5,4,5.75,8.875Zm-2.5-8.875v8.875h-5.75C130.1,15.366,132.348,12.116,134.6,11.241Zm0,11.375v6.875h-7.125a52.635,52.635,0,0,1,.75-6.875Zm0,9.375v6.875h-6.375a55.038,55.038,0,0,1-.75-6.875Zm-15.375,9.375h7a24.106,24.106,0,0,0,3.75,8.25A19.721,19.721,0,0,1,119.224,41.366Zm9.5,19.75c-1.375.125-4.375.5-4.75-.625V58.616a16.135,16.135,0,0,0,5,.125c3.25-.25,5.625-.5,5.625,1.875v.75c-1.75-.749-3.875-.5-5.875-.25Zm-11.75,24.875h-2.625a1.12,1.12,0,0,1-1.125-1.125V69.741a1.12,1.12,0,0,1,1.125-1.125h2.625a1.12,1.12,0,0,1,1.125,1.125V84.866A1.12,1.12,0,0,1,116.973,85.991Zm23-14.375c.125,0,.375.25.5.75a4.088,4.088,0,0,1,0,1.75c-3.25,1-3.375.75-9.25.875a1.253,1.253,0,0,0-1.25,1.25,1.344,1.344,0,0,0,1.25,1.25c3-.125,8.25.25,10.625-1.25l9.875-5.75h.125c2.125,0,1.5,2.125.875,2.875l-4.375,3.126c-9.125,6.5-10,8.875-21,7a17.636,17.636,0,0,0-6.75-.25V71.867c3.25-2.5,7.5-2.875,12-.75,1.625.749,2.125.374,7.375.5Zm2.75-12.875a16.437,16.437,0,0,0,5-.125v1.875c-.25,1.125-3.375.75-4.75.625-1.875-.125-4.125-.375-5.875.375.25-2-1-3.375,5.625-2.75Zm-1-9.125a21.964,21.964,0,0,0,3.75-8.25h7A19.721,19.721,0,0,1,141.723,49.616Zm12.125-10.75h-7.875a57.8,57.8,0,0,0,.75-6.875H155.6a20.642,20.642,0,0,1-1.75,6.875Zm14.625-10a1.875,1.875,0,1,1-1.875,1.875A1.922,1.922,0,0,1,168.473,28.866Zm-21.751.625a39.907,39.907,0,0,0-.75-6.875h7.875a21.414,21.414,0,0,1,1.75,6.875Zm5.75-9.375h-7a24.106,24.106,0,0,0-3.75-8.25A19.718,19.718,0,0,1,152.473,20.116Zm-22.5-8.25a21.964,21.964,0,0,0-3.75,8.25h-7A19.719,19.719,0,0,1,129.972,11.866Zm-12.125,10.75h7.875a57.792,57.792,0,0,0-.75,6.875H116.1a21.445,21.445,0,0,1,1.75-6.875Zm-14.625,6.25a1.875,1.875,0,1,1-1.875,1.875A1.922,1.922,0,0,1,103.222,28.866Z" transform="translate(-98.847 -8.492)" fill="#e2fe0a"/>
</svg>
