<svg xmlns="http://www.w3.org/2000/svg" width="80" height="69.091" viewBox="0 0 80 69.091">
  <g id="noun-hospital-1696898" transform="translate(0 -46.666)">
    <path id="Path_5639" data-name="Path 5639" d="M171.51,68.485H158.783v-20a1.817,1.817,0,0,0-1.818-1.818H109.692a1.818,1.818,0,0,0-1.818,1.818v20H95.146A1.818,1.818,0,0,0,93.328,70.3v43.636a1.819,1.819,0,0,0,1.818,1.818H171.51a1.819,1.819,0,0,0,1.818-1.818V70.3a1.818,1.818,0,0,0-1.818-1.818ZM96.966,72.121h10.909v40H96.966ZM111.511,50.3h43.636v61.819H144.238V88.484a1.819,1.819,0,0,0-1.818-1.818H124.238a1.819,1.819,0,0,0-1.818,1.818v23.637H111.511Zm14.545,61.819V90.3H140.6v21.818Zm43.636,0H158.783v-40h10.909Z" transform="translate(-93.328)" fill="#e2fe0a"/>
    <path id="Path_5640" data-name="Path 5640" d="M293.484,127.579h5.455v5.455a1.818,1.818,0,0,0,3.637,0v-5.455h5.455a1.818,1.818,0,0,0,0-3.637h-5.455v-5.455a1.818,1.818,0,0,0-3.637,0v5.455h-5.455a1.818,1.818,0,0,0,0,3.637Z" transform="translate(-260.756 -59.094)" fill="#e2fe0a"/>
  </g>
</svg>
