<svg xmlns="http://www.w3.org/2000/svg" width="40.868" height="38.596" viewBox="0 0 40.868 38.596"><path d="M53.673,314.3a1.394,1.394,0,0,0-.862-.432l-12.678-1.41-.072-.158-5.2-11.338a1.392,1.392,0,0,0-2.52,0l-5.268,11.494L14.4,313.87a1.375,1.375,0,0,0-.929.514,1.345,1.345,0,0,0-.288,1,1.363,1.363,0,0,0,.438.849l9.42,8.515-.034.171-2.531,12.2a1.34,1.34,0,0,0,.2,1.02,1.379,1.379,0,0,0,.882.593,1.408,1.408,0,0,0,.964-.151l11.091-6.238,11.09,6.238a1.392,1.392,0,0,0,.663.182,1.377,1.377,0,0,0,1.41-1.345,1.292,1.292,0,0,0-.031-.3l-2.566-12.37.128-.117,9.293-8.4a1.357,1.357,0,0,0,.079-1.93m-11.955,8.949a1.367,1.367,0,0,0-.42,1.288l2.113,10.172-9.12-5.129a1.41,1.41,0,0,0-1.372,0L23.8,334.711l2.11-10.171a1.362,1.362,0,0,0-.42-1.289l-7.759-7,10.433-1.157a1.39,1.39,0,0,0,1.107-.795l4.334-9.459,4.331,9.46a1.391,1.391,0,0,0,1.107.793l10.434,1.157Z" transform="translate(-13.17 -300.165)" fill="#007889"/></svg>