<svg xmlns="http://www.w3.org/2000/svg" width="47.462" height="47.463" viewBox="0 0 47.462 47.463"><g transform="translate(-1272.538 -19181)"><path d="M991.809,0a23.731,23.731,0,1,0,23.731,23.731A23.731,23.731,0,0,0,991.809,0m10.883,34.229a1.478,1.478,0,0,1-2.034.492c-5.573-3.406-12.587-4.175-20.847-2.288a1.479,1.479,0,1,1-.659-2.883c9.04-2.067,16.794-1.177,23.049,2.645a1.479,1.479,0,0,1,.491,2.034m2.9-6.462a1.851,1.851,0,0,1-2.545.609c-6.378-3.92-16.1-5.056-23.647-2.765a1.85,1.85,0,1,1-1.076-3.54c8.619-2.615,19.334-1.349,26.659,3.153a1.851,1.851,0,0,1,.609,2.544m.25-6.728c-7.649-4.543-20.267-4.961-27.57-2.744a2.22,2.22,0,0,1-1.288-4.248c8.383-2.545,22.318-2.053,31.124,3.174a2.22,2.22,0,0,1-2.266,3.818" transform="translate(304.46 19181)" fill="#fff"/></g></svg>