<svg xmlns="http://www.w3.org/2000/svg" width="95.071" height="89.797" viewBox="0 0 95.071 89.797"><path d="M77,27.027l-7.129-.748,4.177-3.946,8.019-7.581,7.106.745c-.271.255,2.108-2-12.173,11.529m4.744,22.431c0,20.31-17.5,36.831-39.018,36.831S3.716,69.767,3.716,49.458s17.5-36.829,39.015-36.829A40.642,40.642,0,0,1,62.849,17.9l1.066,9.056-.228.215a32.429,32.429,0,0,0-20.956-7.524c-17.416,0-31.584,13.375-31.584,29.815S25.315,79.273,42.731,79.273c15.848,0,29.316-11.181,31.328-26.013a28.639,28.639,0,0,0-7.743-23.614l.2-.19,9.652,1.012a35.188,35.188,0,0,1,5.582,18.99M41.419,50.7a1.937,1.937,0,0,0,2.627,0l3.714-3.51a4.978,4.978,0,0,1,.547,2.27A5.583,5.583,0,1,1,42.731,44.2a5.782,5.782,0,0,1,2.4.513l-3.714,3.51a1.684,1.684,0,0,0,0,2.48M31.807,35.143a1.92,1.92,0,0,0,2.53.669,17.486,17.486,0,0,1,18.814,1.315l-5.3,5.012a9.614,9.614,0,0,0-5.116-1.45,9.05,9.05,0,0,0-9.288,8.769,9.049,9.049,0,0,0,9.288,8.769,9.051,9.051,0,0,0,9.291-8.769,8.344,8.344,0,0,0-1.545-4.841l5.3-5.012a15.1,15.1,0,0,1,3.673,9.853c0,8.7-7.5,15.785-16.722,15.785s-16.72-7.082-16.72-15.785a14.719,14.719,0,0,1,.483-3.786,1.753,1.753,0,0,0-1.389-2.105,1.864,1.864,0,0,0-2.23,1.312,17.923,17.923,0,0,0-.581,4.579c0,10.637,9.167,19.293,20.436,19.293s20.438-8.656,20.438-19.293a18.491,18.491,0,0,0-4.748-12.349l5.263-4.974a25.26,25.26,0,0,1,6.689,20.687C68.6,65.9,56.716,75.765,42.731,75.765c-15.367,0-27.868-11.8-27.868-26.307s12.5-26.307,27.868-26.307a28.61,28.61,0,0,1,18.324,6.5L55.792,34.63a21,21,0,0,0-13.061-4.464,21.287,21.287,0,0,0-10.215,2.586,1.7,1.7,0,0,0-.709,2.39M78.656,5.586l.788,6.686c-1.918,1.814-11.3,10.68-12.166,11.5l-.784-6.666C77.6,6.587,78.622,5.62,78.656,5.586m0,0h0l-.02.02.02-.02m16.309,7.987a1.842,1.842,0,0,0-1.547-1.161L83.072,11.328l-1.15-9.767A1.781,1.781,0,0,0,80.689.1a1.937,1.937,0,0,0-1.931.418c-.226.215,2.112-2-14.737,13.962a44.568,44.568,0,0,0-21.29-5.358C19.115,9.121,0,27.163,0,49.458S19.112,89.8,42.731,89.8,85.464,71.755,85.464,49.458a38.5,38.5,0,0,0-5.677-20.1C93.3,16.56,94.475,15.444,94.527,15.394c-.007.009-.032.032,0,0a1.681,1.681,0,0,0,.436-1.818" fill="#00b2bb"/></svg>