<svg xmlns="http://www.w3.org/2000/svg" width="80.305" height="72.148" viewBox="0 0 80.305 72.148"><g transform="translate(-24.308 -28.388)"><path d="M28.2,315.525V308H45.138v7.529a8.318,8.318,0,0,1-8.217,8.419q-.089,0-.177,0a8.493,8.493,0,0,1-8.544-8.419m0-14.43a3.137,3.137,0,0,1,3.136-3.138H42a3.137,3.137,0,0,1,3.136,3.138v4.391H28.2Zm18.821,28.552a1.256,1.256,0,1,0,1.412-2.077,20.806,20.806,0,0,0-5.916-2.785,10.919,10.919,0,0,0,5.132-9.26V301.1A5.646,5.646,0,0,0,42,295.449H31.336A5.645,5.645,0,0,0,25.69,301.1v14.43a10.882,10.882,0,0,0,5.144,9.215,20.8,20.8,0,0,0-15.183,20.271,1.255,1.255,0,0,0,2.51,0,18.469,18.469,0,0,1,28.859-15.365" transform="translate(8.658 -257.649)" fill="#003b4e"/><path d="M75.356,350.6a3.037,3.037,0,1,1-3.043-3.03h.006a3.037,3.037,0,0,1,3.037,3.03M58.837,342.6l-6.643-9.046a27.431,27.431,0,0,1,6.9-.873,26.508,26.508,0,0,1,6.424.8ZM45.919,317.622V306.957h8.088c.954,1,6.274,5.978,17.635,6.412v4.253A12.416,12.416,0,0,1,59.359,330.17H59.1c-7.266,0-13.176-5.648-13.176-12.549m0-20.7c0-2.672,2.642-5.018,5.648-5.018H66.624a4.963,4.963,0,0,1,5.019,4.905v7.642H45.919Zm25.723,13.94c-6.82-.283-11.224-2.333-13.633-3.9H71.642Zm-5.584,20.164a14.885,14.885,0,0,0,8.092-13.4v-20.7a7.447,7.447,0,0,0-7.364-7.529H51.567c-4.393,0-8.156,3.451-8.156,7.529v20.7a15.011,15.011,0,0,0,8.557,13.408,30.165,30.165,0,0,0-22.986,29.255,1.254,1.254,0,0,0,2.508,0,27.6,27.6,0,0,1,15.164-24.631,27,27,0,0,0-.8,4.692,8.131,8.131,0,0,0-6.205,8.018v9.411a4.134,4.134,0,0,0,3.765,3.763,1.254,1.254,0,1,0,0-2.508,1.834,1.834,0,0,1-1.255-1.255v-9.411c0-3.061,2.3-5.646,5.019-5.646s5.02,2.585,5.02,5.646v9.411a1.84,1.84,0,0,1-1.255,1.255,1.254,1.254,0,1,0,0,2.508,4.134,4.134,0,0,0,3.763-3.763v-9.411a8.109,8.109,0,0,0-6.329-8.036,18.642,18.642,0,0,1,1.385-5.879l8.081,11.011a1.251,1.251,0,0,0,2.025,0l8.063-11.023c1.951,3.363,2.748,8.513,3.016,10.8a5.537,5.537,0,1,0,2.51-.057,40.068,40.068,0,0,0-2.182-9.51,27.7,27.7,0,0,1,14.8,24.613,1.254,1.254,0,0,0,2.508,0,30.05,30.05,0,0,0-22.522-29.261" transform="translate(16.033 -261.002)" fill="#003b4e"/><path d="M53.07,295.355H51.187v-1.883a1.254,1.254,0,1,0-2.508,0v1.883H46.8a1.255,1.255,0,1,0,0,2.51h1.883v1.881a1.254,1.254,0,1,0,2.508,0v-1.881H53.07a1.255,1.255,0,1,0,0-2.51" transform="translate(25.195 -259.438)" fill="#003b4e"/></g></svg>