<svg xmlns="http://www.w3.org/2000/svg" width="47.462" height="47.463" viewBox="0 0 47.462 47.463"><g transform="translate(-1204.468 -19181)"><path d="M798.193,0a23.731,23.731,0,1,0,23.731,23.731A23.731,23.731,0,0,0,798.193,0M790.36,36.7c-1.688-.019-3.377-.014-5.065,0-.271,0-.352-.066-.352-.346q.012-9.024,0-18.048c0-.249.06-.338.324-.336,1.713.011,3.425.014,5.138,0,.329,0,.373.124.373.406q-.012,4.494,0,8.988c0,2.971,0,5.943.007,8.914,0,.33-.081.43-.423.426M787.868,15.39A3.37,3.37,0,1,1,791.241,12a3.394,3.394,0,0,1-3.374,3.386M812.62,36.311c0,.307-.085.387-.387.385q-2.533-.021-5.066,0c-.3,0-.361-.089-.361-.37q.014-4.679,0-9.358a8.408,8.408,0,0,0-.271-2.323,2.612,2.612,0,0,0-2.873-2.036,3.139,3.139,0,0,0-3.3,3.134,11.7,11.7,0,0,0-.089,1.463c0,3.034,0,6.067.008,9.1,0,.3-.075.392-.384.389q-2.551-.022-5.1,0c-.273,0-.352-.072-.351-.347q.012-9.009,0-18.018c0-.3.1-.366.378-.364q2.423.018,4.846,0c.3,0,.374.094.367.375-.017.718-.005,1.436-.005,2.154.39-.438.711-.883,1.111-1.26a6.1,6.1,0,0,1,4.386-1.73,10.15,10.15,0,0,1,2.758.335,5.391,5.391,0,0,1,3.828,4.026,16.872,16.872,0,0,1,.51,4.612c.006,3.278-.009,6.556,0,9.835" transform="translate(430.006 19181)" fill="#fff"/></g></svg>