<svg xmlns="http://www.w3.org/2000/svg" width="47.104" height="47.106" viewBox="0 0 47.104 47.106"><g transform="translate(-12.584 -12.669)"><path d="M31.87,116.46a11.222,11.222,0,1,0,11.222,11.222A11.234,11.234,0,0,0,31.87,116.46m0,20.068a8.846,8.846,0,1,1,8.847-8.847,8.856,8.856,0,0,1-8.847,8.847" transform="translate(4.424 -91.303)" fill="#007889"/><path d="M56.465,126.131A1.183,1.183,0,0,0,57.5,124.71a23.86,23.86,0,0,0-3.309-7.976,1.174,1.174,0,0,0-.8-.523,1.154,1.154,0,0,0-.928.246,3.673,3.673,0,0,1-5.167-5.16,1.181,1.181,0,0,0-.275-1.735,23.881,23.881,0,0,0-7.974-3.308,1.182,1.182,0,0,0-1.421,1.031,3.672,3.672,0,0,1-7.3.006,1.179,1.179,0,0,0-1.421-1.035,23.86,23.86,0,0,0-7.974,3.306,1.18,1.18,0,0,0-.276,1.733,3.672,3.672,0,0,1-5.163,5.164,1.156,1.156,0,0,0-.929-.247,1.176,1.176,0,0,0-.805.524,23.843,23.843,0,0,0-3.306,7.973,1.178,1.178,0,0,0,1.031,1.422,3.671,3.671,0,0,1,0,7.3,1.182,1.182,0,0,0-1.031,1.422,23.877,23.877,0,0,0,3.309,7.974,1.178,1.178,0,0,0,1.731.275,3.672,3.672,0,0,1,5.165,5.162A1.181,1.181,0,0,0,20.923,150a23.835,23.835,0,0,0,7.974,3.306,1.178,1.178,0,0,0,1.42-1.029,3.672,3.672,0,0,1,7.3,0,1.192,1.192,0,0,0,.48.828,1.169,1.169,0,0,0,.695.226l.246-.027A23.83,23.83,0,0,0,47.015,150a1.18,1.18,0,0,0,.276-1.733,3.673,3.673,0,0,1,5.164-5.164,1.166,1.166,0,0,0,.929.247,1.18,1.18,0,0,0,.8-.524,23.859,23.859,0,0,0,3.306-7.972,1.182,1.182,0,0,0-1.029-1.423h0a3.671,3.671,0,0,1,0-7.3m-3.3-8.737h0l-.006,0,0,0M38.787,107.44h0l0,.01v-.011m-17.206,3.139,0,0,0,0Zm7.569,41.543h0l0-.008v.01m17.2-3.138-.008-.017.011.016ZM54.91,135.5a21.479,21.479,0,0,1-2.1,5.052,6.038,6.038,0,0,0-8.08,8.08,21.5,21.5,0,0,1-5.052,2.1,6.036,6.036,0,0,0-11.426,0,21.521,21.521,0,0,1-5.053-2.1,6.037,6.037,0,0,0-8.079-8.08,21.479,21.479,0,0,1-2.1-5.052,6.038,6.038,0,0,0,0-11.429,21.491,21.491,0,0,1,2.1-5.051,6.037,6.037,0,0,0,8.079-8.08,21.448,21.448,0,0,1,5.053-2.1,6.036,6.036,0,0,0,11.426,0,21.478,21.478,0,0,1,5.052,2.1,6.038,6.038,0,0,0,8.08,8.08,21.522,21.522,0,0,1,2.1,5.051,6.038,6.038,0,0,0,0,11.429" transform="translate(2.167 -93.56)" fill="#007889"/><path d="M30.629,125.908h-.114a1.6,1.6,0,1,1,1.609-1.6,1.187,1.187,0,1,0,2.374,0,3.964,3.964,0,0,0-2.8-3.79v-.207a1.187,1.187,0,1,0-2.374,0v.207a3.962,3.962,0,0,0-2.8,3.79,4.007,4.007,0,0,0,4.095,3.973,1.6,1.6,0,1,1-1.606,1.6,1.188,1.188,0,0,0-2.376,0,4,4,0,0,0,2.683,3.756v.242a1.187,1.187,0,1,0,2.374,0V133.7a3.969,3.969,0,0,0-1.074-7.794" transform="translate(5.564 -90.873)" fill="#007889"/></g></svg>