<svg xmlns="http://www.w3.org/2000/svg" xmlns:xlink="http://www.w3.org/1999/xlink" width="106.234" height="107.579" viewBox="0 0 106.234 107.579"><defs><clipPath id="a"><rect width="106.234" height="107.579" fill="#e2fe0a"/></clipPath></defs><g transform="translate(0 0)" clip-path="url(#a)"><path d="M68.293,82.605V36.567A26.8,26.8,0,0,1,92.955,63.4v19.21ZM37.942,36.567V82.605H13.279V63.4A26.8,26.8,0,0,1,37.942,36.567m58.808,67.169H9.485a5.734,5.734,0,0,1-5.691-5.762V24.534l26.143-6.967a13.429,13.429,0,0,0,9.9-13V3.842h5.691V49.153l-2.682,2.716H41.734V34.578a1.909,1.909,0,0,0-1.9-1.921A30.583,30.583,0,0,0,9.485,63.4V84.526a1.908,1.908,0,0,0,1.9,1.921H39.838a1.908,1.908,0,0,0,1.9-1.921V65.316h3.794a1.879,1.879,0,0,0,1.341-.563l6.248-6.327,6.248,6.327a1.879,1.879,0,0,0,1.341.563H64.5v19.21a1.908,1.908,0,0,0,1.9,1.921H94.853a1.908,1.908,0,0,0,1.9-1.921V63.4A30.583,30.583,0,0,0,66.4,32.657a1.909,1.909,0,0,0-1.9,1.921V51.869H63.388l-2.682-2.716V3.842H66.4v.721a13.429,13.429,0,0,0,9.9,13l26.143,6.967V97.973a5.734,5.734,0,0,1-5.691,5.762M9.485,3.842H36.044v.721a9.592,9.592,0,0,1-7.071,9.289L3.794,20.56V9.606A5.735,5.735,0,0,1,9.485,3.842M57.467,51.306l3.794,3.842a1.882,1.882,0,0,0,1.341.563h1.9v5.762H61.492l-7.033-7.12a1.877,1.877,0,0,0-2.682,0l-7.033,7.12H41.734V55.71h1.9a1.882,1.882,0,0,0,1.341-.563l3.794-3.842a1.924,1.924,0,0,0,.555-1.358V3.842h7.589V49.948a1.924,1.924,0,0,0,.555,1.358m44.973-41.7V20.56L77.262,13.852a9.592,9.592,0,0,1-7.071-9.289V3.842H96.749a5.735,5.735,0,0,1,5.691,5.764M96.749,0H9.485A9.556,9.556,0,0,0,0,9.606V97.973a9.557,9.557,0,0,0,9.485,9.606H96.749a9.557,9.557,0,0,0,9.485-9.606V9.606A9.556,9.556,0,0,0,96.749,0" transform="translate(0 0)" fill="#e2fe0a"/><path d="M37.491,51.27H6.026v3.842H38.277a1.882,1.882,0,0,0,1.341-.563l5.691-5.762L42.627,46.07Z" transform="translate(5.355 40.941)" fill="#e2fe0a"/><path d="M31.1,46.07l-2.682,2.716L34.11,54.55a1.882,1.882,0,0,0,1.341.563H69.6V51.27H36.236Z" transform="translate(25.255 40.941)" fill="#e2fe0a"/></g></svg>