<svg xmlns="http://www.w3.org/2000/svg" width="80" height="79.414" viewBox="0 0 80 79.414"><g transform="translate(0 0)"><path d="M90.289,54.339a3.442,3.442,0,0,0,3.438,3.438h4.882c0,.087-.007.174-.007.262V92.552a5.944,5.944,0,0,0,5.937,5.937h9.142v2.177a.938.938,0,0,0,.937.937h39.65a.938.938,0,0,0,.937-.937V98.489h9.145a5.944,5.944,0,0,0,5.937-5.937V58.038a35.824,35.824,0,0,0-69.138-13.2H93.728a3.442,3.442,0,0,0-3.438,3.438Zm63.042,45.388H115.555V94.143h37.775Zm-7.815-42.011H123.365a2.19,2.19,0,0,0-2.187,2.187V64.37L120.152,68.3a17.3,17.3,0,0,1-3.375-10.258,17.666,17.666,0,0,1,35.331,0,17.5,17.5,0,0,1-3.358,10.323L147.7,64.346V59.9a2.189,2.189,0,0,0-2.187-2.187Zm.312,2.187V63.54H123.052V59.9a.316.316,0,0,1,.312-.312h22.151a.316.316,0,0,1,.313.312Zm8.157-1.864a19.542,19.542,0,1,0-39.083,0,19.277,19.277,0,0,0,4.654,12.542l-1.384,5.3a23.964,23.964,0,0,1-7.99-17.841A24.26,24.26,0,1,1,150.74,75.986l-1.411-5.407a19.31,19.31,0,0,0,4.655-12.54Zm-31.142,7.377h23.2l7,26.806h-37.2Zm11.6-41.352a34.013,34.013,0,0,1,33.974,33.974V92.552a4.067,4.067,0,0,1-4.062,4.062h-9.144c-.013-2.115.023-3.273-.029-3.6-.051-.247-.032-.162-.036-.18s-.005-.031-.012-.045l-3.858-14.777a26.191,26.191,0,1,0-33.637-.075c-2.595,9.965-3.955,15.084-3.955,15.222v3.453h-9.142a4.067,4.067,0,0,1-4.062-4.062V58.04c0-.088,0-.175.007-.262H102.8a3.441,3.441,0,0,0,3.438-3.438V48.279a3.43,3.43,0,0,0-3.082-3.4,33.993,33.993,0,0,1,31.282-20.811ZM92.164,48.277a1.564,1.564,0,0,1,1.563-1.562H102.8a1.564,1.564,0,0,1,1.562,1.562v6.062A1.564,1.564,0,0,1,102.8,55.9H93.727a1.564,1.564,0,0,1-1.562-1.562Z" transform="translate(-90.289 -22.189)" fill="#e2fe0a"/><path d="M355.991,56.043h4.88a.937.937,0,0,0,0-1.875h-4.88a.937.937,0,1,0,0,1.875Z" transform="translate(-314.276 -49.243)" fill="#e2fe0a"/><path d="M120.04,189.936h1.354a.487.487,0,1,0,0-.975H120.04a.487.487,0,1,0,0,.974Z" transform="translate(-115.045 -163.276)" fill="#e2fe0a"/><path d="M149.95,189.936H151.3a.487.487,0,1,0,0-.975H149.95a.487.487,0,1,0,0,.975Z" transform="translate(-140.348 -163.276)" fill="#e2fe0a"/><path d="M120.04,209.056h1.354a.487.487,0,1,0,0-.975H120.04a.487.487,0,1,0,0,.974Z" transform="translate(-115.045 -179.451)" fill="#e2fe0a"/><path d="M149.95,209.056H151.3a.487.487,0,1,0,0-.975H149.95a.487.487,0,1,0,0,.975Z" transform="translate(-140.348 -179.451)" fill="#e2fe0a"/><path d="M120.04,228.186h1.354a.487.487,0,1,0,0-.975H120.04a.487.487,0,1,0,0,.974Z" transform="translate(-115.045 -195.635)" fill="#e2fe0a"/><path d="M149.95,228.186H151.3a.487.487,0,1,0,0-.975H149.95a.487.487,0,1,0,0,.975Z" transform="translate(-140.348 -195.635)" fill="#e2fe0a"/></g></svg>