<svg xmlns="http://www.w3.org/2000/svg" width="87.646" height="87.646" viewBox="0 0 87.646 87.646"><g transform="translate(-7481.225 -7778.129)"><path d="M35.138,225.283l-2.421-2.421,2.466-2.464a32.831,32.831,0,0,0,2.421,2.421Zm-1.21,6.052L15.411,249.854a1.724,1.724,0,0,1-2.421,0l-4.842-4.842a1.715,1.715,0,0,1,0-2.421l18.516-18.519a1.713,1.713,0,0,1,2.421,0l4.842,4.842a1.719,1.719,0,0,1,0,2.421m25.42-65.206a32.425,32.425,0,0,0-17.315,4.99,1.712,1.712,0,1,0,1.826,2.9,29.088,29.088,0,1,1-9.149,9.147,1.711,1.711,0,0,0-2.895-1.826,32.5,32.5,0,0,0,1.2,36.384L30.09,220.65a5.144,5.144,0,0,0-5.844,1L5.727,240.17a5.14,5.14,0,0,0,0,7.263l4.842,4.842a5.145,5.145,0,0,0,7.263,0l18.516-18.519a5.16,5.16,0,0,0,1-5.846l2.926-2.926a32.518,32.518,0,1,0,19.069-58.855" transform="translate(7477 7612)" fill="#00b2bb"/><path d="M63.284,207.761a1.71,1.71,0,0,0,2.32-.689A25.667,25.667,0,1,0,55.23,217.444a1.711,1.711,0,1,0-1.63-3.009,22.236,22.236,0,1,1,8.994-8.994,1.711,1.711,0,0,0,.689,2.32" transform="translate(7493.334 7615.799)" fill="#00b2bb"/><path d="M20.019,173.571a1.711,1.711,0,1,0-1.267-.559,1.7,1.7,0,0,0,1.267.559" transform="translate(7494.542 7617.006)" fill="#00b2bb"/><path d="M37.266,190.818a1.712,1.712,0,1,0-1.1-3.027l0,0a1.711,1.711,0,0,0,1.1,3.025" transform="translate(7516.028 7638.492)" fill="#00b2bb"/><path d="M47.356,190.193a9.5,9.5,0,0,0,0-8.619,16.755,16.755,0,0,1,5.9,4.31,16.688,16.688,0,0,1-5.9,4.31m-22.828-4.31a16.643,16.643,0,0,1,5.9-4.307,9.465,9.465,0,0,0,0,8.617,16.619,16.619,0,0,1-5.9-4.31m20.443,0a6.08,6.08,0,1,1-6.079-6.079,6.089,6.089,0,0,1,6.079,6.079m11.849.99a1.719,1.719,0,0,0,0-1.979c-3.721-5.253-10.593-8.516-17.928-8.516s-14.209,3.263-17.93,8.516a1.711,1.711,0,0,0,0,1.979c3.721,5.253,10.591,8.514,17.93,8.514s14.207-3.261,17.928-8.514" transform="translate(7497.458 7624.77)" fill="#00b2bb"/><path d="M29.719,183.273h0a1.711,1.711,0,1,0-1.714-1.711,1.711,1.711,0,0,0,1.714,1.711" transform="translate(7506.628 7629.093)" fill="#00b2bb"/></g></svg>