<svg xmlns="http://www.w3.org/2000/svg" width="46.372" height="46.271" viewBox="0 0 46.372 46.271"><g transform="translate(-1859 -1233.728)"><path d="M44.374,31.349a14.686,14.686,0,0,1-2.459,5.31,3.553,3.553,0,0,0-.447.782c-.112.168-.168.335-.28.5a43,43,0,0,0-3.353-6.595c-.223-.335-.391-.67-.615-1.006L32.861,22.8l4.359-2.515c.447-.28.9-.5,1.342-.783l4.527,8.551c.111.224.279.447.391.671a3.842,3.842,0,0,1,.894,2.626m-5.309,8.5a5.059,5.059,0,0,1-1.845.112H31.352a.925.925,0,0,0-.95.838L27.273,36.77l3.073-4.135v.782l6.539-.056a28.352,28.352,0,0,1,2.906,6.2c-.223.112-.447.167-.726.279M44.821,27.1,39.4,16.819l-.894.5c-.727.447-1.453.838-2.18,1.285l-4.359,2.515c-.168.112-.391.224-.559.335l-1.062.615,5.31,9.222c.055.055.055.111.111.167H32.3l.056-4.694-7.545,9.948,7.433,9.556.056-2.738V41.856H37.22a8.592,8.592,0,0,0,2.348-.223,3.743,3.743,0,0,0,1.844-1.006l.112-.112A7.124,7.124,0,0,0,43.2,38.279c.168-.223.28-.5.392-.67a17.077,17.077,0,0,0,2.738-6.092,5.943,5.943,0,0,0-1.118-3.856,1.434,1.434,0,0,1-.391-.559" transform="translate(1859 1233.729)" fill="#007889"/><path d="M10.4,39.174H9.612a4.335,4.335,0,0,1-2.738-.559,15.21,15.21,0,0,1-3.409-4.75,5.587,5.587,0,0,0-.448-.783c-.111-.167-.167-.335-.279-.5a40.478,40.478,0,0,0,7.377.392h9.892v6.538Zm-8.16-9.445a7.834,7.834,0,0,1,.838-1.676,1.713,1.713,0,0,0,.28-.5c.391-.615,1.062-1.789,1.62-2.8.336-.559.559-1.006.727-1.285a3.29,3.29,0,0,0,.224-.391.175.175,0,0,0,.055-.112.912.912,0,0,0-.223-1.23l5.086-.726L12.854,25.7l-.671-.335L8.941,31.015A27.67,27.67,0,0,1,2.123,30.4a4.126,4.126,0,0,1,.112-.671M22.019,32.3V31.071H11.233l1.732-3.018,4.08,2.4-5.03-11.513L0,20.62l2.4,1.4s.782.447,1.453.838c-.615,1.118-1.733,3.018-2.18,3.8-.167.224-.223.448-.279.5A8.281,8.281,0,0,0,.391,29.282,3.735,3.735,0,0,0,.335,31.35v.112a7.659,7.659,0,0,0,1.118,2.571,4.642,4.642,0,0,1,.391.726,16.415,16.415,0,0,0,3.912,5.365,5.939,5.939,0,0,0,3.912.95H10.4l11.624.447V32.3Z" transform="translate(1859 1233.729)" fill="#007889"/><path d="M24.869,8.045A31.656,31.656,0,0,1,28.781,2.4a1.976,1.976,0,0,1,.559.447A10.93,10.93,0,0,1,30.4,4.412c.056.056.112.224.279.5.336.615,1.006,1.788,1.621,2.794.335.559.559,1.006.727,1.286a3.243,3.243,0,0,1,.223.391.173.173,0,0,1,.056.112.989.989,0,0,0,1.174.447l-1.956,4.75L27.44,14.08l.671-.391Zm-2.235.111c-.168.336-.392.671-.615,1.062L17.66,16.763c-1.453-.838-2.962-1.677-4.359-2.515-.448-.279-.895-.5-1.342-.782L17.1,5.25a4.154,4.154,0,0,0,.391-.67,4.215,4.215,0,0,1,1.844-2.068,15.167,15.167,0,0,1,5.813-.559H26.6a44.9,44.9,0,0,0-3.968,6.2m11.233,8.607L38.45,5.53l-2.459,1.4s-.783.447-1.453.838c-.615-1.118-1.733-3.018-2.18-3.8-.168-.224-.224-.447-.279-.5a10.218,10.218,0,0,0-1.342-1.956A3.494,3.494,0,0,0,28.949.444L28.837.388A8,8,0,0,0,26.043.053H25.26a16.224,16.224,0,0,0-6.594.67,5.648,5.648,0,0,0-2.8,2.907,2.274,2.274,0,0,1-.391.614l-6.2,9.836.894.5c.726.448,1.453.839,2.18,1.286l4.359,2.515c.167.111.391.223.559.335l1.061.615,5.31-9.222c.056-.055.056-.111.111-.167l1.733,3.018L21.46,15.31Z" transform="translate(1859 1233.729)" fill="#007889"/></g></svg>