<svg xmlns="http://www.w3.org/2000/svg" width="79.719" height="81.135" viewBox="0 0 79.719 81.135">
  <g id="ico-centroinovacao" transform="translate(-7806.727 -16630.893)">
    <g id="Group_1313" data-name="Group 1313" transform="translate(7806.727 16630.893)">
      <g id="noun-virtual-reality-3d-898329-1" transform="translate(0)">
        <path id="Path_5719" data-name="Path 5719" d="M355.62,344.425l1.574,8.63v.185a1.411,1.411,0,0,0,2.778-.5l-1.732-9.389,3.084-1.26a11.984,11.984,0,0,0,6.232-5.935l-1.519-.1L364.519,336a9.179,9.179,0,0,1-4.241,3.556l-4.093,1.676-3.148,1.25a1.391,1.391,0,0,0,1.056,2.575Z" transform="translate(-311.995 -286.198)" fill="#e2fe0a"/>
        <path id="Path_5720" data-name="Path 5720" d="M235.537,337.29l-1.435.111-1.426.13,1.305,3.7a7.677,7.677,0,0,1,.417,3.056l-.7,10.843a1.389,1.389,0,0,0,1.3,1.473h.092a1.39,1.39,0,0,0,1.389-1.3v-.158l.7-10.667a10.454,10.454,0,0,0-.565-4.158Z" transform="translate(-212.257 -287.276)" fill="#e2fe0a"/>
        <path id="Path_5721" data-name="Path 5721" d="M389.369,81.233c.111-1.907.176-3.87.176-5.862.037-22.733-7.648-40.54-17.419-40.54a8.179,8.179,0,0,0-1.4.13,10.831,10.831,0,0,0-5.982,3.509,1.378,1.378,0,0,0-.278,1.435,1.354,1.354,0,0,0,.333.528,1.388,1.388,0,0,0,1.963-.056,8.643,8.643,0,0,1,3.972-2.593,5.449,5.449,0,0,1,1.389-.185c7.686,0,14.214,16.214,14.622,35.826v5.4a9.995,9.995,0,0,1-.065,1.389v.519q-.074,1.3-.185,2.565v.176q-.111,1.287-.259,2.546c-.056.444-.111.88-.167,1.315q-.195,1-.389,2.038c-3.408.528-7.686.991-12.964,1.315a1.39,1.39,0,0,0,.083,2.778h.083c4.047-.25,8.334-.621,12.3-1.185-.185.926-.38,1.806-.583,2.676-2.4,9.936-6.482,16.964-11.2,18.029a5.571,5.571,0,0,1-1.241.148c-3.056,0-6.149-2.778-8.713-7.7h0a1.391,1.391,0,1,0-2.472,1.278c3.111,6.038,6.982,9.26,11.2,9.26a7.985,7.985,0,0,0,1.222-.1c6.241-.926,11.492-9.26,14.2-21.3q.3-1.315.546-2.695l.047-.25q.24-1.315.435-2.676.167-1.158.315-2.361.1-.833.185-1.676c0-.287.056-.574.083-.861,3.908.778,6.278,1.648,6.88,2.4h0a6.427,6.427,0,0,1-2.565,1.278c-.658.222-1.426.444-2.343.667-.13.926-.269,1.852-.417,2.695l-.047.259c3.834-.88,6.742-2.046,7.788-3.6h0a2.3,2.3,0,0,0,.426-1.3c-.083-2.473-4.065-4.1-9.556-5.213Z" transform="translate(-319.206 -34.831)" fill="#e2fe0a"/>
        <path id="Path_5722" data-name="Path 5722" d="M164.265,119.014l1.407.1c2.954.222,5.621.509,7.982.824v-.167q.1-1.278.176-2.574c-2.537-.333-5.195-.583-7.778-.787l1.121-9.538a6.935,6.935,0,0,0,5.25-6.353l.148-2.778h0a6.954,6.954,0,0,0-6.556-7.315h-.676A19.724,19.724,0,0,0,127.715,98.9v4.065l-.88.8a5.009,5.009,0,0,0-1.639,3.547c-.148,4.788.417,8,1.657,9.612-9.177.953-17.658,2.814-17.658,6.315a2.475,2.475,0,0,0,.4,1.333c1,1.583,3.917,2.778,9.121,3.834a1.389,1.389,0,0,0,.537-2.723,36.845,36.845,0,0,1-4.63-1.176,7.089,7.089,0,0,1-2.648-1.287c1.037-1.26,6.964-2.778,16.742-3.787l1.426-.139,1.426-.12c4.991-.408,10.834-.658,17.419-.658,5.074,0,9.7.148,13.834.408ZM130.494,98.9a16.946,16.946,0,0,1,31.613-8.7l-16.288-.926a6.88,6.88,0,0,0-5.019,1.76c-.139.12-.259.25-.389.38l-.083.056-9.834,8.954ZM169.8,97.577l-.148,2.778a4.185,4.185,0,0,1-3.565,3.9,4.283,4.283,0,0,1-.824,0h-.583l-4.9-.269-2.778-.148-11.7-.63h-.2a4.214,4.214,0,0,1-3.936-4.39v-.75l.111-2.028h0a4.2,4.2,0,0,1,1.38-2.88l.158-.111h0a4.108,4.108,0,0,1,2.852-.926l17.769.926,1.51.083.926.047h0a4.22,4.22,0,0,1,.574.092,4.158,4.158,0,0,1,3.352,4.306Zm-28.919,6.806-10.39,9.381-1.315,1.241-.185.167c-.574-.815-1.148-3.259-1.01-7.778h0a2.185,2.185,0,0,1,.722-1.648l.408-.37,1.38-1.214,7.954-7.186-.092,1.685h0a6.935,6.935,0,0,0,2.528,5.722Zm2.639,1.362a6.967,6.967,0,0,0,1.4.222l12.177.7.12,3.815-2.861.269h0a1.39,1.39,0,1,0,.13,2.777h.083l4.167-.389A1.388,1.388,0,0,0,160,111.718l-.158-4.88,4.482.241-1.074,9.186c-7.408-.463-13.631-.472-14.27-.472s-8.7,0-17.316.685Z" transform="translate(-109.195 -71.686)" fill="#e2fe0a"/>
        <path id="Path_5723" data-name="Path 5723" d="M196.206,366.761q-1.806-.195-3.454-.417h0a1.4,1.4,0,1,0-.371,2.778q1.685.222,3.528.426h.149a1.391,1.391,0,1,0,.148-2.778Z" transform="translate(-177.61 -311.516)" fill="#e2fe0a"/>
      </g>
    </g>
  </g>
</svg>
