<svg xmlns="http://www.w3.org/2000/svg" width="76.969" height="80" viewBox="0 0 76.969 80"><path d="M170.16,28.795h-5.442a15.23,15.23,0,0,0-26.1-2.07,15.227,15.227,0,0,0-26.1,2.07h-5.439a6.957,6.957,0,0,0-6.946,6.951V81.89a6.956,6.956,0,0,0,6.946,6.951h23.237c-1.6,3.339-4.144,6.127-8.72,9.574h-3.324a.937.937,0,1,0,0,1.875h40.682a.937.937,0,1,0,0-1.875h-3.328c-4.581-3.452-7.125-6.24-8.707-9.574H170.16a6.955,6.955,0,0,0,6.945-6.951V35.746a6.955,6.955,0,0,0-6.944-6.951Zm-3.838,6.686h3.837a.265.265,0,0,1,.264.265V46.155h-6.85a23.211,23.211,0,0,0,2.754-10.57c0-.035,0-.069,0-.1Zm-28.15,33.708a.936.936,0,0,0,.9,0c.847-.463,16.18-8.965,23.466-21.159h7.887V71.092H106.817V47.867h7.792c7.245,12.282,22.712,20.859,23.562,21.324ZM117.856,49.364l5.163-6,5.672,11.611a.938.938,0,0,0,.842.526q.042,0,.087,0a.938.938,0,0,0,.816-.683l4.68-16.9,5.343,13.03a.913.913,0,0,0,.881.582.941.941,0,0,0,.865-.606l3.026-8.032,3.2,7.775a.937.937,0,0,0,1.6.231l4.771-5.944,5.832,2.539c-6.542,10.5-19.44,18.31-22.011,19.8-2.416-1.4-13.954-8.376-20.765-17.925Zm8.321-27.2a13.4,13.4,0,0,1,11.628,6.772.94.94,0,0,0,.815.474h0a.937.937,0,0,0,.815-.477,13.381,13.381,0,0,1,25.015,6.652,21.566,21.566,0,0,1-2.866,10.278l-6.694-2.916a.936.936,0,0,0-1.106.272l-4.226,5.264-3.5-8.508a.937.937,0,0,0-.867-.581h-.013a.941.941,0,0,0-.865.606L141.29,48.03l-5.478-13.36a.919.919,0,0,0-.924-.58.937.937,0,0,0-.847.685l-4.751,17.156-5.211-10.666a.938.938,0,0,0-1.553-.2L116.78,47.74l-.626-1a22.158,22.158,0,0,1-3.364-11.158,13.42,13.42,0,0,1,13.388-13.42ZM113.584,45.991h-6.766V35.746a.265.265,0,0,1,.264-.265h3.838c0,.035-.005.069-.005.1a23.118,23.118,0,0,0,2.669,10.406Zm38.991,52.42H124.653c3.866-3.158,6.116-5.918,7.6-9.262h12.731c1.473,3.34,3.719,6.1,7.589,9.262ZM175.23,81.89a5.079,5.079,0,0,1-5.069,5.076H107.082a5.078,5.078,0,0,1-5.071-5.076V77.778H175.23Zm0-5.987H102.012V35.745a5.079,5.079,0,0,1,5.071-5.076h4.655a15.161,15.161,0,0,0-.68,2.936h-3.976a2.142,2.142,0,0,0-2.139,2.141V72.028a.938.938,0,0,0,.937.937H171.36a.938.938,0,0,0,.937-.937V35.746a2.142,2.142,0,0,0-2.139-2.141h-3.974a15.16,15.16,0,0,0-.682-2.936h4.657a5.079,5.079,0,0,1,5.069,5.076Z" transform="translate(-100.136 -20.289)" fill="#e2fe0a"/></svg>