<svg xmlns="http://www.w3.org/2000/svg" width="76.502" height="69.887" viewBox="0 0 76.502 69.887"><g transform="translate(-26.211 -29.519)"><path d="M56.582,160.7A10.516,10.516,0,1,0,67.161,171.26,10.547,10.547,0,0,0,56.582,160.7m0,23.334a12.819,12.819,0,1,1,12.9-12.819v.047a12.881,12.881,0,0,1-12.9,12.772" transform="translate(24.168 -122.922)" fill="#003b4e"/><path d="M58.715,156.865a16.558,16.558,0,1,0,.023,0Zm0,35.243A18.774,18.774,0,1,1,77.6,173.336v.045a18.843,18.843,0,0,1-18.887,18.727" transform="translate(22.034 -125.043)" fill="#003b4e"/><path d="M53.321,175.078a3.709,3.709,0,0,1-3.72-3.7,1.159,1.159,0,0,1,2.317,0,1.4,1.4,0,1,0,1.46-1.336h-.057a3.686,3.686,0,1,1,3.708-3.686,1.159,1.159,0,0,1-2.317,0,1.375,1.375,0,0,0-1.367-1.382h-.023a1.382,1.382,0,1,0,0,2.765h0a3.7,3.7,0,1,1,0,7.393Z" transform="translate(27.441 -120.555)" fill="#003b4e"/><path d="M52.409,165.646a1.155,1.155,0,0,1-1.159-1.151v-1.982a1.159,1.159,0,0,1,2.317,0v1.982a1.155,1.155,0,0,1-1.159,1.151" transform="translate(28.354 -121.281)" fill="#003b4e"/><path d="M52.409,173.461a1.155,1.155,0,0,1-1.159-1.152v-1.98a1.159,1.159,0,0,1,2.317,0v1.98a1.155,1.155,0,0,1-1.159,1.152" transform="translate(28.354 -116.957)" fill="#003b4e"/><path d="M27.853,201.367l18.782,6.461a14.7,14.7,0,0,0,11.483-.842l27.045-13.923a1.942,1.942,0,0,0,1.076-1.325,1.99,1.99,0,0,0-2.479-2.3l-20.486,5.54a4.836,4.836,0,0,1-1.865.379H44.725a1.152,1.152,0,1,1,0-2.3H61.41a2.4,2.4,0,0,0,.915-.183h.127a2.417,2.417,0,0,0-1.042-4.607H50.321a1.164,1.164,0,0,1-.8-.312c-3.232-3.04-8.482-6.679-15.2-6.679H27.853Zm23.533,9.605a17.081,17.081,0,0,1-5.516-.921l-19.558-6.727a1.148,1.148,0,0,1-.777-1.083V180.073a1.155,1.155,0,0,1,1.159-1.153H34.33c7.254,0,12.9,3.731,16.453,6.991H61.41a4.748,4.748,0,0,1,4.75,4.722A4.585,4.585,0,0,1,66,191.785l17.1-4.607a4.286,4.286,0,0,1,3.139,7.935l-27.054,13.97a16.953,16.953,0,0,1-7.8,1.889" transform="translate(14.127 -111.566)" fill="#003b4e"/><path d="M20.35,178.347a1.156,1.156,0,0,0-1.159,1.152v26.546A1.156,1.156,0,0,0,20.35,207.2h8.864a1.157,1.157,0,0,0,1.16-1.153v-26.57a1.157,1.157,0,0,0-1.16-1.152Zm8.843,31.132H20.35a3.464,3.464,0,0,1-3.475-3.454V179.476a3.465,3.465,0,0,1,3.475-3.456h8.864a3.465,3.465,0,0,1,3.476,3.456v26.57a3.466,3.466,0,0,1-3.5,3.433" transform="translate(9.336 -113.172)" fill="#003b4e"/></g></svg>