<svg xmlns="http://www.w3.org/2000/svg" width="28.939" height="42.137" viewBox="0 0 28.939 42.137"><g transform="translate(-21.909 -16.978)"><path d="M38.981,421.5a1.271,1.271,0,1,0-1.271,1.271,1.272,1.272,0,0,0,1.271-1.271" transform="translate(8.021 -374.635)"/><path d="M44.954,399.023a2.592,2.592,0,0,0-2.53-2.038h-.658a3.25,3.25,0,1,0,0,6.5h.658a2.583,2.583,0,0,0,2.03-.984v10.273a4.014,4.014,0,0,1-4.008,4.009H37.023a2.594,2.594,0,0,0-2.517-1.981H30.547a2.6,2.6,0,0,0-2.518,1.981H24.608a4.015,4.015,0,0,1-4.011-4.009l.045-10.217a2.588,2.588,0,0,0,1.985.928h.659a3.25,3.25,0,1,0,0-6.5h-.659a2.593,2.593,0,0,0-2.53,2.038,2.6,2.6,0,0,0-2.04,2.531v11.219a6.558,6.558,0,0,0,6.551,6.549h3.421a2.6,2.6,0,0,0,2.518,1.98h.709v11.928a5.889,5.889,0,1,0,11.778,0V431.7a5.231,5.231,0,1,0-6.445-4.329A5.261,5.261,0,0,0,40.5,431.7v1.532a3.349,3.349,0,0,1-6.7,0V421.3h.709a2.594,2.594,0,0,0,2.517-1.98h3.422a6.557,6.557,0,0,0,6.548-6.549V401.555a2.6,2.6,0,0,0-2.04-2.531m-2.48.552v1.319l-.708.05a.71.71,0,1,1,0-1.419Zm-7.918,17.819-.05,1.369H30.547a.049.049,0,0,1-.05-.05l.05-1.369Zm-11.98-16.5v-1.319l.05-.05h.659a.71.71,0,1,1,0,1.419Zm16.5,25.738a2.689,2.689,0,1,1,2.69,2.69,2.692,2.692,0,0,1-2.69-2.69" transform="translate(3.852 -380.007)"/></g></svg>