<svg xmlns="http://www.w3.org/2000/svg" width="47.462" height="47.463" viewBox="0 0 47.462 47.463"><g transform="translate(-1136.398 -19181)"><path d="M637.4,36.1a4.955,4.955,0,0,0-2.836-2.836,8.263,8.263,0,0,0-2.775-.514c-1.575-.072-2.048-.087-6.038-.087s-4.462.015-6.038.087a8.263,8.263,0,0,0-2.775.514,4.951,4.951,0,0,0-2.836,2.836,8.268,8.268,0,0,0-.514,2.774c-.072,1.576-.087,2.049-.087,6.038s.015,4.462.087,6.037a8.268,8.268,0,0,0,.514,2.775,4.947,4.947,0,0,0,2.836,2.836,8.269,8.269,0,0,0,2.775.514c1.575.072,2.048.087,6.038.087s4.463-.015,6.038-.087a8.269,8.269,0,0,0,2.775-.514A4.95,4.95,0,0,0,637.4,53.72a8.27,8.27,0,0,0,.514-2.775c.072-1.575.087-2.048.087-6.037s-.015-4.463-.087-6.038A8.27,8.27,0,0,0,637.4,36.1M625.753,52.58a7.673,7.673,0,1,1,7.673-7.672,7.673,7.673,0,0,1-7.673,7.672m7.976-13.856a1.793,1.793,0,1,1,1.793-1.793,1.793,1.793,0,0,1-1.793,1.793" transform="translate(534.375 19159.824)" fill="#fff"/><path d="M639.161,53.333a4.981,4.981,0,1,0,4.981,4.981,4.981,4.981,0,0,0-4.981-4.981" transform="translate(520.969 19146.418)" fill="#fff"/><path d="M604.578,0a23.731,23.731,0,1,0,23.731,23.731A23.731,23.731,0,0,0,604.578,0M619.43,29.892a10.972,10.972,0,0,1-.694,3.627,7.643,7.643,0,0,1-4.37,4.37,10.971,10.971,0,0,1-3.627.695c-1.594.072-2.1.09-6.16.09s-4.567-.017-6.161-.09a10.966,10.966,0,0,1-3.627-.695,7.64,7.64,0,0,1-4.37-4.37,10.97,10.97,0,0,1-.695-3.627c-.072-1.594-.09-2.1-.09-6.161s.017-4.567.09-6.16a10.97,10.97,0,0,1,.695-3.627,7.642,7.642,0,0,1,4.37-4.37,10.967,10.967,0,0,1,3.627-.694c1.594-.073,2.1-.09,6.161-.09s4.567.017,6.16.09a10.972,10.972,0,0,1,3.627.694,7.645,7.645,0,0,1,4.37,4.37,10.972,10.972,0,0,1,.694,3.627c.073,1.594.09,2.1.09,6.16s-.017,4.567-.09,6.161" transform="translate(555.551 19181)" fill="#fff"/></g></svg>