<svg xmlns="http://www.w3.org/2000/svg" width="98.554" height="88.224" viewBox="0 0 98.554 88.224"><g transform="translate(-7175.53 -3046.442)"><path d="M91.45,135.667c5.063.153,96.069,0,96.246,0a1.155,1.155,0,1,0,0-2.309h-4.719V90.683A5.74,5.74,0,0,0,179.3,85.3l-24.829-9.677V67.232a4.046,4.046,0,0,0,3.588-4.008V59.44A4.058,4.058,0,0,0,154,55.386h-1.76V51.567a4.059,4.059,0,0,0-4.054-4.055H101.964a4.059,4.059,0,0,0-4.054,4.055v3.819h-1.76a4.06,4.06,0,0,0-4.056,4.054v3.784a4.047,4.047,0,0,0,3.593,4.008v66.124H91.451a1.155,1.155,0,1,0,0,2.309Zm45.968-2.31H112.737V110.63H137.42Zm-28.685-25.044a.413.413,0,0,1-.417-.417V104.28a.423.423,0,0,1,.417-.417h32.688a.423.423,0,0,1,.417.417V107.9a.413.413,0,0,1-.417.417Zm43.426,25.044H139.728V110.623h1.694a2.73,2.73,0,0,0,2.727-2.728v-3.616a2.73,2.73,0,0,0-2.727-2.728H108.733a2.73,2.73,0,0,0-2.727,2.728V107.9a2.73,2.73,0,0,0,2.727,2.728h1.694v22.735H98V67.285h54.163v66.073Zm26.3-45.9a3.444,3.444,0,0,1,2.206,3.228v42.674h-26.2V78.105ZM100.217,51.568a1.746,1.746,0,0,1,1.745-1.745h46.226a1.746,1.746,0,0,1,1.745,1.745v3.819H100.218ZM94.4,63.226V59.441A1.747,1.747,0,0,1,96.149,57.7H154a1.746,1.746,0,0,1,1.745,1.745v3.784A1.746,1.746,0,0,1,154,64.971H96.149A1.747,1.747,0,0,1,94.4,63.226Z" transform="translate(7085.234 2998.93)" fill="#e2fe0a"/><path d="M444.476,307.942h6.66a.6.6,0,0,0,.6-.6V300.68a.6.6,0,0,0-.6-.6h-6.66a.6.6,0,0,0-.6.6v6.662a.6.6,0,0,0,.6.6Zm.6-6.661h5.46v5.459h-5.46Z" transform="translate(6798.743 2794.285)" fill="#e2fe0a"/><path d="M510.386,307.942h6.66a.6.6,0,0,0,.6-.6V300.68a.6.6,0,0,0-.6-.6h-6.66a.6.6,0,0,0-.6.6v6.662a.6.6,0,0,0,.6.6Zm.6-6.661h5.46v5.459h-5.46Z" transform="translate(6745.338 2794.285)" fill="#e2fe0a"/><path d="M444.476,369.532h6.66a.6.6,0,0,0,.6-.6V362.27a.6.6,0,0,0-.6-.6h-6.66a.6.6,0,0,0-.6.6v6.661A.6.6,0,0,0,444.476,369.532Zm.6-6.661h5.46v5.459h-5.46Z" transform="translate(6798.743 2744.382)" fill="#e2fe0a"/><path d="M510.386,369.532h6.66a.6.6,0,0,0,.6-.6V362.27a.6.6,0,0,0-.6-.6h-6.66a.6.6,0,0,0-.6.6v6.661A.6.6,0,0,0,510.386,369.532Zm.6-6.661h5.46v5.459h-5.46Z" transform="translate(6745.338 2744.382)" fill="#e2fe0a"/><path d="M444.476,431.132h6.66a.6.6,0,0,0,.6-.6V423.87a.6.6,0,0,0-.6-.6h-6.66a.6.6,0,0,0-.6.6v6.661A.6.6,0,0,0,444.476,431.132Zm.6-6.662h5.46v5.459h-5.46Z" transform="translate(6798.743 2694.469)" fill="#e2fe0a"/><path d="M510.386,431.132h6.66a.6.6,0,0,0,.6-.6V423.87a.6.6,0,0,0-.6-.6h-6.66a.6.6,0,0,0-.6.6v6.661A.6.6,0,0,0,510.386,431.132Zm.6-6.662h5.46v5.459h-5.46Z" transform="translate(6745.338 2694.469)" fill="#e2fe0a"/><path d="M215.037,197.121A13.716,13.716,0,1,0,201.321,183.4,13.732,13.732,0,0,0,215.037,197.121Zm0-25.123A11.407,11.407,0,1,1,203.63,183.4,11.421,11.421,0,0,1,215.037,172Z" transform="translate(6995.275 2899.936)" fill="#e2fe0a"/><path d="M235.413,212.235a.605.605,0,0,0,.06.456l1.462,2.529a.6.6,0,0,0,.821.219l2.825-1.632v3.264a.6.6,0,0,0,.6.6h2.925a.6.6,0,0,0,.6-.6v-3.264l2.825,1.632a.6.6,0,0,0,.821-.219l1.462-2.529a.6.6,0,0,0,.06-.456.609.609,0,0,0-.279-.365l-2.827-1.631,2.827-1.632a.6.6,0,0,0,.219-.821l-1.462-2.529a.6.6,0,0,0-.821-.219l-2.825,1.632V203.4a.6.6,0,0,0-.6-.6h-2.925a.6.6,0,0,0-.6.6v3.264l-2.825-1.632a.6.6,0,0,0-.821.219l-1.462,2.529a.6.6,0,0,0-.06.456.609.609,0,0,0,.279.365l2.827,1.632-2.827,1.631A.609.609,0,0,0,235.413,212.235Zm4.608-1.477a.6.6,0,0,0,0-1.041l-3.206-1.852.861-1.489,3.206,1.853a.6.6,0,0,0,.9-.52V204h1.725v3.7a.6.6,0,0,0,.9.52l3.206-1.853.861,1.489-3.206,1.852a.6.6,0,0,0,0,1.041l3.206,1.851-.861,1.489-3.206-1.853a.6.6,0,0,0-.9.52v3.7h-1.725v-3.7a.6.6,0,0,0-.9-.52l-3.206,1.853-.861-1.489Z" transform="translate(6967.668 2873.104)" fill="#e2fe0a"/></g></svg>