<svg xmlns="http://www.w3.org/2000/svg" width="42.215" height="47.379" viewBox="0 0 42.215 47.379"><path d="M54.251,596.8c-1.485-2.581-5.411-3.308-11.07-2.057a3.423,3.423,0,0,0-2.132-1.24c-1.748-5.517-4.338-8.547-7.315-8.547-3.283,0-6.111,3.7-7.8,10.19-6.47-1.753-11.087-1.159-12.713,1.653s.166,7.1,4.921,11.836c-4.772,4.708-6.565,9.009-4.921,11.856.994,1.726,3.155,2.638,6.269,2.638a26.322,26.322,0,0,0,6.455-.991c1.714,6.491,4.537,10.2,7.792,10.2,3,0,5.514-2.913,7.276-8.433a3.443,3.443,0,0,0,2.231-1.33,23.476,23.476,0,0,0,4.76.578c3.083,0,5.243-.92,6.249-2.66,1.627-2.818-.171-7.116-4.933-11.845,4.759-4.732,6.557-9.029,4.935-11.845M29.039,616.78c.531.305,1.057.594,1.582.874-.89.38-1.791.732-2.695,1.056-.175-.95-.321-1.906-.438-2.861q.76.47,1.551.931m14.876-19.426c4.141-.891,7.185-.594,7.987.8h0c.779,1.349-.347,4.529-4.556,8.662a52.043,52.043,0,0,0-4.45-3.461c-.1-1.189-.247-2.383-.437-3.626a3.428,3.428,0,0,0,1.455-2.375m-.823,9.482c.77.58,1.526,1.185,2.259,1.809-.7.6-1.457,1.2-2.259,1.806q.029-.9.029-1.808t-.029-1.808m-16.006.237a3.411,3.411,0,0,0,2.052-3.455c.411-.254.828-.507,1.258-.754,1.058-.61,2.155-1.2,3.347-1.786,1.14.566,2.23,1.151,3.327,1.786,1.058.61,2.112,1.263,3.214,1.992.087,1.363.128,2.606.128,3.79,0,1.167-.042,2.409-.129,3.791-1.112.735-2.165,1.388-3.212,1.992-1.075.62-2.168,1.206-3.328,1.783-1.213-.6-2.311-1.184-3.346-1.783-1.074-.621-2.13-1.277-3.219-2-.082-1.307-.122-2.549-.122-3.786,0-.528.013-1.045.031-1.572m11.341-6.558c-.525-.3-1.047-.591-1.566-.869q.538-.227,1.073-.439a3.477,3.477,0,0,0,1.866,1.062c.059.386.112.774.161,1.167-.5-.311-1.011-.619-1.534-.92m-1.559,17.129q.776-.419,1.557-.869t1.533-.918c-.054.432-.112.858-.176,1.274a3.421,3.421,0,0,0-1.766.98q-.571-.223-1.149-.467m.2-21.014c-1.16.45-2.256.919-3.333,1.426a51.363,51.363,0,0,0-5.2-2.109c1.316-5.052,3.335-8.283,5.2-8.283,1.607,0,3.386,2.479,4.682,6.5a3.436,3.436,0,0,0-1.351,2.463m-8.025,3.879c-.409.236-.8.476-1.194.716a3.22,3.22,0,0,0-.29-.206c.111-.834.243-1.648.391-2.434.9.321,1.794.671,2.675,1.046-.526.283-1.053.574-1.582.878m-4.663,9.946c-.764-.575-1.516-1.177-2.247-1.8.641-.548,1.323-1.1,2.04-1.649.067.032.134.062.2.09-.016.51-.028,1.023-.028,1.545q0,.919.032,1.811m.587-6.532a.739.739,0,1,1,.74.738.747.747,0,0,1-.74-.738m-.085-3.342a3.406,3.406,0,0,0-2.459,4.359c-.809.621-1.578,1.249-2.3,1.872-4.211-4.13-5.339-7.307-4.561-8.656s4.1-1.961,9.778-.391c-.172.9-.326,1.848-.459,2.816m-4.744,9.907a52.058,52.058,0,0,0,4.435,3.447,51.884,51.884,0,0,0,.769,5.588c-5.672,1.572-8.992.957-9.778-.391-.931-1.617.858-4.98,4.573-8.644m13.579,8.732c1.089.509,2.208.987,3.337,1.427a3.448,3.448,0,0,0,1.333,2.562c-1.289,3.969-3.053,6.415-4.649,6.415-1.555,0-3.748-2.564-5.23-8.275a52.181,52.181,0,0,0,5.209-2.129m9.187-5.286a51.053,51.053,0,0,0,4.45-3.463c4.208,4.138,5.333,7.316,4.555,8.661-.81,1.4-3.854,1.7-8.007.8a3.422,3.422,0,0,0-1.451-2.273c.2-1.245.347-2.495.453-3.725M39.762,596.9a.739.739,0,1,1,.74.74.74.74,0,0,1-.74-.74m.74,22.856a.739.739,0,1,1-.74.74.74.74,0,0,1,.74-.74" transform="translate(-12.622 -584.954)"/></svg>