<svg xmlns="http://www.w3.org/2000/svg" width="96.255" height="96.256" viewBox="0 0 96.255 96.256">
  <g id="ico-resp1" transform="translate(-7126.579)">
    <g id="Group_1315" data-name="Group 1315" transform="translate(7126.579)">
      <g id="noun-science-3637332" opacity="0.9">
        <path id="Path_5724" data-name="Path 5724" d="M522.46,350a6.21,6.21,0,1,0,6.21,6.21A6.217,6.217,0,0,0,522.46,350Zm0,9.315a3.105,3.105,0,1,1,3.105-3.1A3.108,3.108,0,0,1,522.46,359.315Z" transform="translate(-438.625 -289.452)" fill="#c6e300"/>
        <path id="Path_5725" data-name="Path 5725" d="M162.585,63.087a12.376,12.376,0,0,0-8.741,3.608l-10.176-7.964a20,20,0,0,0,2.265-17.761l5.986-2.6a12.377,12.377,0,1,0-1.247-2.845l-5.97,2.6a20.2,20.2,0,0,0-16.271-10.661v-6.51a6.21,6.21,0,1,0-3.1,0v6.51a20.133,20.133,0,0,0-13.686,6.91L102,27.239a12.5,12.5,0,1,0-1.853,2.494l9.651,7.134a19.976,19.976,0,0,0-1.212,19.161L92.539,65.012a6.482,6.482,0,1,0,1.509,2.712l16.047-8.986a20.23,20.23,0,0,0,5.224,5.364L103.262,88.216A11.6,11.6,0,0,0,113.637,105h26.481a11.6,11.6,0,0,0,10.374-16.788L138.435,64.1a20.028,20.028,0,0,0,3.316-2.928l10.186,7.972a12.407,12.407,0,1,0,10.646-6.059Zm0-40.365a9.315,9.315,0,1,1-9.315,9.315A9.325,9.325,0,0,1,162.585,22.722ZM91.169,30.484a9.315,9.315,0,1,1,9.315-9.315A9.325,9.325,0,0,1,91.169,30.484ZM88.064,72.4a3.105,3.105,0,1,1,3.105-3.1A3.108,3.108,0,0,1,88.064,72.4Zm35.708-57.443a3.105,3.105,0,1,1,3.1,3.105A3.108,3.108,0,0,1,123.772,14.959Zm20.183,68.31c0,2.06-2.613,3.105-7.763,3.105-3.3,0-6.5-1.347-9.5-2.984a17.978,17.978,0,0,1,9.5-3.226C141.342,80.164,143.955,81.209,143.955,83.269Zm-7.763-6.21c-4.911,0-9.357,2.363-12.467,4.6l-.7-.424c-3.548-2.148-6.9-4.179-10.121-4.179-.2,0-.414.04-.618.051l6.828-13.657V52.219h15.525V63.453l7.1,14.208a22.838,22.838,0,0,0-5.552-.6Zm0-27.945h-18.63a1.553,1.553,0,0,1,0-3.105h18.63a1.553,1.553,0,1,1,0,3.105Zm12.42,44.29a8.505,8.505,0,0,1-8.5,8.5H113.637a8.494,8.494,0,0,1-7.6-12.294l4.552-9.1a9.5,9.5,0,0,1,2.313-.338c2.359,0,5.345,1.812,8.509,3.729,4.321,2.618,9.217,5.586,14.779,5.586,5.1,0,8.384-1.067,9.892-3.136l1.63,3.262a8.542,8.542,0,0,1,.9,3.8Zm-10.868-32.7V51.934a4.646,4.646,0,0,0-1.553-9.03h-18.63a4.646,4.646,0,0,0-1.552,9.03v8.773a17.078,17.078,0,1,1,21.735,0Zm24.84,24.116a9.315,9.315,0,1,1,9.315-9.315A9.325,9.325,0,0,1,162.585,84.822Z" transform="translate(-78.749 -8.749)" fill="#c6e300"/>
        <path id="Path_5726" data-name="Path 5726" d="M119.96,43.75a6.21,6.21,0,1,0,6.21,6.21A6.217,6.217,0,0,0,119.96,43.75Zm0,9.315a3.105,3.105,0,1,1,3.1-3.105A3.108,3.108,0,0,1,119.96,53.065Z" transform="translate(-107.54 -37.54)" fill="#c6e300"/>
        <path id="Path_5727" data-name="Path 5727" d="M522.46,117.42a6.21,6.21,0,1,0-6.21-6.21A6.217,6.217,0,0,0,522.46,117.42Zm0-9.315a3.105,3.105,0,1,1-3.1,3.105A3.108,3.108,0,0,1,522.46,108.105Z" transform="translate(-438.625 -87.922)" fill="#c6e300"/>
        <path id="Path_5728" data-name="Path 5728" d="M258.408,455a4.658,4.658,0,1,0,4.658,4.657A4.663,4.663,0,0,0,258.408,455Zm0,6.21a1.553,1.553,0,1,1,1.553-1.553A1.554,1.554,0,0,1,258.408,461.21Z" transform="translate(-222.7 -375.822)" fill="#c6e300"/>
        <path id="Path_5729" data-name="Path 5729" d="M328.408,288.75a4.658,4.658,0,1,0,4.658,4.658A4.663,4.663,0,0,0,328.408,288.75Zm0,6.21a1.552,1.552,0,1,1,1.553-1.552A1.554,1.554,0,0,1,328.408,294.96Z" transform="translate(-280.28 -239.07)" fill="#c6e300"/>
      </g>
    </g>
  </g>
</svg>
