<svg xmlns="http://www.w3.org/2000/svg" width="44.961" height="41.125" viewBox="0 0 44.961 41.125"><g transform="translate(-14.029 -15.948)"><path d="M39.055,31.367a7.737,7.737,0,1,0-7.782-7.737,7.8,7.8,0,0,0,7.782,7.737m0-13.527a5.824,5.824,0,0,1,4.127,1.709,5.748,5.748,0,0,1,1.7,4.107,5.828,5.828,0,1,1-5.828-5.816" transform="translate(6.897 3.505)"/><path d="M39.683,35.443A11.189,11.189,0,1,0,28.428,24.255,11.255,11.255,0,0,0,39.683,35.443m0-20.432v-.305l.012.305a9.27,9.27,0,0,1,6.576,2.723,9.164,9.164,0,0,1,2.712,6.546,9.3,9.3,0,1,1-9.3-9.269" transform="translate(6.27 2.882)"/><path d="M35.638,24.617a2.446,2.446,0,0,0,1.485,2.24v.384a.976.976,0,0,0,1.953,0V26.9a2.439,2.439,0,0,0,.482-4.217.981.981,0,0,0,1-.973,2.442,2.442,0,0,0-1.478-2.238v-.413a.976.976,0,0,0-1.953,0v.413a2.429,2.429,0,0,0-.509,4.177.976.976,0,0,0-.976.973m2.473-3.408a.492.492,0,0,1,.489.5.965.965,0,0,0,.206.6,2.494,2.494,0,0,0-.708-.1.5.5,0,1,1,.012-.992m.01,2.939a.5.5,0,0,1,.065.989.664.664,0,0,0-.085-.018c-.031,0-.056.016-.087.018a.5.5,0,0,1-.289-.148.514.514,0,0,1-.132-.372.957.957,0,0,0-.187-.572,2.508,2.508,0,0,0,.715.1" transform="translate(7.86 3.988)"/><path d="M13.814,48.9h5.139a2.313,2.313,0,0,0,2.311-2.2l10.024,3.447a10.155,10.155,0,0,0,3.3.55H34.6a10.19,10.19,0,0,0,4.65-1.128l15.683-8.1a2.79,2.79,0,0,0-2.038-5.167l-9.449,2.545c.009-.082.012-.165.013-.248A3.063,3.063,0,0,0,40.4,35.561H34.354A14.579,14.579,0,0,0,24.7,31.508H21.273v-.3a2.316,2.316,0,0,0-2.32-2.308H13.814a2.317,2.317,0,0,0-2.32,2.308V46.6a2.317,2.317,0,0,0,2.32,2.308M21.273,33.48h3.416A12.816,12.816,0,0,1,33.3,37.271a.973.973,0,0,0,.665.262H40.4a1.111,1.111,0,0,1,1,.629,1.079,1.079,0,0,1,.04.837,1.048,1.048,0,0,1-.514.594.3.3,0,0,0-.118.023,1.079,1.079,0,0,1-.413.084H30.721a.972.972,0,1,0,0,1.944H40.4a3.013,3.013,0,0,0,1.16-.231L53.435,38.2a.853.853,0,0,1,.935.35.8.8,0,0,1-.343,1.186L38.349,47.814a8.26,8.26,0,0,1-6.419.47L21.273,44.619Zm-7.826-2.262a.365.365,0,0,1,.367-.363h0l5.137-.013a.365.365,0,0,1,.366.363v1.146a.761.761,0,0,0-.027.129V45.334a.9.9,0,0,0,.027.162V46.61a.365.365,0,0,1-.366.363H13.814a.365.365,0,0,1-.367-.363Z" transform="translate(2.535 6.373)"/></g></svg>