<svg xmlns="http://www.w3.org/2000/svg" width="109.428" height="109.428" viewBox="0 0 109.428 109.428"><path d="M336.554,8.75H276.545a5.3,5.3,0,0,0-5.295,5.295V26.4h3.53V14.045a1.768,1.768,0,0,1,1.765-1.765h60.009a1.768,1.768,0,0,1,1.765,1.765V59.934a1.768,1.768,0,0,1-1.765,1.765H318.9V56.4a12.369,12.369,0,0,0-10.115-12.141,13.713,13.713,0,0,0,4.82-10.435V29.561A13.767,13.767,0,0,0,299.858,15.81h-.737A13.767,13.767,0,0,0,285.37,29.561v4.267a13.713,13.713,0,0,0,4.82,10.435A12.369,12.369,0,0,0,280.075,56.4V61.7h-3.53a1.768,1.768,0,0,1-1.765-1.765V44.049h-3.53V59.934a5.3,5.3,0,0,0,5.295,5.295h60.009a5.3,5.3,0,0,0,5.295-5.295V14.045a5.3,5.3,0,0,0-5.295-5.295ZM299.12,19.34h.737a10.23,10.23,0,0,1,9.558,6.631,12.241,12.241,0,0,1-5.7-2.529,1.769,1.769,0,0,0-1.852-.351,52.661,52.661,0,0,1-12.3,2.9,10.228,10.228,0,0,1,9.565-6.65ZM288.9,33.828V29.607a60.527,60.527,0,0,0,13.274-2.865,18.108,18.108,0,0,0,7.905,2.909v4.178a10.233,10.233,0,0,1-10.221,10.221h-.738A10.233,10.233,0,0,1,288.9,33.828ZM315.374,61.7H283.6V56.4a8.835,8.835,0,0,1,8.825-8.825h14.12a8.835,8.835,0,0,1,8.825,8.825Z" transform="translate(-232.42 -8.75)" fill="#c6e300"/><path d="M379.78,124.265a1.765,1.765,0,1,1-1.765-1.765,1.765,1.765,0,0,1,1.765,1.765" transform="translate(-316.241 -99.555)" fill="#c6e300"/><path d="M432.28,124.265a1.765,1.765,0,1,1-1.765-1.765,1.765,1.765,0,0,1,1.765,1.765" transform="translate(-358.151 -99.555)" fill="#c6e300"/><path d="M511.1,43.75h-7.06a1.766,1.766,0,0,0-1.765,1.765V47.28h-1.765a1.766,1.766,0,0,0-1.765,1.765V56.1a1.766,1.766,0,0,0,1.765,1.765h1.765v1.765a1.766,1.766,0,0,0,1.765,1.765h7.06a1.766,1.766,0,0,0,1.765-1.765V57.87h1.765A1.766,1.766,0,0,0,516.4,56.1v-7.06a1.766,1.766,0,0,0-1.765-1.765H512.87V45.515A1.766,1.766,0,0,0,511.1,43.75Zm1.765,10.59H511.1A1.766,1.766,0,0,0,509.34,56.1V57.87h-3.53V56.1a1.766,1.766,0,0,0-1.765-1.765H502.28V50.81h1.765a1.766,1.766,0,0,0,1.765-1.765V47.28h3.53v1.765A1.766,1.766,0,0,0,511.1,50.81h1.765Z" transform="translate(-414.031 -36.69)" fill="#c6e300"/><path d="M84.045,70.3h24.71A5.3,5.3,0,0,0,114.049,65V61.04l11.075-3.164a1.765,1.765,0,0,0,.21-3.319l-11.286-4.836V40.295A5.3,5.3,0,0,0,108.754,35H84.045a5.3,5.3,0,0,0-5.295,5.295V65A5.3,5.3,0,0,0,84.045,70.3Zm-1.765-30a1.768,1.768,0,0,1,1.765-1.765h24.71a1.768,1.768,0,0,1,1.765,1.765v10.59a1.763,1.763,0,0,0,1.069,1.622l7.793,3.339L111.8,58.014a1.763,1.763,0,0,0-1.28,1.7V65a1.768,1.768,0,0,1-1.765,1.765H84.045A1.768,1.768,0,0,1,82.28,65Z" transform="translate(-78.75 -29.705)" fill="#c6e300"/><path d="M285.446,406.255h22.945a5.3,5.3,0,0,0,5.295-5.295V381.545a5.3,5.3,0,0,0-5.295-5.295H285.446a5.3,5.3,0,0,0-5.295,5.295v3.53H264.266a1.766,1.766,0,0,0-.789,3.345l16.674,8.336v4.2a5.3,5.3,0,0,0,5.295,5.295Zm-13.7-17.65h10.173a1.766,1.766,0,0,0,1.765-1.765v-5.295a1.768,1.768,0,0,1,1.765-1.765h22.945a1.768,1.768,0,0,1,1.765,1.765V400.96a1.768,1.768,0,0,1-1.765,1.765H285.446a1.768,1.768,0,0,1-1.765-1.765v-5.295a1.767,1.767,0,0,0-.976-1.58Z" transform="translate(-225.437 -302.121)" fill="#c6e300"/><path d="M463.75,420h3.53v3.53h-3.53Z" transform="translate(-386.091 -337.046)" fill="#c6e300"/><path d="M385,420h12.355v3.53H385Z" transform="translate(-323.226 -337.046)" fill="#c6e300"/><path d="M385,463.75h19.415v3.53H385Z" transform="translate(-323.226 -371.971)" fill="#c6e300"/><path d="M82.279,401.034a8.835,8.835,0,0,1,8.825-8.825h14.12a8.835,8.835,0,0,1,8.825,8.825v3.53h3.53v-3.53A12.365,12.365,0,0,0,107.2,388.852a11.343,11.343,0,0,0,3.316-8.019v-1.959A11.388,11.388,0,0,0,99.143,367.5H97.184a11.388,11.388,0,0,0-11.376,11.376v1.959a11.341,11.341,0,0,0,3.316,8.018,12.366,12.366,0,0,0-10.376,12.182v3.53h3.53Zm7.06-22.16a7.855,7.855,0,0,1,7.846-7.846h1.959a7.855,7.855,0,0,1,7.846,7.846v1.959a7.855,7.855,0,0,1-7.846,7.846H97.185a7.855,7.855,0,0,1-7.846-7.846Z" transform="translate(-78.749 -295.135)" fill="#c6e300"/><path d="M118.68,89.748a7.017,7.017,0,0,0,4.993-2.068l7.487-7.487a7.059,7.059,0,0,0,0-9.985,7.224,7.224,0,0,0-9.982,0L113.689,77.7a7.059,7.059,0,0,0,4.991,12.051ZM123.673,72.7a3.53,3.53,0,0,1,4.991,4.994l-2.5,2.5L121.177,75.2Zm-7.489,7.489,2.5-2.5,4.994,4.991-2.5,2.5a3.615,3.615,0,0,1-4.993,0,3.528,3.528,0,0,1,0-4.991Z" transform="translate(-104.99 -56.213)" fill="#c6e300"/></svg>