<svg xmlns="http://www.w3.org/2000/svg" width="47.462" height="47.461" viewBox="0 0 47.462 47.461"><g transform="translate(-932.188 -19181.002)"><path d="M58.5,63.492l8.22-4.746L58.5,54Z" transform="translate(894.256 19145.984)" fill="#fff"/><path d="M23.731,0A23.731,23.731,0,1,0,47.462,23.732,23.731,23.731,0,0,0,23.731,0M38.891,31.348a3.963,3.963,0,0,1-2.8,2.8c-2.467.661-12.362.661-12.362.661s-9.895,0-12.362-.661a3.963,3.963,0,0,1-2.8-2.8,41.185,41.185,0,0,1-.661-7.615,41.191,41.191,0,0,1,.661-7.616,3.962,3.962,0,0,1,2.8-2.8c2.468-.661,12.362-.661,12.362-.661s9.895,0,12.362.661a3.962,3.962,0,0,1,2.8,2.8,41.17,41.17,0,0,1,.661,7.616,41.163,41.163,0,0,1-.661,7.615" transform="translate(932.188 19181)" fill="#fff"/></g></svg>