<svg xmlns="http://www.w3.org/2000/svg" width="49.563" height="44.75" viewBox="0 0 49.563 44.75"><g transform="translate(-12.519 -15.488)"><path d="M46.175,204.813a16.49,16.49,0,0,0-11.028,4.3c-3.494-3.219-6.789-4.837-9.795-4.837a14.724,14.724,0,0,0-10.614,4.481,15.548,15.548,0,0,0-4.344,11.786,1.149,1.149,0,1,0,2.295-.138,13.258,13.258,0,0,1,3.69-10.052,12.45,12.45,0,0,1,8.973-3.781c2.553,0,5.634,1.682,8.9,4.86a1.284,1.284,0,0,0,1.8,0,14.38,14.38,0,0,1,10-4.321h.087a10.711,10.711,0,0,1,7.763,3.242,13.341,13.341,0,0,1,0,18.441L35.456,246.584a.511.511,0,0,1-.716,0L22.117,234.391a1.148,1.148,0,0,0-1.6,1.653l12.623,12.192a2.8,2.8,0,0,0,3.907,0l18.51-17.815a15.629,15.629,0,0,0,0-21.671,12.956,12.956,0,0,0-9.386-3.936" transform="translate(2.155 -188.792)" fill="#007889"/><path d="M23.175,227.979a1.149,1.149,0,0,0,2.043-.2l3.339-8.606,3.081,12.2a1.147,1.147,0,0,0,.981.861h.132a1.147,1.147,0,0,0,1.015-.614l3.826-7.333,1.463,2.611a1.149,1.149,0,0,0,1,.574h5.33a1.147,1.147,0,1,0,0-2.295H40.738l-2.174-3.879a1.154,1.154,0,0,0-2.043.092l-3.442,6.547-3.173-12.772a1.147,1.147,0,0,0-2.18-.132L23.9,224.852,21.6,221.174a1.129,1.129,0,0,0-1.946.034L17.15,225.27H13.082a1.147,1.147,0,1,0,0,2.295l4.705-.028a1.146,1.146,0,0,0,.975-.574l1.871-3.035Z" transform="translate(2.064 -186.31)" fill="#007889"/></g></svg>