<svg xmlns="http://www.w3.org/2000/svg" width="99.026" height="85.524" viewBox="0 0 99.026 85.524"><g transform="translate(-505.671 -355.048)"><path d="M206.57,11.043a1.885,1.885,0,0,0-2.738,0,2.073,2.073,0,0,0,0,2.843,1.885,1.885,0,0,0,2.738,0,2.073,2.073,0,0,0,0-2.843" transform="translate(389.57 353.017)" fill="#00b2bb"/><path d="M183.332,35.808a1.885,1.885,0,0,0-2.738,0,2.073,2.073,0,0,0,0,2.843,1.885,1.885,0,0,0,2.738,0,2.073,2.073,0,0,0,0-2.843" transform="translate(368.385 375.594)" fill="#00b2bb"/><path d="M239.391,62.828a3.332,3.332,0,0,1-4.837,0l-8.05-8.367,0,0-7.572-7.868a1.882,1.882,0,0,0-2.736,0,2.067,2.067,0,0,0,0,2.843l15.624,16.238a3.655,3.655,0,0,1,0,5.026,3.327,3.327,0,0,1-4.837,0L211.358,54.461a1.882,1.882,0,0,0-2.736,0,2.067,2.067,0,0,0,0,2.843l7.57,7.868,0,0,8.052,8.367a3.661,3.661,0,0,1,0,5.028,3.335,3.335,0,0,1-4.838,0l-8.05-8.367a1.948,1.948,0,0,0-.5-.373l-2.3-2.386a1.882,1.882,0,0,0-2.736,0,2.067,2.067,0,0,0,0,2.843l10.774,11.2a3.662,3.662,0,0,1,0,5.028,3.334,3.334,0,0,1-4.838,0l-4.1-4.261a7.847,7.847,0,0,0,.476-2.7,7.681,7.681,0,0,0-2.133-5.356,7.111,7.111,0,0,0-5.154-2.218c-.1,0-.2,0-.294.008a7.723,7.723,0,0,0-2.126-5.659,7.1,7.1,0,0,0-5.154-2.219c-.1,0-.2,0-.294.008a7.713,7.713,0,0,0-2.124-5.659,7.1,7.1,0,0,0-5.154-2.219c-.1,0-.2,0-.294.008a7.713,7.713,0,0,0-2.124-5.659,7.105,7.105,0,0,0-10.31,0l-3.332,3.464a7.543,7.543,0,0,0-1.074,1.42,27.706,27.706,0,0,1,.556-37.505,25.216,25.216,0,0,1,35.284-1.334L192.53,28.979a8.881,8.881,0,0,0,0,12.216,8.1,8.1,0,0,0,11.755,0l5.267-5.475h6.819a12.745,12.745,0,0,0,1.669-.111L239.393,57.8a3.66,3.66,0,0,1,0,5.028M203.276,82.062l-3.334,3.464a3.332,3.332,0,0,1-4.837,0,3.658,3.658,0,0,1,0-5.028l3.332-3.464a3.33,3.33,0,0,1,4.838,0,3.655,3.655,0,0,1,0,5.028m-15.745-4.406a3.655,3.655,0,0,1,0-5.028l3.334-3.464a3.327,3.327,0,0,1,4.837,0,3.655,3.655,0,0,1,0,5.026l-3.334,3.466a3.333,3.333,0,0,1-4.837,0m-7.572-7.87a3.655,3.655,0,0,1,0-5.028l3.334-3.464a3.327,3.327,0,0,1,4.837,0,3.658,3.658,0,0,1,0,5.028L184.8,69.785a3.333,3.333,0,0,1-4.837,0m-5.154-6.828a3.34,3.34,0,0,1-2.42-1.042,3.655,3.655,0,0,1,0-5.028l3.334-3.464a3.327,3.327,0,0,1,4.837,0,3.658,3.658,0,0,1,0,5.028l-3.332,3.464a3.336,3.336,0,0,1-2.418,1.042m78.021-41.219a1.9,1.9,0,0,0-2.638-.753,2.055,2.055,0,0,0-.725,2.741,27.8,27.8,0,0,1-4.219,32.359l-1.466,1.524a7.535,7.535,0,0,0-1.652-2.65L222.253,34.3a13.429,13.429,0,0,0,3.556-2.648l3.812-3.961a2.067,2.067,0,0,0,0-2.843,1.882,1.882,0,0,0-2.736,0l-3.812,3.961a9.245,9.245,0,0,1-6.7,2.885h-7.62a1.9,1.9,0,0,0-1.367.589l-5.834,6.064a4.33,4.33,0,0,1-6.284,0,4.753,4.753,0,0,1,0-6.53l13.319-13.841a25.3,25.3,0,0,1,30.9-4.523,1.9,1.9,0,0,0,2.63-.784,2.052,2.052,0,0,0-.753-2.732A28.931,28.931,0,0,0,207.2,13.815a28.979,28.979,0,0,0-40.8,1.3,31.829,31.829,0,0,0,0,43.789l.728.757a1.926,1.926,0,0,0,.417.327,7.674,7.674,0,0,0,2.107,4.768,7.128,7.128,0,0,0,5.154,2.216c.1,0,.2,0,.293-.008,0,.1-.008.2-.008.306a7.683,7.683,0,0,0,2.135,5.357,7.129,7.129,0,0,0,5.154,2.216c.1,0,.193,0,.291-.008,0,.1-.008.2-.008.306A7.683,7.683,0,0,0,184.8,80.5a7.13,7.13,0,0,0,5.154,2.214c.1,0,.2,0,.294-.006a7.724,7.724,0,0,0,2.124,5.662,7.1,7.1,0,0,0,10.308,0l2.705-2.81,3.651,3.795a7.094,7.094,0,0,0,10.308,0,7.722,7.722,0,0,0,2.122-5.737c.12.008.243.011.365.011a7.132,7.132,0,0,0,5.154-2.216,7.72,7.72,0,0,0,2.124-5.66c.1.006.2.008.294.008a7.1,7.1,0,0,0,5.154-2.218,7.728,7.728,0,0,0,2.126-5.659c.1,0,.195.006.294.006a7.111,7.111,0,0,0,5.154-2.218,7.584,7.584,0,0,0,1.581-2.462,1.919,1.919,0,0,0,.52-.384l3.753-3.9a31.955,31.955,0,0,0,4.846-37.19" transform="translate(348 349)" fill="#00b2bb"/></g></svg>