<svg xmlns="http://www.w3.org/2000/svg" width="47.462" height="47.463" viewBox="0 0 47.462 47.463"><g transform="translate(-1068.328 -19181)"><path d="M410.962,0a23.731,23.731,0,1,0,23.731,23.731A23.731,23.731,0,0,0,410.962,0m13.116,18.655c.013.27.018.542.018.815,0,8.327-6.338,17.929-17.929,17.929a17.84,17.84,0,0,1-9.659-2.831,12.792,12.792,0,0,0,1.5.088,12.643,12.643,0,0,0,7.826-2.7,6.309,6.309,0,0,1-5.887-4.377,6.3,6.3,0,0,0,2.846-.108,6.3,6.3,0,0,1-5.055-6.178c0-.028,0-.054,0-.08A6.26,6.26,0,0,0,400.6,22a6.307,6.307,0,0,1-1.951-8.412,17.89,17.89,0,0,0,12.988,6.584,6.305,6.305,0,0,1,10.739-5.747,12.619,12.619,0,0,0,4-1.53,6.321,6.321,0,0,1-2.771,3.486,12.581,12.581,0,0,0,3.619-.992,12.825,12.825,0,0,1-3.144,3.263" transform="translate(681.097 19181)" fill="#fff" fill-rule="evenodd"/></g></svg>