<svg xmlns="http://www.w3.org/2000/svg" width="39.764" height="48.244" viewBox="0 0 39.764 48.244"><path d="M39.167,499.5h-.023a14.163,14.163,0,0,0-3.43.421,11.951,11.951,0,0,1,2.158-5.237,11.256,11.256,0,0,1,2.353-2.445,1.428,1.428,0,0,0-1.6-2.362A13.256,13.256,0,0,0,35.4,493.21a9.444,9.444,0,0,0-11.74-4.335,9.509,9.509,0,0,0-1.463.719,1.429,1.429,0,0,0-.677,1.4,9.429,9.429,0,0,0,10.508,8.217,9.2,9.2,0,0,0,.93-.161q-.115.633-.178,1.273a14.145,14.145,0,0,0-4.749-.817A14.32,14.32,0,0,0,13.7,513.8c0,7.76,6.042,22.669,14.3,22.67h.02a14.209,14.209,0,0,0,5.212-.986.958.958,0,0,1,.7,0,14.186,14.186,0,0,0,5.208.986h.021c8.262,0,14.3-14.909,14.3-22.669a14.315,14.315,0,0,0-14.3-14.3m-4.193,33.325a3.8,3.8,0,0,0-2.789,0,11.325,11.325,0,0,1-4.165.789H28c-2.577,0-5.433-2.622-7.836-7.193-2.16-4.09-3.61-9.161-3.61-12.622a11.454,11.454,0,0,1,11.45-11.446h.009a11.407,11.407,0,0,1,4.456.906,2.841,2.841,0,0,0,2.1.043l.118-.045A11.451,11.451,0,0,1,50.6,513.8c0,3.459-1.449,8.53-3.608,12.622-2.407,4.571-5.264,7.193-7.836,7.193h-.01a11.369,11.369,0,0,1-4.173-.789m-1.551-36.915a6.622,6.622,0,0,1-5.414-.155h0a6.6,6.6,0,0,1-3.465-4.161,6.582,6.582,0,0,1,8.412,3.107,6.614,6.614,0,0,1,.469,1.21" transform="translate(-13.701 -488.228)"/></svg>