<svg xmlns="http://www.w3.org/2000/svg" width="95.81" height="67.254" viewBox="0 0 95.81 67.254">
  <g id="Group_1118" data-name="Group 1118" transform="translate(0.25 -572.307)">
    <path id="Path_3305" data-name="Path 3305" d="M394.377,283.913a3.449,3.449,0,0,1-3.522,3.365H308.942a3.449,3.449,0,0,1-3.522-3.365V229.955a3.449,3.449,0,0,1,3.522-3.365h81.913a3.449,3.449,0,0,1,3.522,3.365Zm-3.522-60.356H308.942a6.561,6.561,0,0,0-6.7,6.4v53.958a6.561,6.561,0,0,0,6.7,6.4h81.913a6.561,6.561,0,0,0,6.7-6.4V229.955a6.561,6.561,0,0,0-6.7-6.4" transform="translate(-302.243 349)" fill="#c6e300" stroke="#e2fe0a" stroke-width="0.5"/>
    <path id="Path_3306" data-name="Path 3306" d="M335.273,268.419c-.992.576-5.022,1.378-12.707,1.378s-11.717-.8-12.709-1.378v-1.668a3.411,3.411,0,0,1,1.829-3.007l6.128-2.883a2.691,2.691,0,0,0,1.573-2.409v-2.736l-.961-.394a8.136,8.136,0,0,1-4.789-5.786l-.227-.809-.834-.249a1.542,1.542,0,0,1-1.129-1.439v-1.518a1.508,1.508,0,0,1,.859-1.328l.745-.379.088-.8a13.708,13.708,0,0,1,.988-3.9c.211-.494.39-.863.537-1.163a4.318,4.318,0,0,0,.6-2.846,11.774,11.774,0,0,0,6.547,1.276c.247-.02.5-.029.759-.029,5.947,0,8.85,2.058,9.417,6.672l.1.793.739.372a1.518,1.518,0,0,1,.863,1.333v1.518a1.538,1.538,0,0,1-1.131,1.437l-.836.249-.227.809a8.129,8.129,0,0,1-4.789,5.786l-.959.4v2.747a2.657,2.657,0,0,0,1.53,2.389l6,2.928a3.424,3.424,0,0,1,2,3.093Zm-.575-7.352-5.779-2.819v-.587a11.063,11.063,0,0,0,5.419-6.62,4.5,4.5,0,0,0,2.523-4v-1.518a4.454,4.454,0,0,0-1.829-3.563c-.992-5.734-5.181-8.641-12.467-8.641-.345,0-.682.011-1.011.036a8.344,8.344,0,0,1-5.12-1.122,6.41,6.41,0,0,1-1.455-1.2,1.952,1.952,0,0,0-2.226-.566,1.791,1.791,0,0,0-1.165,1.892c.066.567.166,1.228.317,1.951.306,1.48.306,1.48-.123,2.364-.163.336-.363.745-.6,1.294a16.365,16.365,0,0,0-1.113,4.016,4.459,4.459,0,0,0-1.8,3.544v1.518a4.5,4.5,0,0,0,2.523,4,11.053,11.053,0,0,0,5.419,6.62v.571l-5.987,2.819a6.449,6.449,0,0,0-3.544,5.7v2.012c0,1.217,0,4.068,15.885,4.068s15.884-2.851,15.884-4.068v-1.89a6.437,6.437,0,0,0-3.751-5.806" transform="translate(-298.738 354.343)" fill="#c6e300" stroke="#e2fe0a" stroke-width="0.5"/>
    <path id="Path_3307" data-name="Path 3307" d="M329.571,237.611h15.885a1.518,1.518,0,1,0,0-3.034H329.571a1.518,1.518,0,1,0,0,3.034" transform="translate(-281.917 357.702)" fill="#c6e300" stroke="#e2fe0a" stroke-width="0.5"/>
    <path id="Path_3308" data-name="Path 3308" d="M342,237.611h1.589a1.518,1.518,0,1,0,0-3.034H342a1.518,1.518,0,1,0,0,3.034" transform="translate(-272.104 357.702)" fill="#c6e300" stroke="#e2fe0a" stroke-width="0.5"/>
    <path id="Path_3309" data-name="Path 3309" d="M331.16,248.988H329.57a1.518,1.518,0,1,0,0,3.034h1.589a1.518,1.518,0,1,0,0-3.034" transform="translate(-281.916 369.083)" fill="#c6e300" stroke="#e2fe0a" stroke-width="0.5"/>
    <path id="Path_3310" data-name="Path 3310" d="M337.186,248.988h-3.177a1.518,1.518,0,1,0,0,3.034h3.177a1.518,1.518,0,1,0,0-3.034" transform="translate(-278.412 369.083)" fill="#c6e300" stroke="#e2fe0a" stroke-width="0.5"/>
    <path id="Path_3311" data-name="Path 3311" d="M340.923,248.988h-1.589a1.518,1.518,0,1,0,0,3.034h1.589a1.518,1.518,0,1,0,0-3.034" transform="translate(-274.206 369.083)" fill="#c6e300" stroke="#e2fe0a" stroke-width="0.5"/>
    <path id="Path_3312" data-name="Path 3312" d="M346.95,248.988h-3.177a1.518,1.518,0,1,0,0,3.034h3.177a1.518,1.518,0,1,0,0-3.034" transform="translate(-270.702 369.083)" fill="#c6e300" stroke="#e2fe0a" stroke-width="0.5"/>
    <path id="Path_3313" data-name="Path 3313" d="M347.97,249.42a1.492,1.492,0,0,0,0,2.155,1.664,1.664,0,0,0,2.255,0,1.488,1.488,0,0,0,0-2.155,1.719,1.719,0,0,0-2.255,0" transform="translate(-266.496 369.091)" fill="#c6e300" stroke="#e2fe0a" stroke-width="0.5"/>
    <path id="Path_3314" data-name="Path 3314" d="M364.518,239.663H329.57a1.518,1.518,0,1,0,0,3.034h34.947a1.518,1.518,0,1,0,0-3.034" transform="translate(-281.916 361.719)" fill="#c6e300" stroke="#e2fe0a" stroke-width="0.5"/>
    <path id="Path_3315" data-name="Path 3315" d="M364.518,244.749H329.57a1.518,1.518,0,1,0,0,3.034h34.947a1.518,1.518,0,1,0,0-3.034" transform="translate(-281.916 365.735)" fill="#c6e300" stroke="#e2fe0a" stroke-width="0.5"/>
  </g>
</svg>
