<svg id="Group_1100" data-name="Group 1100" xmlns="http://www.w3.org/2000/svg" width="80" height="67.748" viewBox="0 0 80 67.748">
  <path id="Path_5551" data-name="Path 5551" d="M387.735,157.771h17.625a1.25,1.25,0,1,0,0-2.5H387.735a1.181,1.181,0,0,0-1.25,1.25A1.253,1.253,0,0,0,387.735,157.771Z" transform="translate(-341.111 -139.772)" fill="#e2fe0a"/>
  <path id="Path_5552" data-name="Path 5552" d="M178.156,346.141h17.625a1.25,1.25,0,1,0,0-2.5H178.156a1.25,1.25,0,1,0,0,2.5Z" transform="translate(-162.407 -300.391)" fill="#e2fe0a"/>
  <path id="Path_5553" data-name="Path 5553" d="M387.735,106.011h17.625a1.25,1.25,0,1,0,0-2.5H387.735a1.181,1.181,0,0,0-1.25,1.25A1.253,1.253,0,0,0,387.735,106.011Z" transform="translate(-341.111 -95.637)" fill="#e2fe0a"/>
  <path id="Path_5554" data-name="Path 5554" d="M158.487,56.812a1.137,1.137,0,0,0-.5-1l-6.625-5.5a1.057,1.057,0,0,0-.75-.25h-24.25a8.991,8.991,0,0,0-7.875,4.625,9.145,9.145,0,0,0-7.875-4.625H86.362a3.18,3.18,0,0,0-.875.25l-6.625,5.5a1.661,1.661,0,0,0-.375,1v59.749a1.253,1.253,0,0,0,1.25,1.25h77.5a1.253,1.253,0,0,0,1.25-1.25Zm-2.5,56.749-4.125-4.125V54.062l4.125,3.5Zm-69.124-2.25h26.124a4.268,4.268,0,0,1,4.25,4.125h-34.5Zm63.251,0,4.125,4.125h-34.5a4.358,4.358,0,0,1,4.25-4.125Zm-23.75-58.75h23v56.25H124.115a7.684,7.684,0,0,0-4.375,1.5V59.187a6.669,6.669,0,0,1,6.625-6.625Zm-15.75,0a6.669,6.669,0,0,1,6.625,6.625v51a6.411,6.411,0,0,0-4.375-1.5H87.615V52.436h23Zm-25.5,1.5v55.5l-4.125,4V57.437Z" transform="translate(-78.487 -50.063)" fill="#e2fe0a"/>
  <path id="Path_5555" data-name="Path 5555" d="M192.583,111.859h1.25v16.249a6.125,6.125,0,0,0,12.249,0V111.859h1.25a1.181,1.181,0,0,0,1.25-1.25v-5a1.181,1.181,0,0,0-1.25-1.25h-14.75a1.181,1.181,0,0,0-1.25,1.25v5a1.253,1.253,0,0,0,1.25,1.25Zm7.25,19.75a3.628,3.628,0,0,1-3.625-3.625v-5.875h7.25v5.875a3.627,3.627,0,0,1-3.625,3.625Zm3.625-12h-7.25v-7.75h7.25Zm-9.625-12.875h12.125v2.5h-12.25v-2.5Z" transform="translate(-174.708 -96.36)" fill="#e2fe0a"/>
  <path id="Path_5556" data-name="Path 5556" d="M178.156,397.051h17.625a1.25,1.25,0,1,0,0-2.5H178.156a1.25,1.25,0,1,0,0,2.5Z" transform="translate(-162.407 -343.801)" fill="#e2fe0a"/>
  <path id="Path_5557" data-name="Path 5557" d="M389.16,254.721a4.428,4.428,0,0,0,4.375-4.375v-.125l6.25-2a4.381,4.381,0,0,0,3.625,1.875,4.375,4.375,0,1,0,0-8.749,5.234,5.234,0,0,0-2,.5l-6.125-6.25a4.211,4.211,0,0,0,.625-2.125,4.375,4.375,0,1,0-4.375,4.375,5.234,5.234,0,0,0,2-.5l6.125,6.25a4.211,4.211,0,0,0-.625,2.125v.125l-6.25,2a4.381,4.381,0,0,0-3.625-1.875,4.375,4.375,0,1,0,0,8.749Zm16.124-9a1.875,1.875,0,1,1-1.875-1.875A1.922,1.922,0,0,1,405.284,245.721ZM389.534,233.6a1.875,1.875,0,1,1,1.875,1.875A1.922,1.922,0,0,1,389.534,233.6Zm-.375,14.875a1.875,1.875,0,1,1-1.875,1.875A1.922,1.922,0,0,1,389.159,248.471Z" transform="translate(-339.661 -202.722)" fill="#e2fe0a"/>
</svg>
