<svg id="logo-hero" xmlns="http://www.w3.org/2000/svg" xmlns:xlink="http://www.w3.org/1999/xlink" width="451.812" height="99.818" viewBox="0 0 451.812 99.818">
  <defs>
    <clipPath id="clip-path">
      <rect id="Rectangle_801" data-name="Rectangle 801" width="451.812" height="99.818" fill="none"/>
    </clipPath>
    <clipPath id="clip-path-2">
      <rect id="Rectangle_800" data-name="Rectangle 800" width="451.812" height="99.817" fill="none"/>
    </clipPath>
    <clipPath id="clip-path-3">
      <rect id="Rectangle_781" data-name="Rectangle 781" width="8.804" height="11.163" fill="none"/>
    </clipPath>
    <clipPath id="clip-path-4">
      <rect id="Rectangle_782" data-name="Rectangle 782" width="11.24" height="11.546" fill="none"/>
    </clipPath>
    <clipPath id="clip-path-5">
      <rect id="Rectangle_783" data-name="Rectangle 783" width="8.198" height="11.483" fill="none"/>
    </clipPath>
    <clipPath id="clip-path-6">
      <rect id="Rectangle_784" data-name="Rectangle 784" width="8.198" height="11.163" fill="none"/>
    </clipPath>
    <clipPath id="clip-path-7">
      <rect id="Rectangle_786" data-name="Rectangle 786" width="0.828" height="11.163" fill="none"/>
    </clipPath>
    <clipPath id="clip-path-8">
      <rect id="Rectangle_787" data-name="Rectangle 787" width="8.614" height="11.164" fill="none"/>
    </clipPath>
    <clipPath id="clip-path-9">
      <rect id="Rectangle_788" data-name="Rectangle 788" width="11.196" height="11.243" fill="none"/>
    </clipPath>
    <clipPath id="clip-path-10">
      <rect id="Rectangle_789" data-name="Rectangle 789" width="7.384" height="11.163" fill="none"/>
    </clipPath>
    <clipPath id="clip-path-13">
      <rect id="Rectangle_792" data-name="Rectangle 792" width="8.023" height="11.163" fill="none"/>
    </clipPath>
    <clipPath id="clip-path-14">
      <rect id="Rectangle_793" data-name="Rectangle 793" width="10.526" height="11.163" fill="none"/>
    </clipPath>
    <clipPath id="clip-path-15">
      <rect id="Rectangle_794" data-name="Rectangle 794" width="11.196" height="13.826" fill="none"/>
    </clipPath>
    <clipPath id="clip-path-16">
      <rect id="Rectangle_795" data-name="Rectangle 795" width="11.239" height="11.546" fill="none"/>
    </clipPath>
    <clipPath id="clip-path-17">
      <rect id="Rectangle_796" data-name="Rectangle 796" width="49.953" height="49.989" fill="none"/>
    </clipPath>
    <clipPath id="clip-path-18">
      <rect id="Rectangle_797" data-name="Rectangle 797" width="49.954" height="49.829" fill="none"/>
    </clipPath>
    <clipPath id="clip-path-19">
      <rect id="Rectangle_798" data-name="Rectangle 798" width="24.471" height="24.483" fill="none"/>
    </clipPath>
    <clipPath id="clip-path-20">
      <rect id="Rectangle_799" data-name="Rectangle 799" width="24.575" height="24.483" fill="none"/>
    </clipPath>
  </defs>
  <g id="Group_1292" data-name="Group 1292" clip-path="url(#clip-path)">
    <g id="Group_1291" data-name="Group 1291" transform="translate(0 0.001)">
      <g id="Group_1290" data-name="Group 1290" clip-path="url(#clip-path-2)">
        <path id="Path_5679" data-name="Path 5679" d="M62.927,31.545v-.077c0-7.9,6.362-14.3,14.846-14.3S92.54,23.494,92.54,31.389v.079c0,7.891-6.364,14.293-14.846,14.293S62.927,39.438,62.927,31.545m21.836,0v-.077a7.144,7.144,0,0,0-7.069-7.425c-4.164,0-6.953,3.377-6.953,7.346v.079a7.138,7.138,0,0,0,7.031,7.421c4.2,0,6.99-3.377,6.99-7.344" transform="translate(60.909 16.619)" fill="#fff"/>
        <path id="Path_5680" data-name="Path 5680" d="M78.332,41.09l4.241-5.067a14.157,14.157,0,0,0,8.915,3.3c2.043,0,3.141-.706,3.141-1.885v-.079c0-1.137-.9-1.765-4.634-2.631-5.851-1.336-10.367-2.983-10.367-8.639v-.079c0-5.1,4.046-8.8,10.643-8.8a17.3,17.3,0,0,1,11.312,3.652l-3.81,5.38a13.792,13.792,0,0,0-7.7-2.71c-1.844,0-2.747.785-2.747,1.767v.079c0,1.256.943,1.8,4.751,2.67,6.325,1.374,10.251,3.416,10.251,8.561v.079c0,5.615-4.438,8.954-11.115,8.954a19.206,19.206,0,0,1-12.88-4.554" transform="translate(75.82 16.658)" fill="#fff"/>
        <path id="Path_5681" data-name="Path 5681" d="M90.817,17.49h8.051l4.792,15.9,5.3-15.986h6.557l5.3,15.986,4.792-15.9h7.893l-9.19,27.687h-6.636l-5.538-15.826-5.5,15.826h-6.636Z" transform="translate(87.904 16.85)" fill="#fff"/>
        <path id="Path_5682" data-name="Path 5682" d="M122.684,17.35h7.344l11.7,27.687h-8.169l-2-4.908h-10.6l-1.966,4.908h-8.009ZM129.363,34.2,126.3,26.383,123.194,34.2Z" transform="translate(107.424 16.793)" fill="#fff"/>
        <path id="Path_5683" data-name="Path 5683" d="M127.465,17.45h7.62V38.263H148.4V44.94H127.465Z" transform="translate(123.377 16.89)" fill="#fff"/>
        <path id="Path_5684" data-name="Path 5684" d="M139.257,17.45h10.605c9.818,0,15.511,5.656,15.511,13.587v.081c0,7.931-5.772,13.823-15.669,13.823H139.257ZM149.98,38.184c4.556,0,7.579-2.513,7.579-6.951v-.079c0-4.4-3.023-6.951-7.579-6.951h-3.1v13.98Z" transform="translate(134.791 16.889)" fill="#fff"/>
        <path id="Path_5685" data-name="Path 5685" d="M153.543,31.545v-.077c0-7.9,6.358-14.3,14.842-14.3s14.767,6.323,14.767,14.218v.079c0,7.891-6.364,14.293-14.846,14.293s-14.763-6.323-14.763-14.216m21.832,0v-.077a7.144,7.144,0,0,0-7.069-7.425c-4.162,0-6.951,3.377-6.951,7.346v.079a7.138,7.138,0,0,0,7.029,7.421c4.2,0,6.99-3.377,6.99-7.344" transform="translate(148.619 16.619)" fill="#fff"/>
        <path id="Path_5686" data-name="Path 5686" d="M174.653,31.545v-.077a14.122,14.122,0,0,1,14.49-14.3c5.616,0,9.23,2.356,11.664,5.733l-5.735,4.438a7.359,7.359,0,0,0-6.008-3.22c-3.847,0-6.559,3.259-6.559,7.268v.079c0,4.121,2.712,7.34,6.559,7.34,2.867,0,4.556-1.334,6.2-3.336L201,39.556a14.472,14.472,0,0,1-26.351-8.011" transform="translate(169.052 16.619)" fill="#fff"/>
        <path id="Path_5687" data-name="Path 5687" d="M189.2,17.45h13c4.2,0,7.108,1.1,8.952,2.983a8.518,8.518,0,0,1,2.436,6.4v.077a8.7,8.7,0,0,1-5.656,8.448l6.559,9.58h-8.8l-5.538-8.324h-3.338V44.94H189.2Zm12.646,13.195c2.592,0,4.083-1.256,4.083-3.261v-.079c0-2.159-1.568-3.259-4.123-3.259h-4.987v6.6Z" transform="translate(183.132 16.889)" fill="#fff"/>
        <path id="Path_5688" data-name="Path 5688" d="M202.867,32.883V17.45H210.6V32.725c0,3.967,2,5.853,5.065,5.853s5.067-1.809,5.067-5.656V17.45h7.736V32.686c0,8.877-5.065,12.766-12.88,12.766s-12.725-3.967-12.725-12.569" transform="translate(196.361 16.889)" fill="#fff"/>
        <path id="Path_5689" data-name="Path 5689" d="M217.234,39.4l13.785-15.513H217.706V17.45h23.838v5.536L227.76,38.5h13.783V44.94h-24.31Z" transform="translate(210.267 16.889)" fill="#fff"/>
        <g id="Group_1238" data-name="Group 1238" transform="translate(173.51 71.771)" opacity="0.55">
          <g id="Group_1237" data-name="Group 1237">
            <g id="Group_1236" data-name="Group 1236" clip-path="url(#clip-path-3)">
              <path id="Path_5690" data-name="Path 5690" d="M96.143,47.633V42.4H89v5.229h-.828V36.471H89v5.166h7.146V36.471h.828V47.633Z" transform="translate(-88.168 -36.471)" fill="#fff"/>
            </g>
          </g>
        </g>
        <g id="Group_1241" data-name="Group 1241" transform="translate(189.924 71.581)" opacity="0.55">
          <g id="Group_1240" data-name="Group 1240">
            <g id="Group_1239" data-name="Group 1239" clip-path="url(#clip-path-4)">
              <path id="Path_5691" data-name="Path 5691" d="M102.108,47.918a5.565,5.565,0,0,1-5.6-5.74v-.031a5.616,5.616,0,1,1,11.229-.033c.016.018.016.018,0,.033a5.619,5.619,0,0,1-5.63,5.772m4.768-5.772a4.831,4.831,0,0,0-4.768-5.024,4.778,4.778,0,0,0-4.737,4.991v.033a4.829,4.829,0,0,0,4.768,5.022,4.777,4.777,0,0,0,4.737-4.991Z" transform="translate(-96.51 -36.374)" fill="#fff"/>
            </g>
          </g>
        </g>
        <g id="Group_1244" data-name="Group 1244" transform="translate(207.965 71.611)" opacity="0.55">
          <g id="Group_1243" data-name="Group 1243">
            <g id="Group_1242" data-name="Group 1242" clip-path="url(#clip-path-5)">
              <path id="Path_5692" data-name="Path 5692" d="M110.176,47.873a6.356,6.356,0,0,1-4.5-1.787l.543-.622a5.419,5.419,0,0,0,4,1.661c1.677,0,2.826-.943,2.826-2.218v-.031c0-1.181-.624-1.868-3.16-2.377-2.678-.543-3.763-1.452-3.763-3.141v-.031c0-1.659,1.515-2.936,3.589-2.936a5.569,5.569,0,0,1,3.828,1.356l-.527.655a4.808,4.808,0,0,0-3.334-1.261c-1.643,0-2.726.941-2.726,2.106v.031c0,1.179.6,1.9,3.253,2.44,2.582.525,3.666,1.452,3.666,3.078v.031c0,1.8-1.547,3.046-3.7,3.046" transform="translate(-105.677 -36.389)" fill="#fff"/>
            </g>
          </g>
        </g>
        <g id="Group_1247" data-name="Group 1247" transform="translate(223.677 71.771)" opacity="0.55">
          <g id="Group_1246" data-name="Group 1246">
            <g id="Group_1245" data-name="Group 1245" clip-path="url(#clip-path-6)">
              <path id="Path_5693" data-name="Path 5693" d="M117.505,43.473H114.49v4.162h-.828V36.471h4.05c2.456,0,4.146,1.261,4.146,3.412v.033c0,2.344-2.025,3.556-4.353,3.556m3.525-3.54c0-1.771-1.372-2.7-3.381-2.7H114.49v5.471h3.062c2.074,0,3.477-1.084,3.477-2.743Z" transform="translate(-113.66 -36.47)" fill="#fff"/>
            </g>
          </g>
        </g>
        <g id="Group_1250" data-name="Group 1250" transform="translate(239.232 71.771)" opacity="0.55">
          <g id="Group_1249" data-name="Group 1249">
            <g id="Group_1248" data-name="Group 1248" clip-path="url(#clip-path-7)">
              <rect id="Rectangle_785" data-name="Rectangle 785" width="0.828" height="11.162" transform="translate(0 -0.001)" fill="#fff"/>
            </g>
          </g>
        </g>
        <g id="Group_1253" data-name="Group 1253" transform="translate(247.477 71.77)" opacity="0.55">
          <g id="Group_1252" data-name="Group 1252">
            <g id="Group_1251" data-name="Group 1251" clip-path="url(#clip-path-8)">
              <path id="Path_5694" data-name="Path 5694" d="M130.476,37.236v10.4h-.829v-10.4h-3.893v-.766h8.614v.766Z" transform="translate(-125.755 -36.47)" fill="#fff"/>
            </g>
          </g>
        </g>
        <g id="Group_1256" data-name="Group 1256" transform="translate(261.005 71.691)" opacity="0.55">
          <g id="Group_1255" data-name="Group 1255">
            <g id="Group_1254" data-name="Group 1254" clip-path="url(#clip-path-9)">
              <path id="Path_5695" data-name="Path 5695" d="M142.915,47.673l-1.421-3.123h-6.587l-1.419,3.123h-.86l5.2-11.243h.8l5.2,11.243ZM138.21,37.339,135.26,43.8h5.884Z" transform="translate(-132.629 -36.43)" fill="#fff"/>
            </g>
          </g>
        </g>
        <g id="Group_1259" data-name="Group 1259" transform="translate(279.35 71.771)" opacity="0.55">
          <g id="Group_1258" data-name="Group 1258">
            <g id="Group_1257" data-name="Group 1257" clip-path="url(#clip-path-10)">
              <path id="Path_5696" data-name="Path 5696" d="M141.951,47.633V36.471h.828v10.4h6.555v.766Z" transform="translate(-141.951 -36.471)" fill="#fff"/>
            </g>
          </g>
        </g>
        <g id="Group_1262" data-name="Group 1262" transform="translate(302.623 71.691)" opacity="0.55">
          <g id="Group_1261" data-name="Group 1261">
            <g id="Group_1260" data-name="Group 1260" clip-path="url(#clip-path-9)">
              <path id="Path_5697" data-name="Path 5697" d="M164.063,47.673l-1.421-3.123h-6.587l-1.419,3.123h-.86l5.2-11.243h.8l5.2,11.243Zm-4.705-10.334-2.95,6.459h5.884Z" transform="translate(-153.777 -36.43)" fill="#fff"/>
            </g>
          </g>
        </g>
        <g id="Group_1265" data-name="Group 1265" transform="translate(320.966 71.771)" opacity="0.55">
          <g id="Group_1264" data-name="Group 1264">
            <g id="Group_1263" data-name="Group 1263" clip-path="url(#clip-path-10)">
              <path id="Path_5698" data-name="Path 5698" d="M163.1,47.633V36.471h.828v10.4h6.555v.766Z" transform="translate(-163.098 -36.471)" fill="#fff"/>
            </g>
          </g>
        </g>
        <g id="Group_1268" data-name="Group 1268" transform="translate(335.625 71.771)" opacity="0.55">
          <g id="Group_1267" data-name="Group 1267">
            <g id="Group_1266" data-name="Group 1266" clip-path="url(#clip-path-13)">
              <path id="Path_5699" data-name="Path 5699" d="M170.548,47.633V36.471h7.943v.764h-7.114v4.387h6.4v.766h-6.4v4.481h7.193v.766Z" transform="translate(-170.547 -36.471)" fill="#fff"/>
            </g>
          </g>
        </g>
        <g id="Group_1271" data-name="Group 1271" transform="translate(351.099 71.771)" opacity="0.55">
          <g id="Group_1270" data-name="Group 1270">
            <g id="Group_1269" data-name="Group 1269" clip-path="url(#clip-path-14)">
              <path id="Path_5700" data-name="Path 5700" d="M188.106,47.633v-9.7l-4.418,6.427h-.063l-4.418-6.427v9.7h-.8V36.471h.781l4.481,6.6,4.481-6.6h.781V47.633Z" transform="translate(-178.41 -36.471)" fill="#fff"/>
            </g>
          </g>
        </g>
        <g id="Group_1274" data-name="Group 1274" transform="translate(368.773 69.107)" opacity="0.55">
          <g id="Group_1273" data-name="Group 1273">
            <g id="Group_1272" data-name="Group 1272" clip-path="url(#clip-path-15)">
              <path id="Path_5701" data-name="Path 5701" d="M197.677,48.944l-1.421-3.125h-6.585l-1.421,3.125h-.86l5.2-11.243h.8l5.2,11.243ZM192.972,38.61l-2.948,6.459h5.882Zm1.039-1.866c-.608,0-1.5-.653-2.043-.653-.384,0-.559.191-.8.8l-.545-.144c.3-1.149.7-1.484,1.34-1.484.606,0,1.5.653,2.043.653.38,0,.557-.191.8-.8l.543.144c-.305,1.149-.7,1.484-1.34,1.484" transform="translate(-187.391 -35.118)" fill="#fff"/>
            </g>
          </g>
        </g>
        <g id="Group_1277" data-name="Group 1277" transform="translate(386.624 71.581)" opacity="0.55">
          <g id="Group_1276" data-name="Group 1276">
            <g id="Group_1275" data-name="Group 1275" clip-path="url(#clip-path-16)">
              <path id="Path_5702" data-name="Path 5702" d="M202.06,47.918a5.565,5.565,0,0,1-5.6-5.74v-.031a5.616,5.616,0,1,1,11.229-.033c.016.018.016.018,0,.033a5.619,5.619,0,0,1-5.63,5.772m4.768-5.772a4.831,4.831,0,0,0-4.768-5.024,4.778,4.778,0,0,0-4.737,4.991v.033a4.829,4.829,0,0,0,4.768,5.022,4.777,4.777,0,0,0,4.737-4.991Z" transform="translate(-196.463 -36.374)" fill="#fff"/>
            </g>
          </g>
        </g>
        <g id="Group_1280" data-name="Group 1280" transform="translate(0.001 49.828)" opacity="0.3">
          <g id="Group_1279" data-name="Group 1279">
            <g id="Group_1278" data-name="Group 1278" clip-path="url(#clip-path-17)">
              <path id="Path_5703" data-name="Path 5703" d="M49.953,49.8A24.455,24.455,0,0,1,25.482,25.32H0A50.015,50.015,0,0,0,49.953,75.309Z" transform="translate(0 -25.321)" fill="#fff"/>
            </g>
          </g>
        </g>
        <g id="Group_1283" data-name="Group 1283" transform="translate(0 -0.001)" opacity="0.55">
          <g id="Group_1282" data-name="Group 1282" transform="translate(0 0)">
            <g id="Group_1281" data-name="Group 1281" clip-path="url(#clip-path-18)">
              <path id="Path_5704" data-name="Path 5704" d="M25.483,49.828a24.511,24.511,0,0,1,24.471-24.55V0A49.879,49.879,0,0,0,0,49.828Z" transform="translate(0 0)" fill="#fff"/>
            </g>
          </g>
        </g>
        <path id="Path_5705" data-name="Path 5705" d="M25.384,25.28A24.612,24.612,0,0,1,49.96,49.846l25.29-.016A49.8,49.8,0,0,0,25.384,0Z" transform="translate(24.57 -0.001)" fill="#fff"/>
        <g id="Group_1286" data-name="Group 1286" transform="translate(25.482 49.828)" opacity="0.55">
          <g id="Group_1285" data-name="Group 1285">
            <g id="Group_1284" data-name="Group 1284" clip-path="url(#clip-path-19)">
              <path id="Path_5706" data-name="Path 5706" d="M37.42,29.024a3.748,3.748,0,0,1-3.782-3.7H12.949A24.448,24.448,0,0,0,37.42,49.8Z" transform="translate(-12.948 -25.321)" fill="#fff"/>
            </g>
          </g>
        </g>
        <g id="Group_1289" data-name="Group 1289" transform="translate(49.954 49.828)" opacity="0.3">
          <g id="Group_1288" data-name="Group 1288">
            <g id="Group_1287" data-name="Group 1287" clip-path="url(#clip-path-20)">
              <path id="Path_5707" data-name="Path 5707" d="M25.384,49.8A24.522,24.522,0,0,0,49.96,25.336L29.074,25.32a3.669,3.669,0,0,1-3.69,3.7Z" transform="translate(-25.384 -25.321)" fill="#fff"/>
            </g>
          </g>
        </g>
        <path id="Path_5708" data-name="Path 5708" d="M37.42,12.846A24.5,24.5,0,0,0,12.949,37.4H33.638a3.8,3.8,0,0,1,3.782-3.771Z" transform="translate(12.534 12.433)" fill="#fff"/>
      </g>
    </g>
  </g>
</svg>
