<svg xmlns="http://www.w3.org/2000/svg" xmlns:xlink="http://www.w3.org/1999/xlink" width="240" height="53.023" viewBox="0 0 240 53.023"><defs><clipPath id="a"><rect width="240" height="53.023" fill="none"/></clipPath></defs><g clip-path="url(#a)"><path d="M62.927,24.806v-.041a7.871,7.871,0,0,1,15.731-.042v.042a7.871,7.871,0,0,1-15.731.041m11.6,0v-.041a3.8,3.8,0,0,0-3.755-3.944,3.722,3.722,0,0,0-3.693,3.9v.042a3.792,3.792,0,0,0,3.735,3.942,3.725,3.725,0,0,0,3.713-3.9" transform="translate(2.854 0.778)" fill="#00b2bb"/><path d="M78.332,29.9,80.585,27.2a7.52,7.52,0,0,0,4.735,1.752c1.085,0,1.668-.375,1.668-1v-.042c0-.6-.479-.938-2.462-1.4-3.108-.71-5.507-1.585-5.507-4.589v-.042c0-2.712,2.149-4.673,5.653-4.673a9.187,9.187,0,0,1,6.009,1.94l-2.024,2.858a7.326,7.326,0,0,0-4.089-1.439c-.979,0-1.459.417-1.459.939v.042c0,.667.5.959,2.523,1.419,3.36.73,5.445,1.815,5.445,4.547v.042c0,2.982-2.357,4.756-5.9,4.756A10.2,10.2,0,0,1,78.332,29.9" transform="translate(3.553 0.78)" fill="#00b2bb"/><path d="M90.817,17.452h4.277L97.639,25.9l2.816-8.491h3.483l2.816,8.491,2.545-8.449h4.193l-4.882,14.707h-3.525l-2.942-8.407-2.921,8.407H95.7Z" transform="translate(4.119 0.789)" fill="#00b2bb"/><path d="M117.2,17.35h3.9l6.217,14.707h-4.339l-1.063-2.607h-5.632l-1.044,2.607h-4.255Zm3.548,8.949-1.628-4.151-1.65,4.151Z" transform="translate(5.034 0.786)" fill="#00b2bb"/><path d="M127.465,17.45h4.048V28.506h7.071v3.547H127.465Z" transform="translate(5.781 0.791)" fill="#00b2bb"/><path d="M139.257,17.45h5.633c5.215,0,8.239,3,8.239,7.217v.043c0,4.213-3.066,7.343-8.323,7.343h-5.55Zm5.7,11.014c2.42,0,4.026-1.335,4.026-3.692V24.73c0-2.337-1.606-3.692-4.026-3.692H143.3v7.426Z" transform="translate(6.316 0.791)" fill="#00b2bb"/><path d="M153.543,24.806v-.041a7.87,7.87,0,0,1,15.728-.042v.042a7.87,7.87,0,0,1-15.728.041m11.6,0v-.041a3.8,3.8,0,0,0-3.755-3.944,3.722,3.722,0,0,0-3.692,3.9v.042a3.791,3.791,0,0,0,3.734,3.942,3.725,3.725,0,0,0,3.713-3.9" transform="translate(6.964 0.778)" fill="#00b2bb"/><path d="M174.653,24.806v-.041a7.5,7.5,0,0,1,7.7-7.595,7.15,7.15,0,0,1,6.2,3.045L185.5,22.573a3.909,3.909,0,0,0-3.191-1.71,3.612,3.612,0,0,0-3.484,3.86v.042a3.612,3.612,0,0,0,3.484,3.9,3.988,3.988,0,0,0,3.3-1.772l3.046,2.169a7.688,7.688,0,0,1-14-4.256" transform="translate(7.921 0.778)" fill="#00b2bb"/><path d="M189.2,17.45H196.1a6.377,6.377,0,0,1,4.755,1.585,4.524,4.524,0,0,1,1.294,3.4v.041a4.622,4.622,0,0,1-3,4.488l3.484,5.089h-4.673l-2.942-4.422h-1.773v4.422H189.2Zm6.717,7.009c1.377,0,2.169-.667,2.169-1.732v-.042c0-1.147-.833-1.731-2.19-1.731h-2.649v3.505Z" transform="translate(8.581 0.791)" fill="#00b2bb"/><path d="M202.867,25.648v-8.2h4.109v8.114c0,2.107,1.064,3.109,2.691,3.109s2.692-.961,2.692-3V17.45h4.109v8.093c0,4.716-2.691,6.781-6.842,6.781s-6.759-2.107-6.759-6.677" transform="translate(9.201 0.791)" fill="#00b2bb"/><path d="M217.234,29.112l7.323-8.241h-7.072V17.45h12.662V20.39l-7.322,8.241h7.322v3.421H217.234Z" transform="translate(9.853 0.791)" fill="#00b2bb"/><path d="M92.4,42.4V39.623h-3.8V42.4h-.44V36.471h.44v2.744h3.8V36.471h.44V42.4Z" transform="translate(3.999 1.654)" fill="#007889"/><path d="M99.483,42.506a2.956,2.956,0,0,1-2.974-3.049V39.44a2.983,2.983,0,1,1,5.965-.018c.008.009.008.009,0,.018a2.985,2.985,0,0,1-2.991,3.066m2.533-3.066a2.566,2.566,0,0,0-2.533-2.669,2.538,2.538,0,0,0-2.516,2.651v.018A2.565,2.565,0,0,0,99.5,42.108a2.537,2.537,0,0,0,2.516-2.651Z" transform="translate(4.377 1.649)" fill="#007889"/><path d="M108.067,42.49a3.376,3.376,0,0,1-2.39-.949l.289-.33a2.879,2.879,0,0,0,2.125.882c.891,0,1.5-.5,1.5-1.178V40.9c0-.627-.331-.992-1.679-1.263-1.423-.289-2-.771-2-1.668V37.95a1.717,1.717,0,0,1,1.907-1.56,2.958,2.958,0,0,1,2.033.72l-.28.348a2.554,2.554,0,0,0-1.771-.67c-.873,0-1.448.5-1.448,1.119v.017c0,.626.321,1.008,1.728,1.3,1.372.279,1.948.771,1.948,1.635v.017c0,.958-.822,1.618-1.964,1.618" transform="translate(4.793 1.65)" fill="#007889"/><path d="M115.7,40.19h-1.6V42.4h-.44v-5.93h2.151c1.3,0,2.2.67,2.2,1.813V38.3c0,1.245-1.076,1.889-2.312,1.889m1.872-1.881c0-.941-.729-1.432-1.8-1.432H114.1v2.906h1.627c1.1,0,1.847-.576,1.847-1.457Z" transform="translate(5.155 1.654)" fill="#007889"/><rect width="0.44" height="5.929" transform="translate(127.079 38.124)" fill="#007889"/><path d="M128.263,36.877V42.4h-.44V36.877h-2.068v-.407h4.575v.407Z" transform="translate(5.704 1.654)" fill="#007889"/><path d="M138.093,42.4l-.755-1.659h-3.5l-.754,1.659h-.457l2.762-5.972h.423l2.762,5.972Zm-2.5-5.489-1.567,3.431h3.126Z" transform="translate(6.015 1.652)" fill="#007889"/><path d="M141.951,42.4V36.471h.44v5.523h3.482V42.4Z" transform="translate(6.438 1.654)" fill="#007889"/><path d="M159.241,42.4l-.755-1.659h-3.5l-.754,1.659h-.457l2.762-5.972h.423l2.762,5.972Zm-2.5-5.489-1.567,3.431H158.3Z" transform="translate(6.975 1.652)" fill="#007889"/><path d="M163.1,42.4V36.471h.44v5.523h3.482V42.4Z" transform="translate(7.397 1.654)" fill="#007889"/><path d="M170.548,42.4V36.471h4.219v.406h-3.779v2.33h3.4v.407h-3.4v2.38h3.821V42.4Z" transform="translate(7.735 1.654)" fill="#007889"/><path d="M183.561,42.4V37.25l-2.347,3.414h-.033l-2.347-3.414V42.4h-.423V36.471h.415l2.38,3.506,2.38-3.506H184V42.4Z" transform="translate(8.092 1.654)" fill="#007889"/><path d="M192.855,42.462,192.1,40.8h-3.5l-.755,1.66h-.457l2.762-5.972h.423l2.762,5.972Zm-2.5-5.489L188.79,40.4h3.125Zm.552-.991c-.323,0-.8-.347-1.085-.347-.2,0-.3.1-.422.423l-.29-.076c.161-.61.373-.788.712-.788.322,0,.8.347,1.085.347.2,0,.3-.1.423-.423l.288.076c-.162.61-.374.788-.712.788" transform="translate(8.499 1.592)" fill="#007889"/><path d="M199.435,42.506a2.956,2.956,0,0,1-2.974-3.049V39.44a2.983,2.983,0,1,1,5.965-.018c.008.009.008.009,0,.018a2.985,2.985,0,0,1-2.991,3.066m2.533-3.066a2.566,2.566,0,0,0-2.533-2.669,2.538,2.538,0,0,0-2.516,2.651v.018a2.565,2.565,0,0,0,2.533,2.668,2.537,2.537,0,0,0,2.516-2.651Z" transform="translate(8.911 1.649)" fill="#007889"/><path d="M26.535,38.325a12.991,12.991,0,0,1-13-13.005H0A26.568,26.568,0,0,0,26.535,51.874Z" transform="translate(0 1.148)" fill="#003b4e"/><path d="M13.536,26.468a13.02,13.02,0,0,1,13-13.041V0A26.5,26.5,0,0,0,0,26.468Z" transform="translate(0 -0.001)" fill="#007889"/><path d="M25.384,13.429A13.074,13.074,0,0,1,38.438,26.478l13.434-.008A26.456,26.456,0,0,0,25.384,0Z" transform="translate(1.151 -0.001)" fill="#00b2bb"/><path d="M25.948,27.287a1.991,1.991,0,0,1-2.009-1.967H12.949a12.987,12.987,0,0,0,13,13.005Z" transform="translate(0.587 1.148)" fill="#007889"/><path d="M25.384,38.325a13.026,13.026,0,0,0,13.054-13L27.344,25.32a1.949,1.949,0,0,1-1.96,1.967Z" transform="translate(1.151 1.148)" fill="#003b4e"/><path d="M25.948,12.846a13.016,13.016,0,0,0-13,13.041h10.99a2.021,2.021,0,0,1,2.009-2Z" transform="translate(0.587 0.582)" fill="#00b2bb"/></g></svg>