<svg xmlns="http://www.w3.org/2000/svg" width="89.057" height="79.664" viewBox="0 0 89.057 79.664">
  <g id="Group_1117" data-name="Group 1117" transform="translate(-640)">
    <path id="Path_3287" data-name="Path 3287" d="M25.551,252.807a1.732,1.732,0,1,0,1.739,1.732,1.737,1.737,0,0,0-1.739-1.732" transform="translate(658.977 -193.926)" fill="#c6e300"/>
    <path id="Path_3288" data-name="Path 3288" d="M85.578,246.017a1.737,1.737,0,0,1-1.739,1.732H82.1V237.357h1.739a1.738,1.738,0,0,1,1.739,1.732Zm-6.958,1.732H50.092a14.318,14.318,0,0,0-1.842-1.917,10.414,10.414,0,0,0,6.28-3.863,6.1,6.1,0,0,0,9.132.492A6.089,6.089,0,0,0,74.1,238.223v-.866H78.62Zm-8,4.942a15.938,15.938,0,0,1-1.747,6.8,18.173,18.173,0,0,0-1.73,7.718V272H42.789v-4.356a12.02,12.02,0,0,0-3.565-8.571l-6.065-6.036a8.652,8.652,0,0,1-2.546-6.122v-.893a8.71,8.71,0,0,1,8.7-8.659h13.7a6.962,6.962,0,0,1-6.739,5.2H41.049a1.731,1.731,0,0,0-.3,3.438,10.781,10.781,0,0,1,7.042,4.478l.011.014a10.719,10.719,0,0,1,1.926,6.088l.018,3.308a1.735,1.735,0,0,0,1.739,1.723H51.5a1.736,1.736,0,0,0,1.73-1.741l-.018-3.308a14.158,14.158,0,0,0-1.071-5.342H70.618Zm0,43.549H39.31V275.458H70.618ZM27.134,246.017v.893c0,.279.011.559.031.839H19.031a11.54,11.54,0,0,0,0-10.392H30.789a12.342,12.342,0,0,0-1.22,1.387,12.162,12.162,0,0,0-2.435,7.272m-11.91,1.314-9.6-4.776,9.6-4.776a8.056,8.056,0,0,1,0,9.553M39.31,226.1a2.609,2.609,0,0,1,5.218,0v7.793H39.31Zm8.7,0a2.611,2.611,0,0,1,4.455-1.836,2.576,2.576,0,0,1,.764,1.836v7.793H48.007Zm8.7,9.526V226.1a2.609,2.609,0,0,1,5.218,0v12.122a2.609,2.609,0,0,1-5.218,0Zm8.7-6.061a2.611,2.611,0,0,1,4.453-1.838,2.577,2.577,0,0,1,.764,1.838v8.658a2.608,2.608,0,0,1-5.217,0Zm18.437,4.329H74.1v-4.329a6.074,6.074,0,0,0-6.088-6.063,6.074,6.074,0,0,0-2.9.737,6.094,6.094,0,0,0-10.138-2.377c-.016-.014-.031-.032-.045-.047a6.1,6.1,0,0,0-8.654.05A6.089,6.089,0,0,0,35.831,226.1v7.793H15.646c-.059,0-.119.005-.178.011-.02,0-.038.005-.058.009q-.065.008-.129.022a.591.591,0,0,1-.061.014c-.041.011-.084.023-.126.038l-.054.02a1.425,1.425,0,0,0-.135.057l-.029.013-.029.014,0,0L.961,241.005a1.729,1.729,0,0,0,0,3.1l13.883,6.911,0,0,.029.014.029.013c.045.02.09.04.135.057.018.007.036.013.054.018.041.014.084.027.128.038.02.005.04.011.059.014a1.057,1.057,0,0,0,.131.023l.056.009c.061.005.124.011.187.011H27.93a12.112,12.112,0,0,0,2.769,4.266l6.065,6.038a8.582,8.582,0,0,1,2.546,6.122V272H37.571a1.734,1.734,0,0,0-1.739,1.73v24.246a1.736,1.736,0,0,0,1.739,1.732H72.358a1.736,1.736,0,0,0,1.739-1.732V273.726A1.734,1.734,0,0,0,72.358,272H70.618v-4.787a14.72,14.72,0,0,1,1.4-6.244,19.266,19.266,0,0,0,2.077-8.273v-1.477h9.741a5.215,5.215,0,0,0,5.218-5.2v-6.927a5.213,5.213,0,0,0-5.218-5.195" transform="translate(640 -220.04)" fill="#c6e300"/>
    <path id="Path_3289" data-name="Path 3289" d="M43.339,252.807H29.423a1.732,1.732,0,1,0,0,3.464H43.339a1.732,1.732,0,1,0,0-3.464" transform="translate(662.063 -193.926)" fill="#c6e300"/>
  </g>
</svg>
