<svg xmlns="http://www.w3.org/2000/svg" xmlns:xlink="http://www.w3.org/1999/xlink" width="563.899" height="684.304" viewBox="0 0 563.899 684.304"><defs><clipPath id="a"><rect width="563.899" height="684.304" fill="none"/></clipPath><clipPath id="b"><path d="M188.293,119.519a13.026,13.026,0,0,0-12.736,10.425L151.45,226.831,129.044,363.273V507.3L47.516,660.449H255.949l19.907-43.325s38.774-18.734,84.571-44.412c46.16-25.881,99.456-58.818,127.376-86.738l-270.5-179.16-1.171-69.087V147.3a27.783,27.783,0,0,0-27.783-27.782h-.061" fill="none"/></clipPath><clipPath id="d"><path d="M514.689,198.863l-19.123,7.295-.21,24.512a30.842,30.842,0,0,0,.269,21.988c.047,8.9.066,19.08-.092,19.554-.18.539,6.6-2.687,11.57-5.113a31.209,31.209,0,0,0,43.928-42.547l.224-.056-2.351-2.924c-.06-.073-.116-.147-.177-.219L535.2,204.532a18.209,18.209,0,0,0-20.509-5.669" fill="none"/></clipPath><clipPath id="f"><path d="M514.689,281.473l-19.123,7.3-.21,24.512a30.842,30.842,0,0,0,.269,21.988c.047,8.9.066,19.08-.092,19.554-.18.539,6.6-2.686,11.57-5.113a31.209,31.209,0,0,0,43.928-42.547l.224-.056-2.351-2.924c-.06-.073-.116-.147-.177-.219L535.2,287.142a18.209,18.209,0,0,0-20.509-5.669" fill="none"/></clipPath><clipPath id="h"><path d="M514.689,392.324l-19.123,7.3L495.35,415.2a31.154,31.154,0,0,0,.245,49.544,6.618,6.618,0,0,1-.062.925c-.043.131.354.022,1-.224a31.133,31.133,0,0,0,40.584-4.127l.127.116.456-.758a31.172,31.172,0,0,0,6.021-10L547.5,444.4a25.928,25.928,0,0,0-.239-27.135L535.2,397.993a18.209,18.209,0,0,0-20.509-5.669" fill="none"/></clipPath><clipPath id="j"><rect width="251.581" height="320.879" transform="translate(231.1 47.467)" fill="none"/></clipPath><clipPath id="k"><path d="M312.894,119.563l.7,76.031s.7,19.712,15.488,26.048v23.935l-7.04,1.761a134.338,134.338,0,0,0,9.932,58.245l62.566,1.228s5.294-30.609,3.181-61.937L393.853,241v-21.12s13.728-7.04,13.728-25.344V126.251s.7-48.048-48.047-48.048-46.64,41.36-46.64,41.36" fill="none"/></clipPath></defs><g clip-path="url(#a)"><path d="M175.557,129.943l-24.106,96.888L129.044,363.273V507.3L47.516,660.449H255.949l19.908-43.326s38.772-18.734,84.569-44.411c46.161-25.882,99.456-58.818,127.377-86.739l-270.5-179.159-1.17-69.088V147.3a27.783,27.783,0,0,0-27.845-27.782,13.026,13.026,0,0,0-12.735,10.424" fill="#fff"/></g><g clip-path="url(#b)"><path d="M180.872,108.938s20.151,15.673,25.749,59.334-5.6,90.681-5.6,90.681S216.7,308.211,216.7,378.74h0V110.058Z" fill="#36b5c8"/><path d="M226.127,516.179l7.191,7.191a88.36,88.36,0,0,0,47.17,24.544l117.827,20.729,61.88-45.738Z" fill="#36b5c8"/><path d="M145.764,204.375,132.79,359.064a82.759,82.759,0,0,0-.267,8.852l2.844,123.919a66.793,66.793,0,0,0,4.955,23.735l13.654,25.5L131.03,511.245,40.98,684.3,0,657.063Z" fill="#36b5c8"/><path d="M363.926,576.324l-81.843,33.749a16.716,16.716,0,0,1-14.709-.964l-26.535-15.267,29.043,23.511L246.37,670.829l30.888-2.3Z" fill="#36b5c8"/></g><g clip-path="url(#a)"><path d="M483.593,523.857H229.117a11.838,11.838,0,0,1-11.839-11.839V11.839A11.839,11.839,0,0,1,229.117,0H483.593a11.84,11.84,0,0,1,11.839,11.839V512.018a11.839,11.839,0,0,1-11.839,11.839" fill="#3089a1"/><rect width="254.769" height="412.591" transform="translate(230.072 46.713)" fill="#fff"/><rect width="254.769" height="412.591" transform="translate(230.072 46.713)" fill="none" stroke="#3089a1" stroke-miterlimit="10" stroke-width="0.917"/><path d="M549.13,146.994l-53.665,34.385-.039-71.976L519.6,95.848a29.529,29.529,0,0,1,40.337,10.808h0a29.527,29.527,0,0,1-10.808,40.337" fill="#fff"/><path d="M495.625,252.658c.047,8.9.066,19.08-.092,19.554-.18.539,6.6-2.686,11.57-5.113a31.209,31.209,0,0,0,43.928-42.547l.224-.056-2.352-2.924c-.059-.073-.116-.147-.176-.219L535.2,204.532a18.215,18.215,0,0,0-20.508-5.669l-19.123,7.295-.21,24.512a30.842,30.842,0,0,0,.269,21.988" fill="#fff"/></g><g clip-path="url(#d)"><path d="M557.967,251.573s-14.493,16.843-37.6,9.009S499.211,226.5,499.211,226.5s-3.133.392-6.267,8.617-7.051,48.963-7.051,48.963L551.7,272.725Z" fill="#36b5c8"/></g><g clip-path="url(#a)"><path d="M551.255,307.106l-2.352-2.924c-.059-.073-.116-.147-.176-.219L535.2,287.142a18.215,18.215,0,0,0-20.508-5.669l-19.123,7.3-.21,24.512a30.842,30.842,0,0,0,.269,21.988c.047,8.9.066,19.08-.092,19.554-.18.539,6.6-2.686,11.57-5.113a31.209,31.209,0,0,0,43.928-42.547Z" fill="#fff"/></g><g clip-path="url(#f)"><path d="M491.882,302.962l20.355-7.152s-15.4,15.4-3.3,42.361,46.212,7.7,46.212,7.7l-34.659,20.905-37.959-6.052Z" fill="#36b5c8"/></g><g clip-path="url(#a)"><path d="M535.2,397.994a18.218,18.218,0,0,0-20.51-5.67l-19.122,7.3L495.35,415.2a31.155,31.155,0,0,0,.244,49.543,6.74,6.74,0,0,1-.061.926c-.043.13.354.021,1-.224a31.132,31.132,0,0,0,40.584-4.128l.127.116.456-.757a31.159,31.159,0,0,0,6.021-10L547.5,444.4a25.926,25.926,0,0,0-.24-27.134Z" fill="#fff"/></g><g clip-path="url(#h)"><path d="M489.559,409.191l13.193-2.111,10.555-7.916s-29.553,25.331-12.666,57.523,58.051-5.805,58.051-5.805l-49.607,52.245-53.828-12.666,2.638-78.1Z" fill="#36b5c8"/></g><g clip-path="url(#a)"><path d="M540.035,146.8c-20.332,3.867-39.471-6.971-42.749-24.207a27.8,27.8,0,0,1,1.368-15l-3.229,1.81.039,71.976,53.665-34.385a29.376,29.376,0,0,0,9.332-8.545,42.325,42.325,0,0,1-18.426,8.35" fill="#36b5c8"/><path d="M507.321,425.16s24.253,4.1,26.492,31.343c0,0,10.448-10.448,1.866-30.6s-28.358-.746-28.358-.746" fill="#3089a1"/><path d="M525.013,305.9s20.7-7.608,32.434,9.018l-16.786-21.243s-19.071-4.89-15.648,12.225" fill="#3089a1"/><path d="M555.9,325.148s.752-10.02-4.258-16.032c0,0,5.511,3.757,6.262,7.765s-2,8.267-2,8.267" fill="#3089a1"/><path d="M530.049,218.719s20.089,0,24.339,13.521,0,18.544,0,18.544,2.317,2.7,5.022-2.318,1.931-18.544-6.568-27.815-13.135-10.431-13.135-10.431-13.521-1.545-9.658,8.5" fill="#3089a1"/><path d="M170.772,124.653l11.853,12.93s-3.771,40.408-20.473,48.49Z" fill="#3089a1"/><rect width="251.581" height="320.878" transform="translate(231.101 47.468)" fill="#e4df00"/></g><g clip-path="url(#j)"><path d="M308.227,143.314s-7.627,53.838-4.935,69.541c0,0-1.346,39.931-15.7,52.942H441.926s-10.768-47.109-15.7-57.877L417.7,151.838Z" fill="#3089a1"/><rect width="139.429" height="80.515" transform="translate(291.424 288.131)" fill="#36b5c8"/><path d="M205.817,369.212l7.7-35.281a103.931,103.931,0,0,1,23.256-46.3c4.584-5.239,8.776-9.753,10.734-11.123,5.485-3.839,50.464-18.65,50.464-18.65L321.736,236.3a4.408,4.408,0,0,1,7.37,3.179c.334,15.642,2.2,46.55,11.293,67.5,12.616,29.072,15.714,62.241,15.714,62.241Z" fill="#fff"/><path d="M313.6,195.594s.7,19.712,15.488,26.048v23.936l-7.04,1.76a134.338,134.338,0,0,0,9.932,58.245l62.566,1.227s5.293-30.609,3.181-61.936L393.853,241v-21.12s13.728-7.04,13.728-25.344V126.251s.7-48.048-48.047-48.048-46.64,41.36-46.64,41.36Z" fill="#fff"/></g><g clip-path="url(#k)"><path d="M328.642,221.822l20.281,9.525a32.148,32.148,0,0,0,22.5.062l29.483-14.8.644,46.884-22.131-4.841c-42.8-11.217-51.238-31.215-51.238-31.215Z" fill="#f4ef99"/><path d="M386.639,77.8s-2.3,29.23-12.735,49.741a9.753,9.753,0,0,0,6.978,13.969c3.51.676,11.714-.6,14.876.91,10.563,5.03,7.481,11.838,3.456,19.384s-15.626,11.594-6.539,23.641c18.212,24.146-20.479,54.523-20.479,54.523L338.349,227.7l42.757,18.108,63.38-21.629L431.91,100.437Z" fill="#f4ef99"/></g><g clip-path="url(#j)"><path d="M354.43,100.2s-26.4-7.744-40.832,17.952v35.552s-10.912-2.816-9.5-8.8,3.52-6.336,3.52-6.336-9.152-13.376-8.8-20.064,2.816-7.392,2.816-7.392,0-10.912,5.28-15.488c0,0,4.224-16.544,19.712-20.064,0,0,8.8-14.432,21.472-11.264,0,0,4.576-4.928,13.024-1.056,0,0,5.28-3.168,12.32,1.056,0,0,5.632-4.224,14.08,2.464,0,0,17.6-1.056,25.344,13.376,0,0,15.135,5.28,13.023,23.936,0,0,12.32,13.376-5.28,36.608,0,0,2.112,10.208-2.464,14.784s-10.911,3.52-10.911,3.52v-42.24s-10.56-18.3-35.9-16.9c0,0-5.984,3.52-11.264,3.52s-5.632-3.168-5.632-3.168" fill="#3089a1"/><path d="M362.32,147.989v38.446a6.256,6.256,0,0,0,6.886-2.295c2.869-3.73,7.46-1.148,5.738-5.452s-12.624-30.7-12.624-30.7" fill="#f4ef99"/><path d="M347.118,150.061s-6.671-8.005-13.152-9.721S325.2,147.2,325.2,147.2s4.194-3.24,11.818-1.334,10.1,4.193,10.1,4.193" fill="#f4ef99"/><path d="M369.115,149.369s6.372-9.887,17.577-12.084S398.776,143,398.776,143a18,18,0,0,0-12.743-.878,156.014,156.014,0,0,0-16.918,7.25" fill="#f4ef99"/><path d="M244.187,369.587s5.889-38.547,1.071-72.276l9.637,25.163,8.566-13.92-9.1,39.082,3.748,23.022s-12.582-2.409-13.92-1.071" fill="#d6e7ec"/><path d="M296.271,271.571l-12.215,39.7s5.5,4.275,17.1,1.832,18.934,3.054,18.934,3.054-3.665,4.886-13.437,7.329-20.155-12.215-29.927-11.6l18.933-42.753" fill="#d6e7ec"/><path d="M304.822,330.2s19.544,27.484,23.82,39.7H320.7s-4.275-21.377-15.88-39.7" fill="#d6e7ec"/><path d="M514.637,369.212l-8.554-39.2a88.828,88.828,0,0,0-19.384-38.89c-5.677-6.619-11.368-12.94-13.75-14.607-5.485-3.839-50.464-18.65-50.464-18.65L400.55,235.444a4.093,4.093,0,0,0-7.022,2.688c-.631,15.366-2.917,45.82-11.2,66.442-11.807,29.409-17.99,64.638-17.99,64.638Z" fill="#fff"/><path d="M475.471,303.2s-3.212,39.083-8.566,66.387h17.667Z" fill="#d6e7ec"/><path d="M398.269,312.492l8.551,23.82,3.664-21.377s14.048-.611,23.209,1.222,4.276-12.216,4.276-17.1-13.437-32.981-13.437-32.981,7.94,35.424,7.329,42.143-15.269-3.665-22.6-9.162-10.994,13.437-10.994,13.437" fill="#d6e7ec"/></g><g clip-path="url(#a)"><path d="M420.563,436.31H300.1a8.511,8.511,0,0,1-8.511-8.511V401.817a8.511,8.511,0,0,1,8.511-8.511H420.563a8.511,8.511,0,0,1,8.511,8.511V427.8a8.511,8.511,0,0,1-8.511,8.511" fill="#e4df00"/><path d="M355.336,410.333c1.584,3.457,7.726,8.23,11.491,8.942a53.98,53.98,0,0,1,2.117-4.973c.776-1.435,1.7-1.5,3.016-.514q4.254,3.2,8.491,6.423c1.345,1.022,1.417,1.835.319,3.159-3.935,4.741-9,6.453-14.828,4.425-8.462-2.945-15.158-8.205-19.142-16.4a13.392,13.392,0,0,1-.068-12.105,8.137,8.137,0,0,1,1-1.6,1.659,1.659,0,0,1,2.5-.337q4.548,3.4,9.056,6.852a1.616,1.616,0,0,1,.2,2.65c-1.273,1.24-2.723,2.3-4.154,3.478" fill="#fff"/></g></svg>