<svg xmlns="http://www.w3.org/2000/svg" xmlns:xlink="http://www.w3.org/1999/xlink" width="532.787" height="575.787" viewBox="0 0 532.787 575.787"><defs><clipPath id="a"><rect width="532.787" height="575.787" fill="none"/></clipPath><clipPath id="b"><path d="M181.845,62.06C170.572,70.018,170.572,85.6,170.572,85.6s-6.964,12.27-5.638,20.56l-12.19,21.612a4.147,4.147,0,0,0,2.184,5.932l5.366,1.967v6.915a5.188,5.188,0,0,0,1.79,3.921l3.185,2.758-1.662,1.916a5.193,5.193,0,0,0-.329,6.376l.331,7.112a8.94,8.94,0,0,0,7.377,8.387l19.609,3.445a7.847,7.847,0,0,1,5.364,3.68l14.736,24.46L265.406,173.8s10.944-57.7,10.944-59.023-.995-31.833-23.875-46.423C239.489,60.077,222.118,56.6,207.466,56.6c-11.161,0-20.745,2.016-25.621,5.457" transform="translate(-152.207 -56.603)" fill="none"/></clipPath><clipPath id="d"><path d="M149.48,238.328a13.521,13.521,0,0,1-4.389.533l-37.062-1.593a12.9,12.9,0,0,0-8.933,3.076l-15.7,13.4s-2.387,2.864-.477,5.728c0,0-3.339,4.769-.955,8.111,0,0-3.817,5.724,3.339,11.927l10.975-3.819,117.387-20.626s-12.173-13.6-1.677-35.073Z" transform="translate(-80.945 -219.996)" fill="none"/></clipPath></defs><rect width="63.491" height="146.886" transform="translate(157.306 424.753)" fill="#0c1e20"/><g clip-path="url(#a)"><path d="M156.307,65.062s0,20.279-3.072,26.423-7.989,6.76-6.76,12.29,5.532,23.965,3.072,25.809-10.445,2.458-10.445,2.458a48.761,48.761,0,0,1-7.989,5.532s.614,5.529-3.686,8.6a27.784,27.784,0,0,1-17.822,12.29c-12.29,2.458-27.652-8.6-27.652-8.6s-14.747,9.216-30.724-9.218S36.482,105.618,41.4,95.786c0,0-13.874-97.727,41.17-91.559,71.282,7.989,73.739,60.835,73.739,60.835" transform="translate(46.139 4.776)" fill="#fff"/><rect width="63.491" height="146.886" transform="translate(157.306 278.815)" fill="#004c58"/><path d="M368.859,208.3,273.075,197.2c-10.409-11.105-20.124-9.717-20.124-9.717L185.24,86.327a48.747,48.747,0,0,1-7.987,5.529s.614,5.532-3.689,8.6a27.775,27.775,0,0,1-17.819,12.29c-12.29,2.458-27.652-8.6-27.652-8.6s-14.747,9.218-30.726-9.216S82.621,59.9,87.538,50.072l-3.247-8.345L71.1,45.2,57.223,74.349,58.611,79.9C36.4,95.866,7.25,119.464,1,154.168S19.744,248.56,19.744,248.56L22.517,524.8h153.39l14.577-176.989L205.06,349.2,212,521.328h56.914L247.4,355.447c6.942-11.105,10.411-35.4,10.411-35.4l-9.72,3.47,6.942-51.361H234.9v-11.8l117.99,9.023c-6.942-59,15.965-61.078,15.965-61.078" transform="translate(0.001 50.49)" fill="#fff"/><path d="M135.5,243.287l-1.432-27.674L44.058,65.8s9.6,16.531,30.724,9.218a31.567,31.567,0,0,0,29.23,8.911l41.511,97.808,9.065,61.549Z" transform="translate(53.311 79.62)" fill="#004c58"/><path d="M107.155,24.556s16.538,41.345,17.81,45.8-8.906,7-17.81,3.817-1.907,9.541,4.453,13.994,7,14.628-2.546,18.445-7.631,26.715-7.631,26.715-9.395,2.285-20.6-8.4c0,0-18.44,1.788-30.724-9.218S39.1,80.531,39.1,80.531l3.18-.636S42.912,65.9,52.453,63.357s15.265,7,14.63,13.357S60.72,72.9,56.27,76.078s-2.546,5.724-.636,8.27,4.453,7,7.633,6.36S82.348,84.982,80.44,72.9s26.715-48.342,26.715-48.342" transform="translate(47.261 29.713)" fill="#e5d772"/><path d="M161.221,32.954s18.261,33.833-1.171,36.885-48.594-12.478-48.594-12.478,1.269,26.942-4.122,33.917-21.554,5.7-21.554,5.7l-4.119,7.291L73.1,93.5a19.5,19.5,0,0,0-15.214-4.438c-9.194,1.266-12.747,11.505-12.747,11.505S34.431,75.112,35.065,53.558,51.231,13.934,59.472,11.716c0,0,8.241-14.9,40.255-11.094S154.881,26.3,161.221,32.954" transform="translate(42.396 0)" fill="#0c1e20"/><path d="M28.336,59.282l5.686,68.225,21.793,5.686L54.87,154.04l90.966,72.015L66.24,150.25,63.4,126.561l-22.741-6.634Z" transform="translate(34.287 71.731)" fill="#adc1c8"/><path d="M159.3,206.594H106.239s-.948-8.528-16.109-13.267L21.9,95.727l71.067,82.44,4.738-23.689,4.738,32.218,23.689-7.58-17.057,17.057Z" transform="translate(26.505 115.831)" fill="#adc1c8"/><path d="M64.1,200.967c-15.039-19.106-42.158-52.035-42.158-52.035s-16.9,50.691-9.656,63.967,32.587,10.862,32.587,10.862L16.786,394.889H80.755l32.918-179.577L91.2,214.631A35.835,35.835,0,0,1,64.1,200.967" transform="translate(12.689 180.209)" fill="#adc1c8"/><path d="M68.739,179.106,63.252,344.355,97.969,181.166s-29.23-.23-29.23-2.06" transform="translate(76.536 216.72)" fill="#adc1c8"/><path d="M84.547,80.439,132.6,213.517l75.814,6.354,25.212-25.76s-36.173-16.991-47.135-19.731-35.077,19.731-35.077,19.731,9.317-24.116,10.962-29.048S141,181.505,141,181.505l9.317-29.6-15.894,21.375Z" transform="translate(102.303 97.332)" fill="#adc1c8"/><path d="M176.916,117.1l14.168,1.655s-13.45,8.57-13.273,39.3l-19.181-5.138s.7-30.072,18.286-35.818" transform="translate(191.944 141.694)" fill="#0c1e20"/><path d="M175.539,137.44l-28.6,25.809L119.2,166.517l-6.942,51.361L155.793,200.2s21.939,0,35.409-16.549l27.327-2.694s6.542-1.156,8.082-6.159c0,0,3.848-3.079,4.234-5.388s-2.309-5.773-2.309-5.773,7.7.769,8.467-3.848-5.388-10.392-5.388-10.392,3.079-2.309,2.309-5.775c-.546-2.451-4.561-6.252-6.86-8.265a9.258,9.258,0,0,0-3.448-1.9L210.707,129.6a13.668,13.668,0,0,0-6.749-.267l-21.556,4.6a14.891,14.891,0,0,0-6.862,3.505" transform="translate(135.833 156.134)" fill="#fff"/><path d="M186.412,136.922l-1.341-.787a11.473,11.473,0,0,0-3.207-1.275l-11.494-2.652a11.426,11.426,0,0,0-6.374.36l-17.6,6.226,22.253-2.782,14.918,4.047,6.743,5.848.108-1.176a8.17,8.17,0,0,0-4-7.808" transform="translate(177.14 159.62)" fill="#f6edbe"/><path d="M185.289,153.763h0A4.624,4.624,0,0,0,188,147.738a5.542,5.542,0,0,0-1.764-2.356l-5.216-4.038a8.844,8.844,0,0,0-3.149-1.554l-8.433-2.228a11.216,11.216,0,0,0-6.407.2L148,142.777l18.458-1.01,12.389,3.032Z" transform="translate(179.078 166.004)" fill="#f6edbe"/><path d="M225.8,173l-42.377.232s2.793-5.123.464-10.011c0,0,1.631-8.383-1.629-12.109,0,0,3.26-5.821-.7-10.944,0,0,1.863-5.821-2.329-7.916l-30.271,28.64s-3.03,6.858-.776,17.406a9.7,9.7,0,0,1-5.143,10.7l-30.405,15.2-1.165,11.642L156.749,196.3s20.63.451,35.409-16.551l29.433-2.69A4.665,4.665,0,0,0,225.8,173" transform="translate(134.878 160.024)" fill="#e5d772"/><path d="M147.731,147.6l16.129-3.3a2.586,2.586,0,0,1,.913-.022l12.038,1.876a2.576,2.576,0,0,1,1.845,1.282l5.032,8.948-6.849-6.294a2.555,2.555,0,0,0-1.357-.652l-12.047-1.814a2.5,2.5,0,0,0-.385-.029Z" transform="translate(178.756 174.542)" fill="#f6edbe"/><path d="M115.87,146.738l19.559-1.534s-4.6,5.368-2.3,48.322l-21.66,6.643s1.717-32.721,4.4-53.431" transform="translate(134.878 175.698)" fill="#004c58"/><path d="M180.707,117.851l6.241.575,5.6,12.106-12.8,29.212a24.217,24.217,0,0,1-12.308-2.592s-3.056-25.941,13.273-39.3" transform="translate(202.323 142.601)" fill="#fff"/><path d="M287.983,66.757A42.833,42.833,0,1,1,245.15,23.925a42.832,42.832,0,0,1,42.832,42.832" transform="translate(244.805 28.95)" fill="#0c1e20"/><path d="M264.966,51.053c7.89,19.554.457,41.049-10.12,45.316s-25.55-8.124-33.437-27.678-5.711-38.867,4.869-43.135,30.8,5.943,38.688,25.5" transform="translate(262.168 29.761)" fill="#004c58"/><path d="M170.572,85.6s-6.964,12.268-5.638,20.558l-12.19,21.614a4.148,4.148,0,0,0,2.184,5.932l5.366,1.967v6.915a5.184,5.184,0,0,0,1.79,3.921l3.182,2.758-1.66,1.916a5.19,5.19,0,0,0-.329,6.374l.331,7.114a8.936,8.936,0,0,0,7.377,8.385l19.609,3.448a7.847,7.847,0,0,1,5.364,3.68l14.736,24.46L265.406,173.8s10.942-57.695,10.942-59.023-.995-31.831-23.873-46.421-59.354-14.259-70.63-6.3S170.572,85.6,170.572,85.6" transform="translate(184.172 68.489)" fill="#fff"/></g><g transform="translate(336.379 125.093)"><g clip-path="url(#b)"><path d="M234.843,82.806s9.143,27.433-18.641,36.929l3.867,1.757s-20.4,17.936-59.436,17.585l24.969,5.98,21.1,31.3,45.018-31.652-8.794-28.841Z" transform="translate(-142.011 -24.897)" fill="#e5d772"/></g></g><g clip-path="url(#a)"><path d="M158.06,79.276s-8.217,28.094,29.431,28.476c0,0-3.441,30.576,26.947,39.559,0,0,3.631-19.3,16.244-18.538s12.04,23.888,8.409,30.2-8.6,12.995-8.6,12.995-7.642,17.2,32.682,13.185,48.923-86,20.639-114.664-71.284-33.062-95.554-24.27-30.2,33.062-30.2,33.062" transform="translate(190.337 51.015)" fill="#0c1e20"/><path d="M217.1,237.092,91.509,261.318a32.532,32.532,0,0,0-21.886,15.452l-6.763,11.5H210.7Z" transform="translate(76.063 286.884)" fill="#0c1e20"/><path d="M211.985,219.995l-62.508,18.332a13.508,13.508,0,0,1-4.387.535l-37.062-1.593a12.9,12.9,0,0,0-8.935,3.079l-15.7,13.4s-2.387,2.864-.477,5.726c0,0-3.339,4.771-.955,8.111,0,0-3.817,5.726,3.339,11.93L96.276,275.7,213.665,255.07s-12.177-13.6-1.68-35.075" transform="translate(97.944 266.196)" fill="#fff"/></g><g transform="translate(178.889 486.194)"><g clip-path="url(#d)"><path d="M209.367,231.652l-80.579,17,6.3-15.738L99.2,229.135s-7.554.628-9.441,11.961-3.777,20.144-3.777,20.144,2.517,5.037,5.034,7.554S205.59,250.537,205.59,250.537Z" transform="translate(-74.85 -208.938)" fill="#e5d772"/></g></g><g clip-path="url(#a)"><path d="M181.142,345.842s59.591-186.384,91.289-213.008,48.18-26.626,48.18-26.626l3.8,12.679s35.5,24.089,38.039,67.2S372.6,424.452,372.6,424.452s12.681,5.072,12.681,22.823H108.87s4.957-29.6,29.046-47.354l41.957-7.167s-22.823-19.017,1.269-46.912" transform="translate(131.734 128.513)" fill="#004c58"/><path d="M238.808,53.144s-35.194-17.355-66.048-5.3c0,0-.964,16.392,41.462,20.732,0,0-7.233,3.375-27.481,0,0,0,21.214,30.372,40.014,30.372L242.183,88.82l-10.606,13.017s13.017,3.856,28.443-4.822c0,0-26.032-15.91-21.212-43.871" transform="translate(209.039 52.734)" fill="#004c58"/><path d="M146.121,325.541s15.176,6.356,24.673,5.565,52.229-35.61,52.229-35.61l46.691-133.741-12.661,72.807,18.993-6.332-22.16,25.324v40.359l67.266,54.6-87.05-45.9-16.617,17.408,11.079,49.856-34.821-40.359s-7.912,9.5-23.74,9.5-33.236-11.079-33.236-11.079Z" transform="translate(165.488 195.725)" fill="#0c1e20"/><path d="M52.3,50.073l-3.118,6.86a16.514,16.514,0,0,0,3.242,18.4L141,165.683a11.21,11.21,0,0,0,18.37-12.115L127.52,76.228" transform="translate(57.721 60.589)" fill="none" stroke="#0c1e20" stroke-miterlimit="10" stroke-width="2.46"/><path d="M259.743,180.4s-21.879-28.357-61.679-40.532c-29.356-8.982-77.664,4.65-101.391-37.042" transform="translate(116.975 124.416)" fill="none" stroke="#0c1e20" stroke-miterlimit="10" stroke-width="2.46"/><path d="M57.011,42.782,90.974,65.614s35.851,4.528,44.532-6.228c0,0,4.34,19.059,4.15,21.7s-3.019,3.4-10.378,7.737S112.862,102.03,108.524,105.8s-4.528,4.716-11.7,6.791-18.113-4.9-18.113-4.9L49.842,77.5,48.9,74.67,71.917,97.314s13.4-1.134,16.6-6.228,2.643-6.038,2.077-11.322-.568-10.566-.19-11.32S61.161,47.688,61.161,47.688Z" transform="translate(59.167 51.767)" fill="#adc1c8"/><path d="M103.5,54.375s-17.673,4.641-33.382,1.072c0,0,1.43,11.068,0,16.423l21.066,3.748s-13.388-8.212-12.14-8.568,28.741-.535,28.741-.535L85.825,63.478Z" transform="translate(84.841 65.794)" fill="#fff"/><path d="M78.2,65.522s5.534,11.6,8.747,14.281c0,0-10-6.427-11.426-7.675s4.82,11.6,4.82,11.6S67.666,80.873,62.67,76.055s3.213-3.392,4.82-3.927,6.248,5.711,6.248,5.711L70.88,68.2Z" transform="translate(73.902 79.282)" fill="#fff"/><path d="M225.144,88.837l-27.051,2.645s-26.465-4.409-37.933-9.408c0,0-8.82,14.7-8.82,17.936S162.515,134.705,165.16,140s12.937,5.587,12.937,5.587l54.985-26.463-50.868,18.23s-5-10-4.117-16.761,6.469-17.643,6.469-17.643l13.821-9.114L223.969,90.6Z" transform="translate(183.124 99.31)" fill="#fff"/><path d="M188.061,91.9l-29.4-8.232s12.643,8.232,14.115,8.82-19.7,1.47-19.7,1.47L166.6,99.842l-11.174.882S166.6,104.547,166.3,106.6s-7.938,7.059-7.938,7.059l15.879,2.939s5.881-15.585,7.35-17.349,6.469-7.35,6.469-7.35" transform="translate(185.216 101.243)" fill="#adc1c8"/><path d="M157.216,103.886s11.421-3.2,13.479-2.908,4.705,10.88,4.705,10.88-15.289,4.117-14.407,3.823,8.232-6.471,8.82-7.353-8.82.588-8.82.588l6.175-3.821Z" transform="translate(190.233 122.161)" fill="#adc1c8"/></g></svg>