<?xml version="1.0" encoding="UTF-8" standalone="no"?>
<!DOCTYPE svg PUBLIC "-//W3C//DTD SVG 1.1//EN" "http://www.w3.org/Graphics/SVG/1.1/DTD/svg11.dtd">
<svg width="100%" height="100%" viewBox="0 0 4000 141" version="1.1" xmlns="http://www.w3.org/2000/svg" xmlns:xlink="http://www.w3.org/1999/xlink" xml:space="preserve" xmlns:serif="http://www.serif.com/" style="fill-rule:evenodd;clip-rule:evenodd;stroke-linecap:round;">
    <g id="Group_984" transform="matrix(1,0,0,1,220,0)">
        <g id="Path_5250" transform="matrix(1,0,0,1,-219.998,0.779)">
            <path d="M0,115.7C20.234,115.736 709.693,115.68 727.873,115.705C742.922,115.739 754.257,118.096 761.667,103.824C769.873,91.438 780.867,53.986 801.94,74.616C814.358,85.837 815.584,109.616 835.726,112.957C850.039,112.457 852.626,95.957 857.109,86.443C862.515,73.006 868.325,57.46 873.852,44.091C882.528,20.283 904.39,30.478 911.42,48.944C914.913,57.623 919.897,72.599 923.01,81.329C930.315,95.464 939.361,159.395 967.11,131.029C978.917,115.516 976.524,91.388 979.498,73.441C981.271,57.702 983.122,35.835 985.274,20.3C989.744,-5.141 1017.94,-5.733 1022.59,20.3C1024.81,35.854 1026.73,59.344 1028.54,75.174C1030.64,88.698 1030.11,108.235 1035.3,121.105C1041.78,136.99 1060.46,145.861 1069.11,125.787C1072.94,117.005 1082.71,86.468 1086.35,77.087C1092.94,65.046 1096.88,22.078 1119.51,31.471C1147.06,40.851 1145.87,118.552 1178.94,112.645C1199.02,106.11 1194.43,57.421 1222.91,71.696C1241.83,83.657 1243.63,116.77 1271.8,115.703C1309.52,115.696 1700.99,116.858 2039.97,117.848C2291.55,118.582 2514.22,119.222 2541.92,119.219" style="fill:none;fill-rule:nonzero;stroke:rgb(198,227,0);stroke-width:4px;stroke-dasharray:0,10;"/>
        </g>
        <g id="Path_52501" serif:id="Path_5250" transform="matrix(1,0,0,1,887.002,3.779)">
            <clipPath id="_clip1">
                <rect x="1434.95" y="0.997" width="1106.97" height="137.208"/>
            </clipPath>
            <g clip-path="url(#_clip1)">
                <path d="M0,115.7C20.234,115.736 709.693,115.68 727.873,115.705C742.922,115.739 754.257,118.096 761.667,103.824C769.873,91.438 780.867,53.986 801.94,74.616C814.358,85.837 815.584,109.616 835.726,112.957C850.039,112.457 852.626,95.957 857.109,86.443C862.515,73.006 868.325,57.46 873.852,44.091C882.528,20.283 904.39,30.478 911.42,48.944C914.913,57.623 919.897,72.599 923.01,81.329C930.315,95.464 939.361,159.395 967.11,131.029C978.917,115.516 976.524,91.388 979.498,73.441C981.271,57.702 983.122,35.835 985.274,20.3C989.744,-5.141 1017.94,-5.733 1022.59,20.3C1024.81,35.854 1026.73,59.344 1028.54,75.174C1030.64,88.698 1030.11,108.235 1035.3,121.105C1041.78,136.99 1060.46,145.861 1069.11,125.787C1072.94,117.005 1082.71,86.468 1086.35,77.087C1092.94,65.046 1096.88,22.078 1119.51,31.471C1147.06,40.851 1145.87,118.552 1178.94,112.645C1199.02,106.11 1194.43,57.421 1222.91,71.696C1241.83,83.657 1243.63,116.77 1271.8,115.703C1309.52,115.696 1700.99,116.858 2039.97,117.848C2291.55,118.582 2514.22,119.222 2541.92,119.219" style="fill:none;fill-rule:nonzero;stroke:rgb(198,227,0);stroke-width:4px;stroke-dasharray:0,10;"/>
            </g>
        </g>
        <g id="Path_52502" serif:id="Path_5250" transform="matrix(1,0,0,1,1226,3.779)">
            <clipPath id="_clip2">
                <rect x="2202.93" y="0.997" width="338.985" height="137.208"/>
            </clipPath>
            <g clip-path="url(#_clip2)">
                <path d="M0,115.7C20.234,115.736 709.693,115.68 727.873,115.705C742.922,115.739 754.257,118.096 761.667,103.824C769.873,91.438 780.867,53.986 801.94,74.616C814.358,85.837 815.584,109.616 835.726,112.957C850.039,112.457 852.626,95.957 857.109,86.443C862.515,73.006 868.325,57.46 873.852,44.091C882.528,20.283 904.39,30.478 911.42,48.944C914.913,57.623 919.897,72.599 923.01,81.329C930.315,95.464 939.361,159.395 967.11,131.029C978.917,115.516 976.524,91.388 979.498,73.441C981.271,57.702 983.122,35.835 985.274,20.3C989.744,-5.141 1017.94,-5.733 1022.59,20.3C1024.81,35.854 1026.73,59.344 1028.54,75.174C1030.64,88.698 1030.11,108.235 1035.3,121.105C1041.78,136.99 1060.46,145.861 1069.11,125.787C1072.94,117.005 1082.71,86.468 1086.35,77.087C1092.94,65.046 1096.88,22.078 1119.51,31.471C1147.06,40.851 1145.87,118.552 1178.94,112.645C1199.02,106.11 1194.43,57.421 1222.91,71.696C1241.83,83.657 1243.63,116.77 1271.8,115.703C1309.52,115.696 1700.99,116.858 2039.97,117.848C2291.55,118.582 2514.22,119.222 2541.92,119.219" style="fill:none;fill-rule:nonzero;stroke:rgb(198,227,0);stroke-width:4px;stroke-dasharray:0,10;"/>
            </g>
        </g>
    </g>
</svg>
