<svg xmlns="http://www.w3.org/2000/svg" xmlns:xlink="http://www.w3.org/1999/xlink" width="2557.927" height="107.879" viewBox="0 0 2557.927 107.879">
  <defs>
    <clipPath id="clip-path">
      <rect id="Rectangle_625" data-name="Rectangle 625" width="2557.927" height="107.879" transform="translate(-596)" fill="none" stroke="#f7ffda" stroke-linecap="round" stroke-width="4" stroke-dasharray="0 10"/>
    </clipPath>
  </defs>
  <g id="Group_1160" data-name="Group 1160" transform="translate(596)">
    <g id="Group_984" data-name="Group 984" transform="translate(0 0)" clip-path="url(#clip-path)">
      <path id="Path_5250" data-name="Path 5250" d="M-587.565,88.907s1131.46-.019,1145.393,0c11.533.026,20.22,1.832,25.9-9.105,6.289-9.492,14.717-38.194,30.864-22.385,9.517,8.6,10.456,26.826,25.892,29.384,10.969-.386,12.952-13.027,16.388-20.319,4.143-10.3,8.6-22.212,12.831-32.458,6.649-18.246,23.4-10.433,28.791,3.719,2.677,6.651,6.5,18.129,8.882,24.819,5.6,10.832,12.531,59.828,33.8,38.092,9.049-11.889,7.214-30.38,9.494-44.134,1.359-12.062,2.777-28.821,4.427-40.726,3.425-19.5,25.036-19.951,28.6,0,1.7,11.92,3.174,29.922,4.562,42.054,1.613,10.365,1.2,25.338,5.175,35.2,4.966,12.174,19.284,18.972,25.912,3.588,2.939-6.73,10.426-30.133,13.212-37.323,5.053-9.228,8.071-42.157,25.41-34.959,21.121,7.188,20.2,66.737,45.552,62.21,15.39-5.009,11.867-42.322,33.7-31.382,14.5,9.167,15.877,34.544,37.467,33.726,50.353-.01,923.552,2.7,973.389,2.695" transform="translate(0.001 0.363)" fill="none" stroke="#f7ffda" stroke-linecap="round" stroke-width="4" stroke-dasharray="0 10"/>
    </g>
  </g>
</svg>
