<svg id="Group_1148" data-name="Group 1148" xmlns="http://www.w3.org/2000/svg" xmlns:xlink="http://www.w3.org/1999/xlink" width="2560" height="140.765" viewBox="0 0 2560 140.765">
  <defs>
    <clipPath id="clip-path">
      <rect id="Rectangle_625" data-name="Rectangle 625" width="2560" height="140.765" fill="none" stroke="#c6e300" stroke-linecap="round" stroke-width="4" stroke-dasharray="0 10"/>
    </clipPath>
  </defs>
  <g id="Group_984" data-name="Group 984" transform="translate(0 0)" clip-path="url(#clip-path)">
    <path id="Path_5250" data-name="Path 5250" d="M0,115.7c20.234.036,709.693-.02,727.873.005,15.049.034,26.384,2.391,33.794-11.881,8.206-12.386,19.2-49.838,40.273-29.208,12.418,11.221,13.644,35,33.786,38.341,14.313-.5,16.9-17,21.383-26.514,5.406-13.437,11.216-28.983,16.743-42.352,8.676-23.808,30.538-13.613,37.568,4.853,3.493,8.679,8.477,23.655,11.59,32.385,7.305,14.135,16.351,78.066,44.1,49.7,11.807-15.513,9.414-39.641,12.388-57.588,1.773-15.739,3.624-37.606,5.776-53.141,4.47-25.441,32.668-26.033,37.317,0,2.219,15.554,4.142,39.044,5.953,54.874,2.1,13.524,1.568,33.061,6.753,45.931,6.479,15.885,25.162,24.756,33.812,4.682,3.835-8.782,13.6-39.319,17.24-48.7,6.594-12.041,10.531-55.009,33.156-45.616,27.559,9.38,26.364,87.081,59.438,81.174,20.081-6.535,15.485-55.224,43.971-40.949,18.914,11.961,20.716,45.074,48.889,44.007,65.7-.012,1205.088,3.523,1270.116,3.516" transform="translate(0.002 0.779)" fill="none" stroke="#c6e300" stroke-linecap="round" stroke-width="4" stroke-dasharray="0 10"/>
  </g>
</svg>
