<svg xmlns="http://www.w3.org/2000/svg" width="2704.663" height="110.631" viewBox="0 0 2704.663 110.631">
  <path id="Path_5251" data-name="Path 5251" d="M1561.99,87.765S-64.856,90.124-77.361,90.143C-87.713,90.169-95.51,92-100.607,80.91c-5.644-9.626-13.209-38.731-27.7-22.7-8.542,8.72-9.385,27.2-23.24,29.8-9.846-.391-11.625-13.21-14.709-20.605-3.719-10.443-7.715-22.524-11.517-32.914-5.968-18.5-21.006-10.58-25.842,3.771-2.4,6.745-5.831,18.384-7.972,25.168-5.025,10.985-11.247,60.669-30.337,38.628C-250.048,90-248.4,71.248-250.448,57.3c-1.219-12.232-2.493-29.226-3.973-41.3C-257.5-3.769-276.892-4.23-280.09,16c-1.526,12.088-2.849,30.343-4.095,42.645-1.447,10.511-1.078,25.694-4.645,35.7-4.457,12.345-17.308,19.239-23.258,3.639-2.638-6.825-9.358-30.557-11.858-37.848-4.536-9.358-7.244-42.75-22.807-35.451-18.957,7.29-18.135,67.675-40.885,63.084-13.813-5.079-10.652-42.917-30.246-31.823-13.01,9.3-14.25,35.029-33.629,34.2-45.194-.01-642.426,0-687.157,0" transform="translate(1140.67 1)" fill="none" stroke="#d4f100" stroke-linecap="round" stroke-width="4" stroke-dasharray="0 10"/>
</svg>
