<svg xmlns="http://www.w3.org/2000/svg" width="2426.286" height="144.9" viewBox="0 0 2426.286 144.9"><path d="M-358.263,106.592c18.391.037,1003.334,12.175,1019.859,12.2,13.679.035,23.981,2.455,30.716-12.2,7.459-12.719,17.454-51.179,36.606-29.995,11.287,11.523,12.4,35.946,30.709,39.373,13.01-.517,15.361-17.456,19.436-27.227,4.914-13.8,10.195-29.763,15.218-43.492,7.886-24.449,27.757-13.98,34.147,4.983,3.175,8.913,7.705,24.292,10.535,33.257,6.64,14.515,14.862,80.168,40.087,51.042,10.732-15.931,8.556-40.709,11.26-59.138,1.611-16.163,3.294-38.619,5.25-54.572,4.063-26.126,29.693-26.734,33.919,0,2.017,15.973,3.765,40.095,5.411,56.351,1.913,13.889,1.425,33.951,6.138,47.168,5.889,16.313,22.871,25.423,30.733,4.808,3.485-9.019,12.365-40.378,15.67-50.012,5.993-12.365,9.572-56.49,30.137-46.845,25.05,9.632,23.963,89.425,54.025,83.359,18.253-6.711,14.075-56.711,39.967-42.051,17.191,12.283,18.83,46.287,44.437,45.191,59.719-.013,848.9,0,908,0" transform="translate(360.286 1)" fill="none" stroke="#e2fe0a" stroke-linecap="round" stroke-width="4" stroke-dasharray="0 10"/></svg>