<svg xmlns="http://www.w3.org/2000/svg" xmlns:xlink="http://www.w3.org/1999/xlink" width="856.265" height="1039.199" viewBox="0 0 856.265 1039.199"><defs><clipPath id="a"><rect width="856.265" height="1039.199" fill="none"/></clipPath><clipPath id="c"><rect width="800.814" height="84.329" fill="none"/></clipPath><clipPath id="d"><path d="M464.1,487.152v145.68L49.786,464.427V347.882l-.32-58.227Z" transform="translate(-49.466 -289.655)" fill="none"/></clipPath><clipPath id="e"><path d="M463.778,302.648V448.326L49.466,279.92V107.259Z" transform="translate(-49.466 -107.259)" fill="none"/></clipPath><clipPath id="f"><path d="M92.462,387.516V550.787L4.072,511.5l.615-162.656Z" transform="translate(-4.072 -348.846)" fill="none"/></clipPath><clipPath id="h"><rect width="20.705" height="262.227" fill="none"/></clipPath><clipPath id="i"><path d="M337.855,387.516V550.787L249.47,511.5l.613-162.656Z" transform="translate(-249.47 -348.846)" fill="none"/></clipPath><clipPath id="k"><rect width="28.602" height="262.227" fill="none"/></clipPath><clipPath id="m"><rect width="156.894" height="66.354" fill="none"/></clipPath><clipPath id="p"><rect width="72" height="72" fill="none"/></clipPath></defs><g transform="translate(-947.735 -40.801)"><g transform="translate(947.735 40.801)"><g clip-path="url(#a)"><g clip-path="url(#a)"><g transform="translate(52.254 954.87)" opacity="0.3"><g clip-path="url(#c)"><path d="M7.618,510.73l-6.09,1.219H86.145l-32.628,6.54H50.233L43.5,519.838H210.241l-27.05,5.421a509.05,509.05,0,0,0-51.014,7.015c-23.759,4.76-25.888,8.621-4.756,8.621s57.52-3.861,81.279-8.621c13.316-2.669,19.833-5.055,19.272-6.636l28.937-5.8H425.172l6.726-1.349h-4.656l.462-.092h.722l32.166-6.448h84.119l6.09-1.219h-6.977l227.5-45.6,4.1-.814h-.067l26.986-5.408H725.2l7.793-1.56h-.724l1.857-.372H621.1l2.077-.416h-5.208l-2.073.414H477.855l2.075-.414h-5.467l-2.079.416H360.4l-9.648,1.932h-.019l.77-.153H326.338l-.77.153h-52.9L201.7,473.138l-.236.017-46.915,9.435-140.4,28.14Zm218.614,13.889c-2.194-.617-6.427-.968-12.779-.968-5.488,0-12.009.264-19.068.732l22.675-4.545h33.026Z" transform="translate(-1.528 -456.565)" fill="#0c1e20"/></g></g></g><rect width="424.773" height="853.772" transform="translate(335.06 120.049)" fill="#fff"/><line x1="416.642" transform="translate(337.535 703.955)" fill="none" stroke="#c2bb2d" stroke-miterlimit="10" stroke-width="0.17"/><line x1="416.642" transform="translate(337.535 739.927)" fill="none" stroke="#c2bb2d" stroke-miterlimit="10" stroke-width="0.17"/><line x1="416.642" transform="translate(337.535 775.9)" fill="none" stroke="#c2bb2d" stroke-miterlimit="10" stroke-width="0.17"/><line x1="416.642" transform="translate(337.535 811.872)" fill="none" stroke="#c2bb2d" stroke-miterlimit="10" stroke-width="0.17"/><line x1="416.642" transform="translate(337.535 847.845)" fill="none" stroke="#c2bb2d" stroke-miterlimit="10" stroke-width="0.17"/><line x1="416.642" transform="translate(337.535 883.817)" fill="none" stroke="#c2bb2d" stroke-miterlimit="10" stroke-width="0.17"/><line x1="416.642" transform="translate(337.535 919.789)" fill="none" stroke="#c2bb2d" stroke-miterlimit="10" stroke-width="0.17"/><line y2="849.392" transform="translate(515.711 120.896)" fill="none" stroke="#c2bb2d" stroke-miterlimit="10" stroke-width="1.12"/><line y2="849.392" transform="translate(729.416 120.896)" fill="none" stroke="#c2bb2d" stroke-miterlimit="10" stroke-width="1.12"/><line y2="849.392" transform="translate(698.887 120.896)" fill="none" stroke="#c2bb2d" stroke-miterlimit="10" stroke-width="1.12"/><line y2="849.392" transform="translate(668.358 120.896)" fill="none" stroke="#c2bb2d" stroke-miterlimit="10" stroke-width="1.12"/><line y2="849.392" transform="translate(637.828 120.896)" fill="none" stroke="#c2bb2d" stroke-miterlimit="10" stroke-width="1.12"/><line y2="849.392" transform="translate(607.299 120.896)" fill="none" stroke="#c2bb2d" stroke-miterlimit="10" stroke-width="1.12"/><line y2="849.392" transform="translate(576.77 120.896)" fill="none" stroke="#c2bb2d" stroke-miterlimit="10" stroke-width="1.12"/><line y2="849.392" transform="translate(546.241 120.896)" fill="none" stroke="#c2bb2d" stroke-miterlimit="10" stroke-width="1.12"/><line y2="849.392" transform="translate(485.182 120.896)" fill="none" stroke="#c2bb2d" stroke-miterlimit="10" stroke-width="1.12"/><line y2="849.392" transform="translate(454.653 120.896)" fill="none" stroke="#c2bb2d" stroke-miterlimit="10" stroke-width="1.12"/><line y2="849.392" transform="translate(424.124 120.896)" fill="none" stroke="#c2bb2d" stroke-miterlimit="10" stroke-width="1.12"/><line y2="849.392" transform="translate(393.594 120.896)" fill="none" stroke="#c2bb2d" stroke-miterlimit="10" stroke-width="1.12"/><line y2="849.392" transform="translate(363.065 120.896)" fill="none" stroke="#c2bb2d" stroke-miterlimit="10" stroke-width="1.12"/><line x1="416.642" transform="translate(337.535 955.762)" fill="none" stroke="#c2bb2d" stroke-miterlimit="10" stroke-width="0.17"/><line x1="416.642" transform="translate(337.535 665.266)" fill="none" stroke="#c2bb2d" stroke-miterlimit="10" stroke-width="0.17"/><line x1="416.642" transform="translate(337.535 626.577)" fill="none" stroke="#c2bb2d" stroke-miterlimit="10" stroke-width="0.17"/><line x1="416.642" transform="translate(337.535 587.887)" fill="none" stroke="#c2bb2d" stroke-miterlimit="10" stroke-width="0.17"/><line x1="416.642" transform="translate(337.535 549.198)" fill="none" stroke="#c2bb2d" stroke-miterlimit="10" stroke-width="0.17"/><line x1="416.642" transform="translate(337.535 510.509)" fill="none" stroke="#c2bb2d" stroke-miterlimit="10" stroke-width="0.17"/><line x1="416.642" transform="translate(337.535 471.819)" fill="none" stroke="#c2bb2d" stroke-miterlimit="10" stroke-width="0.17"/><line x1="416.642" transform="translate(337.535 433.13)" fill="none" stroke="#c2bb2d" stroke-miterlimit="10" stroke-width="0.17"/><line x1="416.642" transform="translate(337.535 394.441)" fill="none" stroke="#c2bb2d" stroke-miterlimit="10" stroke-width="0.17"/><line x1="416.642" transform="translate(337.535 355.752)" fill="none" stroke="#c2bb2d" stroke-miterlimit="10" stroke-width="0.17"/><line x1="416.642" transform="translate(337.535 317.062)" fill="none" stroke="#c2bb2d" stroke-miterlimit="10" stroke-width="0.17"/><line x1="416.642" transform="translate(337.535 115.242)" fill="none" stroke="#c2bb2d" stroke-miterlimit="10" stroke-width="0.17"/><line x1="416.642" transform="translate(337.535 274.771)" fill="none" stroke="#c2bb2d" stroke-miterlimit="10" stroke-width="0.17"/><line x1="416.642" transform="translate(337.535 234.51)" fill="none" stroke="#c2bb2d" stroke-miterlimit="10" stroke-width="0.17"/><line x1="416.642" transform="translate(337.535 194.249)" fill="none" stroke="#c2bb2d" stroke-miterlimit="10" stroke-width="0.17"/><line x1="416.642" transform="translate(337.535 153.988)" fill="none" stroke="#c2bb2d" stroke-miterlimit="10" stroke-width="0.17"/><path d="M49.466,289.655,464.1,487.154V632.831L49.786,464.426V347.884Z" transform="translate(288.713 316.134)" fill="#c2bb2d"/><g transform="translate(338.178 605.79)"><g clip-path="url(#d)"><line y2="177.145" transform="translate(391.434 177.096)" fill="none" stroke="#fff" stroke-miterlimit="10" stroke-width="0.679"/><line x1="368.836" transform="translate(-24.103 97.9)" fill="none" stroke="#fff" stroke-miterlimit="10" stroke-width="0.17"/><line y2="177.145" transform="translate(360.935 162.055)" fill="none" stroke="#fff" stroke-miterlimit="10" stroke-width="0.679"/><line y2="177.145" transform="translate(330.436 147.014)" fill="none" stroke="#fff" stroke-miterlimit="10" stroke-width="0.679"/><line y2="177.145" transform="translate(299.937 131.974)" fill="none" stroke="#fff" stroke-miterlimit="10" stroke-width="0.679"/><line y2="177.145" transform="translate(269.438 116.933)" fill="none" stroke="#fff" stroke-miterlimit="10" stroke-width="0.679"/><line y2="177.145" transform="translate(238.939 101.892)" fill="none" stroke="#fff" stroke-miterlimit="10" stroke-width="0.679"/><line y2="177.145" transform="translate(208.44 94.372)" fill="none" stroke="#fff" stroke-miterlimit="10" stroke-width="0.679"/><line y2="177.145" transform="translate(177.523 84.763)" fill="none" stroke="#fff" stroke-miterlimit="10" stroke-width="0.679"/><line y2="177.145" transform="translate(147.024 71.811)" fill="none" stroke="#fff" stroke-miterlimit="10" stroke-width="0.679"/><line y2="177.145" transform="translate(116.524 57.606)" fill="none" stroke="#fff" stroke-miterlimit="10" stroke-width="0.679"/><line y2="196.995" transform="translate(86.025 33.161)" fill="none" stroke="#fff" stroke-miterlimit="10" stroke-width="0.679"/><line y2="206.03" transform="translate(55.526 13.264)" fill="none" stroke="#fff" stroke-miterlimit="10" stroke-width="0.679"/><line y2="206.099" transform="translate(25.027 4.421)" fill="none" stroke="#fff" stroke-miterlimit="10" stroke-width="0.679"/><line x1="368.836" transform="translate(-24.103 134.109)" fill="none" stroke="#fff" stroke-miterlimit="10" stroke-width="0.17"/><line x1="452.259" transform="translate(-24.102 170.318)" fill="none" stroke="#fff" stroke-miterlimit="10" stroke-width="0.17"/><line x1="452.259" transform="translate(-24.102 206.172)" fill="none" stroke="#fff" stroke-miterlimit="10" stroke-width="0.17"/><line x1="452.259" transform="translate(-24.102 242.026)" fill="none" stroke="#fff" stroke-miterlimit="10" stroke-width="0.17"/><line x1="452.259" transform="translate(-24.102 277.88)" fill="none" stroke="#fff" stroke-miterlimit="10" stroke-width="0.17"/><line x1="452.259" transform="translate(-24.102 313.734)" fill="none" stroke="#fff" stroke-miterlimit="10" stroke-width="0.17"/></g></g><path d="M463.778,302.647v145.68L49.466,279.922V107.259Z" transform="translate(289.034 117.064)" fill="#c2bb2d"/><g transform="translate(338.498 224.323)"><g clip-path="url(#e)"><line y2="177.145" transform="translate(391.114 174.986)" fill="none" stroke="#fff" stroke-miterlimit="10" stroke-width="0.679"/><line x1="368.836" transform="translate(-24.423 95.79)" fill="none" stroke="#fff" stroke-miterlimit="10" stroke-width="0.17"/><line y2="177.145" transform="translate(360.615 159.945)" fill="none" stroke="#fff" stroke-miterlimit="10" stroke-width="0.679"/><line y2="177.145" transform="translate(330.116 144.904)" fill="none" stroke="#fff" stroke-miterlimit="10" stroke-width="0.679"/><line y2="177.145" transform="translate(299.617 129.864)" fill="none" stroke="#fff" stroke-miterlimit="10" stroke-width="0.679"/><line y2="177.145" transform="translate(269.118 114.823)" fill="none" stroke="#fff" stroke-miterlimit="10" stroke-width="0.679"/><line y2="177.145" transform="translate(238.619 99.782)" fill="none" stroke="#fff" stroke-miterlimit="10" stroke-width="0.679"/><line y2="177.145" transform="translate(208.12 92.262)" fill="none" stroke="#fff" stroke-miterlimit="10" stroke-width="0.679"/><line y2="177.145" transform="translate(177.203 82.653)" fill="none" stroke="#fff" stroke-miterlimit="10" stroke-width="0.679"/><line y2="177.145" transform="translate(146.704 69.701)" fill="none" stroke="#fff" stroke-miterlimit="10" stroke-width="0.679"/><line y2="340.276" transform="translate(116.204 -107.635)" fill="none" stroke="#fff" stroke-miterlimit="10" stroke-width="0.679"/><line y2="360.126" transform="translate(85.705 -132.079)" fill="none" stroke="#fff" stroke-miterlimit="10" stroke-width="0.679"/><line y2="369.16" transform="translate(55.206 -151.977)" fill="none" stroke="#fff" stroke-miterlimit="10" stroke-width="0.679"/><line y2="369.23" transform="translate(24.707 -160.82)" fill="none" stroke="#fff" stroke-miterlimit="10" stroke-width="0.679"/><line x1="368.836" transform="translate(-24.423 131.999)" fill="none" stroke="#fff" stroke-miterlimit="10" stroke-width="0.17"/><line x1="452.259" transform="translate(-24.422 168.208)" fill="none" stroke="#fff" stroke-miterlimit="10" stroke-width="0.17"/><line x1="452.259" transform="translate(-24.422 204.062)" fill="none" stroke="#fff" stroke-miterlimit="10" stroke-width="0.17"/><line x1="452.259" transform="translate(-24.422 239.916)" fill="none" stroke="#fff" stroke-miterlimit="10" stroke-width="0.17"/><line x1="452.259" transform="translate(-24.422 275.77)" fill="none" stroke="#fff" stroke-miterlimit="10" stroke-width="0.17"/><line x1="452.259" transform="translate(-24.422 311.625)" fill="none" stroke="#fff" stroke-miterlimit="10" stroke-width="0.17"/></g></g><path d="M205.29,366.852l-27.67-13.835V479.025h27.3Z" transform="translate(279.496 385.289)" fill="#fff"/><path d="M205.29,148.082l-27.67-13.835V260.255h27.3Z" transform="translate(279.496 146.52)" fill="#fff"/><path d="M116.879,371.521l-26.751-15.2V422.97l27.3,12.732Z" transform="translate(550.346 388.9)" fill="#fff"/><path d="M116.879,188.645l-26.751-15.2V240.09l27.3,12.733Z" transform="translate(550.346 189.305)" fill="#fff"/><rect width="88.793" height="261.352" transform="translate(759.539 702.715)" fill="#fff"/><line y2="254.174" transform="translate(825.027 704.992)" fill="none" stroke="#c2bb2d" stroke-miterlimit="10" stroke-width="0.679"/><line y2="254.174" transform="translate(800.414 704.992)" fill="none" stroke="#c2bb2d" stroke-miterlimit="10" stroke-width="0.679"/><line y2="254.174" transform="translate(775.801 704.992)" fill="none" stroke="#c2bb2d" stroke-miterlimit="10" stroke-width="0.679"/><line x1="81.885" transform="translate(763.495 736.231)" fill="none" stroke="#c2bb2d" stroke-miterlimit="10" stroke-width="0.17"/><line x1="81.885" transform="translate(763.495 766.523)" fill="none" stroke="#c2bb2d" stroke-miterlimit="10" stroke-width="0.17"/><line x1="81.885" transform="translate(763.495 796.816)" fill="none" stroke="#c2bb2d" stroke-miterlimit="10" stroke-width="0.17"/><line x1="81.885" transform="translate(763.495 827.108)" fill="none" stroke="#c2bb2d" stroke-miterlimit="10" stroke-width="0.17"/><line x1="81.885" transform="translate(763.495 857.401)" fill="none" stroke="#c2bb2d" stroke-miterlimit="10" stroke-width="0.17"/><line x1="81.885" transform="translate(763.495 887.693)" fill="none" stroke="#c2bb2d" stroke-miterlimit="10" stroke-width="0.17"/><line x1="81.885" transform="translate(763.495 917.986)" fill="none" stroke="#c2bb2d" stroke-miterlimit="10" stroke-width="0.17"/><line x1="81.885" transform="translate(763.495 948.279)" fill="none" stroke="#c2bb2d" stroke-miterlimit="10" stroke-width="0.17"/><path d="M4.686,348.846l87.773,38.67V550.787L4.073,511.5Z" transform="translate(755.288 380.737)" fill="#c2bb2d"/><g transform="translate(759.359 729.583)"><g clip-path="url(#f)"><line y2="188.855" transform="translate(65.657 22.74)" fill="none" stroke="#fff" stroke-miterlimit="10" stroke-width="0.679"/><line y2="188.855" transform="translate(41.055 14.694)" fill="none" stroke="#fff" stroke-miterlimit="10" stroke-width="0.679"/><line y2="188.855" transform="translate(16.443 -0.452)" fill="none" stroke="#fff" stroke-miterlimit="10" stroke-width="0.679"/></g></g><g clip-path="url(#a)"><g transform="translate(759.539 701.84)" opacity="0.3"><g clip-path="url(#h)"><rect width="20.705" height="262.226" transform="translate(-0.001)" fill="#004c58"/></g></g></g><line x1="85.198" transform="translate(762.075 766.997)" fill="none" stroke="#fff" stroke-miterlimit="10" stroke-width="0.17"/><line x1="85.198" transform="translate(762.075 797.289)" fill="none" stroke="#fff" stroke-miterlimit="10" stroke-width="0.17"/><line x1="85.198" transform="translate(762.075 827.582)" fill="none" stroke="#fff" stroke-miterlimit="10" stroke-width="0.17"/><line x1="85.198" transform="translate(762.075 857.874)" fill="none" stroke="#fff" stroke-miterlimit="10" stroke-width="0.17"/><line x1="85.198" transform="translate(762.075 888.167)" fill="none" stroke="#fff" stroke-miterlimit="10" stroke-width="0.17"/><line x1="23.192" transform="translate(824.081 918.459)" fill="none" stroke="#fff" stroke-miterlimit="10" stroke-width="0.17"/><path d="M38.153,368.222l-23.041-15.2v66.645L38.622,432.4Z" transform="translate(786.038 385.299)" fill="#fff"/><path d="M25.96,436.677,3.77,421.48v42.588L26.412,476.8Z" transform="translate(821.969 460.012)" fill="#fff"/><rect width="88.793" height="261.352" transform="translate(246.311 702.715)" fill="#fff"/><line y2="254.174" transform="translate(311.799 704.992)" fill="none" stroke="#c2bb2d" stroke-miterlimit="10" stroke-width="0.679"/><line y2="254.174" transform="translate(287.186 704.992)" fill="none" stroke="#c2bb2d" stroke-miterlimit="10" stroke-width="0.679"/><line y2="254.174" transform="translate(262.573 704.992)" fill="none" stroke="#c2bb2d" stroke-miterlimit="10" stroke-width="0.679"/><line x1="81.885" transform="translate(250.266 736.231)" fill="none" stroke="#c2bb2d" stroke-miterlimit="10" stroke-width="0.17"/><line x1="81.885" transform="translate(250.266 766.523)" fill="none" stroke="#c2bb2d" stroke-miterlimit="10" stroke-width="0.17"/><line x1="81.885" transform="translate(250.266 796.816)" fill="none" stroke="#c2bb2d" stroke-miterlimit="10" stroke-width="0.17"/><line x1="81.885" transform="translate(250.266 827.108)" fill="none" stroke="#c2bb2d" stroke-miterlimit="10" stroke-width="0.17"/><line x1="81.885" transform="translate(250.266 857.401)" fill="none" stroke="#c2bb2d" stroke-miterlimit="10" stroke-width="0.17"/><line x1="81.885" transform="translate(250.266 887.693)" fill="none" stroke="#c2bb2d" stroke-miterlimit="10" stroke-width="0.17"/><line x1="81.885" transform="translate(250.266 917.986)" fill="none" stroke="#c2bb2d" stroke-miterlimit="10" stroke-width="0.17"/><line x1="81.885" transform="translate(250.266 948.279)" fill="none" stroke="#c2bb2d" stroke-miterlimit="10" stroke-width="0.17"/><path d="M250.083,348.846l87.773,38.67V550.787L249.47,511.5Z" transform="translate(-3.338 380.737)" fill="#c2bb2d"/><g transform="translate(246.133 729.583)"><g clip-path="url(#i)"><line y2="188.855" transform="translate(65.654 22.74)" fill="none" stroke="#fff" stroke-miterlimit="10" stroke-width="0.679"/><line y2="188.855" transform="translate(41.053 14.694)" fill="none" stroke="#fff" stroke-miterlimit="10" stroke-width="0.679"/><line y2="188.855" transform="translate(16.44 -0.452)" fill="none" stroke="#fff" stroke-miterlimit="10" stroke-width="0.679"/></g></g><line x1="85.198" transform="translate(248.847 766.997)" fill="none" stroke="#fff" stroke-miterlimit="10" stroke-width="0.17"/><line x1="85.198" transform="translate(248.847 797.289)" fill="none" stroke="#fff" stroke-miterlimit="10" stroke-width="0.17"/><line x1="85.198" transform="translate(248.847 827.582)" fill="none" stroke="#fff" stroke-miterlimit="10" stroke-width="0.17"/><line x1="85.198" transform="translate(248.847 857.874)" fill="none" stroke="#fff" stroke-miterlimit="10" stroke-width="0.17"/><line x1="85.198" transform="translate(248.847 888.167)" fill="none" stroke="#fff" stroke-miterlimit="10" stroke-width="0.17"/><line x1="23.192" transform="translate(310.853 918.459)" fill="none" stroke="#fff" stroke-miterlimit="10" stroke-width="0.17"/><path d="M283.55,368.222l-23.041-15.2v66.645l23.51,12.733Z" transform="translate(27.413 385.299)" fill="#fff"/><path d="M271.357,436.677l-22.19-15.2v42.588L271.809,476.8Z" transform="translate(63.344 460.012)" fill="#fff"/><g clip-path="url(#a)"><g transform="translate(306.437 702.618)" opacity="0.3"><g clip-path="url(#k)"><rect width="28.602" height="262.226" fill="#004c58"/></g></g></g><rect width="204.823" height="10.271" transform="translate(444.579 855.614)" fill="#158890"/><rect width="6.214" height="110.68" transform="translate(462.34 865.243)" fill="#158890"/><path d="M185.382,441.3l6.214,5.9V413.711h-6.214Z" transform="translate(276.957 451.532)" fill="#004c58"/><rect width="156.894" height="108.582" transform="translate(468.553 865.243)" fill="#fff"/><g clip-path="url(#a)"><g transform="translate(468.553 865.243)" opacity="0.3"><g clip-path="url(#m)"><path d="M110.364,424.611l156.894,55.454V413.711H110.364Z" transform="translate(-110.365 -413.711)" fill="#004c58"/></g></g><g transform="translate(468.553 906.92)" opacity="0.3"><g clip-path="url(#m)"><path d="M267.258,489.093,110.364,433.639v66.354H267.258Z" transform="translate(-110.364 -433.639)" fill="#004c58"/></g></g></g><line y2="107.271" transform="translate(546.694 865.747)" fill="none" stroke="#158890" stroke-miterlimit="10" stroke-width="0.679"/><rect width="96.724" height="6.157" transform="translate(759.541 696.557)" fill="#c2bb2d"/><rect width="96.726" height="6.157" transform="translate(238.886 697.348)" fill="#c2bb2d"/><rect width="433.798" height="6.801" transform="translate(331.329 111.92)" fill="#c2bb2d"/><rect width="7.753" height="49.37" transform="translate(566.128 61.241)" fill="#c2bb2d"/><rect width="7.753" height="49.37" transform="translate(520.839 61.241)" fill="#c2bb2d"/><g clip-path="url(#a)"><path d="M127.5,44.166a43.488,43.488,0,1,1,43.487,43.487A43.488,43.488,0,0,1,127.5,44.166" transform="translate(375.127 0.741)" fill="#fff"/><path d="M127.5,44.166a43.488,43.488,0,1,1,43.487,43.487A43.488,43.488,0,0,1,127.5,44.166Z" transform="translate(375.127 0.741)" fill="none" stroke="#004c58" stroke-miterlimit="10" stroke-width="1.358"/><rect width="5.917" height="110.68" transform="translate(625.447 865.243)" fill="#158890"/><path d="M107.527,464.8l5.933,5.9V413.711h-5.933Z" transform="translate(517.92 451.532)" fill="#004c58"/><path d="M247.471,458.9H472.255c9.838,0,15.311-11.664,9.229-19.624C468.07,421.72,442.1,398.731,398.1,398.731c-49.46,0-78.688,35.487-78.688,35.487S270.7,420.333,247.471,458.9" transform="translate(-145.337 435.182)" fill="#158890"/><path d="M253.742,439.992h223.52s-21.807-23.943-86.547-23.943c-44.976,0-71.554,14.119-71.554,14.119s-44.294-5.523-65.42,9.823" transform="translate(-151.679 454.085)" fill="#004c58"/><path d="M368.791,418.382v28.485a8.151,8.151,0,0,1-3.742,6.9l-28.422,18a7.775,7.775,0,0,0-3.568,6.575v18.635l9.162,25.151H324.879V483.911L282.27,456.133v-28.2h2.84V452.79l38.957,24.645s0-8.564,6.9-12.95l7.3-25.689V423.132h2.84v15.874l-7.1,24.436L359,448.582a4.989,4.989,0,0,0,2.407-4.294v-26.17Z" transform="translate(-102.873 456.343)" fill="#0d1413"/><path d="M463.642,410.259a84.592,84.592,0,0,0-15.753-6.824,101.791,101.791,0,0,0-84.031,8.4,126.639,126.639,0,0,0-27.251,21.554l2.236-.6a83.448,83.448,0,0,0-20.8-2.054,72.8,72.8,0,0,0-20.5,3.422,54.886,54.886,0,0,0-31.311,25.507,60.287,60.287,0,0,1,14.215-14.209,57.717,57.717,0,0,1,18-8.282,71.578,71.578,0,0,1,19.643-2.405,80.692,80.692,0,0,1,19.546,2.413l1.3.339.935-.941a132.265,132.265,0,0,1,26.387-20.617,101.62,101.62,0,0,1,15.05-7.268,95.311,95.311,0,0,1,16-4.831,110.809,110.809,0,0,1,16.62-2.213,118,118,0,0,1,16.84.433,113.3,113.3,0,0,1,32.881,8.177" transform="translate(-164.159 434.417)" fill="#8bbcc3"/></g></g></g><g transform="translate(1458.538 49.851)"><g transform="translate(0 0)" clip-path="url(#p)"><path d="M36.032,45.863A17.639,17.639,0,0,1,18.381,28.2H0A36.076,36.076,0,0,0,36.032,64.26Z" transform="translate(0 7.74)" fill="#004b60"/><path d="M18.381,35.942A17.68,17.68,0,0,1,36.032,18.234V0A35.977,35.977,0,0,0,0,35.942Z" transform="translate(0 0.001)" fill="#00899a"/><path d="M28.273,18.234A17.755,17.755,0,0,1,46,35.954l18.241-.011A35.924,35.924,0,0,0,28.273,0Z" transform="translate(7.759 0)" fill="#00bec6"/><path d="M32.074,30.873A2.7,2.7,0,0,1,29.347,28.2H14.423a17.633,17.633,0,0,0,17.651,17.66Z" transform="translate(3.958 7.74)" fill="#00899a"/><path d="M28.273,45.863A17.688,17.688,0,0,0,46,28.214L30.934,28.2a2.646,2.646,0,0,1-2.661,2.671Z" transform="translate(7.759 7.74)" fill="#004b60"/><path d="M32.074,14.308A17.674,17.674,0,0,0,14.423,32.016H29.347A2.743,2.743,0,0,1,32.074,29.3Z" transform="translate(3.958 3.927)" fill="#00bec6"/></g></g></g></svg>