<svg xmlns="http://www.w3.org/2000/svg" xmlns:xlink="http://www.w3.org/1999/xlink" width="715.37" height="783.07" viewBox="0 0 715.37 783.07"><defs><clipPath id="a"><rect width="715.37" height="783.07" fill="#eaff90"/></clipPath><clipPath id="b"><path d="M2.2,355.9c0,195.341,158.355,353.7,353.7,353.7s353.7-158.356,353.7-353.7S551.239,2.2,355.9,2.2,2.2,160.555,2.2,355.9" fill="none"/></clipPath><clipPath id="c"><path d="M237.823,167.34a36.643,36.643,0,0,1-5.041,9.059,52.8,52.8,0,0,1-13.475,13.66c-5.37,3.541-11.84,5.659-18.243,5.044-1.984-2.9-2.544-6.03-3.362-9.447q-3.123-13.043-6.763-25.951c-6.015,3.07-12.466,6.931-17.441,11.5s-8.773,10.837-8.878,17.589c-.1,6.521,3.158,12.565,6.329,18.266l6.194,11.137c11.709,21.055,21.194,42.606,31.769,64.253,5.74,11.75,11.5,23.549,15.52,35.994,1.037,3.208,2.078,6.647,4.658,8.818,2.753,2.316,3.66,5.51,6.461,7.767a425.918,425.918,0,0,0,68.681,45.134c7.982,4.2,16.1,8.156,23.935,12.637,6.87,3.929,13.5,8.257,20.129,12.582l81.336,53.074c3.3,2.154,7.938,5.047,9.328,8.735-7.815,14.168-12.676,29.739-17.486,45.188L398.521,586.1c-8.559-2.711-18.872,2.665-21.971,11.091Q319.112,521.226,258.6,447.655c-28.67,20.717-49.913,50.98-58.436,85.31,43.077,61.023,85.994,121.44,136.711,176.127q9.443.5,19.025.5c159.239,0,293.9-105.222,338.234-249.938-5.592-12.708-13.236-24.185-23.862-33.549-10.283-9.062-22.645-15.367-33.984-23.065-36.075-24.491-60.964-62.635-77.908-102.812-5.953-14.115-11.124-28.743-19.785-41.379-26.7-38.953-78.519-49.652-125.137-57.19-7.43-1.2-16.669-1.653-20.732,4.682-2.278,3.551-2.019,8.1-1.644,12.307A784.336,784.336,0,0,0,404,306.783l-71.483-17.827c-7.057-1.76-16.068-7.182-13.027-13.788l-16.411,2.563A323.513,323.513,0,0,1,239.31,153.205c1.116,4.37,0,9.887-1.487,14.135m1.487-14.135c-.01-.036-.019-.073-.029-.109.01.036.019.073.029.109" fill="none"/></clipPath><clipPath id="e"><path d="M188.158,44.427v5.331c8.856,2.725,21.313,7.4,21.313,7.4V38.178a16.9,16.9,0,0,0-.487-4.118q-10.611,4.851-20.826,10.367" fill="none"/></clipPath><clipPath id="f"><rect width="715.37" height="783.07" fill="none"/></clipPath></defs><g clip-path="url(#a)"><path d="M2.2,355.9C2.2,160.556,160.556,2.2,355.9,2.2s353.7,158.356,353.7,353.7S551.239,709.6,355.9,709.6,2.2,551.24,2.2,355.9" fill="#eaff90"/></g><g clip-path="url(#b)"><path d="M230.936,116.724l9.652,45.245s-5.773,30.763-42.886,23.687l-1.926-44.647Z" fill="#d7f0f4"/><path d="M242.891,423.1l28.627,47.115L224.4,504.211l-23.856-42.94,9.542-39.362Z" fill="#d7f0f4"/><path d="M438.96,467.188c-7.815,14.168-12.676,29.739-17.486,45.188L398.521,586.1c-8.559-2.711-18.872,2.665-21.971,11.091Q319.112,521.226,258.6,447.655c-28.671,20.716-49.913,50.98-58.436,85.31,45.066,63.84,89.96,127.021,143.789,183.668,7.018,7.385,14.885,15.02,24.937,16.679,5.715.943,11.546-.176,17.231-1.291l29.376-5.764c.367,3.132,1.413,6.4,1.779,9.53H704.479C720.7,673.3,715.351,606,710.309,541.638c-3.268-41.723-8.641-87.861-40.04-115.531-10.282-9.061-22.644-15.366-33.983-23.064-36.075-24.491-60.963-62.635-77.908-102.812-5.953-14.115-11.124-28.743-19.785-41.379-26.7-38.954-78.519-49.652-125.138-57.19-7.429-1.2-16.668-1.653-20.731,4.681-2.278,3.552-2.019,8.1-1.645,12.308A784.562,784.562,0,0,0,404,306.783l-71.483-17.827c-7.057-1.76-16.068-7.181-13.028-13.789l-16.41,2.564A323.519,323.519,0,0,1,239.281,153.1c1.163,4.387.042,9.96-1.458,14.243a36.664,36.664,0,0,1-5.041,9.06,52.8,52.8,0,0,1-13.475,13.66c-5.37,3.541-11.84,5.659-18.243,5.044-1.984-2.9-2.544-6.03-3.362-9.447q-3.121-13.041-6.763-25.951c-6.015,3.069-12.466,6.93-17.441,11.5s-8.773,10.837-8.879,17.589c-.1,6.522,3.159,12.565,6.329,18.265l6.2,11.138c11.709,21.054,21.194,42.606,31.769,64.253,5.74,11.75,11.5,23.549,15.52,35.993,1.037,3.209,2.078,6.648,4.658,8.819,2.753,2.316,3.659,5.51,6.461,7.767a425.954,425.954,0,0,0,68.68,45.134c7.984,4.2,16.1,8.156,23.936,12.637,6.869,3.929,13.5,8.257,20.129,12.581l81.336,53.075c3.3,2.154,7.938,5.046,9.328,8.735" fill="#fff"/></g><g clip-path="url(#c)"><path d="M446.895,263.549c-.268,5.02-.249,10.775,3.5,14.124,3.186,2.847,8.272,3.087,10.979,6.392,2.589,3.159,1.956,7.8.9,11.744-2.394,8.938-6.3,17.807-5.521,27.027.832,9.894,7,18.6,14.226,25.4s15.65,12.246,22.907,19.022c2.072,1.934,4.158,4.2,4.459,7.021.678,6.355-7.288,9.624-13.571,10.8L450,391.562a11.14,11.14,0,0,0,8.475,1.778c-.815,3.257,2.191,6.1,4.877,8.119l12.424,9.324c9.736,7.307,21.54,15.024,33.179,11.457L524.68,468.5l31.68-31.191c3.462-3.408,7.02-6.958,8.791-11.482a34.044,34.044,0,0,0,1.758-8.44q2.729-22.891,4.125-45.917c.768-12.671,1.2-25.637-2.441-37.8-2.786-9.306-7.841-17.737-12.09-26.473-8.738-17.965-14.721-38.28-29.7-51.5-11.684-10.307-27.248-14.788-42.255-18.976-7.757-2.164-26.851-9.3-33.906-2.772-5.8,5.369-3.369,22.553-3.745,29.589" fill="#f4ef99"/><path d="M310.98,649.747c15.42,21.737,31.365,43.989,53.631,58.635A230.2,230.2,0,0,1,382.32,599.7a204.408,204.408,0,0,0,14.41,100.524,33.741,33.741,0,0,1,17.019-32.333A139.158,139.158,0,0,0,406.4,609.43a594.669,594.669,0,0,0,33.384,69.218c1.379,2.441,2.852,4.958,5.171,6.532,2.79,1.9,6.376,2.13,9.743,1.929,13.131-.786,25.22-7.16,36.517-13.9,51.091-30.483,95.313-71.021,139.136-111.258q-27.724,38.641-53.2,78.836l92.63-3.4q-40.552,15.864-80.446,33.343a215.7,215.7,0,0,0,52.06,20.647q-7.031,44.246-14.06,88.49c-92.149,9.549-184.952-4.019-276.6-17.556-10.576-1.562-21.555-3.276-30.4-9.281-6.654-4.517-11.562-11.114-16.339-17.583C263.357,680.4,222.694,625.336,184.771,568.384c-7.438-11.171-14.979-22.978-16.388-36.325-2.1-19.87,9.673-38.262,20.933-54.768,6.912-10.13,10.369.111,13.974,6.793q6.918,12.826,14.286,25.4c9.435,16.164,19.352,32.043,29.57,47.723,20.462,31.4,42.152,61.973,63.834,92.536" fill="#d6e7ec"/><path d="M580.405,486.462,479.116,547.794a249.069,249.069,0,0,0,46.915-74.031c.994-2.436,1.966-4.983,1.82-7.61a18.529,18.529,0,0,0-1.517-5.583l-20.427-52.637A611.106,611.106,0,0,0,430.9,557.986q-.488-15.276-.975-30.551c-2.723,10.035-20.222,50.952-5.944,54,6.564,1.4,19.223-6.728,24.92-9.255q14.319-6.35,28.212-13.608a493.522,493.522,0,0,0,54.38-33.026c16.744-11.712,31.674-28.646,48.915-39.086" fill="#d6e7ec"/><path d="M183.492,192.85a391.407,391.407,0,0,1,42.944,115.791l59.716-27.311a212.392,212.392,0,0,0-39.5,46.84l39.238-29.882a118.655,118.655,0,0,0-18.6,34.119,1450,1450,0,0,0,178.6,87.2,210.815,210.815,0,0,0-33.634,53.41c-32.1-16.487-67.078-26.506-100.3-40.606A439.9,439.9,0,0,1,210,371.714c-6.821-5.431-13.606-11.209-18.107-18.677-4.655-7.722-6.565-16.74-8.4-25.567q-14.1-67.732-28.2-135.465c-2.361-11.344-.573-18.2,9.247-24.631,5.826-3.813,15.995-10.013,23.392-7.694,8.536,2.675,9.543,13.469,11.083,20.993,1.26,6.16,3.485,10.671-2.307,13.667-2.257,1.168-11.75,1.111-13.213-1.49" fill="#d6e7ec"/></g><g clip-path="url(#b)"><path d="M387.727,189.238c-9.122,14.22-7.383,32.557-5.314,49.324,1.346,10.911,2.693,21.828,4.6,32.655,2.253,12.792,5.284,25.437,7.6,38.219,8.21,45.421,7.234,92.053,2.883,138.005-.962,10.168-2.2,20.672-7.4,29.464,7.842-2.261,14.617-3.567,22.459-5.827,35.291-10.171,72.182-21.259,98.207-47.175-1.444-5.792-4.612-11.042-7.074-16.48-2.025-4.471-4.487-8.919-8.34-11.96-6.62-5.225-15.944-5.26-24.242-3.757-5.022.909-10.044,2.3-15.136,1.973s-10.449-2.8-12.462-7.49c-2.2-5.135-.143-12-4.088-15.955-1.514-1.519-3.694-2.293-5.045-3.959-2.557-3.157-1.085-7.814.492-11.557-3.637.48-5.98-3.856-6.364-7.5s-.14-7.835-2.787-10.376c-4.229-4.06-11.439-.238-17.016-2.046-5.42-1.758-7.712-8.491-6.865-14.125s3.928-10.642,6.027-15.939a47.486,47.486,0,0,0,3.286-19.346c-.077-1.908-.328-3.952-1.592-5.384-1.63-1.849-4.411-2.108-6.462-3.475-3.6-2.4-3.886-7.417-4.123-11.736-1.574-28.639,5.575-58.169,5.575-58.169,11.6,20.961,33.855,33.346,54.98,44.647a48.3,48.3,0,0,0,23.221,7.321l40.834,4.471c11.005,13.128,15.241,31.25,18.368,48.093,4.922,26.51,7.664,53.547,6.043,80.461s-7.7,53.754-19.732,77.882c13.865,1.776,27.158-6.4,39.964-12.006,22.35-9.781,45.857-16.822,67.875-27.33s43.01-25.09,55.54-46.023c-21.918-30.6-23.041-69.2-32.214-105.708-5.141-20.459-12.356-40.329-19.557-60.157-8.04-22.139-16.242-44.59-29.964-63.733s-33.912-34.9-57.272-37.906c-8.966-1.156-18.072-.418-27.023.842a235.735,235.735,0,0,0-140.631,74.593" fill="#3b5057"/><path d="M257.224,436.157a180.1,180.1,0,0,0-.237-29.6c-.561-6.2-1.575-12.7-5.4-17.612-2.153-2.762-5.075-4.852-7.2-7.637-2.836-3.722-4.046-8.41-6.3-12.513-3.31-6.035-8.83-10.733-11.559-17.052a1.888,1.888,0,0,1-.12-1.727,2.6,2.6,0,0,1,1.294-.761c2.619-1.1,3.2-4.489,3.41-7.324.335-4.54.248-9.991-3.563-12.48-2.873-1.877-6.769-1.152-9.788.48a19.228,19.228,0,0,0-9.119,11.11c-4.328-6.879-3.055-16.073-6.886-23.241a17.343,17.343,0,0,0-17.043,8.427c-2.295,4.059-2.812,8.847-3.364,13.477a8.356,8.356,0,0,1-.809,3.155c-1.713,3.048-6.382,2.987-8.626,5.67-2.706,3.235-.433,8.158-1.161,12.313-.768,4.38-4.8,7.447-6.415,11.59a11.479,11.479,0,0,0,3.818,13.054,22.143,22.143,0,0,0-5.545,20.63c2.442,9.5,10.785,16.078,16.613,23.964a100.612,100.612,0,0,1,7.906,13.4c1.67,3.2,3.367,6.475,3.867,10.048a7.211,7.211,0,0,0,.894,3.306c1.182,1.641,4.08,2.244,3.972,4.264a10.025,10.025,0,0,0,3.563,7.979c2.3,2.012,5.177,3.3,7.388,5.41a36.168,36.168,0,0,1,18.062-41.537,23.76,23.76,0,0,1,4.551-1.88,25.075,25.075,0,0,1,8.549-.683,43.925,43.925,0,0,1,19.245,5.768" fill="#36b5c8"/><path d="M155.013,128.289a18.456,18.456,0,0,1-6-3.538c-1.649-1.655-2.635-4.191-1.811-6.378.541-1.438,1.781-2.555,2.194-4.036,1-3.574-3.015-6.325-4.917-9.51-2.4-4.026-1.29-9.394,1.434-13.21.917-1.286,2.057-2.616,1.99-4.194-.06-1.411-1.072-2.566-1.805-3.773a10.673,10.673,0,0,1,.19-11.134c1.571-2.4,4.14-4.178,5.056-6.894,1.252-3.712-1.017-7.83-.145-11.649.686-3,3.263-5.3,6.137-6.4a23.515,23.515,0,0,1,9.1-1.093,91.983,91.983,0,0,1,32.437,6.924q-3.34-10.128-6.683-20.255a4.437,4.437,0,0,0-.789-1.612,4.431,4.431,0,0,0-1.584-.987l-4.743-2.092a23.034,23.034,0,0,1-6.346-3.65,7.8,7.8,0,0,1-2.815-6.489c.475-3.779,4.473-6.092,8.208-6.84,6.319-1.265,12.827.217,19.1,1.692a9.675,9.675,0,0,1,4.4,1.852,9.649,9.649,0,0,1,2.154,3.536Q221.73,46.6,233.672,74.637c1.957,4.594,3.955,9.558,2.911,14.441a8.241,8.241,0,0,0-.379,2.844c.243,1.7,1.795,2.85,2.709,4.3,2.553,4.052-.211,9.183-1.247,13.859-.831,3.747-.483,7.641-.649,11.476a42.977,42.977,0,0,1-8.5,23.763,17.641,17.641,0,0,1-6.1,5.535,22.181,22.181,0,0,1-6.917,1.675c-4.379.571-8.872,1.137-13.169.122a18.583,18.583,0,0,1-12.13-9.545c-2.978-5.873-8.864-4.927-14.7-6.785-7-2.229-13.754-5.135-20.494-8.033" fill="#36b5c8"/><path d="M219.149,174.8h-1.2V115.249H192.433V174.8h-.643a5.819,5.819,0,0,0-5.8,6.214l4.381,64.256a5.926,5.926,0,0,0,5.945,5.523l2.981-.017,3.079,89.438h6.174l3.081-89.506,2.5-.014a5.926,5.926,0,0,0,5.875-5.47l4.952-64.158a5.818,5.818,0,0,0-5.8-6.266" fill="#1d3f45"/><path d="M212,174.8h-.824V115.249H193.7V174.8h-.441c-2.307,0-4.133,2.853-3.976,6.214l3,64.256c.146,3.122,1.929,5.54,4.073,5.523l2.042-.017,2.109,89.438h4.23l2.11-89.506,1.711-.014c2.112-.017,3.862-2.4,4.025-5.47l3.392-64.158c.178-3.38-1.652-6.266-3.974-6.266" fill="#3089a1"/><path d="M180.165,128.42s29.033,2.346,33.138-4.692,4.643-8.479,4.643-8.479l-1.124-8.53-24.633-2.346-7.039,3.812Z" fill="#36b5c8"/><path d="M180.47,25.721h22.383s6.618,3.211,6.618,12.457V57.154s-12.457-4.671-21.313-7.4V38.664s1.46-7.639-7.639-7.639Z" fill="#3089a1"/></g><g clip-path="url(#e)"><path d="M178.868,30.919h23.856s4.591.82,4.591,8.772V59.366h5.9V23.541H179.606Z" fill="#3b5057"/></g><g clip-path="url(#f)"><circle cx="353.698" cy="353.698" r="353.698" transform="translate(2.2 2.2)" fill="none" stroke="#3089a1" stroke-miterlimit="10" stroke-width="4.4"/><path d="M537.617,293.1s-36.055,15.452-67.474,15.452-63.354-9.786-63.354-9.786-7.211,17.512-9.786,24.208,1.545,14.937,8.241,26.269,32.965,46.356,44.3,48.416a100.073,100.073,0,0,0,23.178,1.03l18.028-14.422L547.4,349.758l-.515-3.091-55.627,32.965s-6.445-10.277-13.656-11.822-11.332-1.03-13.392-6.7-3.091-8.241-1.545-15.967-2.311-18.052-.766-23.2a23.2,23.2,0,0,1,5.151-8.756s28.328-2.061,72.109-17Z" fill="#fff"/><path d="M491.682,375.829l-20.756,20.249-17.212-1.012s11.138-1.013,15.694-6.581,1.518-14.175,1.518-14.175l-28.855,9.619,22.781-29.868-35.943,16.706L460.3,343.43s14.681,10.631,22.781,20.756,8.606,11.643,8.606,11.643" fill="#d6e7ec"/><path d="M449.665,340.9,412.71,349l25.818-13.162-36.449-12.15,37.968,3.037-34.424-10.63,34.93,3.543L411.7,304.45l44.549,8.1s-.506,4.556-1.012,12.15a39.485,39.485,0,0,0,1.518,13.668Z" fill="#d6e7ec"/></g></svg>