<svg xmlns="http://www.w3.org/2000/svg" xmlns:xlink="http://www.w3.org/1999/xlink" width="478" height="494" viewBox="0 0 478 494"><defs><clipPath id="a"><rect width="478" height="494" transform="translate(721 27)" fill="#fff"/></clipPath><clipPath id="b"><rect width="478.407" height="1091.426" transform="translate(0 0.004)" fill="none"/></clipPath><clipPath id="c"><path d="M2.3,280.374c0,130.838,106.065,236.9,236.9,236.9s236.9-106.066,236.9-236.9-106.065-236.9-236.9-236.9S2.3,149.536,2.3,280.374" fill="none"/></clipPath><clipPath id="d"><path d="M51.265,136.125v288.5a238.212,238.212,0,0,0,23.4,26.2l206.1-74.885V143.583L86.788,99a238.191,238.191,0,0,0-35.523,37.121" fill="none"/></clipPath><clipPath id="f"><path d="M386.312,179.321c-4.075,2.288-6.127,5.063-8.872,8.618a126.346,126.346,0,0,0-9.105,13.282,4.291,4.291,0,0,0-.694,1.738,7.634,7.634,0,0,0,.629,2.6c.7,2.546-.607,5.154-1.675,7.57A45.84,45.84,0,0,0,362.764,234c.244,4.593,1.182,9.16.942,13.752-.234,4.491-1.589,8.962-.977,13.418a7.3,7.3,0,0,0,1.878,4.321c1.651,1.6,4.161,1.78,6.445,2.031,3.888.427,8.236,1.7,9.927,5.23.935,1.95,1.024,4.509,2.822,5.71a5.75,5.75,0,0,0,2.639.758c14.162,1.453,27.17-7.069,40.787-11.221-.2-3.25,1.644-6.238,3.47-8.934q4.376-6.456,9.132-12.641c3.683-4.787,7.6-9.572,9.569-15.282a50.507,50.507,0,0,0,2.043-11.15q.48-4.52.962-9.041a43.292,43.292,0,0,0,.332-8.96c-.543-5.352-3.037-10.282-5.49-15.07a31.04,31.04,0,0,0-5.009-7.764,23.12,23.12,0,0,0-8.463-5.141,47.535,47.535,0,0,0-16.99-3.027,63.189,63.189,0,0,0-30.471,8.335" fill="none"/></clipPath><clipPath id="h"><path d="M299.172,336.781s0,0,0-.013v.013M249.94,300.893a12.147,12.147,0,0,0-3.275.816,23.938,23.938,0,0,1-9.333,1.081,6.654,6.654,0,0,0-2.2.028,1.908,1.908,0,0,0-1.49,1.451c-.118.886.624,1.642,1.357,2.153,3.79,2.638,8.758,2.808,13.352,2.336a5.1,5.1,0,0,1,2.852.229,4.862,4.862,0,0,1,1.468,1.37l4.075,5.028-13.488-.473a8.7,8.7,0,0,0-3.831.441,2.974,2.974,0,0,0-1.908,3.054c.256,1.3,1.6,2.067,2.844,2.528a19.786,19.786,0,0,0,6.484,1.227,10.74,10.74,0,0,1,3.452.339,12.364,12.364,0,0,1,3.387,2.441c4.291,3.517,10.3,4.049,15.826,3.526a51.8,51.8,0,0,1,6.561,6.284c4.087,4.442,7.4,9.564,11.674,13.829-.012-.353.383-.458.691-.632,2.578-1.459,4.453-3.881,6.161-6.3a16.442,16.442,0,0,0,1.308-2.078c.725-1.438,3.363-1.192,3.261-2.788a16.054,16.054,0,0,1-2.1-2.279c-.015-.228-.22-.39-.4-.523-3.164-2.277-5.69-5.309-8.235-8.262q-9.182-10.658-19.263-20.5a4.245,4.245,0,0,0-.994-.791,4.389,4.389,0,0,0-1.6-.356,74.183,74.183,0,0,1-13.428-2.582,11.06,11.06,0,0,0-3.034-.6c-.057,0-.113,0-.169,0" fill="none"/></clipPath></defs><g transform="translate(-721 -27)" clip-path="url(#a)"><g transform="translate(720.867 -5.717)"><g clip-path="url(#b)"><path d="M476.107,280.374c0-130.838-106.065-236.9-236.9-236.9S2.3,149.536,2.3,280.374s106.065,236.9,236.9,236.9,236.9-106.065,236.9-236.9" fill="#d7f0f4"/></g><g clip-path="url(#c)"><path d="M289.277,386.166,34.448,487.84V68.273l254.829,64.351Z" fill="#36b5c8"/><path d="M34.448,68.273,19.673,83.048V482.142l14.775,5.7Z" fill="#3b5057"/><path d="M51.265,90.841V459.324l229.5-83.39V143.583Z" fill="#d7f0f4"/></g><g clip-path="url(#d)"><path d="M283.159,501.044c-1.608-1.449-3.929-5.781-5.895-13.979-1.966-8.25-10.36-9.465-12.684-15.619-2.324-6.2-4.109-27.23-4.286-50.437s-3.217-49.386-5.9-60.579c-2.681-11.283-5.36-23.756-4.467-38.711.893-14.922.535-29.693-.712-37.283-1.251-7.62-1.789-7.033.177-22.82,1.963-15.694-1.966-32.982-8.039-49.691-6.072-17-19.113-17.981-22.507-22.178-3.4-4.235-10.005-6.989-16.259-13.278-6.253-6.387-10.359-8.511-10.359-12.672s-.181-15.179,2.317-23.793a70.47,70.47,0,0,0,2.505-17.408c2.675,2.747,2.856-1.346,5.176-8.921,2.324-7.52,3.04-12.655,2.5-16.842s-2.855-4.046-2.855-4.046,4.109-24.617-3.933-42.921C191.527,35,181.811,29.933,178.155,28.5v-.111s-.269-.075-.736-.164c-.467-.159-.733-.227-.733-.227V28.1c-3.656-.5-13.371-.488-19.792,11.739-8.038,15.638-3.929,43.752-3.929,43.752s-2.324-1.064-2.859,3.231.181,10.07,2.5,18.909c2.32,8.8,2.5,13.189,5.179,11.088a85.209,85.209,0,0,0,2.5,18.953c2.5,9.575,2.324,20.985,2.324,25.308s-4.109,5.831-10.362,11.567c-6.253,5.835-12.864,7.931-16.258,12.182-3.394,4.287-16.435,3.909-22.508,23.279-6.076,19.651-10.005,40.553-8.039,59.4,1.963,18.764,1.428,18.134.178,27.492-1.251,9.383-1.609,27.332-.716,45.144.9,17.769-1.786,33.784-4.464,48.565-2.678,14.871-5.718,48.7-5.9,77.605-.177,28.922-1.967,56.385-4.287,65.944-2.324,9.605-10.721,18.08-12.684,30.436-1.966,12.41-4.286,20.2-5.9,23.6s3.394,6.529,5.715-2.3c2.324-8.786,3.929-13.511,5.36-12.705s-.535,15.868-2.321,31.616c-1.789,15.8-3.574,26.53-.357,25.066s5.357-25.166,6.249-30.3.716,11.212-1.608,23.767c-2.321,12.619-1.786,16.115,0,15.957s3.574-11.138,3.574-11.138,3.48,3.563,7.177-15.984c0,0,3.694,3.3,7.126-18.381,3.431-21.51,6.072-48.906,4.75-60.633-1.319-11.76,15.048-69.623,16.895-114.651,1.847-44.828,5.279-79.651,6.6-82.191s8.976,40.214,5.81,63.865c-3.169,23.84-3.431,35.264-3.7,39.591s-4.488,23.035-5.807,42.958c-1.318,19.984-6.072,42.673-1.847,109.074,4.223,65.7,11.086,84.323,11.876,97.555.791,13.208.791,48.981.528,56.211s-1.584,17.978-1.847,25.7-6.6,38.61.529,85.955c7.125,46.426,8.71,74.966,8.71,80.57s-1.585,7.932,0,13.992c1.584,6.039-4.219,27.144-8.533,37.579-4.318,10.51-5.953,17.084-6.536,21s-.348,7.263,1.169,5.813c0,0-.7,3.4.467,5.215s2.566-.592,2.566-.592-.116,3.458,1.748,2.484a6.538,6.538,0,0,0,2.685-2.816s1.05,2.717,3.149.467,2.569-5.6,2.8-7.89.933-7.3,2.1-8.618,1.867-.153,1.4,2.141-.7,3.764-1.4,7.323.937,5.877,5.37.1,2.566-11.276,5.252-18.952c2.681-7.638,3.847-12.794,3.734-19.96s4.55-10.107,3.848-22.126c-.7-12.042-2.219-14.3-.815-22.411,1.4-8.073-.933-14.085-1.169-17.108s.113-33.77.907-43.079c.79-9.288,3.694-41.091,3.166-52.488s3.431-23.347-.529-50.011c-3.956-26.971,2.379-27.427,2.113-57.6-.266-30.191,4.488-42.808,3.432-70.18-1.057-27.438,2.109-44.265,2.637-59.792.372-10.879,1.52-15.232,2.178-16.858.9.866,2.218,3.782,2.559,13.4.525,14.947,2.9,30.3,1.847,58.433-1.056,28.219,2.113,36.222,1.847,66.152-.263,29.951,6.072,22.312,2.113,53.674-3.96,31.656-1.585,38.835-2.113,50.775-.528,11.958,3.959,37.286,4.754,45.043.79,7.742,1.134,36.9.9,40.22s-2.566,13.173-1.169,18.586c1.4,5.388-.116,10.264-.815,23.211-.7,12.976,3.967,7.256,3.851,14.37s1.05,9.889,3.735,12.164c2.682,2.245.814,11.013,5.248,8.029,4.433-3,6.069-8.227,5.37-10.221s-.937-2.906-1.4-4.18a4.935,4.935,0,0,1,1.4-4.6c1.165-.933,1.868,2.39,2.1,4.077.235,1.672.7,3.879,2.8,2.023s3.149-6.281,3.149-6.281.815.154,2.682-2.414a9.545,9.545,0,0,0,1.751-5.454s1.4-.412,2.567-4.16.47-5.5.47-5.5c1.516-1.45,1.748-4.838,1.165-7.269s-2.218-5.385-6.532-7.176c-4.321-1.85-10.121-11.113-8.537-19.439,1.585-8.289,0-7.753,0-12.921s1.585-34.063,8.71-87.245c7.126-52.264,2.376-72.692,2.113-79.31s-1.584-14.693-1.847-20.907,1.316-39.493,2.11-52.26c.79-12.735,7.656-36.2,11.879-97.665,4.225-60.768-3.7-76.448-5.016-93.253-1.319-16.87-2.376-32.185-2.638-35.913a301.5,301.5,0,0,0-3.694-33.847c-3.169-20.22,4.485-60.758,5.8-58.816s4.754,31.591,6.6,70.048c1.847,38.257,18.214,78.012,16.892,88.635-1.319,10.666,1.322,31.632,4.75,46.829,3.432,15.041,7.126,9.379,7.126,9.379,3.7,12.692,7.18,6.975,7.18,6.975s1.785,7.2,3.571,5.83,2.321-4.541,0-12.531c-2.324-8.047-2.5-20.817-1.605-17.45s3.036,20.267,6.249,18.8,1.428-8.313-.357-19.173c-1.789-10.928-3.752-21.312-2.321-22.936s3.036.93,5.357,6.077c2.324,5.109,7.326-.866,5.718-2.3" fill="#e4df00"/><path d="M219.442,296.628c-.508-12.784-1.6-16.3-1.745-16.719l-.007-.057c-.463-7.224-1.046-8.131-1.4-8.675a1.247,1.247,0,0,1-.1-.171,1.4,1.4,0,0,1-.1-.613v-.043a51.263,51.263,0,0,0-1.145-8.793,165.912,165.912,0,0,0-5.575-20.622,69.737,69.737,0,0,0-9.218-18.892,28.959,28.959,0,0,0-4.788-5.489,8.225,8.225,0,0,0-4.671-1.954c-2.086-.051-4.86,1.2-6.23,7.472a78.953,78.953,0,0,0-1.208,13.557l-.545-.889a8.1,8.1,0,0,0,.148-2.415c-.1-.661-.79-1.723-1.431-1.725a.667.667,0,0,0-.491.23,1.24,1.24,0,0,0-.279.563c-.215-.36-.393-.671-.551-.957a2.819,2.819,0,0,0,.626-1.875c0-1.26-.607-2.292-1.353-2.3h-.187v-.323a.174.174,0,0,0-.007-.06v-.448l.194,0c.746.007,1.353-1.013,1.353-2.273s-.607-2.3-1.353-2.308l-.194,0v-.828l.194,0c.746.013,1.353-1,1.353-2.263s-.607-2.3-1.353-2.316l-.194-.005v-.832l.194.005c.746.018,1.353-.994,1.353-2.254s-.607-2.305-1.353-2.327l-.194-.006V209.2l.194.006c.746.023,1.353-.985,1.353-2.245s-.607-2.31-1.353-2.338l-.194-.007v-.829l.194.007c.746.029,1.353-.974,1.353-2.235s-.607-2.312-1.353-2.344l-.194-.009v-.832l.194.009c.746.033,1.353-.962,1.353-2.226s-.607-2.317-1.353-2.355l-.194-.01v-.828l.194.01c.746.039,1.353-.955,1.353-2.214s-.607-2.322-1.353-2.365l-.194-.012v-.831l.194.011c.746.044,1.353-.946,1.353-2.205s-.607-2.326-1.353-2.375l-.194-.012v-.832l.194.013c.746.049,1.353-.934,1.353-2.2s-.607-2.328-1.353-2.382l-.194-.014v-.83l.194.014c.746.055,1.353-.927,1.353-2.186s-.607-2.336-1.353-2.395l-.194-.015v-.831l.194.016c.746.06,1.353-.918,1.353-2.178s-.607-2.335-1.353-2.4l-.194-.017v-.83l.194.017c.746.065,1.353-.91,1.353-2.17s-.607-2.342-1.353-2.411l-.194-.018v-.831l.194.018c.746.071,1.353-.9,1.353-2.16s-.607-2.346-1.353-2.421l-.194-.019v-.844c.038.011.079.049.116.053.269.027.487-.146.65-.511a5.21,5.21,0,0,0,.2-2.642,1.933,1.933,0,0,0,.238-.167c.831-.761,2.273-2.426,2.4-3.846.055-.606.075-1.188.092-1.747a11.767,11.767,0,0,1,.746-4.394c.63-1.526.66-2.1.1-3.058a10.482,10.482,0,0,0,1.807-1.156c2.518-1.993,4.344-6.161,4.9-11.145.531-4.824-.842-10.584-3.193-13.415a12.913,12.913,0,0,0-1.714-1.622,9.965,9.965,0,0,1-2.113-2.175c-1.37-2.144-2.208-5.447-2.484-9.813-.3-4.624-2.151-7.047-3.858-7.4v0a.1.1,0,0,0-.055-.01c-1.7-.258-3.547,1.5-3.84,6.054-.276,4.317-1.114,7.379-2.488,9.1a6.274,6.274,0,0,1-2.109,1.532,8.074,8.074,0,0,0-1.714,1.111c-2.351,2.172-3.724,7.712-3.193,12.865.552,5.31,2.382,10.1,4.9,12.786a14.674,14.674,0,0,0,1.806,1.632c-.558.836-.528,1.43.1,3.135a13.473,13.473,0,0,1,.75,4.641c.017.571.037,1.162.1,1.795.129,1.469,1.567,3.468,2.4,4.415a2.424,2.424,0,0,0,.238.218,5.528,5.528,0,0,0,.2,2.705c.164.4.382.619.651.646.034,0,.074-.025.109-.027v.846l-.188-.019c-.746-.075-1.352.9-1.352,2.171s.606,2.367,1.352,2.438l.188.017v.836l-.188-.018c-.746-.069-1.352.91-1.352,2.181s.606,2.363,1.352,2.428l.188.016v.835l-.188-.016c-.746-.064-1.352.917-1.352,2.188s.606,2.357,1.352,2.417l.188.015v.835l-.188-.015c-.746-.059-1.352.93-1.352,2.2s.606,2.351,1.352,2.406l.188.013v.836l-.188-.014c-.746-.054-1.352.94-1.352,2.208s.606,2.349,1.352,2.4l.188.012v.837l-.188-.012c-.746-.049-1.352.948-1.352,2.22s.606,2.343,1.352,2.387l.188.011v.837l-.188-.011c-.746-.043-1.352.956-1.352,2.23s.606,2.338,1.352,2.377l.188.01v.832l-.188-.009c-.746-.038-1.352.966-1.352,2.239s.606,2.336,1.352,2.369l.188.009v.836l-.188-.008c-.746-.033-1.352.975-1.352,2.248s.606,2.331,1.352,2.36l.188.007v.833l-.188-.007c-.746-.027-1.352.988-1.352,2.26s.606,2.328,1.352,2.351l.188.005v.833l-.188-.006c-.746-.022-1.352,1-1.352,2.268s.606,2.323,1.352,2.341l.188,0v.837l-.188,0c-.746-.017-1.352,1.005-1.352,2.276s.606,2.318,1.352,2.331l.188,0v.832l-.188,0c-.746-.011-1.352,1.015-1.352,2.287s.606,2.315,1.352,2.322l.188,0v.835h-.188c-.746-.007-1.352,1.025-1.352,2.3a2.85,2.85,0,0,0,.652,1.928c-.137.251-.292.525-.472.831a1.314,1.314,0,0,0-.238-.468.671.671,0,0,0-.491-.236c-.644,0-1.336,1.071-1.431,1.742a7.15,7.15,0,0,0,.16,2.142l.015.1c-.228.376-.479.794-.74,1.229-.03-.112-.062-.235-.094-.319a80.872,80.872,0,0,0-1.205-13.609c-1.373-6.455-4.147-7.874-6.233-7.924a7.614,7.614,0,0,0-4.672,1.814,27.971,27.971,0,0,0-4.784,5.611c-2.522,3.681-6.161,10.2-9.218,20.272-5.319,17.7-6.723,29.147-6.723,32.709v.058a1.4,1.4,0,0,1-.2.879c-.348.642-.937,1.714-1.4,9.8l0,.018c0,.006-.006.008-.006.015v.031c-.147.483-1.241,4.566-1.745,18.9-.5,14,.232,25.108,1.9,28.975,1.35,3.12,5.889,8.716,13.385,7.7a16.007,16.007,0,0,0,2.965-.706c1.3-.438,2.569-.818,3.8-1.183,7.449-2.209,13.337-3.938,16.016-15.808a82.485,82.485,0,0,0,1.578-12.184c.282-4.173.412-8.887.391-14.012a210.357,210.357,0,0,0-1.158-22.49c0-.005-.005-.005-.006-.01s0-.009,0-.013c-.5-3.711-.8-7.237-1.063-10.347-.31-3.661-.579-6.825-1.083-9.51a48.18,48.18,0,0,1-.393-6.642,2.285,2.285,0,0,0,.348-.7.956.956,0,0,0-.058-.707c-.114-.2-.207-.372-.313-.561v-.006c.233-.371.46-.714.689-1.052a.482.482,0,0,0,.4.211,2.078,2.078,0,0,0,1.554-1.378,1.015,1.015,0,0,0-.031-.7c-.066-.146-.118-.268-.181-.409a8.391,8.391,0,0,1,.662-.63.663.663,0,0,0,.572.3,1.818,1.818,0,0,0,1.52-1.137,1.193,1.193,0,0,0,.059-.4,3.979,3.979,0,0,1,1-.138,3.9,3.9,0,0,1,1.045.141,1.119,1.119,0,0,0,.066.373,1.753,1.753,0,0,0,1.519,1.1.674.674,0,0,0,.539-.278,7.455,7.455,0,0,1,.623.571c.015.016.031.038.046.054-.055.124-.1.23-.158.357a1.02,1.02,0,0,0-.031.693,2,2,0,0,0,1.558,1.317.485.485,0,0,0,.326-.183c.166.24.33.47.5.726,0,.25,0,.5-.007.74l-.044.079a.936.936,0,0,0-.058.7,1.813,1.813,0,0,0,.09.2,50.276,50.276,0,0,1-.4,7.04c-.5,2.68-.77,5.817-1.08,9.456-.1,1.083-.191,2.208-.3,3.37-.153,1.682-.4,4.233-.773,6.989a210.482,210.482,0,0,0-1.155,22.473c-.024,5.086.105,9.747.388,13.846A73.407,73.407,0,0,0,181.378,322c2.679,11.043,8.564,11.194,16.016,11.37,1.227.026,2.5.054,3.8.127a15.608,15.608,0,0,0,2.954-.112,15.422,15.422,0,0,0,4.972-1.569,19.019,19.019,0,0,0,6.182-5.163,16.715,16.715,0,0,0,2.239-3.633c1.669-3.858,2.4-13.961,1.9-26.4" fill="#3089a1"/></g><g clip-path="url(#c)"><path d="M230.873,96.543V235.526l65.571,2.138V117.925Z" fill="none" stroke="#3b5057" stroke-miterlimit="10" stroke-width="0.828"/><path d="M239.426,222.7,110.421,207.73V472.153l129.005-59.869Z" fill="none" stroke="#3b5057" stroke-miterlimit="10" stroke-width="0.828"/><path d="M368.335,201.221a4.292,4.292,0,0,0-.694,1.737,7.605,7.605,0,0,0,.629,2.6c.7,2.546-.608,5.155-1.675,7.57A45.847,45.847,0,0,0,362.763,234c.244,4.593,1.182,9.16.943,13.752-.234,4.491-1.59,8.962-.977,13.417a7.29,7.29,0,0,0,1.878,4.322c1.651,1.6,4.161,1.779,6.444,2.03,3.889.427,8.237,1.7,9.928,5.23.935,1.95,1.024,4.509,2.822,5.71a5.726,5.726,0,0,0,2.639.758c14.161,1.453,27.17-7.068,40.787-11.22-.2-3.251,1.643-6.238,3.47-8.934q4.374-6.458,9.132-12.642c3.683-4.786,7.6-9.571,9.569-15.281a50.506,50.506,0,0,0,2.042-11.15l.963-9.041a43.435,43.435,0,0,0,.332-8.96c-.543-5.352-3.038-10.282-5.49-15.07a31.049,31.049,0,0,0-5.009-7.764,23.106,23.106,0,0,0-8.463-5.141c-15.362-5.86-33.123-2.739-47.461,5.308-4.075,2.288-6.127,5.063-8.872,8.618a126.243,126.243,0,0,0-9.105,13.282" fill="#fff"/></g><g clip-path="url(#f)"><path d="M412.216,249.712S391.157,274.155,360.7,262.5c-21.769-8.332,18.8,21.81,18.8,21.81s11.281,2.633,12.41,1.88,10.9-12.409,14.665-19.93a78.7,78.7,0,0,0,5.641-16.546" fill="#f4ef99"/><path d="M378.642,201.705s31.457,7.569,38.06,10.914-.84,22.948-4.758,28.545-9.8,9.515-19.869,5.037-23.508-15.392-23.508-15.392Z" fill="#f4ef99"/></g><g clip-path="url(#c)"><path d="M379.515,178.973l-.462-2.53a1.613,1.613,0,0,1-.017-.756c.2-.682,1.116-.78,1.827-.747a3.617,3.617,0,0,1-.52-1.313,1.236,1.236,0,0,1,.531-1.23c.241-.133.535-.152.769-.3.647-.4.561-1.535,1.26-1.835a2.133,2.133,0,0,1,.692-.1,2.5,2.5,0,0,0,1.77-.946c.631-.812.825-2.244,1.542-2.982a1.8,1.8,0,0,1,2.686-.021l1.815-1.423,5.4.525a3.407,3.407,0,0,0,2.21-.282c.825-.538,1.384-1.837,2.333-1.573.347.1.6.4.948.511a1.952,1.952,0,0,0,1.4-.306,16.971,16.971,0,0,1,4.852-1.522,2.4,2.4,0,0,1,1.336.066,7.107,7.107,0,0,1,1.128.892c1.26.9,2.988.118,4.321-.667-.622.947.985,1.907,2.066,1.57s2.083-1.208,3.193-.984c1.044.21,1.7,1.324,2.735,1.593a5.3,5.3,0,0,0,1.908-.081,12.051,12.051,0,0,1,5.185.981,1.9,1.9,0,0,1,.974.582c.318.443.2,1.076.465,1.555.894,1.651,3.752-.75,5.243.391.878.673.74,2.263,1.738,2.742.72.345,1.541-.129,2.327-.27,2.254-.4,4.127,2.487,3.238,4.6,2-.225,4.617-.07,5.21,1.849.278.9-.044,1.9.2,2.8.583,2.188,3.906,2.617,4.621,4.765.34,1.022-.027,2.146.122,3.213.261,1.865,1.98,3.125,3.553,4.162-.68,1.125-1.386,2.43-1,3.687a6.524,6.524,0,0,0,1.086,1.765,8.6,8.6,0,0,1,.711,8.542c-.492,1.016-1.211,2.056-1,3.164a6.259,6.259,0,0,0,1.222,2.1,2.008,2.008,0,0,1,.226,2.277c-.5.63-1.563.667-1.936,1.381-.646,1.235,1.53,2.486,1.14,3.824a2.785,2.785,0,0,0-2.229,2.334,13.075,13.075,0,0,1-.1,1.472,6.8,6.8,0,0,1-1.1,1.856,1.721,1.721,0,0,0-.093,2.014,13.863,13.863,0,0,0-2.8,2.777c-.217,1.293,1.265,2.194.058,3.557-.582.658-1.623,1.206-1.426,2.061.106.462.584.83.514,1.3-.117.784-1.33.569-2.021.955-1.449.81-.024,3.818-1.579,4.4-.6.223-1.291-.143-1.9.053-1,.324-1.1,1.881-2.075,2.286a6.4,6.4,0,0,1-1.214.182,3.559,3.559,0,0,0-1.754,1.239l-3.228,3.469c1.952-2.834,1.4-6.854,3.358-9.684a28.3,28.3,0,0,1,1.877-2.164,19.093,19.093,0,0,0,2.77-4.7,15.258,15.258,0,0,0,1.712-7.474c-.238-2.574-1.89-5.173-4.4-5.773-1.923-.459-3.924.3-5.657,1.249a24.739,24.739,0,0,0-7.173,5.951,5.641,5.641,0,0,0-3.556-3,2.752,2.752,0,0,1-1.053-.413c-1.1-.9.286-2.71-.084-4.088-.289-1.077-1.566-1.572-2.1-2.548a17.636,17.636,0,0,1-.637-2.485c-.532-1.417-2.069-2.122-3.292-3.014s-2.266-2.609-1.385-3.84c.8-1.119,2.818-1.192,3.106-2.538.212-.986-.726-1.807-1.557-2.38a4.178,4.178,0,0,0,1.063-1.554l-2.022-1.8c1.43-.163,1.979-1.919,2.2-3.341a7.854,7.854,0,0,0-.076-4.019c-.487-1.266-1.924-2.274-3.193-1.795-.382.144-.714.406-1.1.521-1.36.4-2.6-1.06-4.02-1.1-1.743-.055-3.386,2.02-4.917,1.184-.818-.447-1.115-1.572-1.972-1.941-1.083-.466-2.438.54-3.466-.039-.574-.324-.807-1.026-1.268-1.5a3.374,3.374,0,0,0-3.058-.61,10.63,10.63,0,0,1-3.2.45c-1.076-.131-2.174-1.034-2.014-2.106-1.159.609-2.827,1.112-3.575.037-.237-.341-.308-.774-.533-1.123-.767-1.185-2.582-.7-3.853-.085a24.592,24.592,0,0,0-3.641-2.217Z" fill="#3b5057"/><path d="M299.17,336.769a15.311,15.311,0,0,1-2.1-2.266c-.014-.228-.22-.39-.4-.524-3.164-2.277-5.69-5.308-8.234-8.261q-9.183-10.659-19.264-20.5a4.225,4.225,0,0,0-.994-.791,4.4,4.4,0,0,0-1.6-.356,74.178,74.178,0,0,1-13.429-2.582,10.377,10.377,0,0,0-3.2-.6,12.163,12.163,0,0,0-3.275.815,23.936,23.936,0,0,1-9.333,1.081,6.628,6.628,0,0,0-2.2.029,1.909,1.909,0,0,0-1.489,1.45c-.118.887.623,1.643,1.357,2.153,3.79,2.638,8.758,2.809,13.351,2.336a5.108,5.108,0,0,1,2.853.229,4.874,4.874,0,0,1,1.468,1.37l4.074,5.029-13.488-.474a8.7,8.7,0,0,0-3.831.442,2.975,2.975,0,0,0-1.908,3.054c.256,1.3,1.6,2.066,2.844,2.528a19.817,19.817,0,0,0,6.485,1.226,10.768,10.768,0,0,1,3.452.339,12.383,12.383,0,0,1,3.387,2.442c4.291,3.516,10.3,4.049,15.826,3.525a51.938,51.938,0,0,1,6.561,6.284c4.086,4.442,7.4,9.564,11.674,13.829-.012-.353.383-.458.69-.632,2.579-1.458,4.453-3.881,6.162-6.3a16.756,16.756,0,0,0,1.308-2.079c.727-1.441,3.377-1.19,3.259-2.8" fill="#fff"/></g><g clip-path="url(#h)"><path d="M236.383,315.3s-1.238,4.048,7.42,4.048,8.433-.113,15.74,2.361a26.35,26.35,0,0,0,14.279.449l22.6,23.274-13.6,9.669-18.55-24.735-22.149-5.509-6.409-5.509Z" fill="#f4ef99"/><path d="M232.357,303.647s2.615,3.118,9.554,3.319a33.434,33.434,0,0,0,11.365-1.408l-.7,1.307A15.619,15.619,0,0,0,266.853,313s-2.2,2.157-10.1,2.386-28.315-3.894-28.315-3.894Z" fill="#f4ef99"/></g><g clip-path="url(#c)"><path d="M335.509,211.492s-4.031,9.483,26.789,20.152c0,0,2.845-.237,10.432,1.9,6.477,1.821,13.471,6.061,22.606,9.18a7.059,7.059,0,0,0,8.19-2.836,55.039,55.039,0,0,0,7.345-18.464,7.17,7.17,0,0,0-4.125-8.123c-11.029-4.738-37.806-15.867-59.052-21.667a4.6,4.6,0,0,0-5.505,2.755Z" fill="#d7f0f4"/><path d="M447.136,240.4s-21.416-8.714-36.629-15.213c0,0-2.659,7.09-5.022,11.816l32.937,13.145Z" fill="#3b5057"/><path d="M412.44,525.979q.723,1.623,1.447,3.247c-2.466-22.593,1.733-45.49,8.81-67.087s16.988-42.133,26.334-62.849c2.94-6.515,5.842-13.1,7.477-20.06a82.387,82.387,0,0,0,1.7-22.083c-.976-24.885-4.417-54.24-23.093-70.715a5.6,5.6,0,0,1-1.306-6.444,4.09,4.09,0,0,0,.515-1.306,3.724,3.724,0,0,0-.707-2,7.577,7.577,0,0,1,.15-7.214,161.686,161.686,0,0,0-67.2,35.89q-5.721,5.113-10.946,10.75c-6.286,6.771-12.006,14.043-17.717,21.3-5.229,6.65-6.644,10.266-11.276,17.344-5.013-4.611-12.138-6.156-17.941-10.4-4.13-3.017-7.528-6.926-11.292-10.389.436,2.673-1.276,5.183-2.98,7.287-2.961,3.657-1.281.586-4.716,3.8a2.351,2.351,0,0,1-1.5.816c-1.168,0-1.747-1.431-2.914-1.5-1.906,3.283-8.7,13.091-10.61,16.374a200.792,200.792,0,0,0,18.187,14.011c8.291,5.509,17.317,9.885,24.643,16.624-12.464,33.673-21.635,68.457-30.785,103.177-2.429,9.216-4.865,18.471-5.93,27.941,40.981,3.392,81.435,2.976,122.43-.242a14.711,14.711,0,0,1,5.944.338c1.89.651,2.459,1.548,3.273,3.374" fill="#fff"/><path d="M347.659,401.138l5.148,87.517L339.079,536.7H303.9s28.315-38.611,33.463-47.191,10.3-88.375,10.3-88.375" fill="#d6e7ec"/><path d="M426.6,381.4s-11.154,96.1-12.87,104.677-12.012,61.777-12.012,61.777l-9.438-2.574,17.16-61.777,18.018-138.139.858,26.6,15.444-2.574Z" fill="#d6e7ec"/><path d="M329.641,422.588s-17.16,27.456-24.024,44.617-13.729,54.912-13.729,54.912l18.019.858s4.29-54.054,4.29-56.628,15.444-43.759,15.444-43.759" fill="#d6e7ec"/><path d="M427.68,281.361s-47.749,11.937-76.74,60.028-32.06,70.942-32.06,70.942,22.431-47.476,38.881-70.942c23.193-33.084,69.919-60.028,69.919-60.028" fill="#d6e7ec"/><path d="M317.507,391.391l5.56-21.26s-13.045-2.609-20.351-5.479-12.523-18.263-15.132-16.958-12.906,13.062-12.906,13.062S285.5,371.7,296.194,377.7s21.313,13.694,21.313,13.694" fill="#d6e7ec"/><path d="M366.565,305.36a161.683,161.683,0,0,1,65.86-35.5,24.417,24.417,0,0,0-1.439-5.365,2.426,2.426,0,0,0-.907-1.294,2.579,2.579,0,0,0-2.105.114c-5.616,1.984-11.242,3.972-16.661,6.445a49.7,49.7,0,0,1-8.331,3.357c-1.682.425-3.411.63-5.112.971-8.292,1.66-15.936,6.547-24.392,6.571a3.5,3.5,0,0,0-1.943.351,3.221,3.221,0,0,0-1.064,1.68,154.575,154.575,0,0,0-6.482,23.193,12.549,12.549,0,0,1,2.386-.344c.065-.058.125-.12.19-.179" fill="#36b5c8"/><path d="M347.982,193.874A217.931,217.931,0,0,1,381.643,208.4a3.235,3.235,0,0,1,1.7,3.062,50.435,50.435,0,0,1-4.35,16.26,3.224,3.224,0,0,1-2.847,1.929,55.676,55.676,0,0,1-20.375-3.541,3.227,3.227,0,0,1-2.081-3.265l.08-1.155A3.256,3.256,0,0,0,348,219.4a3.247,3.247,0,0,1-4.681.378,39.324,39.324,0,0,1-4.957-5.3,3.177,3.177,0,0,1-.472-2.9,156.524,156.524,0,0,1,6.1-15.919,3.253,3.253,0,0,1,3.985-1.782" fill="#3b5057"/></g><g clip-path="url(#b)"><circle cx="236.903" cy="236.903" r="236.903" transform="translate(2.301 43.471)" fill="none" stroke="#3089a1" stroke-miterlimit="10" stroke-width="4.601"/><path d="M361.685,230.826a81.46,81.46,0,0,0,.19,9.1,73.151,73.151,0,0,1,.379,9.478,90.223,90.223,0,0,0,.189,9.1c.286,2.662.948,5.687.948,5.687s-2.654,1.517,3.6,3.223,66.162-20.285,66.162-20.285L402.823,253.2s-5.308-7.2-4.55-9.668c0,0-12.373-5.179-18.957-7.583s-7.2-2.655-9.479-3.413a80,80,0,0,0-8.152-1.706" fill="#3089a1"/><path d="M369.387,238.58s25.194,5.242,26.715,6.425,4.058,7.947,4.058,7.947l-34.493,6.256,28.575-7.778-11.835-1.014,10.314-1.691Z" fill="#3b5057"/></g></g></g></svg>