<svg xmlns="http://www.w3.org/2000/svg" width="80" height="79.826" viewBox="0 0 80 79.826">
  <g id="Group_1139" data-name="Group 1139" transform="translate(0 -355.193)">
    <path id="Path_3265" data-name="Path 3265" d="M438.1,47.417c-.483,3.085-2.315,6.171-4.244,9.159a6.114,6.114,0,0,0-.77,1.351c-.194.289-.289.578-.483.867a74.225,74.225,0,0,0-5.785-11.377c-.384-.578-.675-1.157-1.06-1.735l-7.521-13.017Q422,30.5,425.757,28.326c.771-.481,1.543-.867,2.313-1.349l7.811,14.752c.192.384.481.77.675,1.157.963,1.543,1.832,2.988,1.543,4.531m-9.161,14.655a8.76,8.76,0,0,1-3.181.194H415.633a1.6,1.6,0,0,0-1.64,1.446l-5.4-6.941,5.3-7.135v1.349l11.282-.1a48.886,48.886,0,0,1,5.013,10.7c-.384.192-.771.289-1.254.481m9.932-21.982-9.353-17.74-1.541.867c-1.254.77-2.507,1.446-3.761,2.218q-3.761,2.169-7.521,4.339c-.289.192-.675.384-.964.578l-1.832,1.06,9.161,15.909c.1.1.1.194.192.289h-5.979l.1-8.1L404.351,56.673,417.176,73.16l.1-4.723V65.543h8.486a14.766,14.766,0,0,0,4.05-.386,6.454,6.454,0,0,0,3.181-1.735l.194-.192a12.294,12.294,0,0,0,2.892-3.858c.289-.386.483-.867.675-1.157,2.024-3.278,4.145-6.749,4.725-10.51.384-2.6-.869-4.82-1.929-6.652a2.462,2.462,0,0,1-.675-.964" transform="translate(-361.545 361.86)" fill="#c6e300"/>
    <path id="Path_3266" data-name="Path 3266" d="M398.449,59.291H397.1c-1.832,0-3.472,0-4.725-.963-2.41-1.929-4.242-5.111-5.882-8.2a9.561,9.561,0,0,0-.77-1.349c-.194-.289-.289-.578-.483-.869a69.909,69.909,0,0,0,12.728.675h17.065V59.87ZM384.372,43a13.549,13.549,0,0,1,1.446-2.891,2.924,2.924,0,0,0,.483-.867c.675-1.061,1.832-3.085,2.8-4.822.578-.963.964-1.735,1.254-2.216a5.456,5.456,0,0,0,.384-.675.3.3,0,0,0,.1-.194,1.571,1.571,0,0,0-.386-2.121l8.775-1.254,3.472,8.1-1.158-.578-5.593,9.738a47.724,47.724,0,0,1-11.762-1.06A7.273,7.273,0,0,1,384.372,43M418.5,47.433V45.312H399.9l2.988-5.206,7.038,4.145-8.678-19.861-20.729,2.893,4.145,2.41s1.351.77,2.507,1.446c-1.06,1.929-2.988,5.206-3.761,6.557-.289.384-.384.77-.481.867a14.2,14.2,0,0,0-1.735,3.664,6.45,6.45,0,0,0-.1,3.567v.194a13.174,13.174,0,0,0,1.929,4.434,7.907,7.907,0,0,1,.673,1.254c1.832,3.375,3.761,6.943,6.749,9.256,2.123,1.64,4.533,1.64,6.749,1.64h1.254l20.055.77V47.433Z" transform="translate(-380.516 363.484)" fill="#c6e300"/>
    <path id="Path_3267" data-name="Path 3267" d="M416.329,20.071a54.465,54.465,0,0,1,6.749-9.738,3.357,3.357,0,0,1,.963.77,18.984,18.984,0,0,1,1.832,2.7c.1.1.194.386.483.869.578,1.06,1.735,3.085,2.8,4.82.578.964.964,1.735,1.254,2.218a5.459,5.459,0,0,1,.384.673.3.3,0,0,1,.1.194,1.706,1.706,0,0,0,2.026.77l-3.375,8.2-8.775-1.061,1.157-.675Zm-3.858.192c-.289.578-.675,1.158-1.06,1.832L403.89,35.112c-2.507-1.446-5.109-2.893-7.52-4.339-.772-.481-1.543-.867-2.315-1.349l8.87-14.174a7.167,7.167,0,0,0,.675-1.158c.867-1.541,1.735-2.988,3.182-3.567,2.891-1.157,6.555-1.06,10.027-.964h2.507a77.624,77.624,0,0,0-6.846,10.7m19.38,14.849,7.906-19.38-4.242,2.41s-1.351.772-2.507,1.448c-1.06-1.929-2.988-5.206-3.761-6.557-.289-.386-.384-.772-.481-.867a17.577,17.577,0,0,0-2.313-3.375,6.035,6.035,0,0,0-3.085-1.832l-.194-.1a13.79,13.79,0,0,0-4.82-.578H417c-3.856-.192-7.906-.192-11.377,1.157-2.505.964-3.759,3.085-4.82,5.014a3.952,3.952,0,0,1-.675,1.06l-10.7,16.97,1.543.867c1.254.772,2.507,1.448,3.761,2.218l7.52,4.339c.291.192.675.386.964.578l1.832,1.061,9.159-15.91c.1-.1.1-.192.194-.289l2.988,5.206-6.941,4.05Z" transform="translate(-373.423 349)" fill="#c6e300"/>
  </g>
</svg>
