<svg xmlns="http://www.w3.org/2000/svg" width="79.766" height="66.654" viewBox="0 0 79.766 66.654">
  <path id="Path_5584" data-name="Path 5584" d="M118.636,47.906A33.291,33.291,0,0,0,86.651,71.929H72.19V74.52h32.031a8.314,8.314,0,0,1,.079,16.628H72.488v9H91.206a33.321,33.321,0,1,0,27.432-52.238ZM104.221,71.929H97.893a22.727,22.727,0,1,1,41.186,19.22h-8.589a10.891,10.891,0,1,0-16.644-13.441,10.919,10.919,0,0,0-9.625-5.778Zm19.141,19.2a8.322,8.322,0,1,1,.157,0Zm-9.531-3.156a10.9,10.9,0,0,0,2.575,3.172h-5.135A11.381,11.381,0,0,0,113.831,87.977ZM75.078,93.724H137.6a21.753,21.753,0,0,1-3.187,3.816H75.062V93.724Zm56.135,6.406a22.611,22.611,0,0,1-25.139,0Zm-12.577,11.823A30.54,30.54,0,0,1,94.407,100.13h7.427a25.152,25.152,0,0,0,16.785,6.406,24.179,24.179,0,0,0,17.21-6.752c5.606-5.59,8.118-11.557,8.118-18.559a25.3,25.3,0,0,0-48.832-9.3H89.368a30.72,30.72,0,1,1,29.269,40.024Z" transform="translate(-72.19 -47.906)" fill="#e2fe0a"/>
</svg>
