<svg xmlns="http://www.w3.org/2000/svg" xmlns:xlink="http://www.w3.org/1999/xlink" width="699.418" height="258.361" viewBox="0 0 699.418 258.361"><defs><clipPath id="a"><rect width="699.418" height="258.361" fill="none"/></clipPath><clipPath id="b"><path d="M10.44,147.45s-8.31,16.406-8.1,56.462L0,204.551l1.066,13.636h4.26v14.441a5.8,5.8,0,0,0,5.8,5.8H22.371s-6.391-31.746,22.8-31.746h21.77V152.657l1.09-8.353Z" fill="none"/></clipPath><clipPath id="c"><path d="M10.85,153.03s-4.4,11.331-6.257,34.164h9.64l4.905-7.442,24.523-1.014V151.169Z" fill="none"/></clipPath><clipPath id="e"><path d="M184.142,101.438l1.384,4.153,19.841,104.745,1.846,6.921,10.613,9.229h6.46l15.227,16.15h23.072l83.226-.355,15.52-15.412s-27.9-109.513-93.424-123.356l-2.769-3.23-72.691-.229Z" fill="none"/></clipPath></defs><g clip-path="url(#a)"><path d="M385.735,109.11H683.8c13.045,0,20.3-15.467,12.238-26.021-17.789-23.282-52.22-53.763-110.569-53.763-65.584,0-104.337,47.052-104.337,47.052s-64.59-18.412-95.394,32.732" fill="#36b5c8"/><path d="M385.642,109.1H682.027S653.111,77.354,567.268,77.354c-59.638,0-94.879,18.722-94.879,18.722S413.654,88.75,385.642,109.1" fill="#3089a1"/><path d="M602.912,83.439v37.772a10.807,10.807,0,0,1-4.963,9.142l-37.686,23.873a10.3,10.3,0,0,0-4.732,8.717v24.711L567.68,221H544.686V170.328l-56.5-36.834V96.106h3.767v32.957l51.656,32.68s0-11.355,9.148-17.171l9.686-34.065V89.736h3.766v21.048l-9.416,32.4,33.128-19.7a6.613,6.613,0,0,0,3.193-5.694v-34.7Z" fill="#192b2e"/><path d="M647.419,43.593c-33.335-15.251-72.736-17.444-107.294-5.014-22.092,8.058-41.78,21.825-58.279,38.5l-.4.412-.582-.146C445.3,69,406.564,76.985,385.642,109.1c14.7-24.47,40.752-36.334,68.724-36.607A108.842,108.842,0,0,1,481.4,75.41l-.986.265c18.512-19.068,41.477-34.32,67.2-41.609a140.247,140.247,0,0,1,99.813,9.527" fill="#afe1e9"/><path d="M348.447,80.815H50.385c-13.045,0-20.3-15.467-12.238-26.021C55.936,31.512,90.367,1.031,148.716,1.031c65.584,0,104.337,47.052,104.337,47.052s64.59-18.412,95.394,32.732" fill="#36b5c8"/><path d="M348.54,80.806H52.155S81.071,49.059,166.914,49.059c59.638,0,94.879,18.722,94.879,18.722s58.735-7.326,86.747,13.025" fill="#3089a1"/><path d="M131.271,55.144V92.916a10.808,10.808,0,0,0,4.963,9.142l37.686,23.873a10.3,10.3,0,0,1,4.732,8.717v24.711L166.5,192.708H189.5V142.033L246,105.2V67.811H242.23v32.957l-51.656,32.68s0-11.355-9.148-17.171L171.74,82.212V61.441h-3.766V82.489l9.416,32.4-33.128-19.7a6.613,6.613,0,0,1-3.193-5.694v-34.7Z" fill="#192b2e"/><path d="M86.763,15.3a140.242,140.242,0,0,1,99.813-9.527c25.719,7.289,48.682,22.541,67.195,41.609l-.986-.265A108.889,108.889,0,0,1,279.816,44.2c27.937.258,54.061,12.164,68.724,36.607-20.947-32.131-59.643-40.1-95.218-31.755l-.582.145-.4-.411c-16.5-16.675-36.188-30.444-58.278-38.5C159.5-2.146,120.1.047,86.763,15.3" fill="#afe1e9"/><path d="M309.941,154.652H477.229a52,52,0,0,0-17.209-71.53,88.838,88.838,0,1,0-150.079,71.53" fill="#36b5c8"/><path d="M474.754,154.652S439.278,105.1,363.257,105.1s-53.316,49.554-53.316,49.554Z" fill="#3089a1"/><path d="M346.675,118.191v23.872a7.119,7.119,0,0,0,2.086,5.035l44.709,44.709v2.8a120.255,120.255,0,0,1-5.123,34.726l-5.72,18.967h21.115V168.541a8.585,8.585,0,0,1,2.514-6.07l26.59-26.589-5.707-1.712-26.079,26.6a8.585,8.585,0,0,0-2.454,6.01v8.478l-41.544-29.827a7.119,7.119,0,0,1-2.968-5.784V117.62Z" fill="#192b2e"/><path d="M418.491,15.545C387.437-1.793,350.4-3.278,321.472,18.987a104.177,104.177,0,0,0-17.041,16.374c-22.2,25.782-26.155,57.378-13.446,88.641a118.12,118.12,0,0,0,15.615,27.81,110.83,110.83,0,0,1-17.205-27.137c-7.827-17.253-10.891-37.068-6.4-55.641,5.873-23.9,22.617-44.327,43.227-57.326,28.694-17.9,64.608-14.2,92.273,3.837" fill="#afe1e9"/><path d="M60.8,237.74c0,11.388-8.091,20.621-18.071,20.621s-18.07-9.233-18.07-20.621,8.09-20.621,18.07-20.621S60.8,226.352,60.8,237.74" fill="#1d3f45"/><rect width="56.246" height="26.248" transform="translate(70.32 217.776)" fill="#1d3f45"/><path d="M42.164,217.152c.19-.007.376-.033.567-.033h-.567Z" fill="#3089a1"/><path d="M58.2,217.12H42.731c9.981,0,18.071,9.232,18.071,20.621s-8.09,20.62-18.071,20.62H58.2c9.98,0,18.071-9.232,18.071-20.62S68.184,217.12,58.2,217.12" fill="#1d3f45"/><path d="M163.217,237.74c0,11.388-8.091,20.621-18.071,20.621s-18.07-9.233-18.07-20.621,8.09-20.621,18.07-20.621,18.071,9.233,18.071,20.621" fill="#1d3f45"/><path d="M144.579,217.152c.19-.007.376-.033.567-.033h-.567Z" fill="#3089a1"/><path d="M160.618,217.12H145.145c9.981,0,18.071,9.232,18.071,20.621s-8.09,20.62-18.071,20.62h15.473c9.98,0,18.071-9.232,18.071-20.62S170.6,217.12,160.618,217.12" fill="#1d3f45"/><path d="M201.775,237.74c0,11.388-8.091,20.621-18.071,20.621s-18.07-9.233-18.07-20.621,8.09-20.621,18.07-20.621,18.071,9.233,18.071,20.621" fill="#1d3f45"/><path d="M183.137,217.152c.19-.007.376-.033.567-.033h-.567Z" fill="#3089a1"/><path d="M199.177,217.12H183.7c9.981,0,18.071,9.232,18.071,20.621s-8.09,20.62-18.071,20.62h15.473c9.98,0,18.071-9.232,18.071-20.62s-8.091-20.621-18.071-20.621" fill="#1d3f45"/><path d="M262.261,237.74c0,11.388-8.091,20.621-18.071,20.621s-18.07-9.233-18.07-20.621,8.09-20.621,18.07-20.621,18.071,9.233,18.071,20.621" fill="#1d3f45"/><path d="M243.623,217.152c.19-.007.376-.033.567-.033h-.567Z" fill="#3089a1"/><path d="M259.663,217.12H244.19c9.981,0,18.071,9.232,18.071,20.621s-8.09,20.62-18.071,20.62h15.473c9.98,0,18.071-9.232,18.071-20.62s-8.091-20.621-18.071-20.621" fill="#1d3f45"/><path d="M110.215,239.834c0,10.01-7.112,18.125-15.884,18.125s-15.884-8.115-15.884-18.125,7.111-18.125,15.884-18.125,15.884,8.115,15.884,18.125" fill="#1d3f45"/><path d="M93.832,217.148c.167-.006.33-.029.5-.029h-.5Z" fill="#3089a1"/><path d="M107.931,221.708h-13.6c8.772,0,15.884,8.115,15.884,18.125s-7.112,18.126-15.884,18.126h13.6c8.773,0,15.884-8.115,15.884-18.126s-7.111-18.125-15.884-18.125" fill="#1d3f45"/><rect width="225.975" height="34.561" transform="translate(21.78 203.786)" fill="#1d3f45"/><path d="M71.09,116.2l-4.152,36.453V213.1l138.429-2.769,1.847,6.922,10.612,9.228h6.46l15.228,16.15,106.3-.355,15.521-15.412S334.409,119.193,268.887,105.35l-2.77-3.23-73.67-2.066-8.306,1.384,1.384,4.153Z" fill="#fff"/><path d="M66.938,152.657l1.09-8.353L10.44,147.451s-8.309,16.4-8.1,56.461L0,204.551l1.066,13.636H5.327v14.441a5.8,5.8,0,0,0,5.8,5.8H22.372s-6.392-31.746,22.8-31.746H66.938Z" fill="#3089a1"/></g><g clip-path="url(#b)"><path d="M80.989,207.289H46.278V150.561a5.893,5.893,0,0,1,5.4-5.873l29.17-2.431Z" fill="#1d3f45"/><path d="M10.85,153.03s-4.4,11.332-6.258,34.164h9.641l4.9-7.442,24.524-1.014V151.17Z" fill="#fff"/></g><g clip-path="url(#c)"><path d="M40.955,147.787,1.886,188.547l15.391.338,35.01-35.009Z" fill="#f4ef99"/><line y2="32.642" transform="translate(19.307 150.155)" fill="none" stroke="#f4ef99" stroke-miterlimit="10" stroke-width="0.509"/></g><g clip-path="url(#a)"><path d="M205.367,210.336l1.846,6.921,10.613,9.229h6.46l15.227,16.15h23.072l83.225-.355,15.521-15.412s-27.9-109.513-93.425-123.356l-2.768-3.23-72.691-.229-8.306,1.384,1.384,4.153Z" fill="#1d3f45"/></g><g clip-path="url(#e)"><path d="M192.508,96.572l3.572,9.185s52.048,17.86,76.542,118.385l95.365-.591,4.65-16.759-67.357-124-47.967-.51Z" fill="#3089a1"/></g><g clip-path="url(#a)"><path d="M153.042,110.679v7.368l-37.331,80.065-47.646,1.473v11.789l137.044-3.438L185.461,107.241Z" fill="#f4ef99"/><line x1="98.239" y2="2.456" transform="translate(102.449 195.165)" fill="none" stroke="#fff" stroke-miterlimit="10" stroke-width="0.509"/><line x1="37.331" y2="3.438" transform="translate(148.129 114.609)" fill="none" stroke="#fff" stroke-miterlimit="10" stroke-width="0.509"/><path d="M249.149,152.7a344.4,344.4,0,0,1,25.514,68.888l83.442.007s-10.89-37.752-32.832-68.879Z" fill="#1d3f45"/><path d="M52.644,237.74c0,6.247-4.438,11.311-9.912,11.311s-9.913-5.064-9.913-11.311,4.438-11.311,9.913-11.311,9.912,5.064,9.912,11.311" fill="#f4ef99"/><path d="M155.058,237.74c0,6.247-4.438,11.311-9.912,11.311s-9.913-5.064-9.913-11.311,4.438-11.311,9.913-11.311,9.912,5.064,9.912,11.311" fill="#f4ef99"/><path d="M193.617,237.74c0,6.247-4.438,11.311-9.912,11.311s-9.913-5.064-9.913-11.311,4.438-11.311,9.913-11.311,9.912,5.064,9.912,11.311" fill="#f4ef99"/><path d="M49.187,238.082c0,4.468-3.174,8.09-7.09,8.09s-7.089-3.622-7.089-8.09,3.174-8.09,7.089-8.09,7.09,3.622,7.09,8.09" fill="#fff"/><path d="M151.222,237.751c0,4.468-3.174,8.09-7.09,8.09s-7.089-3.622-7.089-8.09,3.174-8.09,7.089-8.09,7.09,3.622,7.09,8.09" fill="#fff"/><path d="M189.486,237.916c0,4.468-3.174,8.09-7.09,8.09s-7.089-3.622-7.089-8.09,3.174-8.09,7.089-8.09,7.09,3.622,7.09,8.09" fill="#fff"/><path d="M40.654,226.936l.967,3.463s-4.99.763-6.008,9.114l-2.648-.764a11.741,11.741,0,0,1,2.292-7.994c2.851-3.666,5.4-3.819,5.4-3.819" fill="#fff"/></g></svg>