<svg xmlns="http://www.w3.org/2000/svg" width="81.999" height="82" viewBox="0 0 81.999 82">
  <g id="noun-coronavirus-3597217" transform="translate(1 1.004)">
    <path id="Path_5622" data-name="Path 5622" d="M173.857,145.3c-15.9,0-28.827-12.359-28.827-27.551S157.962,90.19,173.857,90.19s28.816,12.363,28.816,27.558S189.746,145.3,173.857,145.3Zm0-53.351c-14.881,0-26.987,11.574-26.987,25.8s12.106,25.793,26.987,25.793,26.977-11.571,26.977-25.793S188.731,91.949,173.857,91.949Z" transform="translate(-134.312 -77.309)" fill="#c6e300" stroke="#c6e300" stroke-width="2" fill-rule="evenodd"/>
    <path id="Path_5623" data-name="Path 5623" d="M341.3,44.777a.9.9,0,0,1-.921-.879V36.035a.921.921,0,0,1,1.84,0V43.9A.9.9,0,0,1,341.3,44.777Z" transform="translate(-301.75 -30.138)" fill="#c6e300" stroke="#c6e300" stroke-width="2" fill-rule="evenodd"/>
    <path id="Path_5624" data-name="Path 5624" d="M341.3,473.277a.9.9,0,0,1-.921-.879v-7.863a.921.921,0,0,1,1.84,0V472.4A.9.9,0,0,1,341.3,473.277Z" transform="translate(-301.75 -397.424)" fill="#c6e300" stroke="#c6e300" stroke-width="2" fill-rule="evenodd"/>
    <path id="Path_5625" data-name="Path 5625" d="M479.406,113.281a.936.936,0,0,1-.651-.258.851.851,0,0,1,0-1.243l5.816-5.56a.95.95,0,0,1,1.3,0,.851.851,0,0,1,0,1.243l-5.815,5.56A.941.941,0,0,1,479.406,113.281Z" transform="translate(-420.131 -90.829)" fill="#c6e300" stroke="#c6e300" stroke-width="2" fill-rule="evenodd"/>
    <path id="Path_5626" data-name="Path 5626" d="M162.483,416.281a.935.935,0,0,1-.65-.258.851.851,0,0,1,0-1.243l5.814-5.56a.95.95,0,0,1,1.3,0,.851.851,0,0,1,0,1.243l-5.816,5.56a.935.935,0,0,1-.65.258Z" transform="translate(-148.483 -350.543)" fill="#c6e300" stroke="#c6e300" stroke-width="2" fill-rule="evenodd"/>
    <path id="Path_5627" data-name="Path 5627" d="M544.836,278.68h-8.224a.88.88,0,1,1,0-1.758h8.224a.88.88,0,1,1,0,1.758Z" transform="translate(-469.166 -237.365)" fill="#c6e300" stroke="#c6e300" stroke-width="2" fill-rule="evenodd"/>
    <path id="Path_5628" data-name="Path 5628" d="M96.637,278.68H88.413a.88.88,0,1,1,0-1.758h8.223a.88.88,0,1,1,0,1.758Z" transform="translate(-84.994 -237.365)" fill="#c6e300" stroke="#c6e300" stroke-width="2" fill-rule="evenodd"/>
    <path id="Path_5629" data-name="Path 5629" d="M168.3,113.281a.935.935,0,0,1-.65-.258l-5.814-5.56a.851.851,0,0,1,0-1.243.95.95,0,0,1,1.3,0l5.816,5.56a.851.851,0,0,1,0,1.243.941.941,0,0,1-.651.258Z" transform="translate(-148.489 -90.829)" fill="#c6e300" stroke="#c6e300" stroke-width="2" fill-rule="evenodd"/>
    <path id="Path_5630" data-name="Path 5630" d="M485.224,416.281a.938.938,0,0,1-.65-.258l-5.816-5.56a.851.851,0,0,1,0-1.243.95.95,0,0,1,1.3,0l5.814,5.56a.851.851,0,0,1,0,1.243A.935.935,0,0,1,485.224,416.281Z" transform="translate(-420.134 -350.543)" fill="#c6e300" stroke="#c6e300" stroke-width="2" fill-rule="evenodd"/>
    <path id="Path_5631" data-name="Path 5631" d="M427.713,171.6a.9.9,0,0,1-.921-.879,19.944,19.944,0,0,0-9.909-17.107.856.856,0,0,1-.288-1.213.945.945,0,0,1,1.268-.275,21.675,21.675,0,0,1,10.768,18.6.9.9,0,0,1-.919.879Z" transform="translate(-366.961 -130.278)" fill="#c6e300" stroke="#c6e300" stroke-width="2" fill-rule="evenodd"/>
    <path id="Path_5632" data-name="Path 5632" d="M222.507,264.286a4.882,4.882,0,1,1,5.1-4.877A5,5,0,0,1,222.507,264.286Zm0-8a3.122,3.122,0,1,0,3.262,3.118A3.2,3.2,0,0,0,222.507,256.29Z" transform="translate(-196.347 -218.174)" fill="#c6e300" stroke="#c6e300" stroke-width="2" fill-rule="evenodd"/>
    <path id="Path_5633" data-name="Path 5633" d="M414.029,244.3a3.281,3.281,0,1,1,3.427-3.277A3.359,3.359,0,0,1,414.029,244.3Zm0-4.8a1.521,1.521,0,1,0,1.588,1.52A1.557,1.557,0,0,0,414.029,239.505Z" transform="translate(-361.943 -203.788)" fill="#c6e300" stroke="#c6e300" stroke-width="2" fill-rule="evenodd"/>
    <path id="Path_5634" data-name="Path 5634" d="M262.663,208.693A2.084,2.084,0,0,1,261,207.9l-.462-.589a.243.243,0,0,0-.4.033.938.938,0,0,1-1.233.393.861.861,0,0,1-.41-1.18,2.062,2.062,0,0,1,1.669-1.088,2.1,2.1,0,0,1,1.846.786l.463.589a.244.244,0,0,0,.378,0l.463-.59a2.1,2.1,0,0,1,1.847-.786,2.063,2.063,0,0,1,1.669,1.089.224.224,0,0,0,.19.123.23.23,0,0,0,.21-.09l.264-.338a2.111,2.111,0,0,1,1.847-.786,2.061,2.061,0,0,1,1.669,1.089.224.224,0,0,0,.19.123.229.229,0,0,0,.21-.09l.266-.338a2.109,2.109,0,0,1,1.846-.786,2.06,2.06,0,0,1,1.669,1.089.226.226,0,0,0,.191.123.23.23,0,0,0,.21-.09.948.948,0,0,1,1.287-.176.854.854,0,0,1,.184,1.231,2.1,2.1,0,0,1-1.847.785,2.063,2.063,0,0,1-1.669-1.089.224.224,0,0,0-.19-.123.23.23,0,0,0-.211.089l-.264.338a2.1,2.1,0,0,1-1.846.785,2.06,2.06,0,0,1-1.669-1.089.226.226,0,0,0-.191-.123.228.228,0,0,0-.21.089l-.264.338a2.1,2.1,0,0,1-1.846.785,2.063,2.063,0,0,1-1.67-1.089.224.224,0,0,0-.19-.123.233.233,0,0,0-.21.089l-.463.589a2.089,2.089,0,0,1-1.662.8Z" transform="translate(-231.486 -176.111)" fill="#c6e300" stroke="#c6e300" stroke-width="2" fill-rule="evenodd"/>
    <path id="Path_5635" data-name="Path 5635" d="M546.318,12.3a6.307,6.307,0,0,1-6.437-6.154,6.443,6.443,0,0,1,12.874,0A6.308,6.308,0,0,1,546.318,12.3Zm0-10.549a4.5,4.5,0,0,0-4.6,4.4,4.6,4.6,0,0,0,9.194,0A4.505,4.505,0,0,0,546.318,1.755Z" transform="translate(-472.756)" fill="#c6e300" stroke="#c6e300" stroke-width="2" fill-rule="evenodd"/>
    <path id="Path_5636" data-name="Path 5636" d="M76.438,486.152A6.16,6.16,0,1,1,82.875,480,6.307,6.307,0,0,1,76.438,486.152Zm0-10.549a4.4,4.4,0,1,0,4.6,4.4A4.506,4.506,0,0,0,76.438,475.6Z" transform="translate(-70.001 -406.156)" fill="#c6e300" stroke="#c6e300" stroke-width="2" fill-rule="evenodd"/>
    <path id="Path_5637" data-name="Path 5637" d="M304.467,342.646a4.882,4.882,0,1,1,5.1-4.877A5,5,0,0,1,304.467,342.646Zm0-8a3.122,3.122,0,1,0,3.262,3.118A3.2,3.2,0,0,0,304.467,334.65Z" transform="translate(-266.599 -285.34)" fill="#c6e300" stroke="#c6e300" stroke-width="2" fill-rule="evenodd"/>
  </g>
</svg>
