<svg xmlns="http://www.w3.org/2000/svg" xmlns:xlink="http://www.w3.org/1999/xlink" width="1920" height="1400" viewBox="0 0 1920 1400">
  <defs>
    <clipPath id="clip-path">
      <rect id="Rectangle_4" data-name="Rectangle 4" width="1920" height="1400" transform="translate(0 5040)" fill="#fff" stroke="#707070" stroke-width="1"/>
    </clipPath>
    <clipPath id="clip-path-2">
      <rect id="Rectangle_3" data-name="Rectangle 3" width="1230.474" height="1730.96" fill="none"/>
    </clipPath>
    <clipPath id="clip-path-3">
      <path id="Path_3" data-name="Path 3" d="M957.049,900.541c0-327.518-265.506-593.024-593.024-593.024h-.362v1186.04h.362c327.518,0,593.024-265.506,593.024-593.024" transform="translate(351 5117)" fill="#fff"/>
    </clipPath>
    <linearGradient id="linear-gradient" x1="0.141" y1="0.5" x2="1.072" y2="0.185" gradientUnits="objectBoundingBox">
      <stop offset="0" stop-color="#003b4e"/>
      <stop offset="1" stop-color="#7bdce0"/>
    </linearGradient>
    <clipPath id="clip-path-4">
      <rect id="Rectangle_5" data-name="Rectangle 5" width="107.255" height="107.255" fill="none"/>
    </clipPath>
  </defs>
  <g id="modelo-final-clogo" transform="translate(0 160)">
    <g id="Group_1" data-name="Group 1" transform="translate(1560 591)">
      <rect id="Rectangle_1" data-name="Rectangle 1" width="360" height="280" rx="48" fill="#f7ffda"/>
    </g>
    <g id="Group_5" data-name="Group 5" transform="translate(0 -5200)" clip-path="url(#clip-path)">
      <g id="Group_4" data-name="Group 4" transform="translate(471 5077)">
        <g id="Group_3" data-name="Group 3" clip-path="url(#clip-path-2)">
          <path id="Path_1" data-name="Path 1" d="M1230.474,865.48C1230.474,387.489,842.985,0,364.994,0c-.176,0-.351.007-.528.007V1730.953c.177,0,.352.007.528.007,477.991,0,865.48-387.489,865.48-865.48" fill="#e2fe0a"/>
          <path id="Path_2" data-name="Path 2" d="M957.049,900.541c0-327.518-265.506-593.024-593.024-593.024h-.362v1186.04h.362c327.518,0,593.024-265.506,593.024-593.024" fill="#fff"/>
          <g id="Group_2" data-name="Group 2" transform="translate(-351 -5117)" clip-path="url(#clip-path-3)">
            <rect id="Rectangle_2" data-name="Rectangle 2" width="590" height="430" transform="translate(920 6176)" fill="#c7ec5f"/>
          </g>
          <circle id="Ellipse_1" data-name="Ellipse 1" cx="251.595" cy="251.595" r="251.595" transform="translate(114.534 650.548)" fill="none" stroke="#000" stroke-width="0.1"/>
          <path id="Path_4" data-name="Path 4" d="M367.129,1210.8c170.469,0,308.661-138.192,308.661-308.661S537.6,593.482,367.129,593.482,58.468,731.674,58.468,902.143,196.66,1210.8,367.129,1210.8" fill="#007889"/>
          <path id="Path_5" data-name="Path 5" d="M0,890.324c0,201.566,163.4,364.968,364.968,364.968h.222V525.359h-.222C163.4,525.356,0,688.758,0,890.324" fill="#7bdce0"/>
          <path id="Path_6" data-name="Path 6" d="M367.138,1075.277l-1.948,136.289h.19c106.709,0,200.891-53.975,257.062-136.276" fill="#00b1bb"/>
          <path id="Path_7" data-name="Path 7" d="M366.129,978.313a74.185,74.185,0,1,0-74.185-74.185,74.185,74.185,0,0,0,74.185,74.185" fill="#fff"/>
        </g>
      </g>
    </g>
    <path id="Path_33" data-name="Path 33" d="M.48,0H3.62L4.9-3.14h5.92L12.1,0h3.22l-6-14.1H6.48ZM6-5.86,7.86-10.4,9.72-5.86ZM19.34,0h3.08V-11.16h4.26V-14H15.08v2.84h4.26ZM29.58,0h3.08V-14H29.58ZM41.02.1h2.72L49.4-14H46.08L42.42-4.14,38.76-14h-3.4ZM52.1,0h3.08V-14H52.1Zm6.98,0h5.46c4.4,0,7.44-3.06,7.44-7v-.04c0-3.94-3.04-6.96-7.44-6.96H59.08Zm5.46-11.22A4.021,4.021,0,0,1,68.76-7v.04a3.989,3.989,0,0,1-4.22,4.18H62.16v-8.44ZM72.92,0h3.14l1.28-3.14h5.92L84.54,0h3.22l-6-14.1H78.92Zm5.52-5.86L80.3-10.4l1.86,4.54ZM90.32,0h5.46c4.4,0,7.44-3.06,7.44-7v-.04c0-3.94-3.04-6.96-7.44-6.96H90.32Zm5.46-11.22A4.021,4.021,0,0,1,100-7v.04a3.989,3.989,0,0,1-4.22,4.18H93.4v-8.44ZM106.36,0h10.66V-2.74h-7.6V-5.68h6.6V-8.42h-6.6v-2.84h7.5V-14H106.36Zm18.78.2c3.02,0,5.14-1.56,5.14-4.34v-.04c0-2.44-1.6-3.46-4.44-4.2-2.42-.62-3.02-.92-3.02-1.84v-.04c0-.68.62-1.22,1.8-1.22a6.569,6.569,0,0,1,3.64,1.38l1.6-2.32a8.1,8.1,0,0,0-5.2-1.78c-2.86,0-4.9,1.68-4.9,4.22v.04c0,2.78,1.82,3.56,4.64,4.28,2.34.6,2.82,1,2.82,1.78v.04c0,.82-.76,1.32-2.02,1.32a6.422,6.422,0,0,1-4.18-1.7L119.2-2.04A8.909,8.909,0,0,0,125.14.2Zm7.54-4.94h6.16V-7.66h-6.16ZM148.48.24a7.156,7.156,0,0,0,5.74-2.5l-1.96-1.98a5.053,5.053,0,0,1-3.68,1.64A4.158,4.158,0,0,1,144.52-7v-.04a4.148,4.148,0,0,1,4.06-4.36,5.167,5.167,0,0,1,3.58,1.58l1.96-2.26a7.223,7.223,0,0,0-5.52-2.16A7.115,7.115,0,0,0,141.3-7v.04A7.067,7.067,0,0,0,148.48.24Zm8.6-.24h3.08V-5.62h5.68V0h3.08V-14h-3.08v5.54h-5.68V-14h-3.08Zm14.4,0h3.14l1.28-3.14h5.92L183.1,0h3.22l-6-14.1h-2.84ZM177-5.86l1.86-4.54,1.86,4.54ZM191.34.1h2.72L199.72-14H196.4l-3.66,9.86L189.08-14h-3.4ZM202.28,0h10.66V-2.74h-7.6V-5.68h6.6V-8.42h-6.6v-2.84h7.5V-14H202.28Z" transform="translate(876 444)" fill="#003b4e"/>
    <path id="Path_32" data-name="Path 32" d="M6.21,2.538,6.8,1.62C4.068-.126,2.628-2.286,2.628-5.166s1.44-5.04,4.176-6.786L6.21-12.87c-3.2,1.8-4.986,4.392-4.986,7.7S3.006.738,6.21,2.538ZM9.72,0h1.386V-5.328A2.738,2.738,0,0,1,13.9-8.244c1.638,0,2.574,1.08,2.574,2.808V0h1.386V-5.778A3.4,3.4,0,0,0,14.292-9.5a3.524,3.524,0,0,0-3.186,1.818v-1.62H9.72Zm15.7.216a4.832,4.832,0,0,0,4.878-4.86V-4.68A4.783,4.783,0,0,0,25.452-9.5a4.817,4.817,0,0,0-4.86,4.86v.036A4.767,4.767,0,0,0,25.416.216Zm.036-1.242a3.491,3.491,0,0,1-3.438-3.618V-4.68a3.435,3.435,0,0,1,3.4-3.6,3.522,3.522,0,0,1,3.456,3.636v.036A3.434,3.434,0,0,1,25.452-1.026ZM36.234.18c1.854,0,3.312-1.026,3.312-2.79v-.036c0-1.674-1.548-2.232-2.988-2.664-1.242-.378-2.394-.72-2.394-1.6v-.036c0-.774.7-1.35,1.8-1.35a5.262,5.262,0,0,1,2.754.9l.63-1.044A6.362,6.362,0,0,0,36-9.468c-1.836,0-3.168,1.062-3.168,2.664v.036c0,1.71,1.62,2.214,3.078,2.628,1.224.342,2.322.7,2.322,1.638v.036c0,.9-.81,1.476-1.926,1.476a5.44,5.44,0,0,1-3.222-1.188l-.7.99A6.4,6.4,0,0,0,36.234.18Zm9.144,0c1.854,0,3.312-1.026,3.312-2.79v-.036c0-1.674-1.548-2.232-2.988-2.664-1.242-.378-2.394-.72-2.394-1.6v-.036c0-.774.7-1.35,1.8-1.35a5.262,5.262,0,0,1,2.754.9l.63-1.044a6.362,6.362,0,0,0-3.348-1.026c-1.836,0-3.168,1.062-3.168,2.664v.036c0,1.71,1.62,2.214,3.078,2.628,1.224.342,2.322.7,2.322,1.638v.036c0,.9-.81,1.476-1.926,1.476a5.44,5.44,0,0,1-3.222-1.188l-.7.99A6.4,6.4,0,0,0,45.378.18ZM55.872.216a4.832,4.832,0,0,0,4.878-4.86V-4.68A4.783,4.783,0,0,0,55.908-9.5a4.817,4.817,0,0,0-4.86,4.86v.036A4.767,4.767,0,0,0,55.872.216Zm.036-1.242A3.491,3.491,0,0,1,52.47-4.644V-4.68a3.435,3.435,0,0,1,3.4-3.6,3.522,3.522,0,0,1,3.456,3.636v.036A3.434,3.434,0,0,1,55.908-1.026ZM66.69.18C68.544.18,70-.846,70-2.61v-.036c0-1.674-1.548-2.232-2.988-2.664-1.242-.378-2.394-.72-2.394-1.6v-.036c0-.774.7-1.35,1.8-1.35a5.262,5.262,0,0,1,2.754.9l.63-1.044a6.362,6.362,0,0,0-3.348-1.026c-1.836,0-3.168,1.062-3.168,2.664v.036c0,1.71,1.62,2.214,3.078,2.628,1.224.342,2.322.7,2.322,1.638v.036c0,.9-.81,1.476-1.926,1.476A5.44,5.44,0,0,1,63.54-2.178l-.7.99A6.4,6.4,0,0,0,66.69.18ZM78.732-11.34h1.584v-1.53H78.732ZM78.822,0h1.386V-9.306H78.822ZM83.79,0h1.386V-5.31a2.7,2.7,0,0,1,2.592-2.934c1.476,0,2.394,1.026,2.394,2.772V0h1.386V-5.364A2.593,2.593,0,0,1,94.1-8.244c1.512,0,2.412,1.008,2.412,2.808V0H97.9V-5.76c0-2.3-1.314-3.744-3.456-3.744A3.709,3.709,0,0,0,91.17-7.65,3.161,3.161,0,0,0,88.182-9.5,3.4,3.4,0,0,0,85.176-7.74V-9.306H83.79Zm17.478,2.88h1.386V-1.782A4.2,4.2,0,0,0,106.218.2a4.556,4.556,0,0,0,4.446-4.842V-4.68A4.539,4.539,0,0,0,106.218-9.5a4.184,4.184,0,0,0-3.564,2.07V-9.306h-1.386Zm4.7-3.924a3.463,3.463,0,0,1-3.366-3.6V-4.68a3.47,3.47,0,0,1,3.366-3.582,3.351,3.351,0,0,1,3.276,3.6v.036A3.284,3.284,0,0,1,105.966-1.044ZM116.352.2a4.078,4.078,0,0,0,3.366-1.6V0h1.332V-5.688a3.673,3.673,0,0,0-.954-2.718,4.083,4.083,0,0,0-3.006-1.026,7.685,7.685,0,0,0-3.384.774l.414,1.134a6.481,6.481,0,0,1,2.826-.684c1.746,0,2.772.864,2.772,2.538v.324a9.881,9.881,0,0,0-2.862-.4c-2.358,0-3.978,1.044-3.978,3.006V-2.7C112.878-.792,114.624.2,116.352.2Zm.27-1.1c-1.26,0-2.34-.684-2.34-1.854V-2.79c0-1.17.972-1.926,2.718-1.926a9.707,9.707,0,0,1,2.736.4v.9C119.736-1.944,118.332-.9,116.622-.9ZM128.556.216a4.8,4.8,0,0,0,3.8-1.8l-.882-.828a3.84,3.84,0,0,1-2.844,1.386,3.477,3.477,0,0,1-3.42-3.618V-4.68a3.434,3.434,0,0,1,3.33-3.6,3.757,3.757,0,0,1,2.826,1.4l.918-.972A4.8,4.8,0,0,0,128.556-9.5a4.8,4.8,0,0,0-4.77,4.86v.036A4.778,4.778,0,0,0,128.556.216Zm9.558-.054a3.486,3.486,0,0,0,1.674-.4V-1.422a2.914,2.914,0,0,1-1.35.324,1.377,1.377,0,0,1-1.566-1.548V-8.082h2.952V-9.306h-2.952v-2.808h-1.386v2.808h-1.3v1.224h1.3v5.616A2.369,2.369,0,0,0,138.114.162Zm8.5.054a4.832,4.832,0,0,0,4.878-4.86V-4.68A4.783,4.783,0,0,0,146.646-9.5a4.817,4.817,0,0,0-4.86,4.86v.036A4.767,4.767,0,0,0,146.61.216Zm.036-1.242a3.491,3.491,0,0,1-3.438-3.618V-4.68a3.435,3.435,0,0,1,3.4-3.6,3.522,3.522,0,0,1,3.456,3.636v.036A3.434,3.434,0,0,1,146.646-1.026ZM157.428.18c1.854,0,3.312-1.026,3.312-2.79v-.036c0-1.674-1.548-2.232-2.988-2.664-1.242-.378-2.394-.72-2.394-1.6v-.036c0-.774.7-1.35,1.8-1.35a5.262,5.262,0,0,1,2.754.9l.63-1.044a6.362,6.362,0,0,0-3.348-1.026c-1.836,0-3.168,1.062-3.168,2.664v.036c0,1.71,1.62,2.214,3.078,2.628,1.224.342,2.322.7,2.322,1.638v.036c0,.9-.81,1.476-1.926,1.476a5.44,5.44,0,0,1-3.222-1.188l-.7.99A6.4,6.4,0,0,0,157.428.18Zm5.94,2.358c3.2-1.8,4.986-4.392,4.986-7.7s-1.782-5.9-4.986-7.7l-.594.918c2.736,1.746,4.176,3.906,4.176,6.786s-1.44,5.04-4.176,6.786Z" transform="translate(378 475)" fill="#003b4e"/>
    <path id="Path_31" data-name="Path 31" d="M8.24.24a7.156,7.156,0,0,0,5.74-2.5L12.02-4.24A5.053,5.053,0,0,1,8.34-2.6,4.158,4.158,0,0,1,4.28-7v-.04A4.148,4.148,0,0,1,8.34-11.4a5.167,5.167,0,0,1,3.58,1.58l1.96-2.26a7.223,7.223,0,0,0-5.52-2.16A7.115,7.115,0,0,0,1.06-7v.04A7.067,7.067,0,0,0,8.24.24ZM15.64,0h3.14l1.28-3.14h5.92L27.26,0h3.22l-6-14.1H21.64Zm5.52-5.86,1.86-4.54,1.86,4.54ZM33.04,0h3.08V-4.2h2.34c3.14,0,5.66-1.68,5.66-4.92v-.04c0-2.86-2.02-4.84-5.36-4.84H33.04Zm3.08-6.94v-4.28H38.5c1.54,0,2.5.74,2.5,2.12v.04a2.168,2.168,0,0,1-2.44,2.12ZM46.94,0h3.08V-14H46.94ZM57.18,0h3.08V-11.16h4.26V-14H52.92v2.84h4.26Zm7.1,0h3.14L68.7-3.14h5.92L75.9,0h3.22l-6-14.1H70.28ZM69.8-5.86l1.86-4.54,1.86,4.54ZM81.82,0H84.9V-14H81.82ZM93.78.2c3.02,0,5.14-1.56,5.14-4.34v-.04c0-2.44-1.6-3.46-4.44-4.2-2.42-.62-3.02-.92-3.02-1.84v-.04c0-.68.62-1.22,1.8-1.22A6.569,6.569,0,0,1,96.9-10.1l1.6-2.32a8.1,8.1,0,0,0-5.2-1.78c-2.86,0-4.9,1.68-4.9,4.22v.04c0,2.78,1.82,3.56,4.64,4.28,2.34.6,2.82,1,2.82,1.78v.04c0,.82-.76,1.32-2.02,1.32a6.422,6.422,0,0,1-4.18-1.7L87.84-2.04A8.909,8.909,0,0,0,93.78.2ZM107.2,0h3.14l1.28-3.14h5.92L118.82,0h3.22l-6-14.1H113.2Zm5.52-5.86,1.86-4.54,1.86,4.54ZM130.26.24A7.156,7.156,0,0,0,136-2.26l-1.96-1.98a5.053,5.053,0,0,1-3.68,1.64A4.158,4.158,0,0,1,126.3-7v-.04a4.148,4.148,0,0,1,4.06-4.36,5.167,5.167,0,0,1,3.58,1.58l1.96-2.26a7.223,7.223,0,0,0-5.52-2.16A7.115,7.115,0,0,0,123.08-7v.04A7.067,7.067,0,0,0,130.26.24Zm8.6-.24h10.66V-2.74h-7.6V-5.68h6.6V-8.42h-6.6v-2.84h7.5V-14H138.86Zm18.78.2c3.02,0,5.14-1.56,5.14-4.34v-.04c0-2.44-1.6-3.46-4.44-4.2-2.42-.62-3.02-.92-3.02-1.84v-.04c0-.68.62-1.22,1.8-1.22a6.569,6.569,0,0,1,3.64,1.38l1.6-2.32a8.1,8.1,0,0,0-5.2-1.78c-2.86,0-4.9,1.68-4.9,4.22v.04c0,2.78,1.82,3.56,4.64,4.28,2.34.6,2.82,1,2.82,1.78v.04c0,.82-.76,1.32-2.02,1.32a6.422,6.422,0,0,1-4.18-1.7L151.7-2.04A8.909,8.909,0,0,0,157.64.2Zm13,0c3.02,0,5.14-1.56,5.14-4.34v-.04c0-2.44-1.6-3.46-4.44-4.2-2.42-.62-3.02-.92-3.02-1.84v-.04c0-.68.62-1.22,1.8-1.22a6.569,6.569,0,0,1,3.64,1.38l1.6-2.32a8.1,8.1,0,0,0-5.2-1.78c-2.86,0-4.9,1.68-4.9,4.22v.04c0,2.78,1.82,3.56,4.64,4.28,2.34.6,2.82,1,2.82,1.78v.04c0,.82-.76,1.32-2.02,1.32a6.422,6.422,0,0,1-4.18-1.7L164.7-2.04A8.909,8.909,0,0,0,170.64.2Zm6.72-.2h3.14l1.28-3.14h5.92L188.98,0h3.22l-6-14.1h-2.84Zm5.52-5.86,1.86-4.54,1.86,4.54ZM194.76,0h5.46c4.4,0,7.44-3.06,7.44-7v-.04c0-3.94-3.04-6.96-7.44-6.96h-5.46Zm5.46-11.22A4.021,4.021,0,0,1,204.44-7v.04a3.989,3.989,0,0,1-4.22,4.18h-2.38v-8.44ZM217.6.24A7.24,7.24,0,0,0,225.06-7v-.04a7.173,7.173,0,0,0-7.42-7.2A7.24,7.24,0,0,0,210.18-7v.04A7.173,7.173,0,0,0,217.6.24Zm.04-2.84A4.253,4.253,0,0,1,213.4-7v-.04a4.187,4.187,0,0,1,4.2-4.36A4.253,4.253,0,0,1,221.84-7v.04A4.187,4.187,0,0,1,217.64-2.6ZM233.08.2c3.02,0,5.14-1.56,5.14-4.34v-.04c0-2.44-1.6-3.46-4.44-4.2-2.42-.62-3.02-.92-3.02-1.84v-.04c0-.68.62-1.22,1.8-1.22a6.569,6.569,0,0,1,3.64,1.38l1.6-2.32a8.1,8.1,0,0,0-5.2-1.78c-2.86,0-4.9,1.68-4.9,4.22v.04c0,2.78,1.82,3.56,4.64,4.28,2.34.6,2.82,1,2.82,1.78v.04c0,.82-.76,1.32-2.02,1.32a6.422,6.422,0,0,1-4.18-1.7l-1.82,2.18A8.909,8.909,0,0,0,233.08.2Z" transform="translate(347 440)" fill="#003b4e"/>
    <path id="Path_8" data-name="Path 8" d="M209.218-96.57l-242.8.013a.5.5,0,0,0-.5.5.5.5,0,0,0,.5.5l242.3-.013V123.882c-48.921.357-87.713,40.013-87.8,89a89,89,0,0,0,88.5,89l-.669,201.555a.5.5,0,0,0,1,0l.669-202.05-.5-.5a88.116,88.116,0,0,1-88-88c0-48.609,38.7-88,87.3-88l.5-.5V-96.07Z" transform="translate(626.581 568.07)" fill="#007889" stroke="#003b4e" stroke-width="2"/>
    <path id="Path_9" data-name="Path 9" d="M-8321-2340a19.886,19.886,0,0,1-7.785-1.572,19.907,19.907,0,0,1-6.357-4.286,19.925,19.925,0,0,1-4.287-6.357A19.834,19.834,0,0,1-8341-2360a19.886,19.886,0,0,1,1.572-7.785,19.927,19.927,0,0,1,4.288-6.357,19.94,19.94,0,0,1,6.356-4.287A19.884,19.884,0,0,1-8321-2380a19.868,19.868,0,0,1,7.784,1.572,19.923,19.923,0,0,1,6.359,4.287,19.939,19.939,0,0,1,4.284,6.357A19.865,19.865,0,0,1-8301-2360a19.868,19.868,0,0,1-1.571,7.785,19.939,19.939,0,0,1-4.286,6.357,19.961,19.961,0,0,1-6.357,4.286A19.878,19.878,0,0,1-8321-2340Zm0-30.5a10.51,10.51,0,0,0-10.5,10.5,10.51,10.51,0,0,0,10.5,10.5,10.511,10.511,0,0,0,10.5-10.5,10.511,10.511,0,0,0-10.5-10.5Z" transform="translate(8901 2832)" fill="url(#linear-gradient)"/>
    <path id="Path_10" data-name="Path 10" d="M191.948.187a.5.5,0,0,0,.073.707c70.323,56.852,112.823,141.592,112.825,239.074,0,171.284-133.078,310.108-304.346,310.11a.5.5,0,0,0,0,1.006c171.83-.312,305.045-139.3,305.35-311.116,0-97.778-42.65-182.825-113.2-239.856a.5.5,0,0,0-.706.075" transform="translate(840 537.914)" fill="#007889" stroke="#003b4e" stroke-width="2"/>
    <path id="Path_11" data-name="Path 11" d="M-8321-2340a19.886,19.886,0,0,1-7.785-1.572,19.907,19.907,0,0,1-6.357-4.286,19.925,19.925,0,0,1-4.287-6.357A19.834,19.834,0,0,1-8341-2360a19.886,19.886,0,0,1,1.572-7.785,19.927,19.927,0,0,1,4.288-6.357,19.94,19.94,0,0,1,6.356-4.287A19.884,19.884,0,0,1-8321-2380a19.868,19.868,0,0,1,7.784,1.572,19.923,19.923,0,0,1,6.359,4.287,19.939,19.939,0,0,1,4.284,6.357A19.865,19.865,0,0,1-8301-2360a19.868,19.868,0,0,1-1.571,7.785,19.939,19.939,0,0,1-4.286,6.357,19.961,19.961,0,0,1-6.357,4.286A19.878,19.878,0,0,1-8321-2340Zm0-30.5a10.51,10.51,0,0,0-10.5,10.5,10.51,10.51,0,0,0,10.5,10.5,10.511,10.511,0,0,0,10.5-10.5,10.511,10.511,0,0,0-10.5-10.5Z" transform="translate(9157 3448)" fill="url(#linear-gradient)"/>
    <path id="Path_12" data-name="Path 12" d="M191.948.187a.5.5,0,0,0,.073.707,301.58,301.58,0,0,1,89.592,119.578l.281.681,1.027-.146-.034-.084-.257-.625A302.159,302.159,0,0,0,192.655.112a.5.5,0,0,0-.706.075" transform="matrix(0.883, -0.469, 0.469, 0.883, 729.479, 566.367)" fill="#007889" stroke="#003b4e" stroke-width="2"/>
    <path id="Path_30" data-name="Path 30" d="M6.9,2.82,7.56,1.8C4.52-.14,2.92-2.54,2.92-5.74s1.6-5.6,4.64-7.54L6.9-14.3c-3.56,2-5.54,4.88-5.54,8.56S3.34.82,6.9,2.82ZM10.8,0h1.54V-5.92a3.042,3.042,0,0,1,3.1-3.24c1.82,0,2.86,1.2,2.86,3.12V0h1.54V-6.42c0-2.46-1.46-4.14-3.96-4.14a3.916,3.916,0,0,0-3.54,2.02v-1.8H10.8ZM28.24.24a5.369,5.369,0,0,0,5.42-5.4V-5.2a5.314,5.314,0,0,0-5.38-5.36,5.352,5.352,0,0,0-5.4,5.4v.04A5.3,5.3,0,0,0,28.24.24Zm.04-1.38a3.879,3.879,0,0,1-3.82-4.02V-5.2a3.816,3.816,0,0,1,3.78-4,3.913,3.913,0,0,1,3.84,4.04v.04A3.815,3.815,0,0,1,28.28-1.14ZM40.26.2c2.06,0,3.68-1.14,3.68-3.1v-.04c0-1.86-1.72-2.48-3.32-2.96-1.38-.42-2.66-.8-2.66-1.78v-.04c0-.86.78-1.5,2-1.5a5.846,5.846,0,0,1,3.06,1l.7-1.16A7.069,7.069,0,0,0,40-10.52c-2.04,0-3.52,1.18-3.52,2.96v.04c0,1.9,1.8,2.46,3.42,2.92,1.36.38,2.58.78,2.58,1.82v.04c0,1-.9,1.64-2.14,1.64a6.044,6.044,0,0,1-3.58-1.32l-.78,1.1A7.112,7.112,0,0,0,40.26.2ZM50.42.2C52.48.2,54.1-.94,54.1-2.9v-.04c0-1.86-1.72-2.48-3.32-2.96-1.38-.42-2.66-.8-2.66-1.78v-.04c0-.86.78-1.5,2-1.5a5.846,5.846,0,0,1,3.06,1l.7-1.16a7.069,7.069,0,0,0-3.72-1.14c-2.04,0-3.52,1.18-3.52,2.96v.04c0,1.9,1.8,2.46,3.42,2.92,1.36.38,2.58.78,2.58,1.82v.04c0,1-.9,1.64-2.14,1.64a6.044,6.044,0,0,1-3.58-1.32l-.78,1.1A7.112,7.112,0,0,0,50.42.2ZM62.08.24a5.369,5.369,0,0,0,5.42-5.4V-5.2a5.314,5.314,0,0,0-5.38-5.36,5.352,5.352,0,0,0-5.4,5.4v.04A5.3,5.3,0,0,0,62.08.24Zm.04-1.38A3.879,3.879,0,0,1,58.3-5.16V-5.2a3.816,3.816,0,0,1,3.78-4,3.913,3.913,0,0,1,3.84,4.04v.04A3.815,3.815,0,0,1,62.12-1.14ZM74.1.2c2.06,0,3.68-1.14,3.68-3.1v-.04c0-1.86-1.72-2.48-3.32-2.96-1.38-.42-2.66-.8-2.66-1.78v-.04c0-.86.78-1.5,2-1.5a5.846,5.846,0,0,1,3.06,1l.7-1.16a7.069,7.069,0,0,0-3.72-1.14c-2.04,0-3.52,1.18-3.52,2.96v.04c0,1.9,1.8,2.46,3.42,2.92,1.36.38,2.58.78,2.58,1.82v.04c0,1-.9,1.64-2.14,1.64A6.044,6.044,0,0,1,70.6-2.42l-.78,1.1A7.112,7.112,0,0,0,74.1.2ZM87.48-12.6h1.76v-1.7H87.48ZM87.58,0h1.54V-10.34H87.58ZM93.1,0h1.54V-5.9a3,3,0,0,1,2.88-3.26c1.64,0,2.66,1.14,2.66,3.08V0h1.54V-5.96a2.881,2.881,0,0,1,2.84-3.2c1.68,0,2.68,1.12,2.68,3.12V0h1.54V-6.4c0-2.56-1.46-4.16-3.84-4.16A4.121,4.121,0,0,0,101.3-8.5a3.513,3.513,0,0,0-3.32-2.06A3.777,3.777,0,0,0,94.64-8.6v-1.74H93.1Zm19.42,3.2h1.54V-1.98a4.665,4.665,0,0,0,3.96,2.2,5.062,5.062,0,0,0,4.94-5.38V-5.2a5.043,5.043,0,0,0-4.94-5.36,4.649,4.649,0,0,0-3.96,2.3v-2.08h-1.54Zm5.22-4.36a3.848,3.848,0,0,1-3.74-4V-5.2a3.856,3.856,0,0,1,3.74-3.98,3.723,3.723,0,0,1,3.64,4v.04A3.649,3.649,0,0,1,117.74-1.16ZM129.28.22a4.531,4.531,0,0,0,3.74-1.78V0h1.48V-6.32a4.081,4.081,0,0,0-1.06-3.02,4.537,4.537,0,0,0-3.34-1.14,8.539,8.539,0,0,0-3.76.86l.46,1.26a7.2,7.2,0,0,1,3.14-.76c1.94,0,3.08.96,3.08,2.82v.36a10.979,10.979,0,0,0-3.18-.44c-2.62,0-4.42,1.16-4.42,3.34V-3C125.42-.88,127.36.22,129.28.22Zm.3-1.22c-1.4,0-2.6-.76-2.6-2.06V-3.1c0-1.3,1.08-2.14,3.02-2.14a10.786,10.786,0,0,1,3.04.44v1C133.04-2.16,131.48-1,129.58-1ZM142.84.24a5.328,5.328,0,0,0,4.22-2l-.98-.92a4.267,4.267,0,0,1-3.16,1.54,3.863,3.863,0,0,1-3.8-4.02V-5.2a3.816,3.816,0,0,1,3.7-4,4.175,4.175,0,0,1,3.14,1.56l1.02-1.08a5.332,5.332,0,0,0-4.14-1.84,5.331,5.331,0,0,0-5.3,5.4v.04A5.309,5.309,0,0,0,142.84.24ZM153.46.18a3.873,3.873,0,0,0,1.86-.44V-1.58a3.238,3.238,0,0,1-1.5.36,1.53,1.53,0,0,1-1.74-1.72V-8.98h3.28v-1.36h-3.28v-3.12h-1.54v3.12H149.1v1.36h1.44v6.24A2.632,2.632,0,0,0,153.46.18Zm9.44.06a5.369,5.369,0,0,0,5.42-5.4V-5.2a5.314,5.314,0,0,0-5.38-5.36,5.352,5.352,0,0,0-5.4,5.4v.04A5.3,5.3,0,0,0,162.9.24Zm.04-1.38a3.879,3.879,0,0,1-3.82-4.02V-5.2a3.816,3.816,0,0,1,3.78-4,3.913,3.913,0,0,1,3.84,4.04v.04A3.815,3.815,0,0,1,162.94-1.14ZM174.92.2c2.06,0,3.68-1.14,3.68-3.1v-.04c0-1.86-1.72-2.48-3.32-2.96-1.38-.42-2.66-.8-2.66-1.78v-.04c0-.86.78-1.5,2-1.5a5.846,5.846,0,0,1,3.06,1l.7-1.16a7.069,7.069,0,0,0-3.72-1.14c-2.04,0-3.52,1.18-3.52,2.96v.04c0,1.9,1.8,2.46,3.42,2.92,1.36.38,2.58.78,2.58,1.82v.04c0,1-.9,1.64-2.14,1.64a6.044,6.044,0,0,1-3.58-1.32l-.78,1.1A7.112,7.112,0,0,0,174.92.2Zm6.6,2.62c3.56-2,5.54-4.88,5.54-8.56s-1.98-6.56-5.54-8.56l-.66,1.02c3.04,1.94,4.64,4.34,4.64,7.54s-1.6,5.6-4.64,7.54Z" transform="translate(1394 476)" fill="#003b4e"/>
    <path id="Path_34" data-name="Path 34" d="M8.48.24A7.24,7.24,0,0,0,15.94-7v-.04a7.173,7.173,0,0,0-7.42-7.2A7.24,7.24,0,0,0,1.06-7v.04A7.173,7.173,0,0,0,8.48.24ZM8.52-2.6A4.253,4.253,0,0,1,4.28-7v-.04a4.187,4.187,0,0,1,4.2-4.36A4.253,4.253,0,0,1,12.72-7v.04A4.187,4.187,0,0,1,8.52-2.6ZM24.92.22c3.76,0,6.14-2.08,6.14-6.32V-14H27.98v8.02c0,2.22-1.14,3.36-3.02,3.36S21.94-3.8,21.94-6.08V-14H18.86v8C18.86-1.88,21.16.22,24.92.22ZM37.86,0h3.08V-11.16H45.2V-14H33.6v2.84h4.26ZM53.92.24a7.156,7.156,0,0,0,5.74-2.5L57.7-4.24A5.053,5.053,0,0,1,54.02-2.6,4.158,4.158,0,0,1,49.96-7v-.04a4.148,4.148,0,0,1,4.06-4.36A5.167,5.167,0,0,1,57.6-9.82l1.96-2.26a7.223,7.223,0,0,0-5.52-2.16A7.115,7.115,0,0,0,46.74-7v.04A7.067,7.067,0,0,0,53.92.24Zm15,0A7.24,7.24,0,0,0,76.38-7v-.04a7.173,7.173,0,0,0-7.42-7.2A7.24,7.24,0,0,0,61.5-7v.04A7.173,7.173,0,0,0,68.92.24Zm.04-2.84A4.253,4.253,0,0,1,64.72-7v-.04a4.187,4.187,0,0,1,4.2-4.36A4.253,4.253,0,0,1,73.16-7v.04A4.187,4.187,0,0,1,68.96-2.6ZM79.52,0h3.02V-9.08l3.9,5.92h.08l3.94-5.98V0h3.06V-14H90.2L86.52-8.08,82.84-14H79.52ZM97.28,0h10.66V-2.74h-7.6V-5.68h6.6V-8.42h-6.6v-2.84h7.5V-14H97.28Zm18.78.2c3.02,0,5.14-1.56,5.14-4.34v-.04c0-2.44-1.6-3.46-4.44-4.2-2.42-.62-3.02-.92-3.02-1.84v-.04c0-.68.62-1.22,1.8-1.22a6.569,6.569,0,0,1,3.64,1.38l1.6-2.32a8.1,8.1,0,0,0-5.2-1.78c-2.86,0-4.9,1.68-4.9,4.22v.04c0,2.78,1.82,3.56,4.64,4.28,2.34.6,2.82,1,2.82,1.78v.04c0,.82-.76,1.32-2.02,1.32a6.422,6.422,0,0,1-4.18-1.7l-1.82,2.18A8.909,8.909,0,0,0,116.06.2Z" transform="translate(1331 445)" fill="#003b4e"/>
    <path id="Path_13" data-name="Path 13" d="M0,0H238" transform="translate(898.5 475.999)" fill="none" stroke="#003b4e" stroke-width="3"/>
    <path id="Path_14" data-name="Path 14" d="M0,0H162.166" transform="translate(1171 475.999)" fill="none" stroke="#003b4e" stroke-width="3"/>
    <path id="Path_15" data-name="Path 15" d="M-8321-2340a19.886,19.886,0,0,1-7.785-1.572,19.907,19.907,0,0,1-6.357-4.286,19.925,19.925,0,0,1-4.287-6.357A19.834,19.834,0,0,1-8341-2360a19.886,19.886,0,0,1,1.572-7.785,19.927,19.927,0,0,1,4.288-6.357,19.94,19.94,0,0,1,6.356-4.287A19.884,19.884,0,0,1-8321-2380a19.868,19.868,0,0,1,7.784,1.572,19.923,19.923,0,0,1,6.359,4.287,19.939,19.939,0,0,1,4.284,6.357A19.865,19.865,0,0,1-8301-2360a19.868,19.868,0,0,1-1.571,7.785,19.939,19.939,0,0,1-4.286,6.357,19.961,19.961,0,0,1-6.357,4.286A19.878,19.878,0,0,1-8321-2340Zm0-30.5a10.51,10.51,0,0,0-10.5,10.5,10.51,10.51,0,0,0,10.5,10.5,10.511,10.511,0,0,0,10.5-10.5,10.511,10.511,0,0,0-10.5-10.5Z" transform="translate(9205 2836)" fill="url(#linear-gradient)"/>
    <path id="Path_16" data-name="Path 16" d="M8581,8154.573,8595.574,8140l14.573,14.573" transform="translate(9431.287 8712.715) rotate(180)" fill="none" stroke="#003b4e" stroke-width="3"/>
    <path id="Path_17" data-name="Path 17" d="M8581,8154.573,8595.574,8140l14.573,14.573" transform="translate(-7450.147 -7366.824)" fill="none" stroke="#003b4e" stroke-width="3"/>
    <path id="Path_18" data-name="Path 18" d="M8581,8154.573,8595.574,8140l14.573,14.573" transform="translate(9180 -8118.148) rotate(90)" fill="none" stroke="#003b4e" stroke-width="3"/>
    <path id="Path_19" data-name="Path 19" d="M8581,8154.573,8595.574,8140l14.573,14.573" transform="translate(9406.072 -8118.148) rotate(90)" fill="none" stroke="#003b4e" stroke-width="3"/>
    <g id="Group_6" data-name="Group 6" transform="translate(120 -5240)">
      <path id="Path_20" data-name="Path 20" d="M16.656,0A.5.5,0,0,0,16.2.7C47.64,72.986,64.535,152.006,64.535,235.868c0,93.548-25.84,192.141-64.484,270.8a.5.5,0,1,0,.9.441C39.66,428.309,65.536,329.6,65.537,235.865c0-84-16.924-163.156-48.42-235.567a.5.5,0,0,0-.458-.3Z" transform="translate(1243 5783.231)" fill="#007889" stroke="#007889" stroke-width="2"/>
      <path id="Path_21" data-name="Path 21" d="M16.656,0A.5.5,0,0,0,16.2.7,578.6,578.6,0,0,1,41,68.343c.2.687.434,2.347.434,2.347l.264-.506s-.438-3.286-.642-3.979A551.253,551.253,0,0,0,17.115.3a.5.5,0,0,0-.458-.3Z" transform="translate(1215.231 5731.961) rotate(-7)" fill="#007889" stroke="#007889" stroke-linejoin="round" stroke-width="2"/>
    </g>
    <path id="Path_22" data-name="Path 22" d="M-8321-2340a19.886,19.886,0,0,1-7.785-1.572,19.907,19.907,0,0,1-6.357-4.286,19.925,19.925,0,0,1-4.287-6.357A19.834,19.834,0,0,1-8341-2360a19.886,19.886,0,0,1,1.572-7.785,19.927,19.927,0,0,1,4.288-6.357,19.94,19.94,0,0,1,6.356-4.287A19.884,19.884,0,0,1-8321-2380a19.868,19.868,0,0,1,7.784,1.572,19.923,19.923,0,0,1,6.359,4.287,19.939,19.939,0,0,1,4.284,6.357A19.865,19.865,0,0,1-8301-2360a19.868,19.868,0,0,1-1.571,7.785,19.939,19.939,0,0,1-4.286,6.357,19.961,19.961,0,0,1-6.357,4.286A19.878,19.878,0,0,1-8321-2340Zm0-30.5a10.51,10.51,0,0,0-10.5,10.5,10.51,10.51,0,0,0,10.5,10.5,10.511,10.511,0,0,0,10.5-10.5,10.511,10.511,0,0,0-10.5-10.5Z" transform="translate(9668 2836)" fill="url(#linear-gradient)"/>
    <g id="Group_7" data-name="Group 7" transform="translate(1130.999 429)">
      <text id="OUTPUT" transform="translate(0.001 16)" fill="#003b4e" font-size="20" font-family="Gotham-Bold, Gotham" font-weight="700" letter-spacing="0.02em"><tspan x="0" y="0">OUTPUT</tspan></text>
      <path id="Path_23" data-name="Path 23" d="M-8321-2340a19.886,19.886,0,0,1-7.785-1.572,19.907,19.907,0,0,1-6.357-4.286,19.925,19.925,0,0,1-4.287-6.357A19.834,19.834,0,0,1-8341-2360a19.886,19.886,0,0,1,1.572-7.785,19.927,19.927,0,0,1,4.288-6.357,19.94,19.94,0,0,1,6.356-4.287A19.884,19.884,0,0,1-8321-2380a19.868,19.868,0,0,1,7.784,1.572,19.923,19.923,0,0,1,6.359,4.287,19.939,19.939,0,0,1,4.284,6.357A19.865,19.865,0,0,1-8301-2360a19.868,19.868,0,0,1-1.571,7.785,19.939,19.939,0,0,1-4.286,6.357,19.961,19.961,0,0,1-6.357,4.286A19.878,19.878,0,0,1-8321-2340Zm0-30.5a10.51,10.51,0,0,0-10.5,10.5,10.51,10.51,0,0,0,10.5,10.5,10.511,10.511,0,0,0,10.5-10.5,10.511,10.511,0,0,0-10.5-10.5Z" transform="translate(8341.001 2407)" fill="url(#linear-gradient)"/>
    </g>
    <g id="Group_9" data-name="Group 9" transform="translate(783.373 727.835)">
      <g id="Group_8" data-name="Group 8" clip-path="url(#clip-path-4)">
        <path id="Path_24" data-name="Path 24" d="M53.675,54.51A26.276,26.276,0,0,1,27.381,28.2H0A53.741,53.741,0,0,0,53.675,81.916Z" transform="translate(0 25.34)" fill="#004b60"/>
        <path id="Path_25" data-name="Path 25" d="M27.381,53.541A26.337,26.337,0,0,1,53.675,27.162V0A53.594,53.594,0,0,0,0,53.541Z" transform="translate(0 0.001)" fill="#00899a"/>
        <path id="Path_26" data-name="Path 26" d="M28.273,27.163a26.448,26.448,0,0,1,26.408,26.4l27.173-.017A53.514,53.514,0,0,0,28.273,0Z" transform="translate(25.402)" fill="#00bec6"/>
        <path id="Path_27" data-name="Path 27" d="M40.717,32.181A4.026,4.026,0,0,1,36.654,28.2H14.423A26.267,26.267,0,0,0,40.717,54.509Z" transform="translate(12.958 25.339)" fill="#00899a"/>
        <path id="Path_28" data-name="Path 28" d="M28.273,54.51A26.349,26.349,0,0,0,54.681,28.22L32.237,28.2a3.941,3.941,0,0,1-3.964,3.979Z" transform="translate(25.402 25.34)" fill="#004b60"/>
        <path id="Path_29" data-name="Path 29" d="M40.717,14.308A26.328,26.328,0,0,0,14.423,40.687H36.654a4.085,4.085,0,0,1,4.063-4.049Z" transform="translate(12.958 12.856)" fill="#00bec6"/>
      </g>
    </g>
  </g>
</svg>
