<svg xmlns="http://www.w3.org/2000/svg" xmlns:xlink="http://www.w3.org/1999/xlink" width="1920" height="1400" viewBox="0 0 1920 1400"><defs><clipPath id="a"><rect width="1920" height="1400" transform="translate(0 5040)" fill="#fff" stroke="#707070" stroke-width="1"/></clipPath><clipPath id="b"><rect width="1230.474" height="1730.96" fill="none"/></clipPath><clipPath id="c"><path d="M957.049,900.541c0-327.518-265.506-593.024-593.024-593.024-.121,0-.241,0-.362,0v1186.04c.121,0,.241,0,.362,0,327.518,0,593.024-265.506,593.024-593.024" transform="translate(351 5117)" fill="#fff"/></clipPath><linearGradient id="d" x1="0.141" y1="0.5" x2="1.072" y2="0.185" gradientUnits="objectBoundingBox"><stop offset="0" stop-color="#003b4e"/><stop offset="1" stop-color="#7bdce0"/></linearGradient></defs><g transform="translate(0 160)"><g transform="translate(1560 591)"><rect width="360" height="280" rx="48" fill="#f7ffda"/><g transform="translate(207 54.619)"><g transform="translate(0 0.381)" fill="#00b1bb" stroke="rgba(0,0,0,0)" stroke-width="1" opacity="0"><rect width="80" height="80" stroke="none"/><rect x="0.5" y="0.5" width="79" height="79" fill="none"/></g><path d="M21.575,18.449a3.362,3.362,0,1,1,6.724,0V33.478l4.068.437,16.609,7.363a4.927,4.927,0,0,1,2.858,4.539V60.476a5.218,5.218,0,0,1-5.043,5.043H24.937a4.551,4.551,0,0,1-3.362-1.446L5.1,49.952l2.488-2.589a3.332,3.332,0,0,1,2.488-1.076h.74l10.759,5.783V18.449M24.937,5A13.449,13.449,0,0,1,38.386,18.449a13.3,13.3,0,0,1-6.724,11.633v-4.1a10.087,10.087,0,1,0-13.449,0v4.1a13.3,13.3,0,0,1-6.724-11.633A13.449,13.449,0,0,1,24.937,5Z" transform="translate(11.712 4.775)" fill="#00b1bb"/></g><text transform="translate(167 148)" fill="#00b1bb" font-size="20" font-family="Gotham-Medium, Gotham" font-weight="500" letter-spacing="0.03em"><tspan x="-55.53" y="16">Clique nos </tspan><tspan x="-60.57" y="43">ícones para </tspan><tspan x="-56.7" y="70">saber mais</tspan></text></g><g transform="translate(0 -5200)" clip-path="url(#a)"><g transform="translate(471 5077)"><g clip-path="url(#b)"><path d="M1230.474,865.48C1230.474,387.489,842.985,0,364.994,0c-.176,0-.351.007-.528.007V1730.953c.177,0,.352.007.528.007,477.991,0,865.48-387.489,865.48-865.48" fill="#e2fe0a"/><path d="M957.049,900.541c0-327.518-265.506-593.024-593.024-593.024-.121,0-.241,0-.362,0v1186.04c.121,0,.241,0,.362,0,327.518,0,593.024-265.506,593.024-593.024" fill="#fff"/><g transform="translate(-351 -5117)" clip-path="url(#c)"><rect width="590" height="430" transform="translate(920 6176)" fill="#c7ec5f"/></g><circle cx="251.595" cy="251.595" r="251.595" transform="translate(114.534 650.548)" fill="none" stroke="#000" stroke-width="0.1"/><path d="M367.129,1210.8c170.469,0,308.661-138.192,308.661-308.661S537.6,593.482,367.129,593.482,58.468,731.674,58.468,902.143,196.66,1210.8,367.129,1210.8" fill="#007889"/><path d="M0,890.324c0,201.566,163.4,364.968,364.968,364.968.074,0,.148,0,.222,0V525.359l-.222,0C163.4,525.356,0,688.758,0,890.324" fill="#7bdce0"/><path d="M367.138,1075.277l-1.948,136.289.19,0c106.709,0,200.891-53.975,257.062-136.276" fill="#00b1bb"/><path d="M366.129,978.313a74.185,74.185,0,1,0-74.185-74.185,74.185,74.185,0,0,0,74.185,74.185" fill="#fff"/></g></g></g><g transform="translate(1357.424 1032.477)"><path d="M35.964,575.308C16.606,575.308.857,591.318.857,611s15.749,35.69,35.107,35.69S71.072,630.677,71.072,611s-15.749-35.689-35.107-35.689m0,68.922C17.939,644.23,3.274,629.322,3.274,611s14.665-33.233,32.691-33.233S68.655,592.672,68.655,611,53.99,644.23,35.964,644.23" transform="translate(-0.857 -575.308)" fill="#007889"/><path d="M54.251,596.8c-1.485-2.581-5.411-3.308-11.07-2.057a3.423,3.423,0,0,0-2.132-1.24c-1.748-5.517-4.338-8.547-7.315-8.547-3.283,0-6.111,3.7-7.8,10.19-6.47-1.753-11.087-1.159-12.713,1.653s.166,7.1,4.921,11.836c-4.772,4.708-6.565,9.009-4.921,11.856.994,1.726,3.155,2.638,6.269,2.638a26.322,26.322,0,0,0,6.455-.991c1.714,6.491,4.537,10.2,7.792,10.2,3,0,5.514-2.913,7.276-8.433a3.443,3.443,0,0,0,2.231-1.33,23.476,23.476,0,0,0,4.76.578c3.083,0,5.243-.92,6.249-2.66,1.627-2.818-.171-7.116-4.933-11.845,4.759-4.732,6.557-9.029,4.935-11.845M29.039,616.78c.531.305,1.057.594,1.582.874-.89.38-1.791.732-2.695,1.056-.175-.95-.321-1.906-.438-2.861q.76.47,1.551.931m14.876-19.426c4.141-.891,7.185-.594,7.987.8h0c.779,1.349-.347,4.529-4.556,8.662a52.043,52.043,0,0,0-4.45-3.461c-.1-1.189-.247-2.383-.437-3.626a3.428,3.428,0,0,0,1.455-2.375m-.823,9.482c.77.58,1.526,1.185,2.259,1.809-.7.6-1.457,1.2-2.259,1.806q.029-.9.029-1.808t-.029-1.808m-16.006.237a3.411,3.411,0,0,0,2.052-3.455c.411-.254.828-.507,1.258-.754,1.058-.61,2.155-1.2,3.347-1.786,1.14.566,2.23,1.151,3.327,1.786,1.058.61,2.112,1.263,3.214,1.992.087,1.363.128,2.606.128,3.79,0,1.167-.042,2.409-.129,3.791-1.112.735-2.165,1.388-3.212,1.992-1.075.62-2.168,1.206-3.328,1.783-1.213-.6-2.311-1.184-3.346-1.783-1.074-.621-2.13-1.277-3.219-2-.082-1.307-.122-2.549-.122-3.786,0-.528.013-1.045.031-1.572m11.341-6.558c-.525-.3-1.047-.591-1.566-.869q.538-.227,1.073-.439a3.477,3.477,0,0,0,1.866,1.062c.059.386.112.774.161,1.167-.5-.311-1.011-.619-1.534-.92m-1.559,17.129q.776-.419,1.557-.869t1.533-.918c-.054.432-.112.858-.176,1.274a3.421,3.421,0,0,0-1.766.98q-.571-.223-1.149-.467m.2-21.014c-1.16.45-2.256.919-3.333,1.426a51.363,51.363,0,0,0-5.2-2.109c1.316-5.052,3.335-8.283,5.2-8.283,1.607,0,3.386,2.479,4.682,6.5a3.436,3.436,0,0,0-1.351,2.463m-8.025,3.879c-.409.236-.8.476-1.194.716a3.22,3.22,0,0,0-.29-.206c.111-.834.243-1.648.391-2.434.9.321,1.794.671,2.675,1.046-.526.283-1.053.574-1.582.878m-4.663,9.946c-.764-.575-1.516-1.177-2.247-1.8.641-.548,1.323-1.1,2.04-1.649.067.032.134.062.2.09-.016.51-.028,1.023-.028,1.545q0,.919.032,1.811m.587-6.532a.739.739,0,1,1,.74.738.747.747,0,0,1-.74-.738m-.085-3.342a3.406,3.406,0,0,0-2.459,4.359c-.809.621-1.578,1.249-2.3,1.872-4.211-4.13-5.339-7.307-4.561-8.656s4.1-1.961,9.778-.391c-.172.9-.326,1.848-.459,2.816m-4.744,9.907a52.058,52.058,0,0,0,4.435,3.447,51.884,51.884,0,0,0,.769,5.588c-5.672,1.572-8.992.957-9.778-.391-.931-1.617.858-4.98,4.573-8.644m13.579,8.732c1.089.509,2.208.987,3.337,1.427a3.448,3.448,0,0,0,1.333,2.562c-1.289,3.969-3.053,6.415-4.649,6.415-1.555,0-3.748-2.564-5.23-8.275a52.181,52.181,0,0,0,5.209-2.129m9.187-5.286a51.053,51.053,0,0,0,4.45-3.463c4.208,4.138,5.333,7.316,4.555,8.661-.81,1.4-3.854,1.7-8.007.8a3.422,3.422,0,0,0-1.451-2.273c.2-1.245.347-2.495.453-3.725M39.762,596.9a.739.739,0,1,1,.74.74.74.74,0,0,1-.74-.74m.74,22.856a.739.739,0,1,1-.74.74.74.74,0,0,1,.74-.74" transform="translate(1.378 -572.954)" fill="#007889"/></g><g transform="translate(1392.532 943.233)"><path d="M36.49,478.816a36.123,36.123,0,1,0,36.382,36.122A36.295,36.295,0,0,0,36.49,478.816m0,69.82a33.7,33.7,0,1,1,33.94-33.7,33.859,33.859,0,0,1-33.94,33.7" transform="translate(-0.107 -478.816)" fill="#007889"/><path d="M39.167,499.5h-.023a14.163,14.163,0,0,0-3.43.421,11.951,11.951,0,0,1,2.158-5.237,11.256,11.256,0,0,1,2.353-2.445,1.428,1.428,0,0,0-1.6-2.362A13.256,13.256,0,0,0,35.4,493.21a9.444,9.444,0,0,0-11.74-4.335,9.509,9.509,0,0,0-1.463.719,1.429,1.429,0,0,0-.677,1.4,9.429,9.429,0,0,0,10.508,8.217,9.2,9.2,0,0,0,.93-.161q-.115.633-.178,1.273a14.145,14.145,0,0,0-4.749-.817A14.32,14.32,0,0,0,13.7,513.8c0,7.76,6.042,22.669,14.3,22.67h.02a14.209,14.209,0,0,0,5.212-.986.958.958,0,0,1,.7,0,14.186,14.186,0,0,0,5.208.986h.021c8.262,0,14.3-14.909,14.3-22.669a14.315,14.315,0,0,0-14.3-14.3m-4.193,33.325a3.8,3.8,0,0,0-2.789,0,11.325,11.325,0,0,1-4.165.789H28c-2.577,0-5.433-2.622-7.836-7.193-2.16-4.09-3.61-9.161-3.61-12.622a11.454,11.454,0,0,1,11.45-11.446h.009a11.407,11.407,0,0,1,4.456.906,2.841,2.841,0,0,0,2.1.043l.118-.045A11.451,11.451,0,0,1,50.6,513.8c0,3.459-1.449,8.53-3.608,12.622-2.407,4.571-5.264,7.193-7.836,7.193h-.01a11.369,11.369,0,0,1-4.173-.789m-1.551-36.915a6.622,6.622,0,0,1-5.414-.155h0a6.6,6.6,0,0,1-3.465-4.161,6.582,6.582,0,0,1,8.412,3.107,6.614,6.614,0,0,1,.469,1.21" transform="translate(3.298 -477.228)" fill="#007889"/></g><g transform="translate(1416.582 853.118)"><path d="M36.576,383.075a36.569,36.569,0,1,0,36.469,36.568,36.56,36.56,0,0,0-36.469-36.568m0,70.683A34.115,34.115,0,1,1,70.6,419.643a34.107,34.107,0,0,1-34.022,34.115" transform="translate(-0.107 -383.075)" fill="#007889"/><path d="M38.981,421.5a1.271,1.271,0,1,0-1.271,1.271,1.272,1.272,0,0,0,1.271-1.271" transform="translate(8.022 -374.635)" fill="#007889"/><path d="M44.954,399.023a2.592,2.592,0,0,0-2.53-2.038h-.658a3.25,3.25,0,1,0,0,6.5h.658a2.583,2.583,0,0,0,2.03-.984v10.273a4.014,4.014,0,0,1-4.008,4.009H37.023a2.594,2.594,0,0,0-2.517-1.981H30.547a2.6,2.6,0,0,0-2.518,1.981H24.608a4.015,4.015,0,0,1-4.011-4.009l.045-10.217a2.588,2.588,0,0,0,1.985.928h.659a3.25,3.25,0,1,0,0-6.5h-.659a2.593,2.593,0,0,0-2.53,2.038,2.6,2.6,0,0,0-2.04,2.531v11.219a6.558,6.558,0,0,0,6.551,6.549h3.421a2.6,2.6,0,0,0,2.518,1.98h.709v11.928a5.889,5.889,0,1,0,11.778,0V431.7a5.231,5.231,0,1,0-6.445-4.329A5.261,5.261,0,0,0,40.5,431.7v1.532a3.349,3.349,0,0,1-6.7,0V421.3h.709a2.594,2.594,0,0,0,2.517-1.98h3.422a6.557,6.557,0,0,0,6.548-6.549V401.555a2.6,2.6,0,0,0-2.04-2.531m-2.48.552v1.319l-.708.05a.71.71,0,1,1,0-1.419Zm-7.918,17.819-.05,1.369H30.547a.049.049,0,0,1-.05-.05l.05-1.369Zm-11.98-16.5v-1.319l.05-.05h.659a.71.71,0,1,1,0,1.419Zm16.5,25.738a2.689,2.689,0,1,1,2.69,2.69,2.692,2.692,0,0,1-2.69-2.69" transform="translate(3.852 -380.007)" fill="#007889"/></g><g transform="translate(1428.915 763.5)"><path d="M36.486,360.09a36.378,36.378,0,1,1,36.38-36.378,36.42,36.42,0,0,1-36.38,36.378m0-70.316a33.937,33.937,0,1,0,33.939,33.937,33.975,33.975,0,0,0-33.939-33.937" transform="translate(-0.107 -287.333)" fill="#007889"/><path d="M53.673,314.3a1.394,1.394,0,0,0-.862-.432l-12.678-1.41-.072-.158-5.2-11.338a1.392,1.392,0,0,0-2.52,0l-5.268,11.494L14.4,313.87a1.375,1.375,0,0,0-.929.514,1.345,1.345,0,0,0-.288,1,1.363,1.363,0,0,0,.438.849l9.42,8.515-.034.171-2.531,12.2a1.34,1.34,0,0,0,.2,1.02,1.379,1.379,0,0,0,.882.593,1.408,1.408,0,0,0,.964-.151l11.091-6.238,11.09,6.238a1.392,1.392,0,0,0,.663.182,1.377,1.377,0,0,0,1.41-1.345,1.292,1.292,0,0,0-.031-.3l-2.566-12.37.128-.117,9.293-8.4a1.357,1.357,0,0,0,.079-1.93m-11.955,8.949a1.367,1.367,0,0,0-.42,1.288l2.113,10.172-9.12-5.129a1.41,1.41,0,0,0-1.372,0L23.8,334.711l2.11-10.171a1.362,1.362,0,0,0-.42-1.289l-7.759-7,10.433-1.157a1.39,1.39,0,0,0,1.107-.795l4.334-9.459,4.331,9.46a1.391,1.391,0,0,0,1.107.793l10.434,1.157Z" transform="translate(2.83 -284.165)" fill="#007889"/></g><g transform="translate(1425.348 673.568)"><path d="M36.486,191.591a36.378,36.378,0,1,0,36.378,36.378,36.42,36.42,0,0,0-36.378-36.378m0,70.316a33.937,33.937,0,1,1,33.937-33.937,33.975,33.975,0,0,1-33.937,33.937" transform="translate(-0.107 -191.591)" fill="#007889"/><path d="M46.175,204.813a16.49,16.49,0,0,0-11.028,4.3c-3.494-3.219-6.789-4.837-9.795-4.837a14.724,14.724,0,0,0-10.614,4.481,15.548,15.548,0,0,0-4.344,11.786,1.149,1.149,0,1,0,2.295-.138,13.258,13.258,0,0,1,3.69-10.052,12.45,12.45,0,0,1,8.973-3.781c2.553,0,5.634,1.682,8.9,4.86a1.284,1.284,0,0,0,1.8,0,14.38,14.38,0,0,1,10-4.321h.087a10.711,10.711,0,0,1,7.763,3.242,13.341,13.341,0,0,1,0,18.441L35.456,246.584a.511.511,0,0,1-.716,0L22.117,234.391a1.148,1.148,0,0,0-1.6,1.653l12.623,12.192a2.8,2.8,0,0,0,3.907,0l18.51-17.815a15.629,15.629,0,0,0,0-21.671,12.956,12.956,0,0,0-9.386-3.936" transform="translate(2.156 -188.792)" fill="#007889"/><path d="M23.175,227.979a1.149,1.149,0,0,0,2.043-.2l3.339-8.606,3.081,12.2a1.147,1.147,0,0,0,.981.861h.132a1.147,1.147,0,0,0,1.015-.614l3.826-7.333,1.463,2.611a1.149,1.149,0,0,0,1,.574h5.33a1.147,1.147,0,1,0,0-2.295H40.738l-2.174-3.879a1.154,1.154,0,0,0-2.043.092l-3.442,6.547-3.173-12.772a1.147,1.147,0,0,0-2.18-.132L23.9,224.852,21.6,221.174a1.129,1.129,0,0,0-1.946.034L17.15,225.27H13.082a1.147,1.147,0,1,0,0,2.295l4.705-.028a1.146,1.146,0,0,0,.975-.574l1.871-3.035Z" transform="translate(2.065 -186.31)" fill="#007889"/></g><g transform="translate(1407.486 583.969)"><g transform="translate(-0.001 0)"><path d="M36.328,95.849a36.222,36.222,0,1,0,36.221,36.222A36.262,36.262,0,0,0,36.328,95.849m0,70.013a33.791,33.791,0,1,1,33.791-33.791,33.829,33.829,0,0,1-33.791,33.791" transform="translate(-0.106 -95.849)" fill="#007889"/><path d="M56.465,126.131A1.183,1.183,0,0,0,57.5,124.71a23.86,23.86,0,0,0-3.309-7.976,1.174,1.174,0,0,0-.8-.523,1.154,1.154,0,0,0-.928.246,3.673,3.673,0,0,1-5.167-5.16,1.181,1.181,0,0,0-.275-1.735,23.881,23.881,0,0,0-7.974-3.308,1.182,1.182,0,0,0-1.421,1.031,3.672,3.672,0,0,1-7.3.006,1.179,1.179,0,0,0-1.421-1.035,23.86,23.86,0,0,0-7.974,3.306,1.18,1.18,0,0,0-.276,1.733,3.672,3.672,0,0,1-5.163,5.164,1.156,1.156,0,0,0-.929-.247,1.176,1.176,0,0,0-.805.524,23.843,23.843,0,0,0-3.306,7.973,1.178,1.178,0,0,0,1.031,1.422,3.671,3.671,0,0,1,0,7.3,1.182,1.182,0,0,0-1.031,1.422,23.877,23.877,0,0,0,3.309,7.974,1.178,1.178,0,0,0,1.731.275,3.672,3.672,0,0,1,5.165,5.162A1.181,1.181,0,0,0,20.923,150a23.835,23.835,0,0,0,7.974,3.306,1.178,1.178,0,0,0,1.42-1.029,3.672,3.672,0,0,1,7.3,0,1.192,1.192,0,0,0,.48.828,1.169,1.169,0,0,0,.695.226l.246-.027A23.83,23.83,0,0,0,47.015,150a1.18,1.18,0,0,0,.276-1.733,3.673,3.673,0,0,1,5.164-5.164,1.166,1.166,0,0,0,.929.247,1.18,1.18,0,0,0,.8-.524,23.859,23.859,0,0,0,3.306-7.972,1.182,1.182,0,0,0-1.029-1.423h0a3.671,3.671,0,0,1,0-7.3m-3.3-8.737h0l-.006,0,0,0M38.787,107.44h0l0,.01v-.011m-17.206,3.139,0,0,0,0Zm7.569,41.543h0l0-.008v.01m17.2-3.138-.008-.017.011.016ZM54.91,135.5a21.479,21.479,0,0,1-2.1,5.052,6.038,6.038,0,0,0-8.08,8.08,21.5,21.5,0,0,1-5.052,2.1,6.036,6.036,0,0,0-11.426,0,21.521,21.521,0,0,1-5.053-2.1,6.037,6.037,0,0,0-8.079-8.08,21.479,21.479,0,0,1-2.1-5.052,6.038,6.038,0,0,0,0-11.429,21.491,21.491,0,0,1,2.1-5.051,6.037,6.037,0,0,0,8.079-8.08,21.448,21.448,0,0,1,5.053-2.1,6.036,6.036,0,0,0,11.426,0,21.478,21.478,0,0,1,5.052,2.1,6.038,6.038,0,0,0,8.08,8.08,21.522,21.522,0,0,1,2.1,5.051,6.038,6.038,0,0,0,0,11.429" transform="translate(2.167 -93.56)" fill="#007889"/><path d="M30.629,125.908h-.114a1.6,1.6,0,1,1,1.609-1.6,1.187,1.187,0,1,0,2.374,0,3.964,3.964,0,0,0-2.8-3.79v-.207a1.187,1.187,0,1,0-2.374,0v.207a3.962,3.962,0,0,0-2.8,3.79,4.007,4.007,0,0,0,4.095,3.973,1.6,1.6,0,1,1-1.606,1.6,1.188,1.188,0,0,0-2.376,0,4,4,0,0,0,2.683,3.756v.242a1.187,1.187,0,1,0,2.374,0V133.7a3.969,3.969,0,0,0-1.074-7.794" transform="translate(5.565 -90.872)" fill="#007889"/></g><path d="M31.87,116.46a11.222,11.222,0,1,0,11.222,11.222A11.234,11.234,0,0,0,31.87,116.46m0,20.068a8.846,8.846,0,1,1,8.847-8.847,8.856,8.856,0,0,1-8.847,8.847" transform="translate(4.423 -91.303)" fill="#007889"/></g><g transform="translate(1376.971 494.053)"><path d="M36.509,73.019A36.51,36.51,0,1,0,0,36.51,36.55,36.55,0,0,0,36.509,73.019m0-70.578A34.068,34.068,0,1,1,2.441,36.51,34.107,34.107,0,0,1,36.509,2.441" fill="#007889"/><path d="M39.055,31.367a7.737,7.737,0,1,0-7.782-7.737,7.8,7.8,0,0,0,7.782,7.737m0-13.527a5.824,5.824,0,0,1,4.127,1.709,5.748,5.748,0,0,1,1.7,4.107,5.828,5.828,0,1,1-5.828-5.816" transform="translate(6.897 3.505)" fill="#007889"/><path d="M39.683,35.443A11.189,11.189,0,1,0,28.428,24.255,11.255,11.255,0,0,0,39.683,35.443m0-20.432v-.305l.012.305a9.27,9.27,0,0,1,6.576,2.723,9.164,9.164,0,0,1,2.712,6.546,9.3,9.3,0,1,1-9.3-9.269" transform="translate(6.27 2.882)" fill="#007889"/><path d="M35.638,24.617a2.446,2.446,0,0,0,1.485,2.24v.384a.976.976,0,0,0,1.953,0V26.9a2.439,2.439,0,0,0,.482-4.217.981.981,0,0,0,1-.973,2.442,2.442,0,0,0-1.478-2.238v-.413a.976.976,0,0,0-1.953,0v.413a2.429,2.429,0,0,0-.509,4.177.976.976,0,0,0-.976.973m2.473-3.408a.492.492,0,0,1,.489.5.965.965,0,0,0,.206.6,2.494,2.494,0,0,0-.708-.1.5.5,0,1,1,.012-.992m.01,2.939a.5.5,0,0,1,.065.989.664.664,0,0,0-.085-.018c-.031,0-.056.016-.087.018a.5.5,0,0,1-.289-.148.514.514,0,0,1-.132-.372.957.957,0,0,0-.187-.572,2.508,2.508,0,0,0,.715.1" transform="translate(7.86 3.988)" fill="#007889"/><path d="M13.814,48.9h5.139a2.313,2.313,0,0,0,2.311-2.2l10.024,3.447a10.155,10.155,0,0,0,3.3.55H34.6a10.19,10.19,0,0,0,4.65-1.128l15.683-8.1a2.79,2.79,0,0,0-2.038-5.167l-9.449,2.545c.009-.082.012-.165.013-.248A3.063,3.063,0,0,0,40.4,35.561H34.354A14.579,14.579,0,0,0,24.7,31.508H21.273v-.3a2.316,2.316,0,0,0-2.32-2.308H13.814a2.317,2.317,0,0,0-2.32,2.308V46.6a2.317,2.317,0,0,0,2.32,2.308M21.273,33.48h3.416A12.816,12.816,0,0,1,33.3,37.271a.973.973,0,0,0,.665.262H40.4a1.111,1.111,0,0,1,1,.629,1.079,1.079,0,0,1,.04.837,1.048,1.048,0,0,1-.514.594.3.3,0,0,0-.118.023,1.079,1.079,0,0,1-.413.084H30.721a.972.972,0,1,0,0,1.944H40.4a3.013,3.013,0,0,0,1.16-.231L53.435,38.2a.853.853,0,0,1,.935.35.8.8,0,0,1-.343,1.186L38.349,47.814a8.26,8.26,0,0,1-6.419.47L21.273,44.619Zm-7.826-2.262a.365.365,0,0,1,.367-.363h0l5.137-.013a.365.365,0,0,1,.366.363v1.146a.761.761,0,0,0-.027.129V45.334a.9.9,0,0,0,.027.162V46.61a.365.365,0,0,1-.366.363H13.814a.365.365,0,0,1-.367-.363Z" transform="translate(2.535 6.373)" fill="#007889"/></g><text transform="translate(876 444)" fill="#003b4e" font-size="20" font-family="Gotham-Bold, Gotham" font-weight="700" letter-spacing="0.02em"><tspan x="0" y="0">ATIVIDADES-CHAVE</tspan></text><text transform="translate(378 459)" fill="#003b4e" font-size="18" font-family="Gotham-Book, Gotham" letter-spacing="0.02em"><tspan x="0" y="16">(nossos impactos)</tspan><tspan y="16" font-size="20"> </tspan></text><text transform="translate(347 424)" fill="#003b4e" font-size="20" font-family="Gotham-Bold, Gotham" font-weight="700" letter-spacing="0.02em"><tspan x="0" y="16">CAPITAIS ACESSADOS</tspan></text><path d="M209.218-96.57l-242.8.013a.5.5,0,0,0-.5.5.5.5,0,0,0,.5.5l242.3-.013V123.882c-48.921.357-87.713,40.013-87.8,88.995a89,89,0,0,0,88.5,89l-.667,201.555a.5.5,0,1,0,1,0l.669-202.05-.5-.5a88.116,88.116,0,0,1-88-88c0-48.609,38.7-88,87.3-88l.5-.5V-96.07Z" transform="translate(626.581 568.07)" fill="#007889" stroke="#003b4e" stroke-width="2"/><path d="M-8321-2340a19.886,19.886,0,0,1-7.785-1.572,19.921,19.921,0,0,1-6.357-4.286,19.932,19.932,0,0,1-4.287-6.357A19.872,19.872,0,0,1-8341-2360a19.874,19.874,0,0,1,1.571-7.785,19.933,19.933,0,0,1,4.287-6.357,19.918,19.918,0,0,1,6.357-4.287A19.882,19.882,0,0,1-8321-2380a19.875,19.875,0,0,1,7.785,1.572,19.943,19.943,0,0,1,6.357,4.287,19.933,19.933,0,0,1,4.285,6.357A19.874,19.874,0,0,1-8301-2360a19.873,19.873,0,0,1-1.572,7.785,19.935,19.935,0,0,1-4.285,6.357,19.952,19.952,0,0,1-6.357,4.286A19.879,19.879,0,0,1-8321-2340Zm0-30.5a10.512,10.512,0,0,0-10.5,10.5,10.512,10.512,0,0,0,10.5,10.5,10.512,10.512,0,0,0,10.5-10.5A10.512,10.512,0,0,0-8321-2370.5Z" transform="translate(8901 2832)" fill="url(#d)"/><path d="M191.948.187a.5.5,0,0,0,.073.707c70.323,56.852,112.823,141.592,112.825,239.074C304.842,411.252,171.768,550.076.5,550.078a.5.5,0,0,0,0,1.006c171.83-.312,305.045-139.305,305.35-311.116,0-97.778-42.647-182.825-113.2-239.856a.5.5,0,0,0-.706.075" transform="translate(840 537.914)" fill="#007889" stroke="#003b4e" stroke-width="2"/><path d="M-8321-2340a19.886,19.886,0,0,1-7.785-1.572,19.921,19.921,0,0,1-6.357-4.286,19.932,19.932,0,0,1-4.287-6.357A19.872,19.872,0,0,1-8341-2360a19.874,19.874,0,0,1,1.571-7.785,19.933,19.933,0,0,1,4.287-6.357,19.918,19.918,0,0,1,6.357-4.287A19.882,19.882,0,0,1-8321-2380a19.875,19.875,0,0,1,7.785,1.572,19.943,19.943,0,0,1,6.357,4.287,19.933,19.933,0,0,1,4.285,6.357A19.874,19.874,0,0,1-8301-2360a19.873,19.873,0,0,1-1.572,7.785,19.935,19.935,0,0,1-4.285,6.357,19.952,19.952,0,0,1-6.357,4.286A19.879,19.879,0,0,1-8321-2340Zm0-30.5a10.512,10.512,0,0,0-10.5,10.5,10.512,10.512,0,0,0,10.5,10.5,10.512,10.512,0,0,0,10.5-10.5A10.512,10.512,0,0,0-8321-2370.5Z" transform="translate(9157 3448)" fill="url(#d)"/><path d="M191.948.187a.5.5,0,0,0,.073.707,301.58,301.58,0,0,1,89.592,119.578l.281.681,1.027-.146-.034-.084-.257-.625A302.159,302.159,0,0,0,192.655.112a.5.5,0,0,0-.706.075" transform="matrix(0.883, -0.469, 0.469, 0.883, 729.479, 566.367)" fill="#007889" stroke="#003b4e" stroke-width="2"/><text transform="translate(1394 460)" fill="#003b4e" font-size="20" font-family="Gotham-Book, Gotham" letter-spacing="0.02em"><tspan x="0" y="16">(nossos impactos)</tspan></text><text transform="translate(1331 429)" fill="#003b4e" font-size="20" font-family="Gotham-Bold, Gotham" font-weight="700" letter-spacing="0.02em"><tspan x="0" y="16">OUTCOMES</tspan></text><path d="M0,0H238" transform="translate(898.5 475.999)" fill="none" stroke="#003b4e" stroke-width="3"/><path d="M0,0H162.166" transform="translate(1171 475.999)" fill="none" stroke="#003b4e" stroke-width="3"/><path d="M-8321-2340a19.886,19.886,0,0,1-7.785-1.572,19.921,19.921,0,0,1-6.357-4.286,19.932,19.932,0,0,1-4.287-6.357A19.872,19.872,0,0,1-8341-2360a19.874,19.874,0,0,1,1.571-7.785,19.933,19.933,0,0,1,4.287-6.357,19.918,19.918,0,0,1,6.357-4.287A19.882,19.882,0,0,1-8321-2380a19.875,19.875,0,0,1,7.785,1.572,19.943,19.943,0,0,1,6.357,4.287,19.933,19.933,0,0,1,4.285,6.357A19.874,19.874,0,0,1-8301-2360a19.873,19.873,0,0,1-1.572,7.785,19.935,19.935,0,0,1-4.285,6.357,19.952,19.952,0,0,1-6.357,4.286A19.879,19.879,0,0,1-8321-2340Zm0-30.5a10.512,10.512,0,0,0-10.5,10.5,10.512,10.512,0,0,0,10.5,10.5,10.512,10.512,0,0,0,10.5-10.5A10.512,10.512,0,0,0-8321-2370.5Z" transform="translate(9205 2836)" fill="url(#d)"/><path d="M8581,8154.573,8595.574,8140l14.573,14.573" transform="translate(9431.287 8712.715) rotate(-180)" fill="none" stroke="#003b4e" stroke-width="3"/><path d="M8581,8154.573,8595.574,8140l14.573,14.573" transform="translate(-7450.147 -7366.824)" fill="none" stroke="#003b4e" stroke-width="3"/><path d="M8581,8154.573,8595.574,8140l14.573,14.573" transform="translate(9180 -8118.148) rotate(90)" fill="none" stroke="#003b4e" stroke-width="3"/><path d="M8581,8154.573,8595.574,8140l14.573,14.573" transform="translate(9406.072 -8118.148) rotate(90)" fill="none" stroke="#003b4e" stroke-width="3"/><g transform="translate(120 -5240)"><path d="M16.656,0A.5.5,0,0,0,16.2.7C47.64,72.986,64.535,152.006,64.535,235.868c0,93.548-25.84,192.141-64.484,270.8a.5.5,0,1,0,.9.441c38.709-78.8,64.585-177.512,64.586-271.244,0-84-16.924-163.156-48.42-235.567a.5.5,0,0,0-.458-.3Z" transform="translate(1243 5783.231)" fill="#007889" stroke="#007889" stroke-width="2"/><path d="M16.656,0A.5.5,0,0,0,16.2.7,578.6,578.6,0,0,1,41,68.343c.2.687.434,2.347.434,2.347l.264-.506s-.438-3.286-.642-3.979A551.267,551.267,0,0,0,17.115.3a.5.5,0,0,0-.458-.3Z" transform="translate(1215.231 5731.961) rotate(-7)" fill="#007889" stroke="#007889" stroke-linejoin="round" stroke-width="2"/></g><path d="M-8321-2340a19.886,19.886,0,0,1-7.785-1.572,19.921,19.921,0,0,1-6.357-4.286,19.932,19.932,0,0,1-4.287-6.357A19.872,19.872,0,0,1-8341-2360a19.874,19.874,0,0,1,1.571-7.785,19.933,19.933,0,0,1,4.287-6.357,19.918,19.918,0,0,1,6.357-4.287A19.882,19.882,0,0,1-8321-2380a19.875,19.875,0,0,1,7.785,1.572,19.943,19.943,0,0,1,6.357,4.287,19.933,19.933,0,0,1,4.285,6.357A19.874,19.874,0,0,1-8301-2360a19.873,19.873,0,0,1-1.572,7.785,19.935,19.935,0,0,1-4.285,6.357,19.952,19.952,0,0,1-6.357,4.286A19.879,19.879,0,0,1-8321-2340Zm0-30.5a10.512,10.512,0,0,0-10.5,10.5,10.512,10.512,0,0,0,10.5,10.5,10.512,10.512,0,0,0,10.5-10.5A10.512,10.512,0,0,0-8321-2370.5Z" transform="translate(9668 2836)" fill="url(#d)"/><g transform="translate(651 591.075)"><g transform="translate(34 0)" opacity="0.6"><path d="M64.462,128.925a64.463,64.463,0,1,1,64.462-64.463,64.536,64.536,0,0,1-64.462,64.463m0-125.819a61.356,61.356,0,1,0,61.356,61.356A61.426,61.426,0,0,0,64.462,3.106" transform="translate(0 0)" fill="#003b4e"/><rect width="6.604" height="2.201" transform="translate(61.113 36.946)" fill="#003b4e"/><path d="M26.756,38.955a2.2,2.2,0,1,1-2.2,2.2,2.207,2.207,0,0,1,2.2-2.2m15.41-15.41a1.041,1.041,0,0,1,1.1-1.1H60.877a1.04,1.04,0,0,1,1.1,1.1v6.6a1.039,1.039,0,0,1-1.1,1.1H43.266a1.04,1.04,0,0,1-1.1-1.1ZM79.59,41.156a2.2,2.2,0,1,1-2.2-2.2,2.209,2.209,0,0,1,2.2,2.2m-2.2,18.713a1.04,1.04,0,0,1-1.1-1.1V45.449a3.743,3.743,0,0,0,2.2,0V58.768a1.04,1.04,0,0,1-1.1,1.1m-3.852-20.8-9.357-9.357V26.187L75.3,37.3a4.529,4.529,0,0,0-1.761,1.761m-11.447-.66a4.519,4.519,0,0,0-1.761,1.761l-6.715-6.715h3.523Zm4.293,3.852a2.2,2.2,0,1,1-2.2-2.2,2.207,2.207,0,0,1,2.2,2.2m-2.2,14.31a2.2,2.2,0,1,1,2.2-2.2,2.208,2.208,0,0,1-2.2,2.2m-4.733,4.292a1.062,1.062,0,0,1-1.541,0l-.221-.219a1.065,1.065,0,0,1,0-1.541l2.642-2.642a4.529,4.529,0,0,0,1.761,1.761Zm4.733-10.9c-.329,0-.77.11-1.1.11V46.44a3.743,3.743,0,0,0,2.2,0v3.633c-.329,0-.77-.11-1.1-.11m-4.4-7.156a4.094,4.094,0,0,0,1.1,2.421v6.385a4.89,4.89,0,0,0-1.1,2.422l-2.2,2.2V40.5ZM43.816,40.166a4.508,4.508,0,0,0-1.761-1.761l4.953-4.953h3.523Zm-4.953,21.9V58.658a3.748,3.748,0,0,0,2.2,0V62.07a1.1,1.1,0,1,1-2.2,0m1.1-12.108c-.331,0-.77.11-1.1.11V46.44a3.748,3.748,0,0,0,2.2,0v3.633c-.331,0-.77-.11-1.1-.11m0,6.6a2.2,2.2,0,1,1,2.2-2.2,2.207,2.207,0,0,1-2.2,2.2m0-16.511a2.2,2.2,0,1,1-2.2,2.2,2.208,2.208,0,0,1,2.2-2.2m0-10.348-9.357,9.357A4.508,4.508,0,0,0,28.846,37.3L39.964,26.187ZM26.756,59.869a1.041,1.041,0,0,1-1.1-1.1V45.449c.331,0,.77.11,1.1.11s.77-.11,1.1-.11V58.768a1.041,1.041,0,0,1-1.1,1.1M65.28,75.279v3.3H38.863v-3.3a1.041,1.041,0,0,1,1.1-1.1H64.179a1.04,1.04,0,0,1,1.1,1.1m11.008,6.6v2.2H27.857v-2.2a1.04,1.04,0,0,1,1.1-1.1H75.187a1.041,1.041,0,0,1,1.1,1.1M23.453,58.768a3.206,3.206,0,0,0,2.2,3.082v7.926h2.2V61.85a3.206,3.206,0,0,0,2.2-3.082V44.018a4.892,4.892,0,0,0,1.1-2.421l9.576-9.576a3.141,3.141,0,0,0,2.642,1.32h.66l-4.4,4.4a4.282,4.282,0,0,0-3.852,4.843,4.087,4.087,0,0,0,1.1,2.421v6.384a4.35,4.35,0,0,0,0,5.724V62.07a2.9,2.9,0,0,0,.77,2.091l-2.092,1.872v3.743h2.2V66.913l1.651-1.651a2.254,2.254,0,0,0,1.21,0l1.651,1.651v2.863h2.2V66.032l-1.87-1.872a3.477,3.477,0,0,0,.77-2.091V57.227a4.353,4.353,0,0,0,0-5.724V45.12a4.888,4.888,0,0,0,1.1-2.421l2.2-2.2V71.977h-6.6a3.243,3.243,0,0,0-3.3,3.3v3.3H29.067a3.243,3.243,0,0,0-3.3,3.3v4.4H78.6v-4.4a3.243,3.243,0,0,0-3.3-3.3H67.592v-3.3a3.243,3.243,0,0,0-3.3-3.3h-6.6v-2.2h-2.2v2.2h-6.6V38.295l3.3-3.3,3.3,3.3V58.768a3.908,3.908,0,0,0-.221,1.1H52.842L50.31,62.4l1.541,1.541,1.872-1.872h2.422l.11.11.221.221.11.109v2.423L54.714,66.8l1.541,1.541,2.532-2.532V63.39A3,3,0,0,0,61.1,62.4l3.633-3.633a4.283,4.283,0,0,0,3.852-4.843,4.087,4.087,0,0,0-1.1-2.422V45.12a4.362,4.362,0,0,0-.329-6.165,4.892,4.892,0,0,0-2.421-1.1l-4.4-4.4h.55a3.283,3.283,0,0,0,2.642-1.322L73.1,41.707a4.085,4.085,0,0,0,1.1,2.421V58.768a3.205,3.205,0,0,0,2.2,3.082v7.926h2.2V61.85a3.206,3.206,0,0,0,2.2-3.082V44.018a4.362,4.362,0,0,0-.329-6.165,4.9,4.9,0,0,0-2.421-1.1L64.179,23a3.414,3.414,0,0,0-3.3-2.752H43.266A3.415,3.415,0,0,0,39.964,23L26.206,36.754A4.285,4.285,0,0,0,22.352,41.6a4.1,4.1,0,0,0,1.1,2.421Z" transform="translate(12.344 11.199)" fill="#003b4e"/></g><g transform="translate(0 40.028)"><g fill="#007889" stroke="rgba(0,0,0,0)" stroke-width="1" opacity="0"><rect width="40.896" height="40.896" stroke="none"/><rect x="0.5" y="0.5" width="39.896" height="39.896" fill="none"/></g><path d="M19.04,32.672A13.632,13.632,0,1,1,32.672,19.04,13.65,13.65,0,0,1,19.04,32.672M19.04,2A17.04,17.04,0,1,0,36.08,19.04,17.04,17.04,0,0,0,19.04,2m1.7,8.52H17.336v6.816H10.52v3.408h6.816V27.56h3.408V20.744H27.56V17.336H20.744Z" transform="translate(1.408 1.408)" fill="#007889"/><text transform="translate(41.896 17.896)" fill="#003b4e" stroke="rgba(0,0,0,0)" stroke-width="1" font-size="16" font-family="Gotham-Bold, Gotham" font-weight="700" letter-spacing="0.03em" opacity="0"><tspan x="0" y="0">VEJA</tspan><tspan x="0" y="16">MAIS</tspan></text></g></g><g transform="translate(583 716)"><g transform="translate(36.076)" opacity="0.68"><path d="M64.462,264.482a64.463,64.463,0,1,1,64.462-64.463,64.536,64.536,0,0,1-64.462,64.463m0-125.819a61.356,61.356,0,1,0,61.356,61.356,61.426,61.426,0,0,0-61.356-61.356" transform="translate(0 -135.557)" fill="#003b4e"/><path d="M56.582,160.7A10.516,10.516,0,1,0,67.161,171.26,10.547,10.547,0,0,0,56.582,160.7m0,23.334a12.819,12.819,0,1,1,12.9-12.819v.047a12.881,12.881,0,0,1-12.9,12.772" transform="translate(24.168 -122.922)" fill="#003b4e"/><path d="M58.715,156.865a16.558,16.558,0,1,0,.023,0Zm0,35.243A18.774,18.774,0,1,1,77.6,173.336v.045a18.843,18.843,0,0,1-18.887,18.727" transform="translate(22.034 -125.043)" fill="#003b4e"/><path d="M53.321,175.078a3.709,3.709,0,0,1-3.72-3.7,1.159,1.159,0,0,1,2.317,0,1.4,1.4,0,1,0,1.46-1.336h-.057a3.686,3.686,0,1,1,3.708-3.686,1.159,1.159,0,0,1-2.317,0,1.375,1.375,0,0,0-1.367-1.382h-.023a1.382,1.382,0,1,0,0,2.765h0a3.7,3.7,0,1,1,0,7.393Z" transform="translate(27.441 -120.555)" fill="#003b4e"/><path d="M52.409,165.646a1.155,1.155,0,0,1-1.159-1.151v-1.982a1.159,1.159,0,0,1,2.317,0v1.982a1.155,1.155,0,0,1-1.159,1.151" transform="translate(28.353 -121.281)" fill="#003b4e"/><path d="M52.409,173.461a1.155,1.155,0,0,1-1.159-1.152v-1.98a1.159,1.159,0,0,1,2.317,0v1.98a1.155,1.155,0,0,1-1.159,1.152" transform="translate(28.353 -116.957)" fill="#003b4e"/><path d="M27.853,201.367l18.782,6.461a14.7,14.7,0,0,0,11.483-.842l27.045-13.923a1.942,1.942,0,0,0,1.076-1.325,1.99,1.99,0,0,0-2.479-2.3l-20.486,5.54a4.836,4.836,0,0,1-1.865.379H44.725a1.152,1.152,0,1,1,0-2.3H61.41a2.4,2.4,0,0,0,.915-.183h.127a2.417,2.417,0,0,0-1.042-4.607H50.321a1.164,1.164,0,0,1-.8-.312c-3.232-3.04-8.482-6.679-15.2-6.679H27.853Zm23.533,9.605a17.081,17.081,0,0,1-5.516-.921l-19.558-6.727a1.148,1.148,0,0,1-.777-1.083V180.073a1.155,1.155,0,0,1,1.159-1.153H34.33c7.254,0,12.9,3.731,16.453,6.991H61.41a4.748,4.748,0,0,1,4.75,4.722A4.585,4.585,0,0,1,66,191.785l17.1-4.607a4.286,4.286,0,0,1,3.139,7.935l-27.054,13.97a16.953,16.953,0,0,1-7.8,1.889" transform="translate(14.127 -111.567)" fill="#003b4e"/><path d="M20.35,178.347a1.156,1.156,0,0,0-1.159,1.152v26.546A1.156,1.156,0,0,0,20.35,207.2h8.864a1.157,1.157,0,0,0,1.16-1.153v-26.57a1.157,1.157,0,0,0-1.16-1.152Zm8.843,31.132H20.35a3.464,3.464,0,0,1-3.475-3.454V179.476a3.465,3.465,0,0,1,3.475-3.456h8.864a3.465,3.465,0,0,1,3.476,3.456v26.57a3.466,3.466,0,0,1-3.5,3.433" transform="translate(9.336 -113.171)" fill="#003b4e"/></g><g transform="translate(0 44.014)"><g fill="#007889" stroke="rgba(0,0,0,0)" stroke-width="1" opacity="0"><rect width="40.896" height="40.896" stroke="none"/><rect x="0.5" y="0.5" width="39.896" height="39.896" fill="none"/></g><path d="M19.04,32.672A13.632,13.632,0,1,1,32.672,19.04,13.65,13.65,0,0,1,19.04,32.672M19.04,2A17.04,17.04,0,1,0,36.08,19.04,17.04,17.04,0,0,0,19.04,2m1.7,8.52H17.336v6.816H10.52v3.408h6.816V27.56h3.408V20.744H27.56V17.336H20.744Z" transform="translate(1.408 1.408)" fill="#007889"/><text transform="translate(41.896 17.896)" fill="#003b4e" stroke="rgba(0,0,0,0)" stroke-width="1" font-size="16" font-family="Gotham-Bold, Gotham" font-weight="700" letter-spacing="0.03em" opacity="0"><tspan x="0" y="0">VEJA</tspan><tspan x="0" y="16">MAIS</tspan></text></g></g><g transform="translate(651 840)"><g transform="translate(-508.076 -6151.074)" opacity="0.68"><g transform="translate(542.076 6151.074)"><path d="M64.462,400.038a64.463,64.463,0,1,1,64.462-64.463,64.536,64.536,0,0,1-64.462,64.463m0-125.819a61.356,61.356,0,1,0,61.356,61.356,61.426,61.426,0,0,0-61.356-61.356" transform="translate(0 -271.113)" fill="#003b4e"/><path d="M28.2,315.525V308H45.138v7.529a8.318,8.318,0,0,1-8.217,8.419q-.089,0-.177,0a8.493,8.493,0,0,1-8.544-8.419m0-14.43a3.137,3.137,0,0,1,3.136-3.138H42a3.137,3.137,0,0,1,3.136,3.138v4.391H28.2Zm18.821,28.552a1.256,1.256,0,1,0,1.412-2.077,20.806,20.806,0,0,0-5.916-2.785,10.919,10.919,0,0,0,5.132-9.26V301.1A5.646,5.646,0,0,0,42,295.449H31.336A5.645,5.645,0,0,0,25.69,301.1v14.43a10.882,10.882,0,0,0,5.144,9.215,20.8,20.8,0,0,0-15.183,20.271,1.255,1.255,0,0,0,2.51,0,18.469,18.469,0,0,1,28.859-15.365" transform="translate(8.658 -257.649)" fill="#003b4e"/><path d="M75.356,350.6a3.037,3.037,0,1,1-3.043-3.03h.006a3.037,3.037,0,0,1,3.037,3.03M58.837,342.6l-6.643-9.046a27.431,27.431,0,0,1,6.9-.873,26.508,26.508,0,0,1,6.424.8ZM45.919,317.622V306.957h8.088c.954,1,6.274,5.978,17.635,6.412v4.253A12.416,12.416,0,0,1,59.359,330.17H59.1c-7.266,0-13.176-5.648-13.176-12.549m0-20.7c0-2.672,2.642-5.018,5.648-5.018H66.624a4.963,4.963,0,0,1,5.019,4.905v7.642H45.919Zm25.723,13.94c-6.82-.283-11.224-2.333-13.633-3.9H71.642Zm-5.584,20.164a14.885,14.885,0,0,0,8.092-13.4v-20.7a7.447,7.447,0,0,0-7.364-7.529H51.567c-4.393,0-8.156,3.451-8.156,7.529v20.7a15.011,15.011,0,0,0,8.557,13.408,30.165,30.165,0,0,0-22.986,29.255,1.254,1.254,0,0,0,2.508,0,27.6,27.6,0,0,1,15.164-24.631,27,27,0,0,0-.8,4.692,8.131,8.131,0,0,0-6.205,8.018v9.411a4.134,4.134,0,0,0,3.765,3.763,1.254,1.254,0,1,0,0-2.508,1.834,1.834,0,0,1-1.255-1.255v-9.411c0-3.061,2.3-5.646,5.019-5.646s5.02,2.585,5.02,5.646v9.411a1.84,1.84,0,0,1-1.255,1.255,1.254,1.254,0,1,0,0,2.508,4.134,4.134,0,0,0,3.763-3.763v-9.411a8.109,8.109,0,0,0-6.329-8.036,18.642,18.642,0,0,1,1.385-5.879l8.081,11.011a1.251,1.251,0,0,0,2.025,0l8.063-11.023c1.951,3.363,2.748,8.513,3.016,10.8a5.537,5.537,0,1,0,2.51-.057,40.068,40.068,0,0,0-2.182-9.51,27.7,27.7,0,0,1,14.8,24.613,1.254,1.254,0,0,0,2.508,0,30.05,30.05,0,0,0-22.522-29.261" transform="translate(16.033 -261.001)" fill="#003b4e"/><path d="M53.07,295.355H51.187v-1.883a1.254,1.254,0,1,0-2.508,0v1.883H46.8a1.255,1.255,0,1,0,0,2.51h1.883v1.881a1.254,1.254,0,1,0,2.508,0v-1.881H53.07a1.255,1.255,0,1,0,0-2.51" transform="translate(25.195 -259.438)" fill="#003b4e"/></g></g><g transform="translate(0 43.553)"><g fill="#007889" stroke="rgba(0,0,0,0)" stroke-width="1" opacity="0"><rect width="40.896" height="40.896" stroke="none"/><rect x="0.5" y="0.5" width="39.896" height="39.896" fill="none"/></g><path d="M19.04,32.672A13.632,13.632,0,1,1,32.672,19.04,13.65,13.65,0,0,1,19.04,32.672M19.04,2A17.04,17.04,0,1,0,36.08,19.04,17.04,17.04,0,0,0,19.04,2m1.7,8.52H17.336v6.816H10.52v3.408h6.816V27.56h3.408V20.744H27.56V17.336H20.744Z" transform="translate(1.408 1.408)" fill="#007889"/><text transform="translate(41.896 17.896)" fill="#003b4e" stroke="rgba(0,0,0,0)" stroke-width="1" font-size="16" font-family="Gotham-Bold, Gotham" font-weight="700" letter-spacing="0.03em" opacity="0"><tspan x="0" y="0">VEJA</tspan><tspan x="0" y="16">MAIS</tspan></text></g></g><g transform="translate(1088.584 960)"><text transform="translate(60 10.135)" fill="#007889" stroke="rgba(0,0,0,0)" stroke-miterlimit="10" stroke-width="1" font-size="20" font-family="Gotham-Bold, Gotham" font-weight="700" letter-spacing="0.02em"><tspan x="0" y="16">SUBPRODUTOS</tspan></text><g transform="translate(-1859 -1233.729)"><path d="M44.374,31.349a14.686,14.686,0,0,1-2.459,5.31,3.553,3.553,0,0,0-.447.782c-.112.168-.168.335-.28.5a43,43,0,0,0-3.353-6.595c-.223-.335-.391-.67-.615-1.006L32.861,22.8l4.359-2.515c.447-.28.9-.5,1.342-.783l4.527,8.551c.111.224.279.447.391.671a3.842,3.842,0,0,1,.894,2.626m-5.309,8.5a5.059,5.059,0,0,1-1.845.112H31.352a.925.925,0,0,0-.95.838L27.273,36.77l3.073-4.135v.782l6.539-.056a28.352,28.352,0,0,1,2.906,6.2c-.223.112-.447.167-.726.279M44.821,27.1,39.4,16.819l-.894.5c-.727.447-1.453.838-2.18,1.285l-4.359,2.515c-.168.112-.391.224-.559.335l-1.062.615,5.31,9.222c.055.055.055.111.111.167H32.3l.056-4.694-7.545,9.948,7.433,9.556.056-2.738V41.856H37.22a8.592,8.592,0,0,0,2.348-.223,3.743,3.743,0,0,0,1.844-1.006l.112-.112A7.124,7.124,0,0,0,43.2,38.279c.168-.223.28-.5.392-.67a17.077,17.077,0,0,0,2.738-6.092,5.943,5.943,0,0,0-1.118-3.856,1.434,1.434,0,0,1-.391-.559" transform="translate(1859 1233.729)" fill="#007889"/><path d="M10.4,39.174H9.612a4.335,4.335,0,0,1-2.738-.559,15.21,15.21,0,0,1-3.409-4.75,5.587,5.587,0,0,0-.448-.783c-.111-.167-.167-.335-.279-.5a40.478,40.478,0,0,0,7.377.392h9.892v6.538Zm-8.16-9.445a7.834,7.834,0,0,1,.838-1.676,1.713,1.713,0,0,0,.28-.5c.391-.615,1.062-1.789,1.62-2.8.336-.559.559-1.006.727-1.285a3.29,3.29,0,0,0,.224-.391.175.175,0,0,0,.055-.112.912.912,0,0,0-.223-1.23l5.086-.726L12.854,25.7l-.671-.335L8.941,31.015A27.67,27.67,0,0,1,2.123,30.4a4.126,4.126,0,0,1,.112-.671M22.019,32.3V31.071H11.233l1.732-3.018,4.08,2.4-5.03-11.513L0,20.62l2.4,1.4s.782.447,1.453.838c-.615,1.118-1.733,3.018-2.18,3.8-.167.224-.223.448-.279.5A8.281,8.281,0,0,0,.391,29.282,3.735,3.735,0,0,0,.335,31.35v.112a7.659,7.659,0,0,0,1.118,2.571,4.642,4.642,0,0,1,.391.726,16.415,16.415,0,0,0,3.912,5.365,5.939,5.939,0,0,0,3.912.95H10.4l11.624.447V32.3Z" transform="translate(1859 1233.729)" fill="#007889"/><path d="M24.869,8.045A31.656,31.656,0,0,1,28.781,2.4a1.976,1.976,0,0,1,.559.447A10.93,10.93,0,0,1,30.4,4.412c.056.056.112.224.279.5.336.615,1.006,1.788,1.621,2.794.335.559.559,1.006.727,1.286a3.243,3.243,0,0,1,.223.391.173.173,0,0,1,.056.112.989.989,0,0,0,1.174.447l-1.956,4.75L27.44,14.08l.671-.391Zm-2.235.111c-.168.336-.392.671-.615,1.062L17.66,16.763c-1.453-.838-2.962-1.677-4.359-2.515-.448-.279-.895-.5-1.342-.782L17.1,5.25a4.154,4.154,0,0,0,.391-.67,4.215,4.215,0,0,1,1.844-2.068,15.167,15.167,0,0,1,5.813-.559H26.6a44.9,44.9,0,0,0-3.968,6.2m11.233,8.607L38.45,5.53l-2.459,1.4s-.783.447-1.453.838c-.615-1.118-1.733-3.018-2.18-3.8-.168-.224-.224-.447-.279-.5a10.218,10.218,0,0,0-1.342-1.956A3.494,3.494,0,0,0,28.949.444L28.837.388A8,8,0,0,0,26.043.053H25.26a16.224,16.224,0,0,0-6.594.67,5.648,5.648,0,0,0-2.8,2.907,2.274,2.274,0,0,1-.391.614l-6.2,9.836.894.5c.726.448,1.453.839,2.18,1.286l4.359,2.515c.167.111.391.223.559.335l1.061.615,5.31-9.222c.056-.055.056-.111.111-.167l1.733,3.018L21.46,15.31Z" transform="translate(1859 1233.729)" fill="#007889"/></g><g transform="translate(238 2.715)"><g fill="#007889" stroke="rgba(0,0,0,0)" stroke-width="1" opacity="0"><rect width="40.896" height="40.896" stroke="none"/><rect x="0.5" y="0.5" width="39.896" height="39.896" fill="none"/></g><path d="M19.04,32.672A13.632,13.632,0,1,1,32.672,19.04,13.65,13.65,0,0,1,19.04,32.672M19.04,2A17.04,17.04,0,1,0,36.08,19.04,17.04,17.04,0,0,0,19.04,2m1.7,8.52H17.336v6.816H10.52v3.408h6.816V27.56h3.408V20.744H27.56V17.336H20.744Z" transform="translate(1.408 1.408)" fill="#007889"/><text transform="translate(41.896 17.896)" fill="#003b4e" stroke="rgba(0,0,0,0)" stroke-width="1" font-size="16" font-family="Gotham-Bold, Gotham" font-weight="700" letter-spacing="0.03em" opacity="0"><tspan x="0" y="0">VEJA</tspan><tspan x="0" y="16">MAIS</tspan></text></g></g><g transform="translate(1130.999 429)"><text transform="translate(0.001 85)" fill="#003b4e" font-size="20" font-family="Gotham-Book, Gotham" letter-spacing="0.02em"><tspan x="0" y="16">(nossa entrega </tspan><tspan x="0" y="40">de valor)</tspan></text><text transform="translate(0.001)" fill="#003b4e" font-size="20" font-family="Gotham-Bold, Gotham" font-weight="700" letter-spacing="0.02em"><tspan x="0" y="16">OUTPUT</tspan></text><path d="M-8321-2340a19.886,19.886,0,0,1-7.785-1.572,19.921,19.921,0,0,1-6.357-4.286,19.932,19.932,0,0,1-4.287-6.357A19.872,19.872,0,0,1-8341-2360a19.874,19.874,0,0,1,1.571-7.785,19.933,19.933,0,0,1,4.287-6.357,19.918,19.918,0,0,1,6.357-4.287A19.882,19.882,0,0,1-8321-2380a19.875,19.875,0,0,1,7.785,1.572,19.943,19.943,0,0,1,6.357,4.287,19.933,19.933,0,0,1,4.285,6.357A19.874,19.874,0,0,1-8301-2360a19.873,19.873,0,0,1-1.572,7.785,19.935,19.935,0,0,1-4.285,6.357,19.952,19.952,0,0,1-6.357,4.286A19.879,19.879,0,0,1-8321-2340Zm0-30.5a10.512,10.512,0,0,0-10.5,10.5,10.512,10.512,0,0,0,10.5,10.5,10.512,10.512,0,0,0,10.5-10.5A10.512,10.512,0,0,0-8321-2370.5Z" transform="translate(8341.001 2407)" fill="url(#d)"/><g transform="translate(161.001 90.104)"><g fill="#007889" stroke="rgba(0,0,0,0)" stroke-width="1" opacity="0"><rect width="40.896" height="40.896" stroke="none"/><rect x="0.5" y="0.5" width="39.896" height="39.896" fill="none"/></g><path d="M19.04,32.672A13.632,13.632,0,1,1,32.672,19.04,13.65,13.65,0,0,1,19.04,32.672M19.04,2A17.04,17.04,0,1,0,36.08,19.04,17.04,17.04,0,0,0,19.04,2m1.7,8.52H17.336v6.816H10.52v3.408h6.816V27.56h3.408V20.744H27.56V17.336H20.744Z" transform="translate(1.408 1.408)" fill="#007889"/><text transform="translate(41.896 17.896)" fill="#003b4e" stroke="rgba(0,0,0,0)" stroke-width="1" font-size="16" font-family="Gotham-Bold, Gotham" font-weight="700" letter-spacing="0.03em" opacity="0"><tspan x="0" y="0">VEJA</tspan><tspan x="0" y="16">MAIS</tspan></text></g></g><g transform="translate(881 572)"><text fill="#fff" font-size="20" font-family="Gotham-Bold, Gotham" font-weight="700" letter-spacing="0.02em"><tspan x="0" y="16">SAÚDE </tspan><tspan x="0" y="40">PRIVADA</tspan></text><g transform="translate(105.052 0.714)"><g fill="#f5f5f5" stroke="rgba(0,0,0,0)" stroke-width="1" opacity="0"><rect width="40.896" height="40.896" stroke="none"/><rect x="0.5" y="0.5" width="39.896" height="39.896" fill="none"/></g><path d="M19.04,32.672A13.632,13.632,0,1,1,32.672,19.04,13.65,13.65,0,0,1,19.04,32.672M19.04,2A17.04,17.04,0,1,0,36.08,19.04,17.04,17.04,0,0,0,19.04,2m1.7,8.52H17.336v6.816H10.52v3.408h6.816V27.56h3.408V20.744H27.56V17.336H20.744Z" transform="translate(1.408 1.408)" fill="#f5f5f5"/><text transform="translate(41.896 17.896)" fill="#f5f5f5" stroke="rgba(0,0,0,0)" stroke-width="1" font-size="16" font-family="Gotham-Bold, Gotham" font-weight="700" letter-spacing="0.03em" opacity="0"><tspan x="0" y="0">VEJA</tspan><tspan x="0" y="16">MAIS</tspan></text></g></g><g transform="translate(928 684)"><text fill="#fff" font-size="20" font-family="Gotham-Bold, Gotham" font-weight="700" letter-spacing="0.02em"><tspan x="0" y="16">EDUCAÇÃO, </tspan><tspan x="0" y="40">PESQUISA, </tspan><tspan x="0" y="64">INOVAÇÃO E </tspan><tspan x="0" y="88">SAÚDE DIGITAL</tspan></text><g transform="translate(152 19)"><g fill="#f5f5f5" stroke="rgba(0,0,0,0)" stroke-width="1" opacity="0"><rect width="40.896" height="40.896" stroke="none"/><rect x="0.5" y="0.5" width="39.896" height="39.896" fill="none"/></g><path d="M19.04,32.672A13.632,13.632,0,1,1,32.672,19.04,13.65,13.65,0,0,1,19.04,32.672M19.04,2A17.04,17.04,0,1,0,36.08,19.04,17.04,17.04,0,0,0,19.04,2m1.7,8.52H17.336v6.816H10.52v3.408h6.816V27.56h3.408V20.744H27.56V17.336H20.744Z" transform="translate(1.408 1.408)" fill="#f5f5f5"/><text transform="translate(41.896 17.896)" fill="#f5f5f5" stroke="rgba(0,0,0,0)" stroke-width="1" font-size="16" font-family="Gotham-Bold, Gotham" font-weight="700" letter-spacing="0.03em" opacity="0"><tspan x="0" y="0">VEJA</tspan><tspan x="0" y="16">MAIS</tspan></text></g></g><g transform="translate(856 844.926)"><text transform="translate(0 17.074)" fill="#fff" font-size="20" font-family="Gotham-Bold, Gotham" font-weight="700" letter-spacing="0.02em"><tspan x="0" y="16">SUSTENTABILIDADE </tspan><tspan x="0" y="40">E RESPONSABILIDADE </tspan><tspan x="0" y="64">SOCIAL </tspan></text><g transform="translate(219)"><g fill="#f5f5f5" stroke="rgba(0,0,0,0)" stroke-width="1" opacity="0"><rect width="40.896" height="40.896" stroke="none"/><rect x="0.5" y="0.5" width="39.896" height="39.896" fill="none"/></g><path d="M19.04,32.672A13.632,13.632,0,1,1,32.672,19.04,13.65,13.65,0,0,1,19.04,32.672M19.04,2A17.04,17.04,0,1,0,36.08,19.04,17.04,17.04,0,0,0,19.04,2m1.7,8.52H17.336v6.816H10.52v3.408h6.816V27.56h3.408V20.744H27.56V17.336H20.744Z" transform="translate(1.408 1.408)" fill="#f5f5f5"/><text transform="translate(41.896 17.896)" fill="#f5f5f5" stroke="rgba(0,0,0,0)" stroke-width="1" font-size="16" font-family="Gotham-Bold, Gotham" font-weight="700" letter-spacing="0.03em" opacity="0"><tspan x="0" y="0">VEJA</tspan><tspan x="0" y="16">MAIS</tspan></text></g></g><g transform="translate(854 955.553)"><text transform="translate(0 18.447)" fill="#003b4e" font-size="20" font-family="Gotham-Bold, Gotham" font-weight="700" letter-spacing="0.02em"><tspan x="0" y="16">MODELO </tspan><tspan x="0" y="40">ASSISTENCIAL </tspan><tspan x="0" y="64">HAOC</tspan></text><g transform="translate(105)"><g fill="#003b4e" stroke="rgba(0,0,0,0)" stroke-width="1" opacity="0"><rect width="40.896" height="40.896" stroke="none"/><rect x="0.5" y="0.5" width="39.896" height="39.896" fill="none"/></g><path d="M19.04,32.672A13.632,13.632,0,1,1,32.672,19.04,13.65,13.65,0,0,1,19.04,32.672M19.04,2A17.04,17.04,0,1,0,36.08,19.04,17.04,17.04,0,0,0,19.04,2m1.7,8.52H17.336v6.816H10.52v3.408h6.816V27.56h3.408V20.744H27.56V17.336H20.744Z" transform="translate(1.408 1.408)" fill="#003b4e"/><text transform="translate(41.896 17.896)" fill="#003b4e" stroke="rgba(0,0,0,0)" stroke-width="1" font-size="16" font-family="Gotham-Bold, Gotham" font-weight="700" letter-spacing="0.03em" opacity="0"><tspan x="0" y="0">VEJA</tspan><tspan x="0" y="16">MAIS</tspan></text></g></g></g></svg>