<svg xmlns="http://www.w3.org/2000/svg" xmlns:xlink="http://www.w3.org/1999/xlink" width="1920" height="1400" viewBox="0 0 1920 1400"><defs><clipPath id="a"><rect width="1920" height="1400" transform="translate(0 5040)" fill="#fff" stroke="#707070" stroke-width="1"/></clipPath><clipPath id="b"><rect width="1230.474" height="1730.96" fill="none"/></clipPath><clipPath id="c"><path d="M957.049,900.541c0-327.518-265.506-593.024-593.024-593.024h-.362v1186.04h.362c327.518,0,593.024-265.506,593.024-593.024" transform="translate(351 5117)" fill="#fff"/></clipPath><linearGradient id="d" x1="0.141" y1="0.5" x2="1.072" y2="0.185" gradientUnits="objectBoundingBox"><stop offset="0" stop-color="#003b4e"/><stop offset="1" stop-color="#7bdce0"/></linearGradient><clipPath id="i"><rect width="107.255" height="107.255" fill="none"/></clipPath></defs><g transform="translate(0 160)"><g transform="translate(1560 591)"><rect width="360" height="280" rx="48" fill="#f7ffda"/></g><g transform="translate(0 -5200)" clip-path="url(#a)"><g transform="translate(471 5077)"><g clip-path="url(#b)"><path d="M1230.474,865.48C1230.474,387.489,842.985,0,364.994,0c-.176,0-.351.007-.528.007V1730.953c.177,0,.352.007.528.007,477.991,0,865.48-387.489,865.48-865.48" fill="#e2fe0a"/><path d="M957.049,900.541c0-327.518-265.506-593.024-593.024-593.024h-.362v1186.04h.362c327.518,0,593.024-265.506,593.024-593.024" fill="#fff"/><g transform="translate(-351 -5117)" clip-path="url(#c)"><rect width="590" height="430" transform="translate(920 6176)" fill="#c7ec5f"/></g><circle cx="251.595" cy="251.595" r="251.595" transform="translate(114.534 650.548)" fill="none" stroke="#000" stroke-width="0.1"/><path d="M367.129,1210.8c170.469,0,308.661-138.192,308.661-308.661S537.6,593.482,367.129,593.482,58.468,731.674,58.468,902.143,196.66,1210.8,367.129,1210.8" fill="#007889"/><path d="M0,890.324c0,201.566,163.4,364.968,364.968,364.968h.222V525.359h-.222C163.4,525.356,0,688.758,0,890.324" fill="#7bdce0"/><path d="M367.138,1075.277l-1.948,136.289h.19c106.709,0,200.891-53.975,257.062-136.276" fill="#00b1bb"/><path d="M366.129,978.313a74.185,74.185,0,1,0-74.185-74.185,74.185,74.185,0,0,0,74.185,74.185" fill="#fff"/></g></g></g><text transform="translate(876 444)" fill="#003b4e" font-size="20" font-family="Gotham-Bold, Gotham" font-weight="700" letter-spacing="0.02em"><tspan x="0" y="0">ATIVIDADES-CHAVE</tspan></text><text transform="translate(378 475)" fill="#003b4e" font-size="18" font-family="Gotham-Book, Gotham" letter-spacing="0.02em"><tspan x="0" y="0">(nossos impactos)</tspan></text><text transform="translate(347 440)" fill="#003b4e" font-size="20" font-family="Gotham-Bold, Gotham" font-weight="700" letter-spacing="0.02em"><tspan x="0" y="0">CAPITAIS ACESSADOS</tspan></text><path d="M209.218-96.57l-242.8.013a.5.5,0,0,0-.5.5.5.5,0,0,0,.5.5l242.3-.013V123.882c-48.921.357-87.713,40.013-87.8,89a89,89,0,0,0,88.5,89l-.668,201.555a.5.5,0,0,0,1,0l.669-202.05-.5-.5a88.116,88.116,0,0,1-88-88c0-48.609,38.7-88,87.3-88l.5-.5V-96.07Z" transform="translate(626.581 568.07)" fill="#007889" stroke="#003b4e" stroke-width="2"/><path d="M-8321-2340a19.885,19.885,0,0,1-7.785-1.572,19.907,19.907,0,0,1-6.357-4.286,19.926,19.926,0,0,1-4.287-6.357A19.852,19.852,0,0,1-8341-2360a19.869,19.869,0,0,1,1.572-7.785,19.943,19.943,0,0,1,4.288-6.357,19.922,19.922,0,0,1,6.356-4.287A19.888,19.888,0,0,1-8321-2380a19.873,19.873,0,0,1,7.785,1.572,19.926,19.926,0,0,1,6.357,4.287,19.942,19.942,0,0,1,4.285,6.357A19.881,19.881,0,0,1-8301-2360a19.869,19.869,0,0,1-1.572,7.785,19.94,19.94,0,0,1-4.285,6.357,19.957,19.957,0,0,1-6.357,4.286A19.873,19.873,0,0,1-8321-2340Zm0-30.5a10.511,10.511,0,0,0-10.5,10.5,10.511,10.511,0,0,0,10.5,10.5,10.511,10.511,0,0,0,10.5-10.5A10.511,10.511,0,0,0-8321-2370.5Z" transform="translate(8901 2832)" fill="url(#d)"/><path d="M191.948.187a.5.5,0,0,0,.073.707c70.323,56.852,112.823,141.592,112.825,239.074,0,171.284-133.078,310.108-304.346,310.11a.5.5,0,0,0,0,1.006c171.83-.312,305.045-139.3,305.35-311.116C305.85,142.19,263.2,57.143,192.65.112a.5.5,0,0,0-.706.075" transform="translate(840 537.914)" fill="#007889" stroke="#003b4e" stroke-width="2"/><path d="M-8321-2340a19.885,19.885,0,0,1-7.785-1.572,19.907,19.907,0,0,1-6.357-4.286,19.926,19.926,0,0,1-4.287-6.357A19.852,19.852,0,0,1-8341-2360a19.869,19.869,0,0,1,1.572-7.785,19.943,19.943,0,0,1,4.288-6.357,19.922,19.922,0,0,1,6.356-4.287A19.888,19.888,0,0,1-8321-2380a19.873,19.873,0,0,1,7.785,1.572,19.926,19.926,0,0,1,6.357,4.287,19.942,19.942,0,0,1,4.285,6.357A19.881,19.881,0,0,1-8301-2360a19.869,19.869,0,0,1-1.572,7.785,19.94,19.94,0,0,1-4.285,6.357,19.957,19.957,0,0,1-6.357,4.286A19.873,19.873,0,0,1-8321-2340Zm0-30.5a10.511,10.511,0,0,0-10.5,10.5,10.511,10.511,0,0,0,10.5,10.5,10.511,10.511,0,0,0,10.5-10.5A10.511,10.511,0,0,0-8321-2370.5Z" transform="translate(9157 3448)" fill="url(#d)"/><path d="M191.948.187a.5.5,0,0,0,.073.707,301.58,301.58,0,0,1,89.592,119.578l.281.681,1.027-.146-.034-.084-.257-.625A302.159,302.159,0,0,0,192.655.112a.5.5,0,0,0-.706.075" transform="matrix(0.883, -0.469, 0.469, 0.883, 729.479, 566.367)" fill="#007889" stroke="#003b4e" stroke-width="2"/><text transform="translate(1394 476)" fill="#003b4e" font-size="20" font-family="Gotham-Book, Gotham" letter-spacing="0.02em"><tspan x="0" y="0">(nossos impactos)</tspan></text><text transform="translate(1331 445)" fill="#003b4e" font-size="20" font-family="Gotham-Bold, Gotham" font-weight="700" letter-spacing="0.02em"><tspan x="0" y="0">OUTCOMES</tspan></text><path d="M0,0H238" transform="translate(898.5 475.999)" fill="none" stroke="#003b4e" stroke-width="3"/><path d="M0,0H162.166" transform="translate(1171 475.999)" fill="none" stroke="#003b4e" stroke-width="3"/><path d="M-8321-2340a19.885,19.885,0,0,1-7.785-1.572,19.907,19.907,0,0,1-6.357-4.286,19.926,19.926,0,0,1-4.287-6.357A19.852,19.852,0,0,1-8341-2360a19.869,19.869,0,0,1,1.572-7.785,19.943,19.943,0,0,1,4.288-6.357,19.922,19.922,0,0,1,6.356-4.287A19.888,19.888,0,0,1-8321-2380a19.873,19.873,0,0,1,7.785,1.572,19.926,19.926,0,0,1,6.357,4.287,19.942,19.942,0,0,1,4.285,6.357A19.881,19.881,0,0,1-8301-2360a19.869,19.869,0,0,1-1.572,7.785,19.94,19.94,0,0,1-4.285,6.357,19.957,19.957,0,0,1-6.357,4.286A19.873,19.873,0,0,1-8321-2340Zm0-30.5a10.511,10.511,0,0,0-10.5,10.5,10.511,10.511,0,0,0,10.5,10.5,10.511,10.511,0,0,0,10.5-10.5A10.511,10.511,0,0,0-8321-2370.5Z" transform="translate(9205 2836)" fill="url(#d)"/><path d="M8581,8154.573,8595.574,8140l14.573,14.573" transform="translate(9431.287 8712.715) rotate(180)" fill="none" stroke="#003b4e" stroke-width="3"/><path d="M8581,8154.573,8595.574,8140l14.573,14.573" transform="translate(-7450.147 -7366.824)" fill="none" stroke="#003b4e" stroke-width="3"/><path d="M8581,8154.573,8595.574,8140l14.573,14.573" transform="translate(9180 -8118.148) rotate(90)" fill="none" stroke="#003b4e" stroke-width="3"/><path d="M8581,8154.573,8595.574,8140l14.573,14.573" transform="translate(9406.072 -8118.148) rotate(90)" fill="none" stroke="#003b4e" stroke-width="3"/><g transform="translate(120 -5240)"><path d="M16.656,0A.5.5,0,0,0,16.2.7C47.64,72.986,64.535,152.006,64.535,235.868c0,93.548-25.84,192.141-64.484,270.8a.5.5,0,1,0,.9.441C39.66,428.309,65.536,329.6,65.537,235.865c0-84-16.924-163.156-48.42-235.567a.5.5,0,0,0-.458-.3Z" transform="translate(1243 5783.231)" fill="#007889" stroke="#007889" stroke-width="2"/><path d="M16.656,0A.5.5,0,0,0,16.2.7,578.6,578.6,0,0,1,41,68.343c.2.687.434,2.347.434,2.347l.264-.506s-.438-3.286-.642-3.979A551.259,551.259,0,0,0,17.115.3a.5.5,0,0,0-.458-.3Z" transform="translate(1215.231 5731.961) rotate(-7)" fill="#007889" stroke="#007889" stroke-linejoin="round" stroke-width="2"/></g><path d="M-8321-2340a19.885,19.885,0,0,1-7.785-1.572,19.907,19.907,0,0,1-6.357-4.286,19.926,19.926,0,0,1-4.287-6.357A19.852,19.852,0,0,1-8341-2360a19.869,19.869,0,0,1,1.572-7.785,19.943,19.943,0,0,1,4.288-6.357,19.922,19.922,0,0,1,6.356-4.287A19.888,19.888,0,0,1-8321-2380a19.873,19.873,0,0,1,7.785,1.572,19.926,19.926,0,0,1,6.357,4.287,19.942,19.942,0,0,1,4.285,6.357A19.881,19.881,0,0,1-8301-2360a19.869,19.869,0,0,1-1.572,7.785,19.94,19.94,0,0,1-4.285,6.357,19.957,19.957,0,0,1-6.357,4.286A19.873,19.873,0,0,1-8321-2340Zm0-30.5a10.511,10.511,0,0,0-10.5,10.5,10.511,10.511,0,0,0,10.5,10.5,10.511,10.511,0,0,0,10.5-10.5A10.511,10.511,0,0,0-8321-2370.5Z" transform="translate(9668 2836)" fill="url(#d)"/><g transform="translate(1130.999 429)"><text transform="translate(0.001 16)" fill="#003b4e" font-size="20" font-family="Gotham-Bold, Gotham" font-weight="700" letter-spacing="0.02em"><tspan x="0" y="0">OUTPUT</tspan></text><path d="M-8321-2340a19.885,19.885,0,0,1-7.785-1.572,19.907,19.907,0,0,1-6.357-4.286,19.926,19.926,0,0,1-4.287-6.357A19.852,19.852,0,0,1-8341-2360a19.869,19.869,0,0,1,1.572-7.785,19.943,19.943,0,0,1,4.288-6.357,19.922,19.922,0,0,1,6.356-4.287A19.888,19.888,0,0,1-8321-2380a19.873,19.873,0,0,1,7.785,1.572,19.926,19.926,0,0,1,6.357,4.287,19.942,19.942,0,0,1,4.285,6.357A19.881,19.881,0,0,1-8301-2360a19.869,19.869,0,0,1-1.572,7.785,19.94,19.94,0,0,1-4.285,6.357,19.957,19.957,0,0,1-6.357,4.286A19.873,19.873,0,0,1-8321-2340Zm0-30.5a10.511,10.511,0,0,0-10.5,10.5,10.511,10.511,0,0,0,10.5,10.5,10.511,10.511,0,0,0,10.5-10.5A10.511,10.511,0,0,0-8321-2370.5Z" transform="translate(8341.001 2407)" fill="url(#d)"/></g><g transform="translate(783.373 727.835)"><g transform="translate(0 0)" clip-path="url(#i)"><path d="M53.675,54.51A26.276,26.276,0,0,1,27.381,28.2H0A53.741,53.741,0,0,0,53.675,81.916Z" transform="translate(0 25.34)" fill="#004b60"/><path d="M27.381,53.541A26.337,26.337,0,0,1,53.675,27.162V0A53.594,53.594,0,0,0,0,53.541Z" transform="translate(0 0.001)" fill="#00899a"/><path d="M28.273,27.163a26.448,26.448,0,0,1,26.408,26.4l27.173-.017A53.514,53.514,0,0,0,28.273,0Z" transform="translate(25.402 0)" fill="#00bec6"/><path d="M40.717,32.181A4.026,4.026,0,0,1,36.654,28.2H14.423A26.267,26.267,0,0,0,40.717,54.509Z" transform="translate(12.958 25.339)" fill="#00899a"/><path d="M28.273,54.51A26.349,26.349,0,0,0,54.681,28.22L32.237,28.2a3.941,3.941,0,0,1-3.964,3.979Z" transform="translate(25.402 25.34)" fill="#004b60"/><path d="M40.717,14.308A26.328,26.328,0,0,0,14.423,40.687H36.654a4.085,4.085,0,0,1,4.063-4.049Z" transform="translate(12.958 12.856)" fill="#00bec6"/></g></g></g></svg>