<svg xmlns="http://www.w3.org/2000/svg" width="3098.771" height="1550.331" viewBox="0 0 3098.771 1550.331"><g transform="translate(1107 0)"><g transform="translate(2155.771 -527.162) rotate(90)"><path d="M1914.8,1549.385C1914.8,693.684,1221.112,0,365.411,0c-.315,0-.628.013-.945.013V3098.759c.317,0,.63.012.945.012,855.7,0,1549.385-693.684,1549.385-1549.385" transform="translate(162.696 164)" fill="#e2fc36"/></g><g transform="translate(1735.262 -527.162) rotate(90)"><path d="M1493.786,1128.631C1493.786,505.306,988.48,0,365.155,0c-.23,0-.458.009-.689.009V2257.253c.231,0,.459.009.689.009,623.325,0,1128.631-505.306,1128.631-1128.631" transform="translate(162.696 164)" fill="#fff"/></g><g transform="translate(1538.549 -527.162) rotate(90)"><path d="M1296.809,931.775C1296.809,417.17,879.639,0,365.034,0c-.19,0-.378.008-.568.008V1863.542c.191,0,.379.008.568.008,514.6,0,931.775-417.17,931.775-931.775" transform="translate(162.696 164)" fill="#167889"/></g><path d="M0,523.341c0,289.033,234.308,523.341,523.341,523.341.106,0,.212,0,.318,0V0c-.106,0-.212,0-.318,0C234.308,0,0,234.308,0,523.341" transform="translate(-81 523.659) rotate(-90)" fill="#7bdce0"/><path d="M0,176.3a176.3,176.3,0,0,0,176.3,176.3h.107V0H176.3A176.3,176.3,0,0,0,0,176.3" transform="translate(266.904 176.403) rotate(-90)" fill="#fff"/></g></svg>