<svg xmlns="http://www.w3.org/2000/svg" width="497.308" height="2508.77" viewBox="0 0 497.308 2508.77"><g transform="translate(6.57 0)"><g transform="translate(-6.071 -28)"><path d="M0,467.716C0,726.028,209.4,935.432,467.716,935.432c.095,0,.19,0,.285,0V0c-.095,0-.19,0-.285,0C209.4,0,0,209.4,0,467.716" transform="translate(468.001 963.432) rotate(180)" fill="#7bdce0"/><path d="M0,103.086A103.086,103.086,0,0,0,103.086,206.173h.063V0h-.063A103.086,103.086,0,0,0,0,103.086" transform="translate(103.149 599.026) rotate(180)" fill="#fff"/></g><path d="M-1941.933,1495.221h0L-2219.07,1226.19V763h.138l.117,0a425.168,425.168,0,0,1,42.785,2.16,419.528,419.528,0,0,1,41.549,6.341c13.481,2.759,26.974,6.228,40.1,10.311,12.981,4.037,25.916,8.772,38.446,14.072a418.494,418.494,0,0,1,71.081,38.582,421.482,421.482,0,0,1,61.931,51.1,421.47,421.47,0,0,1,51.1,61.931,418.5,418.5,0,0,1,38.582,71.081c5.3,12.529,10.034,25.465,14.072,38.446,4.083,13.128,7.553,26.621,10.311,40.1a419.52,419.52,0,0,1,6.341,41.549,425.221,425.221,0,0,1,2.16,42.785,424.809,424.809,0,0,1-2.522,46.207,419.066,419.066,0,0,1-7.39,44.743,417.046,417.046,0,0,1-11.992,43.013,417.291,417.291,0,0,1-16.327,41.016,419.082,419.082,0,0,1-44.6,74.98,421.693,421.693,0,0,1-58.747,63.8Z" transform="translate(2213 -34)" fill="#167889" stroke="rgba(0,0,0,0)" stroke-miterlimit="10" stroke-width="1"/><path d="M-1941.933,1091.422h0l-277.137-269.033V763l404.176,124.4a416.013,416.013,0,0,1-49,112.033,420.234,420.234,0,0,1-78.039,91.991Z" transform="translate(2213 369.8)" fill="#26b1bb"/><path d="M-1956.453,1276.415V902.692l277.353,268.842a416.9,416.9,0,0,1-277.1,104.885C-1956.283,1276.42-1956.369,1276.415-1956.453,1276.415Z" transform="translate(1950.382 289.496)" fill="#e4f9fa"/><path d="M0,103.336A103.336,103.336,0,0,0,103.336,206.672h.063V0h-.063A103.336,103.336,0,0,0,0,103.336" transform="translate(97.328 1250.794) rotate(180)" fill="#fff"/><g transform="translate(-6.071 1515.758)"><path d="M861.275,496.506C861.275,222.294,638.981,0,364.769,0c-.1,0-.2,0-.3,0v993c.1,0,.2,0,.3,0,274.213,0,496.506-222.294,496.506-496.506" transform="translate(-364.466 0)" fill="#e2fe0a"/></g><path d="M0,153.7A153.7,153.7,0,0,0,153.7,307.4h.094V0H153.7A153.7,153.7,0,0,0,0,153.7" transform="translate(147.725 2166.094) rotate(180)" fill="#fff"/></g></svg>